<?xml version="1.0" encoding="iso-8859-1"?>
<!-- Generator: Adobe Illustrator 19.0.0, SVG Export Plug-In . SVG Version: 6.00 Build 0)  -->
<svg version="1.1" id="Capa_1" xmlns="http://www.w3.org/2000/svg" xmlns:xlink="http://www.w3.org/1999/xlink" x="0px" y="0px"
	 viewBox="0 0 496 496" style="enable-background:new 0 0 496 496;" xml:space="preserve">
<g>
	<rect x="224" y="248" style="fill:#FFA64D;" width="80" height="96"/>
	<path style="fill:#FFA64D;" d="M328,160H200V96h128V160z"/>
	<polygon style="fill:#FFA64D;" points="48,0 32,24 32,176 64,176 64,24 	"/>
</g>
<g>
	<path style="fill:#333333;" d="M448,0H160c-26.472,0-48,21.528-48,48v320H0v80c0,26.472,21.528,48,48,48h320
		c26.472,0,48-21.528,48-48V160h80V48C496,21.528,474.472,0,448,0z M48,480c-17.648,0-32-14.352-32-32v-64h304v64
		c0,12.28,4.64,23.504,12.256,32H48z M400,48v400c0,17.648-14.352,32-32,32s-32-14.352-32-32v-80H128V48c0-17.648,14.352-32,32-32
		h252.32C404.688,24.504,400,35.696,400,48z M480,144h-64V48c0-17.648,14.352-32,32-32s32,14.352,32,32V144z"/>
	<path style="fill:#333333;" d="M360,64h-32V32H200v32h-32v272h-16v16h224v-16h-16V64z M184,80h96V64h-64V48h96v16h-16v16h48v256
		h-32v-80h16v-16H200v16h16v80h-32V80z M256,256v80h-24v-80H256z M272,256h24v80h-24V256z"/>
	<rect x="200" y="176" style="fill:#333333;" width="128" height="16"/>
	<rect x="200" y="208" style="fill:#333333;" width="128" height="16"/>
	<path style="fill:#333333;" d="M16,320c0,17.648,14.352,32,32,32s32-14.352,32-32V192h16v-16H0v16h16V320z M48,336
		c-8.824,0-16-7.176-16-16v-96h32v96C64,328.824,56.824,336,48,336z M64,208H32v-16h32V208z"/>
</g>
<g>
</g>
<g>
</g>
<g>
</g>
<g>
</g>
<g>
</g>
<g>
</g>
<g>
</g>
<g>
</g>
<g>
</g>
<g>
</g>
<g>
</g>
<g>
</g>
<g>
</g>
<g>
</g>
<g>
</g>
</svg>
