<?xml version="1.0" encoding="iso-8859-1"?>
<!-- Generator: Adobe Illustrator 19.0.0, SVG Export Plug-In . SVG Version: 6.00 Build 0)  -->
<svg version="1.1" id="Capa_1" xmlns="http://www.w3.org/2000/svg" xmlns:xlink="http://www.w3.org/1999/xlink" x="0px" y="0px"
	 viewBox="0 0 497.224 497.224" style="enable-background:new 0 0 497.224 497.224;" xml:space="preserve">
<g>
	<g>
		<g>
			<path d="M409.74,1.304L400.612,0v90.248l-33.616,4.608L351.388,1.224h-29.64L306.06,103.208l-17.448,2.392v6.976
				c0,0.216,0.048,0.432,0.056,0.648H64.612v-48h-32c-17.648,0-32,14.352-32,32v352c0,17.648,14.352,32,32,32h320.88
				c10.104,9.88,23.904,16,39.12,16c30.88,0,56-25.12,56-56V213.52c0-20.72,7.744-40.176,21.24-53.376
				c17.256-16.864,26.76-39.504,26.76-63.736C496.612,56.568,469.428,9.816,409.74,1.304z M335.476,17.224h2.36l13.304,79.808
				l-28.544,3.912L335.476,17.224z M32.612,465.224c-8.824,0-16-7.176-16-16c0-8.824,7.176-16,16-16h32v-32h-16v16h-16
				c-5.856,0-11.272,1.696-16,4.448V97.224c0-8.824,7.176-16,16-16h16v304h16v-256h227.184c4.792,13.368,14.84,26.624,28.704,36.952
				c10.096,7.512,16.112,19.48,16.112,32.016v243.032c0,8.6,2,16.712,5.48,24H32.612z M458.668,148.712
				c-16.56,16.184-26.056,39.808-26.056,64.808v227.704c0,22.056-17.944,40-40,40c-22.056,0-40-17.944-40-40V198.192
				c0-17.568-8.432-34.336-22.552-44.848c-12.864-9.584-21.944-22.272-24.632-33.896L416.612,104.2V18.856
				c43.896,10.312,64,46.48,64,77.552C480.612,116.304,472.82,134.872,458.668,148.712z"/>
			<path d="M392.612,233.224c-13.232,0-24,10.768-24,24v80h16v-80c0-4.408,3.592-8,8-8c4.408,0,8,3.592,8,8v120c0,4.408-3.592,8-8,8
				c-4.408,0-8-3.592-8-8v-24h-16v24c0,13.232,10.768,24,24,24s24-10.768,24-24v-120
				C416.612,243.992,405.844,233.224,392.612,233.224z"/>
			<path d="M392.612,417.224c-13.232,0-24,10.768-24,24s10.768,24,24,24s24-10.768,24-24S405.844,417.224,392.612,417.224z
				 M392.612,449.224c-4.408,0-8-3.592-8-8c0-4.408,3.592-8,8-8c4.408,0,8,3.592,8,8
				C400.612,445.632,397.02,449.224,392.612,449.224z"/>
			<path d="M360.612,185.224h64v-48h-64V185.224z M376.612,153.224h32v16h-32V153.224z"/>
			<path d="M277.444,254.336L296.78,235l-33.936-33.936L243.508,220.4c-6-3.36-12.312-5.992-18.888-7.848v-27.328h-48v27.32
				c-6.576,1.864-12.888,4.488-18.888,7.848l-19.336-19.336l-33.936,33.936l19.336,19.336c-3.36,6-5.992,12.312-7.848,18.888H88.612
				v48h27.32c1.864,6.576,4.488,12.888,7.848,18.888l-19.336,19.336l33.936,33.936l19.336-19.336c6,3.36,12.312,5.992,18.888,7.848
				v27.336h48v-27.32c6.576-1.864,12.888-4.488,18.888-7.848l19.336,19.336l33.936-33.936l-19.336-19.336
				c3.36-6,5.992-12.312,7.848-18.888h27.336v-48h-27.32C283.428,266.648,280.804,260.336,277.444,254.336z M296.612,305.224
				h-24.144l-1.304,6.408c-1.832,9.008-5.36,17.504-10.504,25.272l-3.608,5.456l17.096,17.096l-11.312,11.312l-17.096-17.096
				l-5.456,3.608c-7.76,5.144-16.264,8.672-25.272,10.504l-6.4,1.296v24.144h-16V369.08l-6.408-1.304
				c-9.008-1.832-17.504-5.36-25.272-10.504l-5.456-3.608L138.38,370.76l-11.312-11.312l17.096-17.096l-3.608-5.456
				c-5.144-7.76-8.672-16.264-10.504-25.272l-1.296-6.4h-24.144v-16h24.144l1.304-6.408c1.832-9.008,5.36-17.504,10.504-25.272
				l3.608-5.456l-17.096-17.096l11.312-11.312l17.096,17.096l5.456-3.608c7.76-5.144,16.264-8.672,25.272-10.504l6.4-1.296v-24.144
				h16v24.144l6.408,1.304c9.008,1.832,17.504,5.36,25.272,10.504l5.456,3.608l17.096-17.096L274.156,235l-17.096,17.096
				l3.608,5.456c5.144,7.76,8.672,16.264,10.504,25.272l1.296,6.4h24.144V305.224z"/>
			<path d="M200.612,257.224c-22.056,0-40,17.944-40,40c0,22.056,17.944,40,40,40c22.056,0,40-17.944,40-40
				C240.612,275.168,222.668,257.224,200.612,257.224z M200.612,321.224c-13.232,0-24-10.768-24-24s10.768-24,24-24s24,10.768,24,24
				S213.844,321.224,200.612,321.224z"/>
			<rect x="192.612" y="153.224" width="16" height="16"/>
			<rect x="160.612" y="153.224" width="16" height="16"/>
			<rect x="128.612" y="153.224" width="16" height="16"/>
			<rect x="96.612" y="153.224" width="16" height="16"/>
			<rect x="288.612" y="425.224" width="16" height="16"/>
			<rect x="256.612" y="425.224" width="16" height="16"/>
			<rect x="224.612" y="425.224" width="16" height="16"/>
			<rect x="192.612" y="425.224" width="16" height="16"/>
		</g>
	</g>
</g>
<g>
</g>
<g>
</g>
<g>
</g>
<g>
</g>
<g>
</g>
<g>
</g>
<g>
</g>
<g>
</g>
<g>
</g>
<g>
</g>
<g>
</g>
<g>
</g>
<g>
</g>
<g>
</g>
<g>
</g>
</svg>
