<?xml version="1.0" encoding="utf-8"?>
<!-- Generator: Adobe Illustrator 23.0.2, SVG Export Plug-In . SVG Version: 6.00 Build 0)  -->
<svg version="1.1" id="Capa_1" xmlns="http://www.w3.org/2000/svg" xmlns:xlink="http://www.w3.org/1999/xlink" x="0px" y="0px"
	 viewBox="0 0 497.2 497.2" style="enable-background:new 0 0 497.2 497.2;" xml:space="preserve">
<style type="text/css">
	.st0{fill:#23237A;}
</style>
<g>
	<g>
		<g>
			<path class="st0" d="M409.7,1.3L400.6,0v90.2L367,94.9L351.4,1.2h-29.6l-15.7,102l-17.4,2.4v7c0,0.2,0,0.4,0.1,0.6H64.6v-48h-32
				c-17.6,0-32,14.4-32,32v352c0,17.6,14.4,32,32,32h320.9c10.1,9.9,23.9,16,39.1,16c30.9,0,56-25.1,56-56V213.5
				c0-20.7,7.7-40.2,21.2-53.4c17.3-16.9,26.8-39.5,26.8-63.7C496.6,56.6,469.4,9.8,409.7,1.3z M335.5,17.2h2.4L351.1,97l-28.5,3.9
				L335.5,17.2z M32.6,465.2c-8.8,0-16-7.2-16-16s7.2-16,16-16h32v-32h-16v16h-16c-5.9,0-11.3,1.7-16,4.4V97.2c0-8.8,7.2-16,16-16
				h16v304h16v-256h227.2c4.8,13.4,14.8,26.6,28.7,37c10.1,7.5,16.1,19.5,16.1,32v243c0,8.6,2,16.7,5.5,24H32.6z M458.7,148.7
				c-16.6,16.2-26.1,39.8-26.1,64.8v227.7c0,22.1-17.9,40-40,40s-40-17.9-40-40v-243c0-17.6-8.4-34.3-22.6-44.8
				c-12.9-9.6-21.9-22.3-24.6-33.9l111.2-15.2V18.9c43.9,10.3,64,46.5,64,77.6C480.6,116.3,472.8,134.9,458.7,148.7z"/>
			<path class="st0" d="M392.6,233.2c-13.2,0-24,10.8-24,24v80h16v-80c0-4.4,3.6-8,8-8s8,3.6,8,8v120c0,4.4-3.6,8-8,8s-8-3.6-8-8
				v-24h-16v24c0,13.2,10.8,24,24,24s24-10.8,24-24v-120C416.6,244,405.8,233.2,392.6,233.2z"/>
			<path class="st0" d="M392.6,417.2c-13.2,0-24,10.8-24,24s10.8,24,24,24s24-10.8,24-24S405.8,417.2,392.6,417.2z M392.6,449.2
				c-4.4,0-8-3.6-8-8s3.6-8,8-8s8,3.6,8,8S397,449.2,392.6,449.2z"/>
			<path class="st0" d="M360.6,185.2h64v-48h-64V185.2z M376.6,153.2h32v16h-32V153.2z"/>
			<path class="st0" d="M277.4,254.3l19.3-19.3l-33.9-33.9l-19.3,19.3c-6-3.4-12.3-6-18.9-7.8v-27.3h-48v27.3
				c-6.6,1.9-12.9,4.5-18.9,7.8l-19.3-19.3L104.5,235l19.3,19.3c-3.4,6-6,12.3-7.8,18.9H88.6v48h27.3c1.9,6.6,4.5,12.9,7.8,18.9
				l-19.3,19.3l33.9,33.9l19.3-19.3c6,3.4,12.3,6,18.9,7.8v27.3h48v-27.3c6.6-1.9,12.9-4.5,18.9-7.8l19.3,19.3l33.9-33.9l-19.3-19.3
				c3.4-6,6-12.3,7.8-18.9h27.3v-48h-27.3C283.4,266.6,280.8,260.3,277.4,254.3z M296.6,305.2h-24.1l-1.3,6.4
				c-1.8,9-5.4,17.5-10.5,25.3l-3.6,5.5l17.1,17.1l-11.3,11.3l-17.1-17.1l-5.5,3.6c-7.8,5.1-16.3,8.7-25.3,10.5l-6.4,1.3v24.1h-16
				v-24.1l-6.4-1.3c-9-1.8-17.5-5.4-25.3-10.5l-5.5-3.6l-17.1,17.1l-11.3-11.3l17.1-17.1l-3.6-5.5c-5.1-7.8-8.7-16.3-10.5-25.3
				l-1.3-6.4h-24.1v-16h24.1l1.3-6.4c1.8-9,5.4-17.5,10.5-25.3l3.6-5.5L127.1,235l11.3-11.3l17.1,17.1l5.5-3.6
				c7.8-5.1,16.3-8.7,25.3-10.5l6.4-1.3v-24.1h16v24.1l6.4,1.3c9,1.8,17.5,5.4,25.3,10.5l5.5,3.6l17.1-17.1l11.3,11.3l-17.1,17.1
				l3.6,5.5c5.1,7.8,8.7,16.3,10.5,25.3l1.3,6.4h24.1V305.2z"/>
			<path class="st0" d="M200.6,257.2c-22.1,0-40,17.9-40,40s17.9,40,40,40s40-17.9,40-40S222.7,257.2,200.6,257.2z M200.6,321.2
				c-13.2,0-24-10.8-24-24s10.8-24,24-24s24,10.8,24,24S213.8,321.2,200.6,321.2z"/>
			<rect x="192.6" y="153.2" class="st0" width="16" height="16"/>
			<rect x="160.6" y="153.2" class="st0" width="16" height="16"/>
			<rect x="128.6" y="153.2" class="st0" width="16" height="16"/>
			<rect x="96.6" y="153.2" class="st0" width="16" height="16"/>
			<rect x="288.6" y="425.2" class="st0" width="16" height="16"/>
			<rect x="256.6" y="425.2" class="st0" width="16" height="16"/>
			<rect x="224.6" y="425.2" class="st0" width="16" height="16"/>
			<rect x="192.6" y="425.2" class="st0" width="16" height="16"/>
		</g>
	</g>
</g>
</svg>
