<?xml version="1.0" encoding="iso-8859-1"?>
<!-- Generator: Adobe Illustrator 19.0.0, SVG Export Plug-In . SVG Version: 6.00 Build 0)  -->
<svg version="1.1" id="Capa_1" xmlns="http://www.w3.org/2000/svg" xmlns:xlink="http://www.w3.org/1999/xlink" x="0px" y="0px"
	 viewBox="0 0 496 496" style="enable-background:new 0 0 496 496;" xml:space="preserve">
<g>
	<g>
		<g>
			<path d="M464,101.616V48H344V32h-32V0H184v32h-32v16H32v53.616C12.696,110.824,0,130.32,0,152v240c0,30.872,25.12,56,56,56h88v32
				h-32v16h272v-16h-32v-32h88c30.88,0,56-25.128,56-56V152C496,130.32,483.304,110.824,464,101.616z M168,48h96V32h-64V16h96v16
				h-16v16h48v256h-32v-80h16v-16H184v16h16v80h-32V48z M280,224v80h-24v-80H280z M240,224v80h-24v-80H240z M48,64h104v48H96v16h56
				v176h-16v16h224v-16h-16V128h56v-16h-56V64h104v272H48V64z M336,480H160v-32h176V480z M480,392c0,22.056-17.944,40-40,40H56
				c-22.056,0-40-17.944-40-40v-8h464V392z M480,368H16V152c0-12.752,6.128-24.496,16-31.92V352h432V120.08
				c9.872,7.424,16,19.168,16,31.92V368z"/>
			<path d="M312,64H184v64h128V64z M296,112h-96V80h96V112z"/>
			<rect x="184" y="144" width="128" height="16"/>
			<rect x="184" y="176" width="128" height="16"/>
			<rect x="64" y="80" width="16" height="16"/>
			<rect x="96" y="80" width="16" height="16"/>
			<rect x="384" y="80" width="16" height="16"/>
			<rect x="416" y="80" width="16" height="16"/>
		</g>
	</g>
</g>
<g>
</g>
<g>
</g>
<g>
</g>
<g>
</g>
<g>
</g>
<g>
</g>
<g>
</g>
<g>
</g>
<g>
</g>
<g>
</g>
<g>
</g>
<g>
</g>
<g>
</g>
<g>
</g>
<g>
</g>
</svg>
