<?xml version="1.0" encoding="utf-8"?>
<!-- Generator: Adobe Illustrator 23.0.2, SVG Export Plug-In . SVG Version: 6.00 Build 0)  -->
<svg version="1.1" id="Capa_1" xmlns="http://www.w3.org/2000/svg" xmlns:xlink="http://www.w3.org/1999/xlink" x="0px" y="0px"
	 viewBox="0 0 496 496" style="enable-background:new 0 0 496 496;" xml:space="preserve">
<style type="text/css">
	.st0{fill:#23237A;}
</style>
<g>
	<g>
		<g>
			<path class="st0" d="M464,101.6V48H344V32h-32V0H184v32h-32v16H32v53.6C12.7,110.8,0,130.3,0,152v240c0,30.9,25.1,56,56,56h88v32
				h-32v16h272v-16h-32v-32h88c30.9,0,56-25.1,56-56V152C496,130.3,483.3,110.8,464,101.6z M168,48h96V32h-64V16h96v16h-16v16h48
				v256h-32v-80h16v-16H184v16h16v80h-32V48z M280,224v80h-24v-80H280z M240,224v80h-24v-80H240z M48,64h104v48H96v16h56v176h-16v16
				h224v-16h-16V128h56v-16h-56V64h104v272H48V64z M336,480H160v-32h176V480z M480,392c0,22.1-17.9,40-40,40H56
				c-22.1,0-40-17.9-40-40v-8h464V392z M480,368H16V152c0-12.8,6.1-24.5,16-31.9V352h432V120.1c9.9,7.4,16,19.2,16,31.9V368z"/>
			<path class="st0" d="M312,64H184v64h128V64z M296,112h-96V80h96V112z"/>
			<rect x="184" y="144" class="st0" width="128" height="16"/>
			<rect x="184" y="176" class="st0" width="128" height="16"/>
			<rect x="64" y="80" class="st0" width="16" height="16"/>
			<rect x="96" y="80" class="st0" width="16" height="16"/>
			<rect x="384" y="80" class="st0" width="16" height="16"/>
			<rect x="416" y="80" class="st0" width="16" height="16"/>
		</g>
	</g>
</g>
</svg>
