<?xml version="1.0" encoding="utf-8"?>
<!-- Generator: Adobe Illustrator 23.0.2, SVG Export Plug-In . SVG Version: 6.00 Build 0)  -->
<svg version="1.1" id="Capa_1" xmlns="http://www.w3.org/2000/svg" xmlns:xlink="http://www.w3.org/1999/xlink" x="0px" y="0px"
	 viewBox="0 0 496 496" style="enable-background:new 0 0 496 496;" xml:space="preserve">
<style type="text/css">
	.st0{fill:#23237A;}
</style>
<g>
	<g>
		<g>
			<path class="st0" d="M308,224c11,0,20-9,20-20s-9-20-20-20s-20,9-20,20S297,224,308,224z M308,200c2.2,0,4,1.8,4,4s-1.8,4-4,4
				s-4-1.8-4-4S305.8,200,308,200z"/>
			<path class="st0" d="M208,204c0-11-9-20-20-20s-20,9-20,20s9,20,20,20S208,215,208,204z M188,208c-2.2,0-4-1.8-4-4s1.8-4,4-4
				s4,1.8,4,4S190.2,208,188,208z"/>
			<path class="st0" d="M384,345.7l-80-8.9v-8c24.5-14.2,43.2-37.5,51.4-65.2c20.5-1.8,36.6-18.8,36.6-39.7v-50.2
				c4.8-2.8,8-7.9,8-13.8v-16c0-6-3.4-11.2-8.3-13.9c-3-61.2-52-110.4-113.1-113.7C275.4,6.9,266.5,0,256,0h-16
				c-10.5,0-19.4,6.9-22.6,16.3c-61.1,3.4-110.1,52.5-113.1,113.7C99.4,132.8,96,138,96,144v16c0,5.9,3.2,11,8,13.8V224
				c0,20.9,16.2,37.9,36.6,39.7c8.2,27.7,26.8,50.9,51.4,65.2v8l-80,8.9c-36.5,4.1-64,34.8-64,71.6V472c0,13.2,10.8,24,24,24h112h8
				h112h120c13.2,0,24-10.8,24-24v-54.7C448,380.5,420.5,349.8,384,345.7z M314.3,354.1l3.5,13.9h-27.4c5.1-5,8.7-10.5,11-15.4
				L314.3,354.1z M358.9,246.9c0.6-4.9,1.1-9.8,1.1-14.9v-30.5c9.3,3.3,16,12.1,16,22.5C376,234.8,368.8,243.9,358.9,246.9z
				 M376,192.2c-4.7-3.5-10.1-6.2-16-7.4V176h16V192.2z M232,24c0-4.4,3.6-8,8-8h16c4.4,0,8,3.6,8,8v64c0,4.4-3.6,8-8,8h-16
				c-4.4,0-8-3.6-8-8V24z M216,32.4V88c0,13.2,10.8,24,24,24h16c13.2,0,24-10.8,24-24V32.4c13.1,1,25.6,4.5,36.9,9.9L290.1,128
				h-84.2l-26.8-85.7C190.4,36.9,202.9,33.4,216,32.4z M164.9,50.5l24.2,77.5h-68.7C122.9,95.9,139.9,67.9,164.9,50.5z M120,224
				c0-10.4,6.7-19.2,16-22.5V232c0,5.1,0.5,10,1.1,14.9C127.2,243.9,120,234.8,120,224z M120,192.2V176h16v8.8
				C130.1,186,124.7,188.7,120,192.2z M136,160h-24v-16h232v-16h-37.1l24.2-77.5c25,17.4,42,45.4,44.5,77.5H360v16h24v16h-24h-16
				H152H136z M152,232v-56h192v56c0,52.9-43.1,96-96,96S152,284.9,152,232z M288,336.5v6.3c-1.4,4.2-9.8,25.2-40,25.2
				c-30.2,0-38.6-20.9-40-25.2v-6.3c12.4,4.8,25.9,7.5,40,7.5S275.6,341.3,288,336.5z M181.7,354.1l12.9-1.4
				c2.3,4.9,5.9,10.4,11,15.4h-27.4L181.7,354.1z M120,480H72c-4.4,0-8-3.6-8-8v-54.7c0-28.6,21.4-52.5,49.8-55.7l51-5.7l-3,12H136
				v64h-24v-32H96v48h24V480z M192,480h-8h-48v-32h56c8.8,0,16,7.2,16,16S200.8,480,192,480z M276.4,480h-56.9
				c2.8-4.7,4.5-10.1,4.5-16c0-17.6-14.4-32-32-32h-40v-48h192v48h-40c-17.6,0-32,14.4-32,32C272,469.9,273.7,475.3,276.4,480z
				 M360,480h-56c-8.8,0-16-7.2-16-16s7.2-16,16-16h56V480z M432,472c0,4.4-3.6,8-8,8h-48v-32h24v-48h-16v32h-24v-64h-25.8l-3-12
				l51,5.7c28.4,3.2,49.8,27.1,49.8,55.6V472z"/>
			<path class="st0" d="M296,264h-16c0,17.6-14.4,32-32,32s-32-14.4-32-32h-16c0,26.5,21.5,48,48,48S296,290.5,296,264z"/>
		</g>
	</g>
</g>
</svg>
