<?xml version="1.0" encoding="utf-8"?>
<!-- Generator: Adobe Illustrator 23.0.2, SVG Export Plug-In . SVG Version: 6.00 Build 0)  -->
<svg version="1.1" id="Capa_1" xmlns="http://www.w3.org/2000/svg" xmlns:xlink="http://www.w3.org/1999/xlink" x="0px" y="0px"
	 viewBox="0 0 496 496" style="enable-background:new 0 0 496 496;" xml:space="preserve">
<style type="text/css">
	.st0{fill:#23237A;}
</style>
<g>
	<g>
		<g>
			<path class="st0" d="M366.5,232c11,0,20-9,20-20s-9-20-20-20s-20,9-20,20S355.4,232,366.5,232z M366.5,208c2.2,0,4,1.8,4,4
				s-1.8,4-4,4s-4-1.8-4-4S364.2,208,366.5,208z"/>
			<path class="st0" d="M278.5,232c11,0,20-9,20-20s-9-20-20-20s-20,9-20,20S267.4,232,278.5,232z M278.5,208c2.2,0,4,1.8,4,4
				s-1.8,4-4,4s-4-1.8-4-4S276.2,208,278.5,208z"/>
			<path class="st0" d="M282.5,264c0,22.1,17.9,40,40,40s40-17.9,40-40h-16c0,13.2-10.8,24-24,24s-24-10.8-24-24H282.5z"/>
			<path class="st0" d="M210.5,448h283.1l-26.4-79.1c-3.3-9.9-9.1-18.4-16.7-24.9V173.8c4.8-2.8,8-7.9,8-13.8v-16
				c0-6-3.4-11.2-8.3-13.9c-2.9-57.6-46.8-105.2-103.7-112.9V16c0-8.8-7.2-16-16-16h-16c-8.8,0-16,7.2-16,16v1.2
				c-56.9,7.6-100.8,55.3-103.7,112.9c-4.9,2.7-8.3,7.9-8.3,13.9v16c0,5.9,3.2,11,8,13.8V208h-16v-32h-56v-32h-16v32h-56v32h-32v272
				h-16v16h224v-16h-16V448z M106.5,480h-24v-80h24V480z M146.5,480h-24v-80h24V480z M194.5,480h-32v-80h16v-16h-128v16h16v80h-32
				V224h96v-16h-64v-16h96v16h-16v16h48V480z M210.5,432v-79.8c4.2-2.5,9-4.3,13.8-5.1l36.3-6.1l-11.5,28.8l16.2,16.2l-8,24
				l21.8,21.8L210.5,432L210.5,432z M273.9,322.7l-52.2,8.7c-3.8,0.6-7.6,1.7-11.2,3.2V216v-8v-32h16v64
				C226.5,275.2,245.5,305.9,273.9,322.7z M402.5,240c0,44.1-35.9,80-80,80s-80-35.9-80-80v-64h160V240z M418.5,240v-64h16v158.6
				c-3.6-1.4-7.3-2.6-11.2-3.2l-52.2-8.7C399.4,305.9,418.5,275.2,418.5,240z M301.8,432l-26.2-26.2l8-24l-15.8-15.8l11.2-28.1
				l4.5-0.7c0.5,2.2,1.2,4.2,2.1,6.2l19,88.5H301.8z M324,432h-3.1l-14.5-67.5c4.9,2.2,10.3,3.5,16,3.5s11.1-1.3,16-3.5L324,432z
				 M322.5,352c-9.6,0-17.8-5.7-21.6-13.8l-1.1-5.1c7.3,1.8,14.9,2.8,22.7,2.8s15.4-1,22.7-2.8l-1.1,5.1
				C340.2,346.3,332,352,322.5,352z M340.3,432l19-88.5c0.8-2,1.5-4.1,2.1-6.2l4.5,0.7l11.2,28.1l-15.8,15.8l8,24L343.1,432H340.3z
				 M452,374l19.4,58H433l-6.7-33.6l-15.7,3.1l6.1,30.4h-50.9l21.8-21.8l-8-24l16.2-16.2l-11.5-28.8l36.3,6.1
				C435.3,349.6,447.3,359.9,452,374z M314.5,16h16v80h-16V16L314.5,16z M298.5,33.3V96c0,8.8,7.2,16,16,16h16c8.8,0,16-7.2,16-16
				V33.3c9.5,1.5,18.6,4.3,27,8.2L355.9,128H289l-17.6-86.6C279.9,37.6,288.9,34.8,298.5,33.3z M256.7,49.7l15.9,78.3h-61.8
				C213.3,95.6,230.9,67,256.7,49.7z M202.5,144h200v-16h-30.2l15.9-78.3C414,67,431.6,95.6,434.1,128h-15.6v16h24v16h-240
				L202.5,144L202.5,144z"/>
			<path class="st0" d="M50.5,304h128v-64h-128C50.5,240,50.5,304,50.5,304z M66.5,256h96v32h-96C66.5,288,66.5,256,66.5,256z"/>
			<rect x="50.5" y="320" class="st0" width="128" height="16"/>
			<rect x="50.5" y="352" class="st0" width="128" height="16"/>
		</g>
	</g>
</g>
</svg>
