<?xml version="1.0" encoding="iso-8859-1"?>
<!-- Generator: Adobe Illustrator 19.0.0, SVG Export Plug-In . SVG Version: 6.00 Build 0)  -->
<svg version="1.1" id="Capa_1" xmlns="http://www.w3.org/2000/svg" xmlns:xlink="http://www.w3.org/1999/xlink" x="0px" y="0px"
	 viewBox="0 0 496 496" style="enable-background:new 0 0 496 496;" xml:space="preserve">
<g>
	<g>
		<g>
			<path d="M472,432h-24V188.464c4.584,2.272,9.624,3.536,14.76,3.536c18.328,0,33.24-14.912,33.24-33.536
				c0-11.752-6.296-22.736-16.432-28.672L258.168,0h-20.384L152,51.472V56h-2.072L72,99.296V104h-2.296L0,147.568V200h18.056
				L32,192.312V432h-8c-13.232,0-24,10.768-24,24v16c0,13.232,10.768,24,24,24h448c13.232,0,24-10.768,24-24v-16
				C496,442.768,485.232,432,472,432z M256,17.272l215.48,126.32c5.256,3.072,8.52,8.776,8.52,15.168
				c0,9.504-7.736,17.24-17.24,17.24c-3.016,0-6-0.8-8.616-2.312L256,59.384V17.272z M256,77.848l176,101.536V432H256V77.848z
				 M168,60.528l72-43.2V59.28L168,99V60.528z M88,108.712l64-35.56v34.68l-64,35.312V108.712z M240,77.552V176H61.56L240,77.552z
				 M184,384v-32h56v32H184z M240,400v32h-24v-32H240z M48,384v-32h56v32H48z M72,400v32H48v-32H72z M48,336v-32h24v32H48z M88,400
				h48v32H88V400z M120,384v-32h48v32H120z M152,336v-32h48v32H152z M152,400h48v32h-48V400z M216,336v-32h24v32H216z M120,288v16
				h16v32H88v-32h16v-16H48v-96h192v96H120z M16,182.864v-26.432l56-35v30.536L16,182.864z M480,472c0,4.408-3.592,8-8,8H24
				c-4.408,0-8-3.592-8-8v-16c0-4.408,3.592-8,8-8h448c4.408,0,8,3.592,8,8V472z"/>
			<path d="M272,352h144V224H272V352z M352,240h48v40h-48V240z M352,296h48v40h-48V296z M288,240h48v40h-48V240z M288,296h48v40h-48
				V296z"/>
		</g>
	</g>
</g>
<g>
</g>
<g>
</g>
<g>
</g>
<g>
</g>
<g>
</g>
<g>
</g>
<g>
</g>
<g>
</g>
<g>
</g>
<g>
</g>
<g>
</g>
<g>
</g>
<g>
</g>
<g>
</g>
<g>
</g>
</svg>
