<?xml version="1.0" encoding="iso-8859-1"?>
<!-- Generator: Adobe Illustrator 19.0.0, SVG Export Plug-In . SVG Version: 6.00 Build 0)  -->
<svg version="1.1" id="Capa_1" xmlns="http://www.w3.org/2000/svg" xmlns:xlink="http://www.w3.org/1999/xlink" x="0px" y="0px"
	 viewBox="0 0 496 496" style="enable-background:new 0 0 496 496;" xml:space="preserve">
<g>
	<g>
		<path d="M432,176h64v-19.312l-44.536-44.536C454.28,107.392,456,101.92,456,96c0-17.648-14.352-32-32-32
			c-2.136,0-4.216,0.232-6.232,0.632l0.096-0.408l-200-48l-22.528-0.192L179.312,0h-21.736L32,83.72V96v8v64H0v96h32v232h64V160h32
			v336h144V176h112v128h0.248c-7.76,5.776-13.44,14.192-15.44,24H320v112h176V328h-48.808c-2-9.808-7.68-18.224-15.44-24H432V176z
			 M424,80c8.824,0,16,7.176,16,16s-7.176,16-16,16c-8.824,0-16-7.176-16-16S415.176,80,424,80z M424,128
			c5.92,0,11.392-1.72,16.152-4.536l4.536,4.536H424h-28.688l7.888-7.888C408.808,124.96,416.024,128,424,128z M215.056,32
			l184.032,44.168c-2.432,3.048-4.28,6.512-5.48,10.312l-143.96-30.312l-14.304-0.136L211.312,32H215.056z M408,312
			c10.416,0,19.216,6.712,22.528,16h-45.056C388.784,318.712,397.584,312,408,312z M400,296.808V176h16v120.808
			c-2.584-0.528-5.264-0.808-8-0.808C405.264,296,402.584,296.28,400,296.808z M388.688,112L376,124.688L363.312,112H388.688z
			 M80,480H48V264h32V480z M80,248H16v-64h16v32h48V248z M80,200H48v-32v-56h32V200z M88,96H48v-3.72l97.56-65.04L99.72,96H96H88z
			 M128,144H96v-32h32V144z M128,96h-9.056l53.336-80h0.408l80,80H136H128z M200,354l40,30h-80L200,354z M144,376v-64l42.664,32
			L144,376z M160,304h80l-40,30L160,304z M144,280v-64l42.664,32L144,280z M160,288l40-30l40,30H160z M160,208h80l-40,30L160,208z
			 M160,192l40-30l40,30H160z M144,184v-64l42.672,32L144,184z M144,408l14.384,10.784l9.6-12.8L160,400h80l-40,30l-20.2-15.152
			l-9.6,12.8L186.672,440L144,472V408z M160,480l40-30l40,30H160z M256,472l-42.664-32L256,408V472z M256,376l-42.664-32L256,312
			V376z M256,280l-42.664-32L256,216V280z M256,184l-42.664-32l12.8-9.6l-9.6-12.8L200,142l-40-30h80l-10.872,8.152l9.6,12.8
			L256,120V184z M276.688,160H272v-16h20.688L276.688,160z M272,128v-16h4.688l16,16H272z M299.312,160L312,147.312L324.688,160
			H299.312z M312,124.688L299.312,112h25.376L312,124.688z M344,156.688L331.312,144h25.376L344,156.688z M331.312,128L344,115.312
			L356.688,128H331.312z M272,96v-3.312l-19.584-19.584L361.168,96H272z M363.312,160L376,147.312L388.688,160H363.312z M352,424
			h-16v-48h16V424z M384,424h-16v-48h16V424z M416,424h-16v-48h16V424z M480,424h-16v-16h-16v16h-16v-48h16v16h16v-16h16V424z
			 M480,344v16H336v-16H480z M411.312,160l-16-16h65.376l16,16H411.312z"/>
	</g>
</g>
<g>
</g>
<g>
</g>
<g>
</g>
<g>
</g>
<g>
</g>
<g>
</g>
<g>
</g>
<g>
</g>
<g>
</g>
<g>
</g>
<g>
</g>
<g>
</g>
<g>
</g>
<g>
</g>
<g>
</g>
</svg>
