<?xml version="1.0" encoding="iso-8859-1"?>
<!-- Generator: Adobe Illustrator 19.0.0, SVG Export Plug-In . SVG Version: 6.00 Build 0)  -->
<svg version="1.1" id="Capa_1" xmlns="http://www.w3.org/2000/svg" xmlns:xlink="http://www.w3.org/1999/xlink" x="0px" y="0px"
	 viewBox="0 0 496 496" style="enable-background:new 0 0 496 496;" xml:space="preserve">
<g>
	<g>
		<g>
			<path d="M464,101.616V0H32v101.616C12.696,110.824,0,130.32,0,152v240c0,30.88,25.128,56,56,56h88v32h-32v16h272v-16h-32v-32h88
				c30.872,0,56-25.12,56-56V152C496,130.32,483.304,110.824,464,101.616z M48,80h368V64H48V16h400v48h-16v16h16v272H48V80z
				 M336,480H160v-32h176V480z M440,432H56c-19.312,0-35.472-13.768-39.192-32h462.384C475.472,418.232,459.312,432,440,432z
				 M480,384H16V152c0-12.752,6.128-24.496,16-31.92V368h432V120.08c9.872,7.424,16,19.168,16,31.92V384z"/>
			<rect x="64" y="32" width="16" height="16"/>
			<rect x="96" y="32" width="16" height="16"/>
			<rect x="128" y="32" width="16" height="16"/>
			<path d="M320,112h-48V96h-48v16h-48V96h-48v48h16v48h-16v48h16v48h-16v48h48v-16h48v16h48v-16h48v16h48v-48h-16v-48h16v-48h-16
				v-48h16V96h-48V112z M240,112h16v16h-16V112z M144,112h16v16h-16V112z M144,208h16v16h-16V208z M160,320h-16v-16h16V320z
				 M256,320h-16v-16h16V320z M352,320h-16v-16h16V320z M352,224h-16v-16h16V224z M336,112h16v16h-16V112z M336,192h-16v48h16v48
				h-16v16h-48v-16h-48v16h-48v-16h-16v-48h16v-48h-16v-48h16v-16h48v16h48v-16h48v16h16V192z"/>
			<path d="M192,272h131.312L192,140.688V272z M208,179.312L284.688,256H208V179.312z"/>
		</g>
	</g>
</g>
<g>
</g>
<g>
</g>
<g>
</g>
<g>
</g>
<g>
</g>
<g>
</g>
<g>
</g>
<g>
</g>
<g>
</g>
<g>
</g>
<g>
</g>
<g>
</g>
<g>
</g>
<g>
</g>
<g>
</g>
</svg>
