<?xml version="1.0" encoding="iso-8859-1"?>
<!-- Generator: Adobe Illustrator 19.0.0, SVG Export Plug-In . SVG Version: 6.00 Build 0)  -->
<svg version="1.1" id="Capa_1" xmlns="http://www.w3.org/2000/svg" xmlns:xlink="http://www.w3.org/1999/xlink" x="0px" y="0px"
	 viewBox="0 0 496 496" style="enable-background:new 0 0 496 496;" xml:space="preserve">
<g>
	<g>
		<g>
			<path d="M308,224c11.032,0,20-8.976,20-20s-8.968-20-20-20c-11.032,0-20,8.976-20,20S296.968,224,308,224z M308,200
				c2.2,0,4,1.792,4,4s-1.8,4-4,4s-4-1.792-4-4S305.8,200,308,200z"/>
			<path d="M208,204c0-11.024-8.968-20-20-20s-20,8.976-20,20s8.968,20,20,20S208,215.024,208,204z M188,208c-2.2,0-4-1.792-4-4
				s1.8-4,4-4s4,1.792,4,4S190.2,208,188,208z"/>
			<path d="M383.952,345.728L304,336.84v-7.992c24.528-14.24,43.176-37.456,51.368-65.184C375.832,261.912,392,244.904,392,224
				v-50.224c4.76-2.776,8-7.88,8-13.776v-16c0-6.016-3.376-11.208-8.304-13.936c-3.016-61.192-51.96-110.368-113.064-113.728
				C275.416,6.872,266.536,0,256,0h-16c-10.536,0-19.416,6.872-22.632,16.336c-61.104,3.36-110.056,52.536-113.072,113.728
				C99.376,132.792,96,137.984,96,144v16c0,5.896,3.24,11,8,13.776V224c0,20.904,16.168,37.912,36.632,39.656
				c8.192,27.728,26.84,50.944,51.368,65.184v7.992l-79.952,8.888C75.528,349.784,48,380.544,48,417.28V472
				c0,13.232,10.768,24,24,24h112h8h112h120c13.232,0,24-10.768,24-24v-54.72C448,380.544,420.472,349.784,383.952,345.728z
				 M314.28,354.088L317.76,368h-27.392c5.12-4.992,8.728-10.456,10.984-15.352L314.28,354.088z M358.896,246.872
				c0.648-4.88,1.104-9.816,1.104-14.872v-30.528c9.288,3.312,16,12.112,16,22.528C376,234.824,368.76,243.888,358.896,246.872z
				 M376,192.208c-4.672-3.536-10.056-6.184-16-7.392V176h16V192.208z M232,24c0-4.408,3.584-8,8-8h16c4.416,0,8,3.592,8,8v64
				c0,4.408-3.584,8-8,8h-16c-4.416,0-8-3.592-8-8V24z M216,32.408V88c0,13.232,10.768,24,24,24h16c13.232,0,24-10.768,24-24V32.408
				c13.136,1.008,25.568,4.472,36.896,9.928L290.12,128h-84.24l-26.768-85.664C190.44,36.88,202.864,33.416,216,32.408z
				 M164.912,50.52L189.12,128H120.4C122.864,95.92,139.88,67.88,164.912,50.52z M120,224c0-10.416,6.712-19.216,16-22.528V232
				c0,5.056,0.456,9.992,1.104,14.872C127.248,243.888,120,234.824,120,224z M120,192.2V176h16v8.808
				C130.056,186.024,124.672,188.664,120,192.2z M136,160h-24v-16h232v-16h-37.12l24.216-77.48
				c25.024,17.36,42.04,45.4,44.496,77.48h-15.6v16H384v16h-24h-16H152H136z M152,232v-56h192v56c0,52.936-43.064,96-96,96
				C195.064,328,152,284.936,152,232z M288,336.488v6.344C286.624,347,278.216,368,248,368c-30.208,0-38.6-20.904-40-25.168v-6.344
				c12.44,4.784,25.896,7.512,40,7.512S275.56,341.272,288,336.488z M181.72,354.08l12.928-1.44
				c2.256,4.904,5.872,10.368,10.984,15.36H178.24L181.72,354.08z M120,480H72c-4.416,0-8-3.592-8-8v-54.72
				c0-28.568,21.416-52.496,49.816-55.656l50.952-5.664L161.76,368H136v64h-24v-32H96v48h24V480z M192,480h-8h-48v-32h56
				c8.824,0,16,7.176,16,16C208,472.824,200.824,480,192,480z M276.448,480h-56.904c2.76-4.728,4.456-10.144,4.456-16
				c0-17.648-14.352-32-32-32h-40v-48h192v48h-40c-17.648,0-32,14.352-32,32C272,469.856,273.696,475.272,276.448,480z M360,480h-56
				c-8.824,0-16-7.176-16-16c0-8.824,7.176-16,16-16h56V480z M432,472c0,4.408-3.584,8-8,8h-48v-32h24v-48h-16v32h-24v-64h-25.76
				l-3.008-12.032l50.952,5.664c28.4,3.152,49.816,27.08,49.816,55.648V472z"/>
			<path d="M296,264h-16c0,17.648-14.352,32-32,32s-32-14.352-32-32h-16c0,26.472,21.528,48,48,48S296,290.472,296,264z"/>
		</g>
	</g>
</g>
<g>
</g>
<g>
</g>
<g>
</g>
<g>
</g>
<g>
</g>
<g>
</g>
<g>
</g>
<g>
</g>
<g>
</g>
<g>
</g>
<g>
</g>
<g>
</g>
<g>
</g>
<g>
</g>
<g>
</g>
</svg>
