<?xml version="1.0" encoding="iso-8859-1"?>
<!-- Generator: Adobe Illustrator 19.0.0, SVG Export Plug-In . SVG Version: 6.00 Build 0)  -->
<svg version="1.1" id="Capa_1" xmlns="http://www.w3.org/2000/svg" xmlns:xlink="http://www.w3.org/1999/xlink" x="0px" y="0px"
	 viewBox="0 0 496 496" style="enable-background:new 0 0 496 496;" xml:space="preserve">
<g>
	<g>
		<g>
			<path d="M448,0H160c-26.472,0-48,21.528-48,48v320H0v80c0,26.472,21.528,48,48,48h320c26.472,0,48-21.528,48-48V160h80V48
				C496,21.528,474.472,0,448,0z M48,480c-17.648,0-32-14.352-32-32v-64h304v64c0,12.28,4.64,23.504,12.248,32H48z M400,48v400
				c0,17.648-14.352,32-32,32s-32-14.352-32-32v-80H128V48c0-17.648,14.352-32,32-32h252.32C404.688,24.504,400,35.696,400,48z
				 M480,144h-64V48c0-17.648,14.352-32,32-32s32,14.352,32,32V144z"/>
			<path d="M152,352h224v-16h-16V64h-32V32H200v32h-32v272h-16V352z M256,336h-24v-80h24V336z M296,336h-24v-80h24V336z M184,80h96
				V64h-64V48h96v16h-16v16h48v256h-32v-80h16v-16H200v16h16v80h-32V80z"/>
			<path d="M328,96H200v64h128V96z M312,144h-96v-32h96V144z"/>
			<rect x="200" y="176" width="128" height="16"/>
			<rect x="200" y="208" width="128" height="16"/>
			<path d="M16,320c0,17.648,14.352,32,32,32s32-14.352,32-32V192h16v-16H72V37.576l-24-36l-24,36V176H0v16h16V320z M40,42.424l8-12
				l8,12V176H40V42.424z M32,192h32v16H32V192z M32,224h32v96c0,8.824-7.176,16-16,16s-16-7.176-16-16V224z"/>
		</g>
	</g>
</g>
<g>
</g>
<g>
</g>
<g>
</g>
<g>
</g>
<g>
</g>
<g>
</g>
<g>
</g>
<g>
</g>
<g>
</g>
<g>
</g>
<g>
</g>
<g>
</g>
<g>
</g>
<g>
</g>
<g>
</g>
</svg>
