<?xml version="1.0" encoding="iso-8859-1"?>
<!-- Generator: Adobe Illustrator 19.0.0, SVG Export Plug-In . SVG Version: 6.00 Build 0)  -->
<svg version="1.1" id="Capa_1" xmlns="http://www.w3.org/2000/svg" xmlns:xlink="http://www.w3.org/1999/xlink" x="0px" y="0px"
	 viewBox="0 0 497.28 497.28" style="enable-background:new 0 0 497.28 497.28;" xml:space="preserve">
<g>
	<g>
		<path d="M480.64,224.64h16.64l-17.232-224H17.232L0,224.64h16.64v88h-16v96h16v88h464v-93.808c9.928-11.28,16-26.024,16-42.192
			c0-16.168-6.072-30.912-16-42.192V224.64z M409.232,16.64l12.352,160.616l15.952-1.232L425.28,16.64h39.952l14.768,192h-39.952
			l-1.28-16.616l-15.952,1.232L424,208.64h-39.952l-14.768-192H409.232z M256.64,312.64c-10.416,0-19.216,6.712-22.528,16h-118.16
			l-16-16H32.64v-88h432v80.656c-9.424-5.472-20.336-8.656-32-8.656h-136c-10.416,0-19.216,6.712-22.528,16H256.64z M272.64,328.64
			v64h-16c-4.408,0-8-3.584-8-8v-8v-32v-8c0-4.416,3.592-8,8-8H272.64z M353.232,16.64l14.768,192h-47.664l-7.384-192H353.232z
			 M256.64,16.64h40.304l7.384,192H256.64V16.64z M200.336,16.64h40.304v192h-47.688L200.336,16.64z M144.048,16.64h40.28
			l-7.384,192H129.28L144.048,16.64z M88.048,16.64H128l-14.768,192H73.28L88.048,16.64z M32.048,16.64H72l-14.768,192H17.28
			L32.048,16.64z M16.64,328.64h76.688l16,16H232.64v32H109.328l-16,16H16.64V328.64z M464.64,480.64h-432v-72h67.312l16-16h118.16
			c3.312,9.288,12.112,16,22.528,16h17.472c3.312,9.288,12.112,16,22.528,16h136c11.664,0,22.576-3.184,32-8.656V480.64z
			 M432.64,408.64h-136c-4.408,0-8-3.584-8-8v-8h128c17.648,0,32-14.352,32-32s-14.352-32-32-32h-96v16h96c8.824,0,16,7.176,16,16
			c0,8.824-7.176,16-16,16h-128v-32h16v-16h-16v-8c0-4.416,3.592-8,8-8h136c26.472,0,48,21.528,48,48S459.112,408.64,432.64,408.64z
			"/>
	</g>
</g>
<g>
</g>
<g>
</g>
<g>
</g>
<g>
</g>
<g>
</g>
<g>
</g>
<g>
</g>
<g>
</g>
<g>
</g>
<g>
</g>
<g>
</g>
<g>
</g>
<g>
</g>
<g>
</g>
<g>
</g>
</svg>
