<?xml version="1.0" encoding="iso-8859-1"?>
<!-- Generator: Adobe Illustrator 19.0.0, SVG Export Plug-In . SVG Version: 6.00 Build 0)  -->
<svg version="1.1" id="Capa_1" xmlns="http://www.w3.org/2000/svg" xmlns:xlink="http://www.w3.org/1999/xlink" x="0px" y="0px"
	 viewBox="0 0 496 496" style="enable-background:new 0 0 496 496;" xml:space="preserve">
<g>
	<g>
		<g>
			<path d="M493.656,66.344c-31.88-31.888-74.104-49.6-119.096-50.224C371.28,6.768,362.456,0,352,0h-32
				c-10.456,0-19.28,6.768-22.56,16.12c-44.992,0.624-87.216,18.336-119.096,50.224L176,68.688v29.28l34.872-7.744
				c28.424-6.32,57.544-9.608,86.656-10.048c2.448,6.696,7.752,11.952,14.472,14.352V496h48V94.528
				c6.72-2.392,12.024-7.656,14.472-14.352c29.112,0.44,58.232,3.728,86.656,10.048L496,97.968v-29.28L493.656,66.344z M296,64.216
				c-29.768,0.544-59.536,3.936-88.592,10.384L192,78.032V75.36c28.216-27.08,64.92-42.224,104-43.176V64.216z M344,480h-16V96h16
				V480z M360,72c0,4.416-3.584,8-8,8h-32c-4.416,0-8-3.584-8-8V24c0-4.416,3.584-8,8-8h32c4.416,0,8,3.584,8,8V72z M480,78.032
				L464.592,74.6c-29.056-6.448-58.824-9.84-88.592-10.384V32.184c39.08,0.952,75.784,16.088,104,43.176V78.032z"/>
			<path d="M120,108.28l24-16V24c0-13.232-10.768-24-24-24H56C42.768,0,32,10.768,32,24v68.28l24,16V304H0v104
				c0,48.52,39.48,88,88,88s88-39.48,88-88V304h-56V108.28z M48,83.72V56h48V40H48V24c0-4.416,3.584-8,8-8h64c4.416,0,8,3.584,8,8
				v16h-16v16h16v27.72l-24,16v267.16l-13.504,47.232c-0.624,2.216-4.376,2.224-5-0.008L72,366.88V99.72L48,83.72z M160,320v88
				c0,39.704-32.296,72-72,72s-72-32.296-72-72v-88h40v48l14.112,50.496C72.376,426.448,79.736,432,88,432
				s15.624-5.552,17.888-13.504L120,369.12V320H160z"/>
		</g>
	</g>
</g>
<g>
</g>
<g>
</g>
<g>
</g>
<g>
</g>
<g>
</g>
<g>
</g>
<g>
</g>
<g>
</g>
<g>
</g>
<g>
</g>
<g>
</g>
<g>
</g>
<g>
</g>
<g>
</g>
<g>
</g>
</svg>
