<?xml version="1.0" encoding="iso-8859-1"?>
<!-- Generator: Adobe Illustrator 19.0.0, SVG Export Plug-In . SVG Version: 6.00 Build 0)  -->
<svg version="1.1" id="Capa_1" xmlns="http://www.w3.org/2000/svg" xmlns:xlink="http://www.w3.org/1999/xlink" x="0px" y="0px"
	 viewBox="0 0 496 496" style="enable-background:new 0 0 496 496;" xml:space="preserve">
<g>
	<g>
		<path d="M232,80V64h264V16H232V0h-96v16H0v48h136v16h24v57.472c-9.288,3.312-16,12.112-16,22.528v41.472
			c-9.288,3.312-16,12.112-16,22.528v29.312l-30.408,11.056C67.928,275.152,48,303.6,48,335.168c0,6.544,0.856,13.08,2.544,19.416
			l26.144,98.04C79.736,464.032,90.104,472,101.904,472C116.296,472,128,460.296,128,445.904v-3.184
			c0-2.568-0.384-5.144-1.152-7.672l-29.944-97.32c-0.6-1.936-0.904-3.96-0.904-6.008c0-8.48,5.336-16.168,13.272-19.152
			L144,299.544V312h16v160c0,13.232,10.768,24,24,24s24-10.768,24-24V312h16v-12.456l34.728,13.024
			C266.664,315.544,272,323.24,272,331.72c0,2.048-0.304,4.072-0.904,6.016l-29.952,97.344c-0.76,2.496-1.144,5.072-1.144,7.64
			v3.184C240,460.296,251.704,472,266.096,472c11.808,0,22.168-7.968,25.216-19.376l26.144-98.04
			c1.688-6.336,2.544-12.864,2.544-19.416c0-31.568-19.928-60.024-49.592-70.808L240,253.312V224c0-10.416-6.712-19.216-16-22.528
			V160c0-10.416-6.712-19.216-16-22.528V80H232z M264,32h216v16H264V32z M232,32h16v16h-16V32z M104,48H16V32h88V48z M136,48h-16V32
			h16V48z M144,282.456l-40.352,15.136C89.504,302.888,80,316.608,80,331.72c0,3.648,0.536,7.248,1.608,10.72l29.936,97.28
			c0.304,0.992,0.456,2,0.456,3v3.184c0,5.568-4.528,10.096-10.096,10.096c-4.568,0-8.584-3.088-9.768-7.504L66,350.464
			c-1.328-4.984-2-10.136-2-15.296c0-24.864,15.696-47.28,39.064-55.776L144,264.512V282.456z M192,472c0,4.416-3.584,8-8,8
			s-8-3.584-8-8V312h16V472z M208,296h-48v-32h48V296z M264.936,279.4C288.304,287.888,304,310.304,304,335.168
			c0,5.16-0.672,10.304-2,15.288l-26.144,98.04c-1.176,4.416-5.192,7.504-9.76,7.504c-5.568,0-10.096-4.528-10.096-10.096v-3.184
			c0-1,0.152-2.008,0.448-2.968l29.944-97.304c1.072-3.48,1.608-7.08,1.608-10.728c0-15.112-9.504-28.832-23.648-34.136L224,282.456
			v-17.944L264.936,279.4z M216,216c4.416,0,8,3.584,8,8v24h-80v-24c0-4.416,3.584-8,8-8h40v-16h-32v-40c0-4.416,3.584-8,8-8h32
			c4.416,0,8,3.584,8,8v40v8v8H216z M176,136V80h16v56H176z M152,64V16h64v48H152z"/>
	</g>
</g>
<g>
</g>
<g>
</g>
<g>
</g>
<g>
</g>
<g>
</g>
<g>
</g>
<g>
</g>
<g>
</g>
<g>
</g>
<g>
</g>
<g>
</g>
<g>
</g>
<g>
</g>
<g>
</g>
<g>
</g>
</svg>
