<?xml version="1.0" encoding="iso-8859-1"?>
<!-- Generator: Adobe Illustrator 19.0.0, SVG Export Plug-In . SVG Version: 6.00 Build 0)  -->
<svg version="1.1" id="Capa_1" xmlns="http://www.w3.org/2000/svg" xmlns:xlink="http://www.w3.org/1999/xlink" x="0px" y="0px"
	 viewBox="0 0 499.312 499.312" style="enable-background:new 0 0 499.312 499.312;" xml:space="preserve">
<g>
	<g>
		<g>
			<path d="M436.688,99.312h38.624l24-24L424,0l-24,24v38.624l0.688,0.688l-84,84h-56L224,184v51.792
				c-23.76-16.008-51.2-24.48-80-24.48c-79.4,0-144,64.6-144,144s64.6,144,144,144h320v-16H209.672
				c46.432-23.928,78.328-72.264,78.328-128c0-29.816-9.12-58.136-26.232-82.456l9.368-9.368l18.464,24.624l12.8-9.592
				l-19.84-26.448L436,98.632L436.688,99.312z M416,30.624l8-8l52.688,52.688l-8,8h-25.376L416,56V30.624z M240,190.624
				l27.312-27.312h33.376L240,224V190.624z M272,355.312c0,70.576-57.424,128-128,128s-128-57.424-128-128s57.424-128,128-128
				c25.552,0,49.896,7.504,71,21.688l-11.552,11.552c-17.88-11.264-38.272-17.24-59.448-17.24c-61.76,0-112,50.24-112,112
				s50.24,112,112,112s112-50.24,112-112c0-21.184-5.976-41.576-17.24-59.448l11.552-11.552C264.496,305.408,272,329.76,272,355.312
				z M197.072,337.552l30.04-30.04C235.536,322.064,240,338.4,240,355.312c0,52.936-43.064,96-96,96c-52.936,0-96-43.064-96-96
				c0-52.936,43.064-96,96-96c16.912,0,33.24,4.464,47.792,12.896L161.76,302.24c-5.736-1.936-11.688-2.928-17.76-2.928
				c-30.88,0-56,25.128-56,56s25.12,56,56,56s56-25.128,56-56C200,349.232,199.008,343.288,197.072,337.552z M190.248,321.752
				l-35.904,35.904l11.312,11.312l18.096-18.096c0.168,1.472,0.248,2.944,0.248,4.44c0,22.056-17.944,40-40,40
				c-22.056,0-40-17.944-40-40c0-22.056,17.944-40,40-40c1.432,0,2.824,0.304,4.232,0.456l-17.888,17.888l11.312,11.312L412,74.624
				l12.688,12.688L190.248,321.752z"/>
			<rect x="480" y="483.312" width="16" height="16"/>
		</g>
	</g>
</g>
<g>
</g>
<g>
</g>
<g>
</g>
<g>
</g>
<g>
</g>
<g>
</g>
<g>
</g>
<g>
</g>
<g>
</g>
<g>
</g>
<g>
</g>
<g>
</g>
<g>
</g>
<g>
</g>
<g>
</g>
</svg>
