<?xml version="1.0" encoding="iso-8859-1"?>
<!-- Generator: Adobe Illustrator 19.0.0, SVG Export Plug-In . SVG Version: 6.00 Build 0)  -->
<svg version="1.1" id="Capa_1" xmlns="http://www.w3.org/2000/svg" xmlns:xlink="http://www.w3.org/1999/xlink" x="0px" y="0px"
	 viewBox="0 0 496 496" style="enable-background:new 0 0 496 496;" xml:space="preserve">
<g>
	<g>
		<g>
			<path d="M136,144c-17.648,0-32,14.352-32,32v88c0,17.648,14.352,32,32,32s32-14.352,32-32v-88C168,158.352,153.648,144,136,144z
				 M152,264c0,8.824-7.176,16-16,16c-8.824,0-16-7.176-16-16v-88c0-8.824,7.176-16,16-16c8.824,0,16,7.176,16,16V264z"/>
			<path d="M136,464c13.232,0,24-10.768,24-24s-10.768-24-24-24s-24,10.768-24,24S122.768,464,136,464z M136,432
				c4.408,0,8,3.584,8,8c0,4.416-3.592,8-8,8s-8-3.584-8-8C128,435.584,131.592,432,136,432z"/>
			<path d="M411.312,96H216V80H88V64h128V40c0-22.056-17.944-40-40-40H54.896C24.632,0,0,24.624,0,54.896
				c0,18.224,8.968,35.152,24,45.376v32.656c-14.896,12.928-24,31.92-24,52.928c0,21,9.328,39.832,24,52.696V264
				c0,17.648,14.352,32,32,32c5.856,0,11.272-1.696,16-4.448V328h16v120c0,26.472,21.528,48,48,48c14.168,0,26.88-6.208,35.68-16
				H496V180.688L411.312,96z M416,123.312L468.688,176H416V123.312z M72,264c0,8.824-7.176,16-16,16s-16-7.176-16-16v-14.904
				C49.152,253.472,59.344,256,70.152,256H72V264z M72,208c-13.232,0-24-10.768-24-24s10.768-24,24-24V208z M72,144
				c-22.056,0-40,17.944-40,40c0,22.056,17.944,40,40,40v16h-1.848C40.288,240,16,215.712,16,185.848
				C16,160.28,33.432,138.544,58.4,133l13.6-3.024V144z M72,32v16v8v57.712l-17.072,3.656c-5.264,1.176-10.232,2.96-14.928,5.168
				V91.72l-6.672-4.456C22.48,80.04,16,67.936,16,54.896C16,33.456,33.448,16,54.896,16H176c13.232,0,24,10.768,24,24v8h-16V32h-16
				v16h-16V32h-16v16h-16V32h-16v16H88V32H72z M168,448c0,17.648-14.352,32-32,32s-32-14.352-32-32V328h64V448z M88,312v-48v-16v-8
				V128h16v-16H88V96h112v4.688L188.688,112H120v16h64v184H88z M480,464H181.2c1.784-5.016,2.8-10.384,2.8-16V328h16V123.312
				L211.312,112H400v80h80V464z"/>
			<path d="M368,128H232v32h-16v288h168V160h-16V128z M248,144h104v16H248V144z M320,432h-40v-64h40V432z M368,432h-32v-64h16v-16
				H248v16h16v64h-32V176h136V432z"/>
			<path d="M352,192H248v56h104V192z M336,232h-72v-24h72V232z"/>
			<rect x="248" y="264" width="104" height="16"/>
			<rect x="248" y="296" width="104" height="16"/>
			<rect x="400" y="432" width="16" height="16"/>
			<rect x="400" y="400" width="16" height="16"/>
			<rect x="400" y="368" width="16" height="16"/>
		</g>
	</g>
</g>
<g>
</g>
<g>
</g>
<g>
</g>
<g>
</g>
<g>
</g>
<g>
</g>
<g>
</g>
<g>
</g>
<g>
</g>
<g>
</g>
<g>
</g>
<g>
</g>
<g>
</g>
<g>
</g>
<g>
</g>
</svg>
