<?xml version="1.0" encoding="iso-8859-1"?>
<!-- Generator: Adobe Illustrator 19.0.0, SVG Export Plug-In . SVG Version: 6.00 Build 0)  -->
<svg version="1.1" id="Capa_1" xmlns="http://www.w3.org/2000/svg" xmlns:xlink="http://www.w3.org/1999/xlink" x="0px" y="0px"
	 viewBox="0 0 496 496" style="enable-background:new 0 0 496 496;" xml:space="preserve">
<g>
	<g>
		<g>
			<path d="M112,400c-17.648,0-32,14.352-32,32s14.352,32,32,32s32-14.352,32-32S129.648,400,112,400z M112,448
				c-8.824,0-16-7.176-16-16c0-8.824,7.176-16,16-16c8.824,0,16,7.176,16,16C128,440.824,120.824,448,112,448z"/>
			<path d="M344,400c-17.648,0-32,14.352-32,32s14.352,32,32,32s32-14.352,32-32S361.648,400,344,400z M344,448
				c-8.824,0-16-7.176-16-16c0-8.824,7.176-16,16-16c8.824,0,16,7.176,16,16C360,440.824,352.824,448,344,448z"/>
			<path d="M144,248H80c-26.472,0-48,21.528-48,48v48h128v-80C160,255.176,152.824,248,144,248z M80,328H48v-24h24
				c4.416,0,8,3.584,8,8V328z M144,328H96v-16c0-13.232-10.768-24-24-24H49.136c3.576-13.768,15.992-24,30.864-24h64V328z"/>
			<path d="M352,48c-79.4,0-144,64.6-144,144h-32v32.208c-6.704-5.08-14.96-8.208-24-8.208H88v-48c0-1.432-0.248-2.8-0.608-4.12
				c2.528-1.4,4.928-3.008,7.008-5.056c3.136,0.784,6.352,1.176,9.6,1.176c22.056,0,40-17.944,40-40c0-2.944-0.4-5.856-1.032-8.704
				C161.696,107.976,176,91.672,176,72c0-12.656-6.024-24.488-16-31.992V40c0-22.056-17.944-40-40-40C97.944,0,80,17.944,80,40
				c0,3.032,0.408,5.968,1.048,8.808C66.744,52,56,64.744,56,80c0,9.48,4.272,18.344,11.296,24.344
				C51.872,106.632,40,119.952,40,136c0,7.216,2.488,13.808,6.536,19.168C42.592,158.088,40,162.728,40,168v55.6
				C16.336,235.408,0,259.8,0,288v136c0,13.232,10.768,24,24,24h26.104C57.24,475.56,82.24,496,112,496s54.76-20.44,61.896-48
				h108.216c7.136,27.56,32.136,48,61.896,48s54.76-20.44,61.896-48H424c13.232,0,24-10.768,24-24v-40h48V248v-8v-48
				C496,112.6,431.4,48,352,48z M224,288h32v16h-32V288z M224,320h32v16h-32V320z M224,352h32v16h-32V352z M192,256v-48h16v40v120
				h-16V256z M71.48,119.976l7.76,0.4l1.608-6.288c2.2-8.6,8.856-15.256,17.376-17.384l-3.872-15.52
				c-6.8,1.696-12.848,5.168-17.76,9.84C73.768,88.08,72,84.2,72,80c0-8.824,7.176-16,16-16c0.072,0,0.144,0.024,0.224,0.024
				C95.536,73.664,106.992,80,120,80V64c-13.232,0-24-10.768-24-24s10.768-24,24-24s24,10.768,24,24
				c0,7.56-3.464,14.528-9.488,19.12l9.688,12.728c4.832-3.68,8.648-8.296,11.328-13.48C158.296,62.336,160,67.016,160,72
				c0,13.232-10.768,24-24,24c-6.384,0-12.392-2.48-16.92-6.984l-11.28,11.352c5.072,5.04,11.312,8.4,18.04,10.168
				c1.296,2.992,2.16,6.168,2.16,9.464c0,13.232-10.768,24-24,24c-3.136,0-6.216-0.616-9.168-1.832l-5.992-2.472l-3.664,5.344
				C82.192,149.392,77.264,152,72,152c-8.824,0-16-7.176-16-16C56,127.176,63.176,120,71.48,119.976z M56,168h16v48
				c-5.504,0-10.848,0.68-16,1.856V168z M48,432H24c-4.416,0-8-3.584-8-8v-8h34.104C48.776,421.128,48,426.464,48,432z M112,480
				c-26.472,0-48-21.528-48-48s21.528-48,48-48s48,21.528,48,48S138.472,480,112,480z M280,432H176c0-5.536-0.776-10.872-2.104-16
				h108.216C280.776,421.128,280,426.464,280,432z M167.344,400c-11.088-19.096-31.712-32-55.344-32s-44.256,12.904-55.344,32H16
				V288c0-30.872,25.128-56,56-56h80c13.232,0,24,10.768,24,24v128h125.808c-5.2,4.576-9.648,9.976-13.152,16H167.344z M272,368v-80
				h16v80H272z M344,480c-26.472,0-48-21.528-48-48s21.528-48,48-48s48,21.528,48,48S370.472,480,344,480z M336,320v16h-32v-16H336z
				 M304,304v-16h32v16H304z M336,352v16h-32v-16H336z M352,368v-80h16v80H352z M416,320v16h-32v-16H416z M384,304v-16h32v16H384z
				 M416,352v16h-32v-16H416z M432,424c0,4.416-3.584,8-8,8h-16c0-5.536-0.776-10.872-2.104-16H432V424z M432,400h-32.656
				c-3.496-6.024-7.952-11.424-13.152-16H424h8V400z M448,368h-16v-80h16V368z M480,368h-16v-16h16V368z M480,336h-16v-16h16V336z
				 M480,304h-16v-16h16V304z M480,240h-16.008v16H480v16H224v-16h224v-16H224v-48c0-70.576,57.424-128,128-128s128,57.424,128,128
				V240z"/>
			<rect x="344" y="88" width="16" height="16"/>
			<rect x="272" y="136" width="16" height="16"/>
			<rect x="408" y="136" width="16" height="16"/>
			<rect x="240" y="200" width="16" height="16"/>
			<rect x="288" y="184" width="16" height="16"/>
			<rect x="336" y="168" width="16" height="16"/>
			<rect x="384" y="200" width="16" height="16"/>
			<rect x="440" y="176" width="16" height="16"/>
			<rect x="320" y="120" width="16" height="16"/>
			<rect x="392" y="104" width="16" height="16"/>
			<rect x="376" y="152" width="16" height="16"/>
			<rect x="320" y="208" width="16" height="16"/>
			<rect x="432" y="208" width="16" height="16"/>
			<rect x="288" y="104" width="16" height="16"/>
		</g>
	</g>
</g>
<g>
</g>
<g>
</g>
<g>
</g>
<g>
</g>
<g>
</g>
<g>
</g>
<g>
</g>
<g>
</g>
<g>
</g>
<g>
</g>
<g>
</g>
<g>
</g>
<g>
</g>
<g>
</g>
<g>
</g>
</svg>
