<?xml version="1.0" encoding="iso-8859-1"?>
<!-- Generator: Adobe Illustrator 19.0.0, SVG Export Plug-In . SVG Version: 6.00 Build 0)  -->
<svg version="1.1" id="Capa_1" xmlns="http://www.w3.org/2000/svg" xmlns:xlink="http://www.w3.org/1999/xlink" x="0px" y="0px"
	 viewBox="0 0 496 496" style="enable-background:new 0 0 496 496;" xml:space="preserve">
<g>
	<g>
		<g>
			<path d="M416,384c-17.648,0-32,14.352-32,32s14.352,32,32,32s32-14.352,32-32S433.648,384,416,384z M416,432
				c-8.824,0-16-7.176-16-16c0-8.824,7.176-16,16-16c8.824,0,16,7.176,16,16C432,424.824,424.824,432,416,432z"/>
			<path d="M496,328v-64c0-13.232-10.768-24-24-24h-8v-24c0-13.232-10.768-24-24-24h-16V62.528c9.288-3.312,16-12.112,16-22.528V24
				c0-13.232-10.768-24-24-24H192c-13.232,0-24,10.768-24,24v16c0,9.6,5.704,17.84,13.864,21.672
				c-14.424,44.896-24.752,90.784-30.92,137.296C143.608,189.912,132.536,184,120,184c-22.056,0-40,17.944-40,40
				c0,22.056,17.944,40,40,40c9.792,0,18.656-3.672,25.616-9.544c-0.848,13.872-1.384,27.768-1.488,41.704
				C131.464,290.872,117.808,288,104,288C46.656,288,0,334.656,0,392s46.656,104,104,104c43.176,0,80.272-26.456,95.976-64h137.64
				c7.432,36.472,39.76,64,78.384,64c44.112,0,80-35.888,80-80c0-26.184-12.704-49.4-32.208-64H472C485.232,352,496,341.232,496,328
				z M120,248c-13.232,0-24-10.768-24-24s10.768-24,24-24s24,10.768,24,24S133.232,248,120,248z M440,208c4.416,0,8,3.592,8,8v24
				h-64v-16h16v-16H440z M336,208v-8c0-13.232,10.768-24,24-24s24,10.768,24,24v8H336z M368,224v120h-16V224H368z M336,224v16h-80
				V64h120v16h16V64h16v128h-8.808c-1.216-5.944-3.856-11.328-7.392-16h0.2V96h-16v67.392c-4.912-2.16-10.304-3.392-16-3.392
				c-22.056,0-40,17.944-40,40v24H336z M272,312v32h-16v-88h80v56H272z M336,328v16h-48v-16H336z M184,24c0-4.408,3.584-8,8-8h224
				c4.416,0,8,3.592,8,8v16c0,4.408-3.584,8-8,8H192c-4.416,0-8-3.592-8-8V24z M183.984,112h6.832c2.248,0,4.328,0.904,5.856,2.552
				c1.528,1.64,2.28,3.784,2.128,6.016l-5.712,80c-0.304,4.168-3.808,7.432-7.984,7.432h-19.28
				C169.808,175.656,175.92,143.624,183.984,112z M174.504,287.584c3.472-4.752,9.064-7.584,14.952-7.584
				C199.68,280,208,288.32,208,298.544v1.24c0,5.432-2.36,10.552-6.48,14.088l-99.44,85.24c-2.24,1.912-6.08,0.328-6.08-3.288
				c0-0.792,0.24-1.536,0.712-2.168L174.504,287.584z M99.68,416c4.688,0,9.232-1.68,12.808-4.744l30.816-26.416
				c0.424,2.344,0.696,4.728,0.696,7.16c0,22.056-17.944,40-40,40c-22.056,0-40-17.944-40-40c0-22.056,17.944-40,40-40
				c1.08,0,2.128,0.2,3.2,0.288l-23.392,31.896v0.008c-2.496,3.4-3.808,7.416-3.808,12.128C80,407.168,88.832,416,99.68,416z
				 M104,480c-48.52,0-88-39.48-88-88c0-48.52,39.48-88,88-88c11.576,0,23.032,2.376,33.648,6.76l-19.912,27.152
				C113.248,336.784,108.68,336,104,336c-30.872,0-56,25.128-56,56s25.128,56,56,56s56-25.128,56-56
				c0-6.464-1.08-12.736-3.208-18.72l25.216-21.616C188.448,364.096,192,377.832,192,392C192,440.52,152.52,480,104,480z
				 M196.224,344c-0.544-1.04-1.088-2.072-1.664-3.088l17.368-14.888C219.6,319.464,224,309.896,224,299.792v-1.24
				C224,279.504,208.496,264,189.456,264c-10.96,0-21.376,5.28-27.856,14.12l-1.136,1.552c0.552-18.624,1.8-37.184,3.688-55.664
				h20.952c12.52,0,23.04-9.792,23.936-22.288l5.712-80c0.48-6.624-1.84-13.2-6.368-18.064C203.856,98.792,197.456,96,190.816,96
				h-2.544c2.984-10.72,6.168-21.392,9.616-32H240v280H196.224z M256,416h-50.904c1.232-5.2,2.08-10.536,2.496-16H256V416z M336,416
				h-64v-32h-64.32c-0.624-8.2-2.256-16.24-4.768-24H240h16h102.968C344.784,374.44,336,394.208,336,416z M480,416
				c0,35.288-28.712,64-64,64c-35.288,0-64-28.712-64-64c0-35.288,28.712-64,64-64C451.288,352,480,380.712,480,416z M384,336v-80
				h80h8c4.416,0,8,3.584,8,8v64c0,4.416-3.584,8-8,8H384z"/>
		</g>
	</g>
</g>
<g>
</g>
<g>
</g>
<g>
</g>
<g>
</g>
<g>
</g>
<g>
</g>
<g>
</g>
<g>
</g>
<g>
</g>
<g>
</g>
<g>
</g>
<g>
</g>
<g>
</g>
<g>
</g>
<g>
</g>
</svg>
