<?xml version="1.0" encoding="iso-8859-1"?>
<!-- Generator: Adobe Illustrator 19.0.0, SVG Export Plug-In . SVG Version: 6.00 Build 0)  -->
<svg version="1.1" id="Capa_1" xmlns="http://www.w3.org/2000/svg" xmlns:xlink="http://www.w3.org/1999/xlink" x="0px" y="0px"
	 viewBox="0 0 496 496" style="enable-background:new 0 0 496 496;" xml:space="preserve">
<g>
	<g>
		<g>
			<path d="M463.736,200h-2.232c-4.784,0-9.6,1.088-13.92,3.16l-111.6,53.376c0-0.184,0.016-0.36,0.016-0.536v-56
				c8.824,0,16-7.176,16-16v-16c0-8.824-7.176-16-16-16h-0.408C331.384,67.504,261.52,0,176,0S20.616,67.504,16.408,152H16
				c-8.824,0-16,7.176-16,16v16c0,8.824,7.176,16,16,16v56c0,28.312,11.232,54.672,31.12,74.144C19.136,344.888,0,374.232,0,408
				c0,48.52,39.48,88,88,88s88-39.48,88-88c0-3.84-0.344-7.664-0.84-11.464l66.32-29.632l21.184,84.72
				C269.192,477.752,292.56,496,319.488,496c31.504,0,57.208-24.656,58.52-56.136l5.688-136.504l93.192-41.64
				C488.496,256.536,496,244.976,496,232.264C496,214.472,481.528,200,463.736,200z M176,16c76.704,0,139.408,60.328,143.592,136
				H32.408C36.592,76.328,99.296,16,176,16z M32,256v-56h256v-16H16v-16h320v16h-32v16h16v56c0,2.832-0.304,5.64-0.568,8.448
				L149.84,345.56C133.416,329.296,111.256,320,88,320c-8.424,0-16.552,1.264-24.272,3.48C43.584,306.696,32,282.376,32,256z
				 M88,480c-39.696,0-72-32.296-72-72c0-39.704,32.304-72,72-72c17.064,0,33.408,6.144,46.296,16.992l-35.08,16.776
				C95.576,368.696,91.84,368,88,368c-22.056,0-40,17.944-40,40c0,22.056,17.944,40,40,40c18.216,0,33.904-12.504,38.512-29.728
				l33.256-14.864c0.096,1.536,0.232,3.064,0.232,4.592C160,447.704,127.696,480,88,480z M105.944,423.816
				C101.504,428.824,95.08,432,88,432c-13.232,0-24-10.768-24-24c0-11.392,8-20.912,18.664-23.352
				c-1.704,3.616-2.664,7.6-2.664,11.72C80,410.968,91.424,422.84,105.944,423.816z M362.024,439.192
				C361.072,462.08,342.384,480,319.488,480c-19.576,0-36.56-13.264-41.304-32.248l-21.872-87.472l14.84-6.632l22.552,90.224
				C296.672,455.72,307.272,464,319.488,464c14.296,0,25.96-11.184,26.552-25.472l5.032-120.592l16.312-7.288L362.024,439.192z
				 M285.992,347.016l48.76-21.784l-4.696,112.632c-0.24,5.68-4.88,10.136-10.568,10.136c-4.856,0-9.08-3.296-10.256-8.008
				L285.992,347.016z M112.536,406.992c-1.48,0.672-3.072,1.008-4.904,1.008C101.216,408,96,402.784,96,396.368
				c0-4.456,2.592-8.568,6.608-10.488l285.632-136.6l16.336,27.232L112.536,406.992z M470.368,247.112l-51.08,22.824l-16.552-27.592
				l51.752-24.752c2.176-1.04,4.608-1.592,7.016-1.592h2.232c8.968,0,16.264,7.296,16.264,16.264
				C480,238.672,476.216,244.496,470.368,247.112z"/>
			<rect x="160" y="72" width="16" height="16"/>
			<rect x="240" y="104" width="16" height="16"/>
			<rect x="56" y="112" width="16" height="16"/>
			<rect x="104" y="88" width="16" height="16"/>
			<rect x="144" y="120" width="16" height="16"/>
			<rect x="192" y="88" width="16" height="16"/>
			<rect x="216" y="56" width="16" height="16"/>
			<rect x="120" y="48" width="16" height="16"/>
			<rect x="272" y="88" width="16" height="16"/>
			<rect x="176" y="32" width="16" height="16"/>
			<rect x="48" y="216" width="16" height="16"/>
			<rect x="80" y="216" width="136" height="16"/>
		</g>
	</g>
</g>
<g>
</g>
<g>
</g>
<g>
</g>
<g>
</g>
<g>
</g>
<g>
</g>
<g>
</g>
<g>
</g>
<g>
</g>
<g>
</g>
<g>
</g>
<g>
</g>
<g>
</g>
<g>
</g>
<g>
</g>
</svg>
