<?xml version="1.0" encoding="iso-8859-1"?>
<!-- Generator: Adobe Illustrator 19.0.0, SVG Export Plug-In . SVG Version: 6.00 Build 0)  -->
<svg version="1.1" id="Capa_1" xmlns="http://www.w3.org/2000/svg" xmlns:xlink="http://www.w3.org/1999/xlink" x="0px" y="0px"
	 viewBox="0 0 496 496" style="enable-background:new 0 0 496 496;" xml:space="preserve">
<g>
	<g>
		<g>
			<rect x="312" y="184" width="16" height="16"/>
			<rect x="344" y="184" width="16" height="16"/>
			<rect x="376" y="184" width="16" height="16"/>
			<rect x="104" y="184" width="16" height="16"/>
			<rect x="136" y="184" width="16" height="16"/>
			<rect x="168" y="184" width="16" height="16"/>
			<path d="M456,232.976v-27.912c0-91.464-64.024-168.328-153.064-185.44c-0.84-4.576-2.952-8.824-6.264-12.264
				C292.104,2.616,285.96,0,279.376,0h-62.752c-6.584,0-12.728,2.616-17.296,7.36c-3.312,3.448-5.432,7.688-6.264,12.264
				C104.024,36.736,40,113.6,40,205.056v27.912c-9.208,2.68-16,11.104-16,21.16l0.04,18.672l3.68,36.776
				c2.72,27.208,24.328,48.048,51.128,50.208c2.92,6.944,6.088,13.648,9.624,19.864l-21.488,21.488l67.872,67.88l21.488-21.48
				c13.72,7.896,28.36,13.96,43.656,18.08V496h96v-30.384c15.296-4.12,29.936-10.176,43.656-18.08l21.488,21.48l67.872-67.88
				l-21.488-21.488c3.536-6.216,6.704-12.92,9.624-19.864c26.8-2.16,48.408-23.008,51.128-50.208L472,272v-17.864
				C472,244.072,465.208,235.656,456,232.976z M56,205.056c0-82.68,57.16-152.32,137.072-169.12l6.936,180.376l15.984-0.616
				l-7.36-191.384c-0.088-2.192,0.712-4.272,2.224-5.848c1.528-1.592,3.576-2.464,5.768-2.464h62.752
				c2.192,0,4.24,0.872,5.768,2.456c1.512,1.584,2.312,3.656,2.224,5.848l-7.36,191.384l15.984,0.616l6.936-180.376
				C382.84,52.736,440,122.376,440,205.056V232h-36.448c-5.552-9.52-15.76-16-27.552-16s-22,6.48-27.552,16H147.552
				c-5.552-9.52-15.76-16-27.552-16s-22,6.48-27.552,16H56V205.056z M392,248v16h-32v-16c0-8.824,7.176-16,16-16
				C384.824,232,392,239.176,392,248z M344,248v16H152v-16H344z M136,248v16h-32v-16c0-8.824,7.176-16,16-16
				C128.824,232,136,239.176,136,248z M40,254.136c0-3.384,2.76-6.136,6.144-6.136H88v16H40V254.136z M361.144,446.392
				l-19.08-19.072l-5.392,3.36c-15.592,9.704-32.576,16.744-50.488,20.904l-6.184,1.44V480h-64v-26.976l-6.184-1.44
				c-17.904-4.168-34.888-11.2-50.488-20.904l-5.392-3.36l-19.08,19.072l-45.248-45.256l19.072-19.072l-3.36-5.392
				c-3.224-5.176-6.128-10.824-8.864-16.672h55.856c22.656,30.056,58.024,48,95.696,48s73.04-17.944,95.696-48h55.856
				c-2.736,5.848-5.64,11.496-8.864,16.672l-3.36,5.392l19.072,19.072L361.144,446.392z M173.264,360h149.472
				C303.272,380.192,276.4,392,248,392C219.6,392,192.728,380.192,173.264,360z M455.16,280l-2.8,27.984
				C450.304,328.512,433.192,344,412.56,344H83.44c-20.632,0-37.744-15.488-39.8-36.016L40.808,280H88h64h192h64h16v-16h-16v-16
				h41.856c3.384,0,6.144,2.752,6.144,6.136l0.024,9.864H440v16H455.16z"/>
		</g>
	</g>
</g>
<g>
</g>
<g>
</g>
<g>
</g>
<g>
</g>
<g>
</g>
<g>
</g>
<g>
</g>
<g>
</g>
<g>
</g>
<g>
</g>
<g>
</g>
<g>
</g>
<g>
</g>
<g>
</g>
<g>
</g>
</svg>
