<?xml version="1.0" encoding="iso-8859-1"?>
<!-- Generator: Adobe Illustrator 19.0.0, SVG Export Plug-In . SVG Version: 6.00 Build 0)  -->
<svg version="1.1" id="Capa_1" xmlns="http://www.w3.org/2000/svg" xmlns:xlink="http://www.w3.org/1999/xlink" x="0px" y="0px"
	 viewBox="0 0 496 496" style="enable-background:new 0 0 496 496;" xml:space="preserve">
<g>
	<g>
		<g>
			<path d="M212,200c11.032,0,20-8.976,20-20s-8.968-20-20-20s-20,8.976-20,20S200.968,200,212,200z M212,176c2.2,0,4,1.792,4,4
				s-1.8,4-4,4s-4-1.792-4-4S209.8,176,212,176z"/>
			<path d="M144,180c0-11.024-8.968-20-20-20s-20,8.976-20,20s8.968,20,20,20S144,191.024,144,180z M120,180c0-2.208,1.8-4,4-4
				s4,1.792,4,4s-1.8,4-4,4S120,182.208,120,180z"/>
			<path d="M128,232c0,22.056,17.944,40,40,40c22.056,0,40-17.944,40-40h-16c0,13.232-10.768,24-24,24s-24-10.768-24-24H128z"/>
			<path d="M268.32,288l-40.808-4.816c14.072-11.16,24.904-26.176,30.976-43.44C279.368,238.432,296,221.2,296,200v-50.224
				c4.76-2.776,8-7.88,8-13.776v-16c0-6.808-4.296-12.592-10.296-14.904C283.832,54.32,241.68,15.128,190.296,8.96
				C187.68,3.672,182.288,0,176,0h-16c-6.288,0-11.68,3.672-14.296,8.96C94.32,15.128,52.168,54.32,42.296,105.096
				C36.296,107.408,32,113.192,32,120v16c0,5.896,3.24,11,8,13.776V200c0,21.2,16.632,38.432,37.512,39.752
				c6.08,17.264,16.904,32.28,30.976,43.44l-44.92,5.296C27.328,292.76,0,323.504,0,359.992V472c0,13.232,10.768,24,24,24h104h8h192
				h8h160V288H268.32z M229.12,322.504c-0.96,3.304-2.864,6.128-5.456,8.24c0.184-1.168,0.336-2.344,0.336-3.544
				c0-7.544-3.504-14.408-9.632-18.816c-2.304-1.664-4.856-2.704-7.472-3.424c0.6-2.608,0.968-5.264,1.04-7.968l13.056,1.536
				l6.416,10.696C229.832,313.264,230.44,317.984,229.12,322.504z M195.072,322.264c0.768-0.736,1.704-1.304,2.688-1.632
				l0.784-0.256c0.752-0.248,1.528-0.376,2.288-0.376c1.48,0,2.928,0.464,4.176,1.36c1.904,1.376,2.992,3.504,2.992,5.84
				c0,0.92-0.168,1.816-0.512,2.664l-23.72,59.296c-3.152,7.872-10.656,12.96-19.144,12.96C153.248,402.128,144,392.872,144,381.504
				v-1.416c0-5.584,2.312-11.008,6.336-14.88L195.072,322.264z M168,320c-11.528,0-21.168-8.168-23.464-19.024
				C152.056,302.88,159.896,304,168,304c8.088,0,15.912-1.112,23.424-3.008c-0.448,2.12-1.176,4.152-2.184,6.072
				c-1.896,1.008-3.704,2.176-5.248,3.664l-8.216,7.888C173.272,319.472,170.68,320,168,320z M262.72,222.928
				c0.768-4.88,1.28-9.84,1.28-14.928v-30.528c9.288,3.312,16,12.112,16,22.528C280,210.888,272.672,220,262.72,222.928z
				 M280,168.208c-4.672-3.536-10.056-6.184-16-7.392V152h16V168.208z M160,16h16v56h-16V16z M144,25.248V72c0,8.824,7.176,16,16,16
				h16c8.824,0,16-7.176,16-16V25.248c8.424,1.312,16.52,3.696,24.184,6.936L194.088,104h-52.176l-22.096-71.816
				C127.48,28.936,135.576,26.56,144,25.248z M105.384,39.688L125.168,104H58.8C65.232,76.888,82.424,53.96,105.384,39.688z M56,200
				c0-10.416,6.712-19.216,16-22.528V208c0,5.088,0.512,10.048,1.28,14.928C63.328,220,56,210.888,56,200z M56,168.2V152h16v8.808
				C66.056,162.024,60.672,164.664,56,168.2z M48,136v-16h200v-16h-37.168l19.792-64.312c22.952,14.28,40.144,37.2,46.576,64.312
				H264v16h24v16H48z M88,208v-56h160v56c0,44.112-35.888,80-80,80S88,252.112,88,208z M108.592,309.224l6.416-10.696l13.088-1.544
				c0.456,18.448,13.432,33.776,30.76,37.864l-8.616,8.272c-4.616,2.144-9.824,2.152-14.44-0.16l-20.352-10.176
				c-4.208-2.104-7.256-5.752-8.568-10.28C105.56,317.984,106.168,313.264,108.592,309.224z M16,359.992
				c0-28.384,21.256-52.296,49.448-55.616l29.488-3.48l-0.056,0.096c-4.672,7.792-5.896,17.264-3.36,25.984
				c2.544,8.72,8.656,16.048,16.784,20.112l20.352,10.176c1.872,0.936,3.832,1.552,5.792,2.112
				C130.296,365.44,128,372.68,128,380.088v1.416c0,11.616,5.544,21.872,14.008,28.584L131.056,432H64v-64H48v24H16V359.992z
				 M136,480h-8H24c-4.416,0-8-3.592-8-8v-64h32v40h88c8.824,0,16,7.176,16,16C152,472.824,144.824,480,136,480z M320,480h-32v-64
				h32V480z M320,400h-32v-32h-16v112H163.552c2.752-4.728,4.448-10.144,4.448-16c0-13.472-8.392-24.976-20.208-29.688l8.6-17.2
				c2.656,0.616,5.392,1.016,8.232,1.016c15.064,0,28.408-9.032,34-23.016l16.736-41.84l12.336-6.168
				c8.128-4.064,14.232-11.392,16.784-20.112c2.536-8.72,1.312-18.192-3.36-25.992l-0.056-0.096l29.488,3.48
				C298.744,307.696,320,331.608,320,359.992V400z M309.208,304H424v32h-72v16h16v32h-32v-24.008
				C336,337.536,325.624,317.28,309.208,304z M424,400v32h-88v-32H424z M368,480h-32v-32h32V480z M480,480h-96v-32h80v-16h-24v-32
				h40V480z M480,384h-96v-32h96V384z M480,336h-40v-32h40V336z"/>
		</g>
	</g>
</g>
<g>
</g>
<g>
</g>
<g>
</g>
<g>
</g>
<g>
</g>
<g>
</g>
<g>
</g>
<g>
</g>
<g>
</g>
<g>
</g>
<g>
</g>
<g>
</g>
<g>
</g>
<g>
</g>
<g>
</g>
</svg>
