<?xml version="1.0" encoding="utf-8"?>
<!-- Generator: Adobe Illustrator 23.0.2, SVG Export Plug-In . SVG Version: 6.00 Build 0)  -->
<svg version="1.1" id="Layer_1" xmlns="http://www.w3.org/2000/svg" xmlns:xlink="http://www.w3.org/1999/xlink" x="0px" y="0px"
	 viewBox="0 0 612 792" style="enable-background:new 0 0 612 792;" xml:space="preserve">
<style type="text/css">
	.st0{fill:#010101;}
	.st1{fill:#797979;}
	.st2{fill:#3F2532;}
	.st3{fill:#848384;}
	.st4{opacity:0.4;fill:#FFFFFF;enable-background:new    ;}
	.st5{fill:#5A5858;}
	.st6{fill:#FAA31F;}
	.st7{fill:#FAA93C;}
	.st8{fill:#FCB555;}
	.st9{fill:#EC8B23;}
	.st10{fill:#F7B355;}
	.st11{fill:#F29E35;}
	.st12{fill:#F8C07B;}
	.st13{fill:#616262;}
	.st14{fill:#969696;}
	.st15{fill:#707071;}
	.st16{fill:#D88129;}
</style>
<path class="st0" d="M416.66,268.95c0.01-1.32,1.02-2.38,2.27-2.37l56.45,0.32c1.25,0.01,2.26,1.08,2.25,2.4
	c-0.01,1.32-1.02,2.38-2.27,2.37l-56.45-0.32C417.66,271.35,416.66,270.27,416.66,268.95z"/>
<path class="st0" d="M416.61,278.5c0.01-1.32,1.02-2.38,2.27-2.37l56.45,0.32c1.25,0.01,2.26,1.08,2.25,2.4s-1.02,2.38-2.27,2.37
	l-56.45-0.32C417.6,280.9,416.6,279.82,416.61,278.5z"/>
<path class="st0" d="M436.96,278.62l0.05-9.55c0.01-1.32,1.02-2.38,2.27-2.37c1.25,0.01,2.26,1.08,2.25,2.4l-0.05,9.55
	c-0.01,1.32-1.02,2.38-2.27,2.37S436.95,279.94,436.96,278.62z"/>
<g id="XMLID_50_">
	<path id="XMLID_337_" class="st1" d="M416.56,247.38l11.47,7.6c1.98,1.33,3.34,3.46,3.5,5.86c0.59,6.21,1.27,19.02-0.55,31.7
		c-0.34,2.29-1.57,4.27-3.5,5.54l-10.62,6.92c-1.11,0.68-2.6-0.15-2.58-1.44L416.56,247.38z"/>
	<path id="XMLID_341_" class="st2" d="M414.02,307.24c-1.39-0.72-2.16-2.24-2.14-3.74l2.26-60.67l15.23,10.07
		c2.67,1.75,4.32,4.58,4.67,7.78c0.59,6.51,1.26,19.42-0.56,32.2c-0.45,2.99-2.1,5.56-4.63,7.22l-10.52,7.02
		c-0.71,0.49-1.51,0.67-2.31,0.66C415.31,307.76,414.72,307.55,414.02,307.24z M417.01,301.99l9.21-6.04
		c1.32-0.88,2.14-2.26,2.37-3.76c1.71-12.27,1.03-24.79,0.44-31.1c-0.17-1.6-1.05-3.12-2.43-4.04l-7.81-5.14L417.01,301.99z"/>
	<path id="XMLID_338_" class="st2" d="M428.91,256.29l3.18,1.06c1.99,0.63,5.55,2.9,6.17,7.31c0.73,4.31,1.47,13.43,0.25,20.21
		c-1.11,6.08-2.56,9.46-7.08,10.18l-2.91,0.45L428.91,256.29z M433.63,283.98C433.63,283.98,433.63,283.88,433.63,283.98
		c0.88-4.79,0.59-11.09,0.17-15.4L433.63,283.98z"/>
	<path id="XMLID_356_" class="st3" d="M336.28,274.68c0.31-18.1,2.17-32.77,4.17-32.73l0,0l0,0l0,0l0,0c0,0,68.98,2,70.07,2.22
		c1.1,0.12,6.04,3.31,6.04,3.31c2,0.03,3.37,13.06,3.09,29.16c-0.28,16.1-2.37,26.76-4.11,29.03c-0.51,0.69-1.32,1.18-2.13,1.66
		c-1.51,0.77-3.32,1.04-5.02,1.01l-69.1-0.8l0,0l0,0l0,0l0,0C337.31,307.51,335.96,292.78,336.28,274.68z"/>
	
		<rect id="XMLID_2_" x="370.91" y="216.65" transform="matrix(0.0174 -0.9998 0.9998 0.0174 112.3776 632.055)" class="st4" width="13.7" height="84.4"/>
	
		<rect id="XMLID_7_" x="376.02" y="230.21" transform="matrix(0.0174 -0.9998 0.9998 0.0174 98.5796 645.9247)" class="st5" width="3.8" height="85.2"/>
	<path id="XMLID_352_" class="st6" d="M106.51,495.12c0,0-7.08,4.68-40.88,4.19c-33.8-0.49-34.01-5.49-34.01-5.49
		s-4-97.68,0.2-132.32s8.42-53.06,26.73-82.15l163.88,2.85c1.8,0.03,3.32-1.34,3.46-3.14c0.5-5.99,2.46-20.56,9.58-44.84
		c0.53-1.89,2.36-3.16,4.35-3.12l51.79,0.9c2.4,0.04,4.36,2.08,4.32,4.48l-1.32,76.09c-0.06,3.3-1.31,6.58-3.56,9.04l-30.71,34.77
		c-2.45,2.76-5.98,4.3-9.58,4.23l-130.68-2.27c-2.7-0.05-4.94,2.11-4.98,4.71l-1.86,49.58c-0.03,1.9-0.87,3.79-2.29,5.16
		c-2.44,2.26-6.23,7.19-7.28,16.28c-1.64,13.77-3.06,37.85-3.06,37.85s-2.31,6.56,7.16,13.63
		C107.58,485.44,113.25,493.04,106.51,495.12z"/>
	<path id="XMLID_12_" class="st7" d="M281.98,331.75l-164.88-2.87c-9-0.16-14.48,9.95-9.4,17.44l8.97,13.16l141.92-0.03
		L281.98,331.75z"/>
	<path id="XMLID_353_" class="st2" d="M27.62,493.95c-0.13-4-3.89-98.38,0.31-133.01c4.19-34.13,8.23-53.46,27.36-83.84l1.23-1.88
		l165.58,2.88c0.62-6.89,2.78-21.56,9.68-45.04c1.06-3.58,4.41-6.12,8.21-6.06l51.69,0.9c4.6,0.08,8.33,3.95,8.25,8.54l-1.32,76.09
		c-0.07,4.3-1.65,8.37-4.5,11.62l-30.71,34.77c-3.16,3.65-7.8,5.67-12.7,5.58l-130.68-2.27c-0.5-0.01-0.91,0.38-0.92,0.88
		l-1.86,49.58c-0.15,3-1.4,5.88-3.54,7.94c-1.83,1.77-5.1,5.91-6.04,13.8c-1.63,13.47-3.05,37.35-3.05,37.55l0.09,0.4l-0.31,0.59
		c-0.11,0.6-0.58,4.49,5.74,9.2l0.49,0.31l0.39,0.51c0.68,0.91,4.2,5.87,2.62,10.65c-0.53,1.69-1.87,3.87-5.29,5.11
		c-2.62,1.35-12.39,4.99-42.59,4.56c-0.4-0.01-0.8-0.01-1.2-0.02C32.27,502.73,27.85,498.06,27.62,493.95z M104.67,491.49l0.7-0.19
		c0.2-0.1,0.4-0.09,0.4-0.19c0.01-0.6-0.57-1.81-1.15-2.82c-9.38-7.26-8.65-14.65-8.2-17.05c0.16-3.2,1.53-24.78,3.06-37.75
		c1.17-9.98,5.27-15.61,8.53-18.65c0.61-0.59,1.03-1.48,1.04-2.38l1.86-49.58c0.18-4.8,4.25-8.73,9.05-8.64l130.78,2.27
		c2.5,0.04,4.92-1.01,6.55-2.89l30.81-34.77c1.53-1.77,2.47-4.06,2.51-6.46l1.32-76.09c0-0.2-0.19-0.4-0.39-0.41l-51.59-0.9
		c-0.2,0-0.4,0.09-0.41,0.29c-7.22,24.38-9.08,38.85-9.47,44.04c-0.37,3.89-3.62,6.84-7.52,6.77L60.89,283.3
		c-17.39,28-21,45.74-24.97,78.68c-3.85,31.54-0.74,117.3-0.26,130.12c1.98,0.93,9.05,3.06,30.15,3.32
		c29.2,0.41,37.66-3.15,38.67-3.63L104.67,491.49z"/>
	<path id="XMLID_348_" class="st6" d="M295.85,241.18l29.3,0.51c1.9,0.03,3.58,1.46,3.84,3.37c1.25,8.62,4.02,33.17-1.03,59.09
		c-0.33,1.89-2.06,3.26-3.96,3.23l-29.3-0.51L295.85,241.18z"/>
	
		<rect id="XMLID_13_" x="308.37" y="240.92" transform="matrix(0.0174 -0.9998 0.9998 0.0174 46.7086 568.3667)" class="st8" width="8.3" height="39"/>
	
		<rect id="XMLID_15_" x="299.45" y="276.07" transform="matrix(0.0174 -0.9998 0.9998 0.0174 13.5056 600.075)" class="st9" width="25.2" height="34.2"/>
	<path id="XMLID_349_" class="st2" d="M293.4,238.63l31.8,0.55c3.2,0.06,5.76,2.4,6.21,5.51c1.34,9.32,4.01,33.87-1.04,59.89
		c-0.55,3.09-3.29,5.34-6.39,5.29l-31.8-0.55L293.4,238.63z M298.31,243.72l-1.05,60.59l26.8,0.47c0.7,0.01,1.31-0.48,1.42-1.18
		c4.94-25.32,2.36-49.17,1.01-58.19c-0.09-0.7-0.68-1.21-1.38-1.22L298.31,243.72L298.31,243.72z"/>
	<path id="XMLID_344_" class="st10" d="M234.93,236.52l-171.27-2.98c-1.3-0.02-2.51,0.66-3.23,1.64l-7.4,11.17
		c-0.62,0.89-0.44,2.09,0.45,2.71c4.15,3.17,14.57,13.46,5.18,30.19l167.17,2.91L234.93,236.52z"/>
	<polygon id="XMLID_14_" class="st11" points="228.18,273.41 62.01,270.52 58.66,279.26 225.83,282.17 	"/>
	<polygon id="XMLID_11_" class="st12" points="59.45,262.57 231.12,265.56 231.31,254.86 53.92,252.27 	"/>
	<path id="XMLID_345_" class="st2" d="M55.19,277.3c7.43-13.27,0.57-21.39-4.16-25.08c-2.47-1.94-3.01-5.45-1.36-8.02l7.4-11.17
		c1.44-2.18,3.96-3.53,6.66-3.48l176.07,3.06l-10.73,53.62l-177.17-3.08L55.19,277.3z M230.06,240.43l-166.27-2.89l-6.37,9.59
		c4.53,3.98,12.66,13.72,7.41,28.23l157.78,2.74L230.06,240.43z"/>
	
		<ellipse id="XMLID_94_" transform="matrix(0.0174 -0.9998 0.9998 0.0174 61.2031 611.4334)" class="st13" cx="341.68" cy="274.58" rx="32.8" ry="3.6"/>
	<path id="XMLID_327_" class="st1" d="M115,363.25l18.8,0.33c2,0.03,3.26,2.16,2.33,3.94l-8.91,17.95
		c-1.25,2.58-1.99,5.37-2.04,8.17l-0.21,11.8c-0.05,2.9-2.49,5.26-5.39,5.21l-6.4-0.11L115,363.25z"/>
	<path id="XMLID_16_" class="st14" d="M132.51,363.06l-10.01,17.93c-1.55,2.77-2.4,5.86-2.46,8.96l-0.37,21.1
		c0,0,5.36-3.41,5.22-7.01c-0.14-3.6-0.02-16.1-0.02-16.1l11.49-22.3C136.47,365.62,133.31,363.07,132.51,363.06z"/>
	<path id="XMLID_334_" class="st2" d="M112.65,360.71l21.3,0.37c1.8,0.03,3.38,0.96,4.36,2.48c0.97,1.52,1.04,3.42,0.21,5
		l-8.91,17.95c-1.14,2.18-1.68,4.67-1.72,7.17l-0.21,11.8c-0.07,4.3-3.64,7.74-7.93,7.66l-9-0.16L112.65,360.71z M117.46,365.79
		l-1.64,42.28l3.9,0.07c1.6,0.03,2.82-1.25,2.85-2.75l0.21-11.8c0.06-3.2,0.81-6.39,2.26-9.26l8.91-17.95c0,0,0-0.1,0-0.2
		c0-0.1-0.1-0.1-0.2-0.1L117.46,365.79L117.46,365.79z"/>
	<path id="XMLID_331_" class="st2" d="M60.3,403.41c0.13-7.5,6.34-13.49,13.83-13.36c7.5,0.13,13.49,6.34,13.36,13.83
		c-0.13,7.5-6.34,13.49-13.83,13.36C66.16,417.11,60.17,410.91,60.3,403.41z M68.3,403.55c-0.05,3.1,2.4,5.64,5.5,5.7
		c3.1,0.05,5.64-2.4,5.7-5.5c0.05-3.1-2.4-5.64-5.5-5.7S68.35,400.45,68.3,403.55z"/>
	<path id="XMLID_328_" class="st2" d="M57,403.35c0.16-9.3,7.89-16.77,17.19-16.6c9.3,0.16,16.77,7.89,16.6,17.19
		s-7.89,16.77-17.19,16.6C64.3,420.38,56.84,412.65,57,403.35z M65,403.49c-0.09,4.9,3.84,8.97,8.74,9.05s8.97-3.84,9.05-8.74
		c0.09-4.9-3.84-8.97-8.74-9.05S65.08,398.59,65,403.49z"/>
	<path id="XMLID_323_" class="st15" d="M113.86,331.33l88.29,1.53c2.1,0.04,3.83-1.63,3.87-3.73l0.57-32.6
		c0.04-2.1-1.63-3.83-3.73-3.87l-88.29-1.53c-2.1-0.04-3.83,1.63-3.87,3.73l-0.57,32.6C110.19,329.66,111.76,331.29,113.86,331.33z"
		/>
	<path id="XMLID_18_" class="st3" d="M116.9,329.18l86.99,1.51c1.1,0.02,2.12-0.86,2.14-2.06l0.5-28.8c0.02-1.1-0.86-2.12-2.06-2.14
		l-86.99-1.51c-1.1-0.02-2.12,0.86-2.14,2.06l-0.5,28.8C114.91,328.24,115.8,329.16,116.9,329.18z"/>
	<path id="XMLID_324_" class="st2" d="M107.72,327.52l0.57-32.6c0.06-3.4,2.91-6.25,6.41-6.19l88.29,1.53
		c3.4,0.06,6.25,2.91,6.19,6.41l-0.57,32.6c-0.06,3.4-2.91,6.25-6.41,6.19l-88.39-1.54C110.42,333.77,107.66,330.92,107.72,327.52z
		 M114.51,293.83c-0.7-0.01-1.31,0.58-1.32,1.28l-0.57,32.6c-0.01,0.7,0.58,1.31,1.28,1.32l88.29,1.53c0.7,0.01,1.31-0.58,1.32-1.28
		l0.57-32.6c0.01-0.7-0.58-1.31-1.28-1.32L114.51,293.83L114.51,293.83z"/>
	<path id="XMLID_35_" class="st16" d="M233.24,333.4l1.3,0.02c0.8,0.01,1.41-0.58,1.42-1.38l0.65-37.19
		c0.01-0.8-0.58-1.41-1.38-1.42l-1.3-0.02c-0.8-0.01-1.41,0.58-1.42,1.38l-0.65,37.19C231.85,332.78,232.44,333.39,233.24,333.4z"/>
	<path id="XMLID_74_" class="st16" d="M224.44,333.25l1.3,0.02c0.8,0.01,1.41-0.58,1.42-1.38l0.65-37.19
		c0.01-0.8-0.58-1.41-1.38-1.42l-1.3-0.02c-0.8-0.01-1.41,0.58-1.42,1.38l-0.65,37.19C222.95,332.62,223.64,333.24,224.44,333.25z"
		/>
	<path id="XMLID_73_" class="st16" d="M216.14,333.11l1.3,0.02c0.8,0.01,1.41-0.58,1.42-1.38l0.65-37.19
		c0.01-0.8-0.58-1.41-1.38-1.42l-1.3-0.02c-0.8-0.01-1.41,0.58-1.42,1.38l-0.65,37.19C214.75,332.48,215.34,333.09,216.14,333.11z"
		/>
	<path id="XMLID_72_" class="st16" d="M64.39,294.86l36.19,0.63c0.9,0.02,1.51-0.67,1.53-1.47l0.02-1.4
		c0.02-0.9-0.67-1.51-1.47-1.53l-36.19-0.63c-0.9-0.02-1.51,0.67-1.53,1.47l-0.02,1.4C62.9,294.24,63.59,294.85,64.39,294.86z"/>
	<path id="XMLID_71_" class="st16" d="M60.33,303.89l40.19,0.7c0.9,0.02,1.51-0.67,1.53-1.47l0.02-1.4c0.02-0.9-0.67-1.51-1.47-1.53
		l-40.19-0.7c-0.9-0.02-1.51,0.67-1.53,1.47l-0.02,1.4C58.74,303.16,59.43,303.88,60.33,303.89z"/>
	<path id="XMLID_70_" class="st16" d="M57.56,313.45l42.79,0.74c0.9,0.02,1.51-0.67,1.53-1.47l0.02-1.4
		c0.02-0.9-0.67-1.51-1.47-1.53l-42.79-0.74c-0.9-0.02-1.51,0.67-1.53,1.47l-0.02,1.4C55.97,312.82,56.66,313.43,57.56,313.45z"/>
	<path id="XMLID_69_" class="st16" d="M55.51,322.11l44.69,0.78c0.9,0.02,1.51-0.67,1.53-1.47l0.02-1.4
		c0.02-0.9-0.67-1.51-1.47-1.53l-44.69-0.78c-0.9-0.02-1.51,0.67-1.53,1.47l-0.02,1.4C53.92,321.38,54.61,322.1,55.51,322.11z"/>
	<path id="XMLID_68_" class="st16" d="M52.77,330.26l47.19,0.82c0.9,0.02,1.51-0.67,1.53-1.47l0.02-1.4
		c0.02-0.9-0.67-1.51-1.47-1.53l-47.19-0.82c-0.9-0.02-1.51,0.67-1.53,1.47l-0.02,1.4C51.28,329.54,51.97,330.25,52.77,330.26z"/>
	<path id="XMLID_319_" class="st3" d="M240.58,279.52l9.9,0.17c0.6,0.01,1.21-0.48,1.22-1.18l0.24-14c0.01-0.6-0.48-1.21-1.18-1.22
		l-9.9-0.17c-0.6-0.01-1.21,0.48-1.22,1.18l-0.24,14C239.39,279,239.88,279.51,240.58,279.52z"/>
	<path id="XMLID_320_" class="st2" d="M236.9,278.36l0.24-14c0.03-2,1.66-3.67,3.76-3.64l9.9,0.17c2,0.03,3.67,1.66,3.64,3.76
		l-0.24,14c-0.03,2-1.66,3.67-3.76,3.64l-9.9-0.17C238.44,281.98,236.86,280.36,236.9,278.36z M249.32,265.87l-7.2-0.13l-0.2,11.3
		l7.2,0.13L249.32,265.87z"/>
	<path id="XMLID_358_" class="st2" d="M334.37,298.15c-0.59-6.31-0.85-14.62-0.69-23.52s0.7-17.19,1.51-23.48
		c1.16-8.98,2.4-11.76,5.2-11.71c0.6,0.01,69.18,2,70.37,2.22c0.4,0.01,1.6,0.23,6.64,3.42c2.09,0.64,3.24,3.66,3.92,10.67
		c0.6,5.61,0.87,13.02,0.74,20.92c-0.26,14.9-2.07,27.17-4.53,30.43c-0.62,0.99-1.73,1.77-3.14,2.45c-1.82,0.87-3.92,1.33-6.12,1.29
		l-69.1-0.8C336.36,309.99,335.21,307.07,334.37,298.15z M415.23,249.55c-1.88-1.23-4.26-2.57-5.05-2.89
		c-3.9-0.17-57.28-1.8-68.57-2.09c-1.06,3.18-2.55,14.26-2.83,30.26c-0.28,16,0.73,27.22,1.77,30.34l67.9,0.78
		c1.5,0.03,2.8-0.25,3.92-0.83c0.91-0.38,1.11-0.78,1.22-0.88c1.13-1.48,3.29-11.14,3.58-27.64
		C417.43,260.89,416.09,251.57,415.23,249.55L415.23,249.55z"/>
	<path id="XMLID_133_" class="st3" d="M331.11,261.19l8.8,0.15c0,0,4.08,12.57-0.46,26.3l-8.8-0.05L331.11,261.19z"/>
	<path id="XMLID_134_" class="st2" d="M328.65,258.65l13.1,0.23l0.57,1.71c0.19,0.5,4.27,13.48-0.48,27.9l-0.53,1.69l-13.2-0.13
		L328.65,258.65L328.65,258.65z M338.07,263.81l-4.4-0.08l-0.37,21.4l4.4,0.08C340.26,275.85,338.81,267.33,338.07,263.81z"/>
</g>
<path class="st0" d="M479.87,281.3l0.08-14.33c0.01-1.32,1.02-2.38,2.27-2.37l6.79,0.04c1.25,0.01,2.26,1.08,2.25,2.4l-0.08,14.33
	c-0.01,1.32-1.02,2.38-2.27,2.37l-6.79-0.04C480.87,283.69,479.86,282.62,479.87,281.3z M484.46,269.38l-0.05,9.56l2.26,0.01
	l0.05-9.56L484.46,269.38z"/>
<path class="st0" d="M493.42,281.37l0.08-14.33c0.01-1.32,1.02-2.38,2.27-2.37l6.79,0.04c1.25,0.01,2.26,1.08,2.25,2.4l-0.08,14.33
	c-0.01,1.32-1.02,2.38-2.27,2.37l-6.79-0.04C494.42,283.77,493.42,282.69,493.42,281.37z M498.01,269.46l-0.05,9.56l2.26,0.01
	l0.05-9.56L498.01,269.46z"/>
<path class="st0" d="M506.98,281.45l0.08-14.33c0.01-1.32,1.02-2.38,2.27-2.37l6.79,0.04c1.25,0.01,2.26,1.08,2.25,2.4l-0.08,14.33
	c-0.01,1.32-1.02,2.38-2.27,2.37l-6.79-0.04C507.98,283.84,506.97,282.77,506.98,281.45z M511.57,269.53l-0.05,9.56l2.26,0.01
	l0.05-9.56L511.57,269.53z"/>
<path class="st0" d="M520.53,281.53l0.08-14.33c0.01-1.32,1.02-2.38,2.27-2.37l6.79,0.04c1.25,0.01,2.26,1.08,2.25,2.4l-0.08,14.33
	c-0.01,1.32-1.02,2.38-2.27,2.37l-6.79-0.04C521.53,283.92,520.53,282.85,520.53,281.53z M525.12,269.61l-0.05,9.56l2.26,0.01
	l0.05-9.56L525.12,269.61z"/>
<path class="st0" d="M534.09,281.61l0.08-14.33c0.01-1.32,1.02-2.38,2.27-2.37l6.79,0.04c1.25,0.01,2.26,1.08,2.25,2.4l-0.08,14.33
	c-0.01,1.32-1.02,2.38-2.27,2.37l-6.79-0.04C535.08,284,534.08,282.93,534.09,281.61z M538.68,269.69l-0.05,9.56l2.26,0.01
	l0.05-9.56L538.68,269.69z"/>
<path class="st0" d="M547.64,281.68l0.08-14.33c0.01-1.32,1.02-2.38,2.27-2.37l6.79,0.04c1.25,0.01,2.26,1.08,2.25,2.4l-0.08,14.33
	c-0.01,1.32-1.02,2.38-2.27,2.37l-6.79-0.04C548.64,284.08,547.63,283.01,547.64,281.68z M552.23,269.77l-0.05,9.56l2.26,0.01
	l0.05-9.56L552.23,269.77z"/>
<path class="st0" d="M473.13,274.09c0.01-1.32,1.02-2.38,2.27-2.37l6.78,0.04c1.25,0.01,2.26,1.08,2.25,2.4
	c-0.01,1.32-1.02,2.38-2.27,2.37l-6.78-0.04C474.13,276.48,473.12,275.41,473.13,274.09z"/>
<path class="st0" d="M486.69,274.17c0.01-1.32,1.02-2.38,2.27-2.37l6.78,0.04c1.25,0.01,2.26,1.08,2.25,2.4s-1.02,2.38-2.27,2.37
	l-6.78-0.04C487.69,276.56,486.68,275.49,486.69,274.17z"/>
<path class="st0" d="M500.25,274.24c0.01-1.32,1.02-2.38,2.27-2.37l6.78,0.04c1.25,0.01,2.26,1.08,2.25,2.4
	c-0.01,1.32-1.02,2.38-2.27,2.37l-6.78-0.04C501.25,276.64,500.24,275.57,500.25,274.24z"/>
<path class="st0" d="M513.82,274.32c0.01-1.32,1.02-2.38,2.27-2.37l6.78,0.04c1.25,0.01,2.26,1.08,2.25,2.4s-1.02,2.38-2.27,2.37
	l-6.78-0.04C514.81,276.72,513.81,275.64,513.82,274.32z"/>
<path class="st0" d="M527.38,274.4c0.01-1.32,1.02-2.38,2.27-2.37l6.78,0.04c1.25,0.01,2.26,1.08,2.25,2.4s-1.02,2.38-2.27,2.37
	l-6.78-0.04C528.37,276.79,527.37,275.72,527.38,274.4z"/>
<path class="st0" d="M540.94,274.48c0.01-1.32,1.02-2.38,2.27-2.37l6.78,0.04c1.25,0.01,2.26,1.08,2.25,2.4s-1.02,2.38-2.27,2.37
	l-6.78-0.04C541.94,276.87,540.93,275.8,540.94,274.48z"/>
<path class="st0" d="M554.5,274.56c0.01-1.32,1.02-2.38,2.27-2.37l2.25,0.01c1.25,0.01,2.26,1.08,2.25,2.4
	c-0.01,1.32-1.02,2.38-2.27,2.37l-2.25-0.01C555.5,276.95,554.5,275.88,554.5,274.56z"/>
<path class="st0" d="M475.14,280.12c-1.32-0.01-2.38-1.02-2.37-2.27l0.04-6.78c0.01-1.25,1.08-2.26,2.4-2.25
	c1.32,0.01,2.38,1.02,2.37,2.27l-0.04,6.78C477.53,279.12,476.46,280.13,475.14,280.12z"/>
</svg>
