<?xml version="1.0" encoding="utf-8"?>
<!-- Generator: Adobe Illustrator 23.0.2, SVG Export Plug-In . SVG Version: 6.00 Build 0)  -->
<svg version="1.1" id="Layer_1" xmlns="http://www.w3.org/2000/svg" xmlns:xlink="http://www.w3.org/1999/xlink" x="0px" y="0px"
	 viewBox="0 0 612 792" style="enable-background:new 0 0 612 792;" xml:space="preserve">
<style type="text/css">
	.st0{fill:#818285;}
	.st1{fill:#9B9C9E;}
	.st2{fill:#5C5D5D;}
	.st3{fill:#969696;}
	.st4{fill:#3F2532;}
	.st5{fill:#404140;}
	.st6{fill:#595A5C;}
	.st7{fill:#5F6060;}
	.st8{fill:#FAA31F;}
	.st9{fill:#DE8326;}
	.st10{fill:#FBAF4A;}
	.st11{fill:#616262;}
	.st12{fill:#303030;}
</style>
<g id="XMLID_1_">
	<path id="XMLID_272_" class="st0" d="M417.6,72.3c0.6,6.7,2.3,24.7,5.6,32c0.7,1.5,2.2,2.3,3.8,2l91.8-17c3-0.5,6-0.6,9,0
		c2.7,0.6,6.7,0.4,10.3-3.5c6.2-6.7,7-33-5.4-39c0,0-4.8-2.8-13.2,2.2c-7.5,4.5-84.4,17.7-99.5,20.3
		C418.4,69.5,417.4,70.9,417.6,72.3z"/>
	<polygon id="XMLID_36_" class="st1" points="542.2,57.3 417.5,82 418.9,91.4 546.7,64.8 	"/>
	<rect id="XMLID_361_" x="297.1" y="511.5" class="st2" width="18.7" height="226.3"/>
	<rect id="XMLID_46_" x="297.1" y="511.5" class="st3" width="9.4" height="226.3"/>
	<path id="XMLID_362_" class="st4" d="M322.1,744.1h-31.2V505.3h31.2V744.1z M301.5,731.6h10.9V517.8h-10.9V731.6z"/>
	<path id="XMLID_280_" class="st5" d="M364.6,19.4c-20-11.9-58.1-12.3-58.1-12.3s-38.1,0.5-58.1,12.3s-10.5,40.4-10.5,40.4
		s8.8,22.5,6,54.6s-6.2,38.3,7.3,43.5c13.5,5.2,55.3,4.2,55.3,4.2s41.8,0.9,55.3-4.2s10.1-11.4,7.3-43.5c-2.8-32.1,6-54.6,6-54.6
		S384.5,31.2,364.6,19.4z M358.3,46.8c-1.6,25.1-19.8,27.6-19.8,27.6h-32.1h-32.1c0,0-18.1-2.5-19.8-27.6s29.1-10,51.8-10
		C329.2,36.8,359.9,21.7,358.3,46.8z"/>
	<path id="XMLID_283_" class="st4" d="M314.7,168.4c-4.1,0-7.1-0.1-8.3-0.1c-5,0.1-43.5,0.7-57.5-4.6c-15.7-6-14.8-15.4-12.6-36.1
		c0.4-4,0.9-8.5,1.3-13.8c2.6-30.1-5.5-51.6-5.6-51.8l-0.1-0.3c-0.5-1.4-10.8-33.5,13.2-47.8c21.2-12.6,59.6-13.2,61.2-13.2
		c1.8,0,40.2,0.6,61.4,13.2c24,14.3,13.7,46.4,13.2,47.8l-0.1,0.3c-0.1,0.2-8.2,21.7-5.6,51.8c0.5,5.2,0.9,9.8,1.3,13.8
		c2.1,20.7,3.1,30.1-12.6,36.1C353.2,167.8,328.1,168.4,314.7,168.4z M306.5,155.8h0.1c11.3,0.2,42.9,0.1,53-3.8
		c6.5-2.5,6.8-2.6,4.6-23.1c-0.4-4-0.9-8.6-1.4-14c-2.8-31.9,5.4-54.7,6.3-57.2c0.5-1.6,7.1-24.2-7.7-33
		c-18.3-10.9-54.6-11.4-55-11.4c-0.2,0-36.6,0.6-54.8,11.4c-14.9,8.8-8.3,31.3-7.7,33c1,2.5,9.1,25.3,6.3,57.2
		c-0.5,5.3-0.9,9.9-1.4,14c-2.1,20.5-1.9,20.6,4.6,23.1c10.1,3.8,41.7,4,53,3.8H306.5z M339,80.6l-65.4-0.1
		c-8-1.1-23.6-9.5-25.1-33.4c-0.5-7.3,1.3-12.9,5.4-16.5c7.6-6.8,20.1-4.7,33.3-2.4c6.6,1.1,13.4,2.3,19.3,2.3s12.7-1.2,19.3-2.3
		c13.2-2.3,25.7-4.4,33.3,2.4c4.1,3.7,5.9,9.2,5.4,16.5C363,71,347.4,79.4,339.4,80.5L339,80.6z M274.9,68.1H338
		c2.2-0.5,12.9-3.7,14.1-21.7l0,0c0.1-1.9,0.1-5.1-1.3-6.4c-3.1-2.8-14.1-0.9-22.9,0.6c-7.1,1.2-14.4,2.5-21.4,2.5
		s-14.3-1.3-21.4-2.5c-8.8-1.5-19.8-3.4-22.9-0.6c-1.4,1.3-1.4,4.6-1.3,6.4C262,64.2,272.5,67.6,274.9,68.1z"/>
	<path id="XMLID_276_" class="st6" d="M369.9,81.9l22.5-1.8c3.5-0.3,7-1.3,10.1-3c4-2.1,10.2-4.5,16-2.7c0,0,12.4,8.8,4.5,29.8
		c0,0-14.9,2-21.7,0c-6.8-2-32.6,3.7-32.6,3.7S367.3,95.2,369.9,81.9z"/>
	<path id="XMLID_277_" class="st4" d="M363.1,115.4l-0.7-7c-0.1-0.6-1.4-13.7,1.3-27.7l0.9-4.7l27.2-2.2c2.7-0.2,5.3-1,7.7-2.3
		c5.2-2.7,13-5.5,20.7-3.2l1,0.3l0.8,0.6c0.7,0.5,16.2,11.9,6.7,37.1l-1.3,3.5l-3.7,0.5c-1.7,0.2-16.4,2.1-24.3-0.2
		c-3.2-0.9-17.9,1.2-29.5,3.8L363.1,115.4z M375.3,87.7c-0.6,4.7-0.7,9.1-0.7,12.5c9.1-1.7,22.7-3.8,28.5-2.1
		c3,0.9,9.8,0.7,15.2,0.2c3-10.8-0.9-16.4-2.8-18.3c-3.6-0.5-7.8,1.3-10.1,2.5c-3.9,2.1-8.2,3.3-12.5,3.7L375.3,87.7z"/>
	<path id="XMLID_273_" class="st4" d="M426.3,112.6c-3.8,0-7.3-2.2-8.8-5.7c-3.5-7.8-5.3-24.7-6.1-34c-0.4-4.8,2.8-8.9,7.5-9.7
		c52.5-9,92.5-17,97.4-19.6c10.1-6,17.2-3.3,19-2.4l0,0c6.3,3.1,10.8,9.9,12.5,19.2c1.8,9.7,0.6,23.4-5.3,29.7
		c-4.4,4.7-10.1,6.6-16.2,5.4c-2-0.4-4.2-0.4-6.6,0l-91.8,17C427.5,112.6,426.9,112.6,426.3,112.6z M424.1,74.9
		c1,10.9,2.5,19.9,4.1,24.8l89.5-16.6c3.9-0.7,7.7-0.7,11.4,0c1.7,0.4,3.1-0.2,4.5-1.6c1.6-1.7,3.8-9.9,2.1-18.9
		c-1-5.2-3.1-9-5.7-10.3h-0.1c-0.4-0.1-2.8-0.7-7.2,2C515.4,58.6,465.8,67.8,424.1,74.9z"/>
	<path id="XMLID_268_" class="st6" d="M243.6,81.9l-22.5-1.8c-3.5-0.3-7-1.3-10.1-3c-4-2.1-10.2-4.5-16-2.7c0,0-12.4,8.8-4.5,29.8
		c0,0,14.9,2,21.7,0s32.6,3.7,32.6,3.7S246.1,95.2,243.6,81.9z"/>
	<path id="XMLID_269_" class="st4" d="M250.3,115.4l-6.9-1.5c-11.6-2.6-26.3-4.7-29.5-3.8c-7.9,2.3-22.6,0.4-24.3,0.2l-3.7-0.5
		l-1.3-3.5c-9.5-25.1,6-36.6,6.7-37.1l0.8-0.6l1-0.3c7.7-2.3,15.5,0.5,20.7,3.2c2.4,1.3,5,2,7.7,2.3l27.2,2.2l0.9,4.7
		c2.7,14,1.4,27.2,1.3,27.7L250.3,115.4z M216.4,97.5c6.6,0,15.7,1.5,22.5,2.7c0-3.4-0.1-7.8-0.7-12.5l-17.6-1.4
		c-4.4-0.4-8.6-1.6-12.5-3.7c-2.3-1.2-6.5-3-10.1-2.5c-1.8,1.8-5.7,7.4-2.7,18.3c5.5,0.5,12.2,0.7,15.2-0.2
		C212,97.7,214,97.5,216.4,97.5z"/>
	<path id="XMLID_264_" class="st0" d="M195.9,72.3c-0.6,6.7-2.3,24.7-5.6,32c-0.7,1.5-2.2,2.3-3.8,2l-91.8-17c-3-0.5-6-0.6-9,0
		c-2.7,0.6-6.7,0.4-10.3-3.5c-6.2-6.7-7-33,5.4-39c0,0,4.8-2.8,13.2,2.2c7.5,4.5,84.4,17.7,99.5,20.3C195,69.5,196,70.9,195.9,72.3z
		"/>
	<polygon id="XMLID_34_" class="st1" points="72.5,54.4 197.2,79 195.9,88.4 68.1,61.8 	"/>
	<path id="XMLID_265_" class="st4" d="M187.1,112.6c-0.6,0-1.2-0.1-1.8-0.2l-91.8-17c-2.3-0.4-4.5-0.4-6.6,0
		c-6,1.3-11.8-0.7-16.2-5.4c-5.8-6.3-7.1-20-5.3-29.7c1.7-9.3,6.2-16.1,12.5-19.2l0,0c1.8-0.9,8.9-3.6,19.1,2.4
		c4.8,2.5,44.9,10.6,97.4,19.5c4.7,0.8,7.9,5,7.5,9.7l0,0c-0.8,9.3-2.6,26.2-6.1,34C194.4,110.4,190.9,112.6,187.1,112.6z
		 M90.1,82.6c1.9,0,3.8,0.2,5.7,0.5l89.5,16.6c1.5-4.9,3-13.9,4.1-24.8C147.7,67.7,98,58.6,90.8,54.3c-4-2.4-6.3-2.2-7-2l-0.4,0.3
		l0.2-0.2c-2.6,1.3-4.7,5-5.7,10.3c-1.7,9,0.5,17.2,2.1,18.9c1.4,1.5,2.8,2,4.5,1.6C86.3,82.8,88.2,82.6,90.1,82.6z"/>
	<path id="XMLID_260_" class="st5" d="M319.3,741.2c-1.2-7.7-12.9-7.1-12.9-7.1s-11.6-0.6-12.9,7.1c-1.2,7.7-2.5,40.6-2.5,40.6
		c0,1.6,6.9,3,15.4,3s15.4-1.3,15.4-3C321.8,781.8,320.6,749,319.3,741.2z"/>
	<path id="XMLID_261_" class="st4" d="M306.5,791.1c-14.9,0-21.6-2.8-21.6-9.2v-0.2c0.1-1.4,1.3-33.3,2.6-41.3
		c1.7-10.3,12.6-12.7,19-12.4c6.5-0.3,17.4,2.1,19,12.4l0,0c1.3,8,2.5,40,2.6,41.3v0.2C328.1,788.2,321.4,791.1,306.5,791.1z
		 M297.5,777.9c2,0.3,5,0.6,9,0.6c3.9,0,7-0.3,8.9-0.6c-0.5-10.9-1.4-30.4-2.2-35.7c-0.2-1.3-4.3-2-6.4-1.9h-0.3h-0.3
		c-2.3-0.1-6.2,0.7-6.4,1.9C298.9,747.5,298,767,297.5,777.9z"/>
	<ellipse id="XMLID_3_" class="st7" cx="306.5" cy="781.8" rx="15.4" ry="3"/>
	<path id="XMLID_129_" class="st5" d="M348.2,159c-18.3-6.2-41.7-5.8-41.7-5.8s-23.4-0.4-41.7,5.8c-2.2,0.7-3.7,2.8-3.7,5.1v15
		l45.4-6.8l45.4,6.8v-15C351.9,161.8,350.4,159.7,348.2,159z"/>
	<path id="XMLID_130_" class="st4" d="M358.1,186.3l-51.7-7.8l-51.7,7.8v-22.2c0-5,3.2-9.5,7.9-11.1c18.7-6.3,41.7-6.1,43.7-6.1
		s25.1-0.2,43.7,6.1l0,0c4.7,1.6,7.9,6,7.9,11.1v22.2H358.1z M267.3,164.7v7.1l39.2-5.9l39.2,5.9v-7.1c-17-5.6-38.8-5.2-39.1-5.2
		h-0.1h-0.1C306.1,159.5,284.2,159.2,267.3,164.7z"/>
	<path id="XMLID_125_" class="st8" d="M370.3,192.2c-0.5-0.6-1-1.1-1.6-1.6c-9.2-9.1-21.2-14.7-33.9-16.5
		c-15.1-2.1-28.3-1.9-28.3-1.9s-13.2-0.3-28.3,1.9c-12.8,1.8-24.8,7.4-33.9,16.5c-0.5,0.5-1.1,1.1-1.6,1.6c-6,6.4-9.1,15-9.1,23.8
		v98c0,1.3,1,2.3,2.3,2.3h70.7h70.7c1.3,0,2.3-1,2.3-2.3v-98C379.4,207.2,376.3,198.6,370.3,192.2z"/>
	<path id="XMLID_29_" class="st9" d="M367,189v127.3h16.5L381.2,206C381.2,206,372.2,193.2,367,189z"/>
	<path id="XMLID_26_" class="st10" d="M286.7,173.2v143.2l-34,1.8V183.7C252.7,183.7,266.9,174,286.7,173.2z"/>
	<path id="XMLID_126_" class="st4" d="M377.1,322.6H235.8c-4.7,0-8.6-3.8-8.6-8.6v-98c0-10.6,3.8-20.6,10.8-28
		c0.6-0.6,1.2-1.2,1.7-1.8c9.8-9.7,23.1-16.2,37.5-18.2c14.8-2.1,27.7-2,29.2-1.9c1.5,0,14.4-0.1,29.2,1.9
		c14.4,2,27.7,8.5,37.5,18.2c0.6,0.6,1.2,1.2,1.7,1.8l0,0c7,7.4,10.8,17.4,10.8,28v98C385.7,318.7,381.8,322.6,377.1,322.6z
		 M239.7,310.1h133.5V216c0-7.5-2.6-14.4-7.4-19.5l0,0c-0.5-0.5-0.9-1-1.4-1.5c-7.9-7.8-18.7-13.1-30.4-14.7
		c-14.4-2-27.2-1.8-27.3-1.8h-0.1h-0.1c-0.1,0-12.9-0.2-27.3,1.8c-11.7,1.7-22.5,6.9-30.4,14.7c-0.5,0.5-1,1-1.4,1.5
		c-4.8,5.1-7.4,12-7.4,19.5v94.1H239.7z"/>
	<path id="XMLID_121_" class="st5" d="M375.7,316c-8.6-1-37.7-3.9-69.3-4.2c-31.6,0.3-60.7,3.2-69.3,4.2c-1.5,0.2-2.5,1.4-2.5,2.8v8
		c0,0.6,0.2,1.2,0.5,1.7l25.6,35.6c1.5,2,2.2,4.4,2.2,6.9v18c0,1.9,1.6,3.5,3.5,3.5h39.9h39.9c1.9,0,3.5-1.6,3.5-3.5v-18
		c0-2.5,0.8-4.9,2.2-6.9l25.6-35.6c0.4-0.5,0.5-1.1,0.5-1.7v-8C378.3,317.4,377.2,316.2,375.7,316z"/>
	<path id="XMLID_41_" class="st11" d="M286.7,312.3v80.2l-26-0.9c0,0-2.3-27.1-2.8-27.9s-3.6-7.3-3.6-7.3v-42.1
		C254.2,314.4,284.8,312.4,286.7,312.3z"/>
	<path id="XMLID_122_" class="st4" d="M346.4,398.8h-79.9c-5.4,0-9.8-4.4-9.8-9.8v-18c0-1.2-0.4-2.3-1.1-3.3L230,332.1
		c-1.1-1.6-1.7-3.4-1.7-5.3v-8c0-4.6,3.5-8.5,8.1-9.1c8.3-0.9,38-4,69.9-4.2c32,0.3,61.7,3.3,70,4.2l0,0c4.6,0.5,8.1,4.4,8.1,9.1v8
		c0,1.9-0.6,3.8-1.7,5.3l-25.6,35.6c-0.7,1-1.1,2.1-1.1,3.3v18C356.2,394.4,351.8,398.8,346.4,398.8z M269.2,386.3h74.5V371
		c0-3.8,1.2-7.5,3.4-10.6l24.9-34.7v-3.9c-10.9-1.1-37.4-3.6-65.6-3.8c-28.1,0.2-54.6,2.7-65.5,3.8v3.9l24.9,34.7
		c2.2,3.1,3.4,6.8,3.4,10.6L269.2,386.3L269.2,386.3z"/>
	<rect id="XMLID_117_" x="280.4" y="392.5" class="st12" width="52" height="25.8"/>
	<path id="XMLID_118_" class="st4" d="M338.7,424.6h-64.5v-38.3h64.5V424.6z M286.7,412.1h39.6v-13.3h-39.6V412.1z"/>
	<path id="XMLID_113_" class="st2" d="M335.4,467.4h-57.8c-1.9,0-3.5-1.5-3.5-3.5v-42.1c0-1.9,1.5-3.5,3.5-3.5h57.8
		c1.9,0,3.5,1.5,3.5,3.5v42.1C338.8,465.8,337.3,467.4,335.4,467.4z"/>
	<path id="XMLID_114_" class="st4" d="M333.4,473.6h-54c-6.4,0-11.6-5.2-11.6-11.6v-38.2c0-6.4,5.2-11.6,11.6-11.6h54
		c6.4,0,11.6,5.2,11.6,11.6V462C345.1,468.4,339.9,473.6,333.4,473.6z M280.3,461.1h52.3v-36.5h-52.3V461.1z"/>
	<path id="XMLID_109_" class="st5" d="M262.2,454.4h11.9v-27.1h-11.9c-0.8,0-1.5,0.7-1.5,1.5v24.1
		C260.7,453.7,261.4,454.4,262.2,454.4z"/>
	<path id="XMLID_110_" class="st4" d="M278,458.3h-15c-3.4,0-6.2-2.8-6.2-6.2v-22.4c0-3.4,2.8-6.2,6.2-6.2h15V458.3z M264.6,450.5
		h5.6v-19.3h-5.6V450.5z"/>
	<path id="XMLID_105_" class="st2" d="M252.1,448.5h8.6v-15.2h-8.6c-1,0-1.8,0.8-1.8,1.8v11.6C250.3,447.7,251.1,448.5,252.1,448.5z
		"/>
	<path id="XMLID_106_" class="st4" d="M264.6,452.4h-11.5c-3.7,0-6.7-3-6.7-6.7V436c0-3.7,3-6.7,6.7-6.7h11.5V452.4z M254.2,444.6
		h2.5v-7.4h-2.5V444.6z"/>
	<path id="XMLID_9_" class="st5" d="M329.1,467.4c0,0-0.2,7.3-0.5,13.7c-0.1,4-5.5,8.1-9.5,10.6c-2.5,1.6-5.3,2.4-8.3,2.4h-4.4H302
		c-2.9,0-5.8-0.8-8.3-2.4c-4-2.5-9.4-6.6-9.5-10.6c-0.2-6.4-0.5-13.7-0.5-13.7L274,461v17.4c0,4.1,0.8,8.2,2.4,12l8.7,17.4
		c1.2,2.3,3.5,3.8,6.1,3.8h15.1h15.1c2.6,0,5-1.5,6.1-3.8l8.7-17.4c1.6-3.8,2.4-7.9,2.4-12V461L329.1,467.4z"/>
	<path id="XMLID_61_" class="st4" d="M321.5,516.2h-30.2c-4.4,0-8.3-2.4-10.3-6.4l-8.9-17.7c-1.9-4.4-2.8-9.1-2.8-13.8v-26.1
		l19,12.6l0.1,2.4c0,0,0.2,7.3,0.5,13.7c0,0.6,1.4,3.1,7.3,6.8c1.7,1.1,3.7,1.7,5.8,1.7h8.9c2,0,4-0.6,5.8-1.7
		c5.9-3.7,7.3-6.2,7.3-6.8c0.2-6.4,0.5-13.7,0.5-13.7l0.1-2.4l19-12.6v26.1c0,4.8-0.9,9.4-2.8,13.8l-0.1,0.3l-8.7,17.4
		C329.9,513.8,325.9,516.2,321.5,516.2z M280.8,488.3l8.7,17.3c0.4,0.7,1.1,1.2,1.9,1.2h30.2c0.8,0,1.6-0.5,1.9-1.2l8.7-17.3
		c1.3-3.2,2-6.6,2-10v-8.6l-0.4,0.3c-0.1,2.7-0.2,7.2-0.4,11.3c-0.2,4.9-4,9.6-11.7,14.4c-3.2,2-7,3.1-10.8,3.1H302
		c-3.8,0-7.5-1.1-10.8-3.1c-7.7-4.8-11.5-9.6-11.7-14.4c-0.1-4.1-0.3-8.6-0.4-11.3l-0.4-0.3v8.6
		C278.8,481.8,279.4,485.2,280.8,488.3z"/>
</g>
</svg>
