<?xml version="1.0" encoding="utf-8"?>
<!-- Generator: Adobe Illustrator 19.0.0, SVG Export Plug-In . SVG Version: 6.00 Build 0)  -->
<svg version="1.1" id="Layer_2" xmlns="http://www.w3.org/2000/svg" xmlns:xlink="http://www.w3.org/1999/xlink" x="0px" y="0px"
	 viewBox="0 0 1400 980" style="enable-background:new 0 0 1400 980;" xml:space="preserve">
<style type="text/css">
	.st0{fill:#003143;}
	.st1{fill:#FFFFFF;}
	.st2{fill:#025B5E;}
	.st3{fill:#077C7C;}
	.st4{fill:#3E2432;}
	.st5{fill:#DDDAD3;}
	.st6{fill:#EDEBE8;}
	.st7{fill:#C9C6BF;}
	.st8{fill:#033F3F;}
	.st9{fill:#0D8484;}
	.st10{fill:#808285;}
	.st11{fill:#9C9D9F;}
	.st12{fill:#5B5C5C;}
	.st13{fill:#959696;}
	.st14{fill:#3F403F;}
	.st15{fill:#58595B;}
	.st16{fill:#5E5F5F;}
	.st17{fill:#FAA21B;}
	.st18{fill:#DF8326;}
	.st19{fill:#FBAF49;}
	.st20{fill:#606161;}
	.st21{fill:#303030;}
	.st22{fill:#067777;}
	.st23{fill:#B7B7B7;}
	.st24{fill:#C6C6C5;}
	.st25{fill:#A5A4A4;}
	.st26{fill:#9DD7CD;}
	.st27{fill:#EFEDE8;}
	.st28{fill:#BCB9B3;}
	.st29{fill:#069393;}
	.st30{fill:#0BB4B0;}
	.st31{fill:#787878;}
	.st32{fill:#848383;}
	.st33{opacity:0.4;fill:#FFFFFF;}
	.st34{fill:#595757;}
	.st35{fill:#FAA83A;}
	.st36{fill:#FCB454;}
	.st37{fill:#ED8B22;}
	.st38{fill:#F8B355;}
	.st39{fill:#F29D35;}
	.st40{fill:#F8C07C;}
	.st41{fill:#969696;}
	.st42{fill:#706F70;}
	.st43{fill:#D78028;}
	.st44{fill:#828282;}
	.st45{fill:#72C48D;}
	.st46{fill:#5CAF75;}
	.st47{fill:#A4D5AB;}
	.st48{fill:#99D19E;}
	.st49{fill:#B1DAB0;}
	.st50{fill:#6B6B6B;}
	.st51{opacity:0.5;fill:#FFFFFF;}
	.st52{fill:#323332;}
	.st53{fill:#57A36D;}
</style>
<rect id="XMLID_53_" class="st0" width="1400" height="980"/>
<path id="XMLID_381_" class="st1" d="M687,938.5c14.9,5.1,34.5,10.6,53.6,15.2h0c7.7,1.9,14.9,3.5,20.3,4.5c4.5,0.9,8.1,1.6,12,1.6
	c9.6,0,17.6-4.7,22.1-12.8c1.1-1.9,1.9-4,2.4-6.1c4.9-4.5,8.7-10.7,11-18.1c1.8-3.7,2.8-7.7,2.8-11.8l3.4-16.4l-3.2-0.8
	c8-7.6,10.2-19.5,5.7-29.3c4.8-3.5,8.2-8.5,9.6-14.4c1.8-7.2,0.4-14.6-3.8-20.6c0-0.5-0.1-1.6,0.2-3.2c0.1-0.5,0.2-1,0.3-1.5h1.3
	l2.7-0.6c0.4-0.1,0.8-0.2,1.2-0.3l16.2-2.6l-3-5.1c1.4-1.3,2.7-2.9,3.9-4.7c8.6,0,16.3-4.8,20.2-12.5c3.9-7.7,3.2-16.8-1.9-23.8
	l-1.6-2.2c-1-2.7-0.9-10.6,0.2-15.7l0.3-1.2c2.9-2.3,5.4-5.3,7.2-8.7c2.9-5.4,4.4-11.3,4.6-17.1h21l0.4,0c4.1-0.1,13.6-0.8,22.7-5.6
	c22-3.7,37.6-6.4,45.3-7.7c11.4-2,20.8-9.8,24.8-20.4c3.9-0.5,7.7-1.8,11-3.8c12.2-2.5,21.4-13.3,21.4-26.2v-14.9
	c0-12.9-9.2-23.7-21.4-26.2c-3.4-2-7.2-3.4-11.2-3.8c-4.1-9.7-12.3-17.3-22.7-20.5l-40.6-12.6c-6-3.2-16.9-7-40.6-9.4
	c-19.5-2-181.8-9.4-192.3-7.7c-22.2,3.5-28.8,20.6-30.4,34.3c-1.3,11.4-5.9,69.2-5.9,88.6c0,38.9,0.3,50.5,8.2,59.8l3.2,3.8l4.5,2.2
	c0.1,0.1,0.3,0.1,0.4,0.2c4.6,6.8,11.1,11.4,18.8,13c4.5,1,8.6,0.7,12.9,0.3c-10.7,31.6-29.2,88.8-30.9,112.5c0,0.4,0,0.8-0.1,1.1
	c-1.3,3.1-2.1,5.7-2.5,8.1c-0.7,4.1-0.4,8.1,0.7,11.9c-1.2,4.3-1.4,8.8-0.5,13.3l2.9,13.5L687,938.5z"/>
<path id="XMLID_382_" class="st1" d="M534,195.7c10.9-11.8,13-32.1,10.3-47c-2.9-15.7-11.2-27.6-23.3-33.5c-4.1-2-18.5-7.6-36.5,2.2
	c-6.4,2-35.8,8.3-92.2,18c-4.4,0.8-8.5,2.5-12,5c0.9-17.8-4.4-39-25.6-51.6c-25.4-15.1-66.7-15.9-71.4-16l-0.2,0l-0.2,0
	c-7.5,0.1-46.4,1.3-71.2,16c-21.1,12.5-26.4,33.5-25.6,51.2c-3.4-2.3-7.3-3.9-11.5-4.6c-56.3-9.6-85.7-15.9-92.1-17.9
	c-18-9.9-32.5-4.2-36.5-2.3c-12.2,5.9-20.5,17.8-23.4,33.5c-2.8,14.9-0.7,35.2,10.3,47c9,9.7,21.4,13.9,34.1,11.5l91.4,16.9
	c5.1,0.9,10.3,0.6,15-1.1c7.5,0.4,14,0.2,19.3-0.9c-1,9.8-1.4,18,0.6,25.9c1.6,6.3,4.6,11.6,9,16.1c-0.7,0.7-1.4,1.4-2,2.1
	c-10.5,11.2-16.2,26-16.2,41.7v98c0,2.7,0.4,5.4,1.2,8v4.8c0,6.1,1.9,12,5.5,17l22.9,31.8V481c0,8.2,3.4,15.7,8.8,21.1
	c-0.2,0.2-0.4,0.3-0.6,0.5c-10.7,3.5-18.5,13.5-18.5,25.4v9.6c0,11.9,7.8,22,18.5,25.4c1.4,1.3,2.8,2.4,4.4,3.4v3.8
	c0,7.5,1.5,14.8,4.4,21.6l9.4,18.8c1.9,3.8,4.5,7.1,7.7,9.8v198.7c-1.5,3.1-2.6,6.4-3.2,9.9c-1.4,8.6-2.5,35.7-2.8,43.7l0,1
	c0,11.3,6.5,20.8,17.3,25.4c6.1,2.6,13.8,3.8,24.3,3.8s18.1-1.2,24.3-3.8c10.9-4.6,17.3-14.1,17.3-25.4l0-1
	c-0.3-8.1-1.4-35.1-2.8-43.7c-0.6-3.5-1.6-6.8-3.2-9.9V620.6c3.1-2.7,5.7-6,7.7-9.8l8.7-17.4l0.7-1.4c2.9-6.9,4.4-14.2,4.4-21.6
	v-6.5c1-3.2,1.6-6.5,1.6-9.8v-38.2c0-3.6-0.6-7-1.7-10.3c7.7-5.4,12.8-14.3,12.8-24.4v-13.3l22.8-31.8c3.6-5,5.5-10.9,5.5-17V414
	c0.8-2.6,1.2-5.3,1.2-8v-98c0-15.7-5.8-30.6-16.2-41.7c-0.7-0.7-1.4-1.4-2.1-2.1c4.4-4.4,7.4-9.8,9-16.1c2-8,1.6-16.2,0.6-26
	c5.4,1.1,12,1.4,19.8,1c4.7,1.6,9.9,2,15,1.1l91.4-16.9C512.6,209.5,525,205.4,534,195.7z"/>
<path id="XMLID_385_" class="st1" d="M1365.4,206L1365.4,206c-1.9-4.3-2.8-6.8-3.3-8.2c0.1-1.6,0.4-3.9,0.6-5.9l0-0.1
	c1-8.9,2.5-22.3,2.8-40c0.3-19.3-3.2-36-5.8-46.2c1-3.2,1.5-6.6,1.7-10.2c0.9-19.5-12.3-31.9-25.8-34.2l-2.1-0.3h-63.5
	c-7.8,0-13.9,1.6-18.8,4c-6.2-4.5-14-6.7-22.1-5.8l-87.9,10v-0.7c0-13.9-11.3-25.3-25.3-25.3H989.6c-5.3-4-11.9-6.2-18.8-6.2h-7.2
	c-6.9,0-13.5,2.2-18.8,6.2H805.6c-1.7,0-3.3,0.2-4.9,0.5c-1.6-0.3-3.3-0.5-5-0.5h-85.4c-5.6,0-10.8,1.7-15.1,4.8h-84.9
	c-4.1-2.7-8.9-4.3-14.1-4.3h-14.5c-13.9,0-25.3,11.3-25.3,25.3v12.1c0,9.2,5,17.3,12.4,21.8v36.2c0,12.4,7.9,23,18.9,27
	c6.6,7.2,16,11.5,26.2,11.5h299v-12c0.5-0.6,1-1.1,1.5-1.7h0.8c-0.3,1.6-0.4,3.2-0.4,4.8c0,11.3,6.3,21.1,15.6,26.1
	c-2.5,45.4-2,99.8-1.6,123.6c-1.8,3.8-2.7,7.9-2.7,12.2c0,15.8,12.8,28.6,28.6,28.6h19.3c-22,16.6-42.9,21.1-45.4,21.6
	c-24.6,2.9-43.2-1.5-55.4-13c-16.3-15.4-19.4-41.6-19.9-53.5v-7.7l1.6-24.1h-1.6v-4.4c2.7-4.5,4.2-9.7,4.2-15.1v-8.9
	c0-1.9-0.2-3.9-0.6-5.8c0.4-1.9,0.6-3.8,0.6-5.8v-8.9c0-16-13.1-29.1-29.1-29.1h-11.8c-16,0-29.1,13.1-29.1,29.1v8.9
	c0,1.9,0.2,3.7,0.5,5.5H782v69.1h9.8v12h2.4C800,375,824.7,423,879.7,437c10.4,2.6,21.2,4,32.3,4c0,0,0,0,0,0
	c49.6,0,88.8-26.5,93.1-29.5l0.3-0.2c75.6-55.2,81.7-120.2,79.6-164.3c-0.6-12.5-2.7-26-6.4-40.5h29.7c6.1,0,12.3-1.5,17.8-4.2
	l8.5-4.3l97.5,3.7c5,0.2,10-0.8,14.4-2.9c2,0.4,4,0.8,5.9,1.2c11.6,6.4,21,11.8,27.1,15.4c-0.6,6.3,0.8,12.6,4.2,18.2
	c4.9,8.3,13.3,13.6,22.8,14.6c9,1,20.5,1,33.1,0.3c9.9-0.6,18.9-6,24-14.5C1368.7,225.5,1369.4,215,1365.4,206z M1005.7,317.7
	c0.4-23.3,0.9-74.8-1.4-119.1c2.6,1.8,5.3,3.3,8.1,4.5c3.4,9.9,6.1,19.7,8.1,29.3c6.5,31,1.6,62.5-13.3,88.9
	C1006.7,320,1006.2,318.8,1005.7,317.7z"/>
<path id="XMLID_386_" class="st1" d="M797.7,418.6c1.3,0.7,2.5,1.4,3.6,2.3l9.6,6.1c3.3,2.1,6.2,4.8,8.4,8c5,4.3,8.4,10.3,9.6,17
	c0.4,2.5,2.6,15.6,0.6,27c-0.6,3.6-2.2,12.8-9.1,19.6c-2.2,3.6-5.2,6.7-8.7,9.1l-10.4,7.1c-0.4,0.3-0.9,0.6-1.3,0.8
	c-1.5,1.1-3.1,2.2-4.8,3c-4.6,2.3-9.7,3.5-15,3.6l-69.1,0.4H711c-2.6,0-5.1-0.4-7.4-1.2c-2.5,0.8-5.2,1.2-7.9,1.2h-9.2
	c-1.4,2.8-3.1,5.4-5.2,7.9l-30.1,35.3c-6.9,8.2-17.1,12.8-27.8,12.8h-96.7l-5.7,12v11c0,11.1-6.5,20.6-15.9,25.1
	c-1,1.4-2.1,2.8-3.3,4.1c-0.1,0.3-0.4,1-0.5,2.3c-1,9.2-1.7,23.8-2.1,31.4l2.1,2.7c6.7,8.6,9,19.4,6.2,28.7
	c-2.4,7.9-8.2,14.2-16,17.5c-9.6,4.7-26.2,7-50.8,7.1l-1.3,0c-16.9,0-28.5-1.2-36.5-3.8c-17.2-5.6-20-18.3-20.3-23.5l0-0.3
	c-0.4-7.5-3.3-58.5-3.3-99.1c0-14.5,0.4-27.7,1.3-37.1c3.5-33.8,7.2-56.9,28.2-91.8c-10.1-8.3-12.5-23-5.4-34.1l7.2-11.3
	c5.1-8,13.9-12.8,23.4-12.8h159.3c4.8-3.6,10.7-5.6,16.9-5.6H662c9,0,17,4.2,22.2,10.7h11.5c2.8,0,5.4,0.4,7.9,1.2
	c2.3-0.8,4.8-1.2,7.4-1.2c0.4,0,32.8,0.4,54.2,0.7l0.3-14.5L797.7,418.6z"/>
<path id="XMLID_389_" class="st1" d="M1316.4,842.6l3.3,7.5v-8c5.9-1.1,11.8-3.3,16.8-7.6c5.6-4.8,8.9-11.2,9.5-18.2l0.1-0.7
	l0-201.8c2-3.8,3.2-8,3.2-12.5v-18.1c0-7.3-3-13.9-7.8-18.6v-0.1c2.4-3.9,3.9-8.6,3.9-13.6v-31.8h2.7l-2.8-25.6
	c-0.1-1.1-0.2-2.2-0.4-3.3c-0.8-5.1-2.3-12.1-5.6-18.7c1.1-2.9,1.7-6.1,1.7-9.4v-27.8c0-5.4-1.6-10.5-4.4-14.8v-13.7
	c0-15.2-12.4-27.6-27.6-27.6h-34.2c-15.2,0-27.6,12.4-27.6,27.6v21c-0.7,2.4-1.1,5-1.1,7.5v27.8c0,1.7,0.2,3.3,0.5,4.9
	c-3.7,5.8-5.8,12.2-7.1,18c-0.9,2.4-1.4,5-1.4,7.6v1.1l-2.7,25.3h2.7v14c-2.5-12.3-13.3-21.6-26.4-21.6c-12.1,0-22.4,8.1-25.7,19.1
	c-21.3-2.2-59.4-2.9-73.5-0.6c-2.5,0.4-3.9,0.5-4.6,0.5c-6.5-5.8-15.4-8-24-6.1c-8.9,2-16.1,8.3-19.3,16.8
	c-2.2,5.9-4.9,15.9-4.9,29.4c0,13.5,2.7,23.5,4.9,29.4c3.2,8.5,10.4,14.8,19.3,16.8c5.2,1.2,10.5,0.8,15.4-0.9
	c-3.2,5.6-5.3,11.7-6.3,17.6l-0.3,1.8l-0.3,107.6h-19.7l-6.4,4.8c-11.1,8.3-13.5,21.2-13.9,24.9l-0.1,1.2l0,18.3l0.2,1.4
	c0.5,3.8,2.8,16.6,13.9,24.9l6.4,4.8h24.5c4.6,8.3,12.3,13.1,18.8,15l3,0.9l3.1,0.1c0.8,0,20.8,0.4,30.5,0.2
	c6.1-0.1,11.6-1.1,16.3-2.9c59.1,2.1,93.4-1.9,111.3-5.4l13.7,10.8l7.3,0.6C1305.5,843.1,1310.9,843.3,1316.4,842.6z M1195.8,748.8
	v-0.2l26.9-4.5h20.1c-2.6,0.7-5.2,1.2-7.8,1.4L1195.8,748.8z"/>
<g id="XMLID_47_">
	<path id="XMLID_315_" class="st2" d="M735.1,762.7c0,0-34.1,96.8-36.2,125.3c-0.1,1.2,0.7,2.4,1.9,2.8c9.6,3.4,52.5,18.3,85.5,21.9
		c1,0.1,1.8-0.7,1.7-1.7c-0.7-5.2-2.2-19.6,0.3-25c2.2-5,5.9-8.5,7.6-9.9c0.5-0.4,0.5-1.1,0.2-1.5c-1.7-2.4-6.1-9.4-3.5-17.5
		c2.5-7.6,8.5-11,11.1-12.2c0.6-0.3,0.8-1,0.4-1.5c-1.9-2.4-5.9-9.2-3.7-21.4c2-11.4,4.6-15.1,5.8-16.3c0.8-0.7,1.2-1.9,0.9-2.9
		c-0.4-1.2-1.5-2.3-4.7-2.1c-6.4,0.3-24.3-0.1-38.3-18.4C749.9,764,738.2,759.8,735.1,762.7z"/>
	<path id="XMLID_30_" class="st3" d="M796.9,802.3c0,0-4.2,8.8-5.7,22.8c-1.5,14,4.2,17.5,2.9,18.6c-1.4,1.1-12.1,6.9-11.8,19
		s3.7,13,3,14.2c-0.7,1.1-7.8,4.1-9.9,16.9c-2,12.8,2,23.6,2,23.6l7.8-3.2c0,0-2.6-23.6,3.1-31.4s6-7.8,2.8-11.5
		c-3.2-3.7-1.3-14.3,3.7-18.6s8.6-6.7,6.7-9.5s-7.4-23.4,1.5-40.8H796.9z"/>
	<path id="XMLID_316_" class="st4" d="M785.8,917.1c-33.8-3.7-78-19.1-86.5-22.1c-3.1-1.1-5-4.1-4.8-7.3
		c2.1-28.7,35-122.4,36.4-126.4l0.4-1l0.8-0.7c1.1-1.1,3.2-2.3,6.6-2c7.9,0.7,18.6,8.9,28.8,22.1c11.9,15.4,26.7,17,34.6,16.6
		c6.8-0.3,8.7,3.6,9.2,5.3c0.8,2.6,0,5.5-2.1,7.4c-0.1,0.1-2.5,2.5-4.5,13.8c-1.9,10.5,1.4,16,2.9,17.9c1,1.3,1.4,3,1,4.7
		c-0.4,1.6-1.5,3-3.1,3.7c-2,0.9-6.7,3.6-8.7,9.5c-2,6,1.3,11.4,2.8,13.4c1.7,2.4,1.3,5.7-0.9,7.6c-1.3,1.1-4.5,4.1-6.4,8.3
		c-1.3,2.8-1.2,11.9,0.1,22.6c0.2,1.8-0.4,3.7-1.7,5c-1.1,1.2-2.7,1.8-4.3,1.8C786.3,917.1,786.1,917.1,785.8,917.1z M788.3,855.6
		c2.2-6.7,6.6-10.7,10-13c-2.2-4.2-4.3-11.3-2.4-21.6c1.3-7.2,3-12.5,5-16c-9.9,0.2-26.9-2.5-40.5-20.2
		c-10.3-13.4-18.6-17.9-21.8-18.6c-5,14.4-32.4,94-35.1,120.6c10.3,3.6,48.7,16.7,79.6,20.8c-0.9-8.6-1.2-18.6,1-23.6
		c1.8-4.1,4.5-7.3,6.6-9.4C788.4,870.6,785.7,863.6,788.3,855.6z"/>
	<path id="XMLID_311_" class="st5" d="M787.1,912.6c0,0-2.9,13.3-9.8,11.8c-6.9-1.5-44.6-11-61.8-15.9c-17.2-4.9-19.8-7.1-19.5-9.1
		c0.3-2,4.2-8.9,4.2-8.9L787.1,912.6z"/>
	<path id="XMLID_312_" class="st4" d="M776.4,928.8c-7.4-1.6-45.1-11.1-62.1-16c-16.2-4.7-23.7-7.6-22.6-14.1
		c0.4-2.3,2.8-6.9,4.7-10.4l1.7-3l94.4,24.1l-0.9,4.2c-1.6,7.4-5.9,15.4-13,15.4C777.8,929,777.1,928.9,776.4,928.8z M702.6,895.7
		c-0.6,1.2-1.1,2.3-1.5,3.1c1.7,0.9,5.9,2.6,15.7,5.4c17.4,5,55.1,14.5,61.5,15.9c0.7,0.2,2.1-1.7,3.2-4.3L702.6,895.7z"/>
	<path id="XMLID_307_" class="st5" d="M807,802.7c0,0-1.4-2.4,7.3-2.4s8.7,0,8.7,0s5.6-1.3,4.1-7.1s-5.4-11.1-4.6-25.4
		c0.8-14.4,6.9-22.1,6.9-26.6s0-35.5,0-35.5H897c0,0,12.8-0.3,16.7-7.3c0,0,7.3-66.2,2.6-87.5c0,0-4.2-4.6-32.8-7.5
		s-181.9-8.6-186.1-7.9s-8.6,1.5-9.9,13s-5.7,68-5.7,85.8s0,41.1,2.4,44c0,0,1.3,0.7,7,1.1c0,0,1.3,9,6.4,10.1
		c5.1,1.1,34.8-7.6,39.4,12.4l42.9,45.3L807,802.7z"/>
	<rect id="XMLID_8_" x="683.8" y="624.4" class="st6" width="234.1" height="25.9"/>
	<rect id="XMLID_10_" x="681.9" y="659.1" class="st7" width="235.1" height="4.8"/>
	<path id="XMLID_308_" class="st4" d="M733,764.1l-0.3-1.2c-2.5-10.9-15.3-10.5-28.2-9.2c-3.6,0.4-5.9,0.6-7.7,0.2
		c-5.4-1.2-7.9-6.6-9-10.4c-2.2-0.3-4.3-0.7-5.4-1.2l-0.8-0.4l-0.6-0.7c-2.8-3.3-3.5-12.5-3.5-46.9c0-18.4,4.5-75.5,5.7-86.3
		c1.6-13.8,7.9-16,13.6-16.9c5.5-0.9,160.5,5.2,187.2,7.9c27.4,2.7,34,7.2,35.6,8.9l0.8,0.9l0.3,1.2c4.7,21.8-2.3,86.2-2.6,89
		l-0.1,0.9l-0.4,0.8c-5.1,9-18.9,9.6-20.6,9.6H834v31c0,2.5-1,5.1-2.3,8.3c-1.8,4.4-4.2,10.3-4.6,18.6c-0.6,9.9,1.3,14.9,2.9,19.3
		c0.6,1.6,1.2,3.1,1.6,4.8c0.9,3.7,0,6.3-1,7.9c-2.1,3.5-5.8,4.5-6.5,4.7l-0.5,0.1h-9.3c-0.3,0-0.7,0-0.9,0l0.8,1.3l-35.8,5.8
		L733,764.1z M814.3,795.8h8c0.2-0.1,0.5-0.3,0.6-0.5c0.1-0.1,0.1-0.5-0.1-1.1c-0.3-1.2-0.8-2.4-1.3-3.9c-1.7-4.7-4.1-11.1-3.5-22.9
		c0.6-9.7,3.4-16.7,5.3-21.4c0.8-1.9,1.7-4.1,1.7-4.9v-39.9l71.9,0c3.1-0.1,10-1.2,12.5-4.4c0.9-8.3,6.4-62.7,2.9-83.3
		c-2.5-1.2-9.9-3.8-29.2-5.8c-29-2.9-177.4-8.4-185.1-7.9c-3.2,0.5-5.1,0.9-6,9.1c-1.2,10.7-5.7,67.2-5.7,85.3
		c0,12.1,0,33.7,1.3,40.2c0.9,0.1,2.2,0.3,4,0.4l3.5,0.3l0.5,3.5c0.5,3.1,2,6.2,2.8,6.4c0.7,0.1,3.1-0.2,5-0.3
		c10.6-1.1,32.4-3.2,37.5,14.9l40.5,42.7l22.2-3.6C806.1,796.2,810.4,795.8,814.3,795.8z"/>
	<path id="XMLID_303_" class="st2" d="M916.4,610.9l43.6,13.5c4.3,1.3,7.5,5,8.2,9.5c1.6,9.9,3.4,29.1-0.4,52.4
		c-0.6,3.3-3.2,5.9-6.5,6.4c-8.2,1.4-25.5,4.3-50,8.5L916.4,610.9z"/>
	<rect id="XMLID_32_" x="911.3" y="665.4" class="st8" width="60.6" height="7.9"/>
	<polygon id="XMLID_31_" class="st9" points="910.6,650.4 970.1,650.4 963.5,624.4 911.8,624.4 	"/>
	<path id="XMLID_304_" class="st4" d="M912.2,605l49.1,15.2c6,1.8,10.3,6.8,11.3,13c1.6,9.7,3.6,29.7-0.4,53.9
		c-0.9,5.2-4.9,9.2-10.1,10.1c-8.2,1.4-25.5,4.3-50,8.5l-5.5,0.9L912.2,605z M916.1,696c21.6-3.7,36.9-6.3,44.5-7.6
		c1.4-0.2,2.6-1.4,2.8-2.8c3.8-22.9,1.9-41.8,0.4-51c-0.4-2.8-2.4-5.1-5.1-5.9l-38.2-11.8L916.1,696z"/>
	<path id="XMLID_298_" class="st5" d="M973,672.3h14.2c1.6,0,2.9-1.3,2.9-2.9v-20.5c0-1.6-1.3-2.9-2.9-2.9H973
		c-1.6,0-2.9,1.3-2.9,2.9v20.5C970.1,671,971.4,672.3,973,672.3z"/>
	<path id="XMLID_300_" class="st4" d="M965.6,669v-19.8c0-4.3,3.5-7.8,7.8-7.8h13.5c4.3,0,7.8,3.5,7.8,7.8V669
		c0,4.3-3.5,7.8-7.8,7.8h-13.5C969.1,676.8,965.6,673.3,965.6,669z M985.7,650.4h-11.2v17.5h11.2V650.4z"/>
	<path id="XMLID_299_" class="st4" d="M985.7,673.3h10.1c3.7,0,6.8-3,6.8-6.8v-14.9c0-3.7-3-6.8-6.8-6.8h-10.1V673.3z"/>
	<path id="XMLID_294_" class="st2" d="M826,751.9h14.1c0,0-5.1,23,3.6,35.1H825C825,786.9,815.8,770.8,826,751.9z"/>
	<path id="XMLID_33_" class="st3" d="M834,751.9c0,0-5.8,15,0.6,35.1h9.1c0,0-9-17.4-3.6-35.1H834z"/>
	<path id="XMLID_295_" class="st4" d="M821.2,789.2c-0.4-0.7-10.4-18.5,0.8-39.4l1.3-2.4h18.4c2.1,0,3.6,1.9,3.1,3.9l-0.3,1.5
		c-1.3,5.9-3.3,22.9,2.9,31.4l1.9,2.6c1.4,1.9,0,4.5-2.3,4.5h-24.4L821.2,789.2z M837.1,756.4h-8.4c-5.3,11.7-2.5,23-0.8,27.4
		l10.9,0C835.7,774.7,836.3,762.7,837.1,756.4z"/>
	<path id="XMLID_290_" class="st5" d="M829.5,720.5H847c1.2,0,2.3,0.7,2.9,1.7c1.3,2.6,3.1,7.8,0,13.7c-0.6,1.1-1.7,1.7-2.9,1.7
		h-17.5V720.5z"/>
	<path id="XMLID_291_" class="st4" d="M825,716h22c2.9,0,5.5,1.6,6.9,4.2c1.7,3.3,4,10.1-0.1,17.9c-1.3,2.5-3.9,4.1-6.8,4.1H825V716
		z M846.2,724.9H834v8.2h12.2C847.7,729.9,847.1,727,846.2,724.9z"/>
	<path id="XMLID_48_" class="st2" d="M778.6,925.9c0,0-2.5,3.1-4.7,3.9c-2.2,0.8,1.5,4.3,0.9,5.5c-0.7,1.2-45.6-8.7-78.7-20
		c0,0-0.4-1.7,1.3-3.1c1.6-1.3,3-2.3,2.2-3.1c-0.7-0.8-3-2.7-2-5.4L778.6,925.9z"/>
	<path id="XMLID_49_" class="st4" d="M766,938.6c-5.1-1-12-2.5-19.5-4.3c-18.6-4.5-37.5-9.9-51.9-14.8l-2.4-0.8l-0.5-2.5
		c-0.4-1.9,0-4.8,2.3-7c-1.3-2.3-1.5-4.7-0.6-7.2l1.5-3.7l91.4,25l-4.2,5.3c-0.5,0.6-1.8,2.1-3.4,3.5c0.6,1.4,1.1,3.3,0.1,5.3
		c-1,1.8-2.3,2.4-4.5,2.4C772.2,939.9,769.6,939.3,766,938.6z M704.2,910.2c-0.1,1.1-0.5,2-1.1,2.8c24.7,8,53.5,14.8,65.6,17.1
		c0.1-0.4,0.2-0.9,0.3-1.4c0.1-0.2,0.2-0.5,0.3-0.7L704.2,910.2z"/>
</g>
<g id="XMLID_1_">
	<path id="XMLID_272_" class="st10" d="M395.6,164.3c0.6,6.7,2.3,24.7,5.6,32c0.7,1.5,2.2,2.3,3.8,2l91.8-17c3-0.5,6-0.6,9,0
		c2.7,0.6,6.7,0.4,10.3-3.5c6.2-6.7,7-33-5.4-39c0,0-4.8-2.8-13.2,2.2c-7.5,4.5-84.4,17.7-99.5,20.3
		C396.4,161.5,395.4,162.9,395.6,164.3z"/>
	<polygon id="XMLID_36_" class="st11" points="520.2,149.3 395.5,174 396.9,183.4 524.7,156.8 	"/>
	<rect id="XMLID_361_" x="275.1" y="603.5" class="st12" width="18.7" height="226.3"/>
	<rect id="XMLID_46_" x="275.1" y="603.5" class="st13" width="9.4" height="226.3"/>
	<path id="XMLID_362_" class="st4" d="M300.1,836.1h-31.2V597.3h31.2V836.1z M279.5,823.6h10.9V609.8h-10.9V823.6z"/>
	<path id="XMLID_280_" class="st14" d="M342.6,111.4c-20-11.9-58.1-12.3-58.1-12.3s-38.1,0.5-58.1,12.3s-10.5,40.4-10.5,40.4
		s8.8,22.5,6,54.6s-6.2,38.3,7.3,43.5s55.3,4.2,55.3,4.2s41.8,0.9,55.3-4.2s10.1-11.4,7.3-43.5c-2.8-32.1,6-54.6,6-54.6
		S362.5,123.2,342.6,111.4z M336.3,138.8c-1.6,25.1-19.8,27.6-19.8,27.6h-32.1h-32.1c0,0-18.1-2.5-19.8-27.6s29.1-10,51.8-10
		C307.2,128.8,337.9,113.7,336.3,138.8z"/>
	<path id="XMLID_283_" class="st4" d="M292.7,260.4c-4.1,0-7.1-0.1-8.3-0.1c-5,0.1-43.5,0.7-57.5-4.6c-15.7-6-14.8-15.4-12.6-36.1
		c0.4-4,0.9-8.5,1.3-13.8c2.6-30.1-5.5-51.6-5.6-51.8l-0.1-0.3c-0.5-1.4-10.8-33.5,13.2-47.8c21.2-12.6,59.6-13.2,61.2-13.2
		c1.8,0,40.2,0.6,61.4,13.2c24,14.3,13.7,46.4,13.2,47.8l-0.1,0.3c-0.1,0.2-8.2,21.7-5.6,51.8c0.5,5.2,0.9,9.8,1.3,13.8
		c2.1,20.7,3.1,30.1-12.6,36.1C331.2,259.8,306.1,260.4,292.7,260.4z M284.5,247.8l0.1,0c11.3,0.2,42.9,0.1,53-3.8
		c6.5-2.5,6.8-2.6,4.6-23.1c-0.4-4-0.9-8.6-1.4-14c-2.8-31.9,5.4-54.7,6.3-57.2c0.5-1.6,7.1-24.2-7.7-33
		c-18.3-10.9-54.6-11.4-55-11.4c-0.2,0-36.6,0.6-54.8,11.4c-14.9,8.8-8.3,31.3-7.7,33c1,2.5,9.1,25.3,6.3,57.2
		c-0.5,5.3-0.9,9.9-1.4,14c-2.1,20.5-1.9,20.6,4.6,23.1c10.1,3.8,41.7,4,53,3.8L284.5,247.8z M317,172.6l-65.4-0.1
		c-8-1.1-23.6-9.5-25.1-33.4c-0.5-7.3,1.3-12.9,5.4-16.5c7.6-6.8,20.1-4.7,33.3-2.4c6.6,1.1,13.4,2.3,19.3,2.3
		c5.9,0,12.7-1.2,19.3-2.3c13.2-2.3,25.7-4.4,33.3,2.4c4.1,3.7,5.9,9.2,5.4,16.5c-1.5,23.9-17.1,32.3-25.1,33.4L317,172.6z
		 M252.9,160.1H316c2.2-0.5,12.9-3.7,14.1-21.7l0,0c0.1-1.9,0.1-5.1-1.3-6.4c-3.1-2.8-14.1-0.9-22.9,0.6c-7.1,1.2-14.4,2.5-21.4,2.5
		c-7,0-14.3-1.3-21.4-2.5c-8.8-1.5-19.8-3.4-22.9-0.6c-1.4,1.3-1.4,4.6-1.3,6.4C240,156.2,250.5,159.6,252.9,160.1z"/>
	<path id="XMLID_276_" class="st15" d="M347.9,173.9l22.5-1.8c3.5-0.3,7-1.3,10.1-3c4-2.1,10.2-4.5,16-2.7c0,0,12.4,8.8,4.5,29.8
		c0,0-14.9,2-21.7,0c-6.8-2-32.6,3.7-32.6,3.7S345.3,187.2,347.9,173.9z"/>
	<path id="XMLID_277_" class="st4" d="M341.1,207.4l-0.7-7c-0.1-0.6-1.4-13.7,1.3-27.7l0.9-4.7l27.2-2.2c2.7-0.2,5.3-1,7.7-2.3
		c5.2-2.7,13-5.5,20.7-3.2l1,0.3l0.8,0.6c0.7,0.5,16.2,11.9,6.7,37.1l-1.3,3.5l-3.7,0.5c-1.7,0.2-16.4,2.1-24.3-0.2
		c-3.2-0.9-17.9,1.2-29.5,3.8L341.1,207.4z M353.3,179.7c-0.6,4.7-0.7,9.1-0.7,12.5c9.1-1.7,22.7-3.8,28.5-2.1
		c3,0.9,9.8,0.7,15.2,0.2c3-10.8-0.9-16.4-2.8-18.3c-3.6-0.5-7.8,1.3-10.1,2.5c-3.9,2.1-8.2,3.3-12.5,3.7L353.3,179.7z"/>
	<path id="XMLID_273_" class="st4" d="M404.3,204.6c-3.8,0-7.3-2.2-8.8-5.7c-3.5-7.8-5.3-24.7-6.1-34c-0.4-4.8,2.8-8.9,7.5-9.7
		c52.5-9,92.5-17,97.4-19.6c10.1-6,17.2-3.3,19-2.4l0,0c6.3,3.1,10.8,9.9,12.5,19.2c1.8,9.7,0.6,23.4-5.3,29.7
		c-4.4,4.7-10.1,6.6-16.2,5.4c-2-0.4-4.2-0.4-6.6,0l-91.8,17C405.5,204.6,404.9,204.6,404.3,204.6z M402.1,166.9
		c1,10.9,2.5,19.9,4.1,24.8l89.5-16.6c3.9-0.7,7.7-0.7,11.4,0c1.7,0.4,3.1-0.2,4.5-1.6c1.6-1.7,3.8-9.9,2.1-18.9
		c-1-5.2-3.1-9-5.7-10.3l-0.1,0c-0.4-0.1-2.8-0.7-7.2,2C493.4,150.6,443.8,159.8,402.1,166.9z"/>
	<path id="XMLID_268_" class="st15" d="M221.6,173.9l-22.5-1.8c-3.5-0.3-7-1.3-10.1-3c-4-2.1-10.2-4.5-16-2.7c0,0-12.4,8.8-4.5,29.8
		c0,0,14.9,2,21.7,0c6.8-2,32.6,3.7,32.6,3.7S224.1,187.2,221.6,173.9z"/>
	<path id="XMLID_269_" class="st4" d="M228.3,207.4l-6.9-1.5c-11.6-2.6-26.3-4.7-29.5-3.8c-7.9,2.3-22.6,0.4-24.3,0.2l-3.7-0.5
		l-1.3-3.5c-9.5-25.1,6-36.6,6.7-37.1l0.8-0.6l1-0.3c7.7-2.3,15.5,0.5,20.7,3.2c2.4,1.3,5,2,7.7,2.3l27.2,2.2l0.9,4.7
		c2.7,14,1.4,27.2,1.3,27.7L228.3,207.4z M194.4,189.5c6.6,0,15.7,1.5,22.5,2.7c0-3.4-0.1-7.8-0.7-12.5l-17.6-1.4
		c-4.4-0.4-8.6-1.6-12.5-3.7c-2.3-1.2-6.5-3-10.1-2.5c-1.8,1.8-5.7,7.4-2.7,18.3c5.5,0.5,12.2,0.7,15.2-0.2
		C190,189.7,192,189.5,194.4,189.5z"/>
	<path id="XMLID_264_" class="st10" d="M173.9,164.3c-0.6,6.7-2.3,24.7-5.6,32c-0.7,1.5-2.2,2.3-3.8,2l-91.8-17c-3-0.5-6-0.6-9,0
		c-2.7,0.6-6.7,0.4-10.3-3.5c-6.2-6.7-7-33,5.4-39c0,0,4.8-2.8,13.2,2.2c7.5,4.5,84.4,17.7,99.5,20.3
		C173,161.5,174,162.9,173.9,164.3z"/>
	<polygon id="XMLID_34_" class="st11" points="50.5,146.4 175.2,171 173.9,180.4 46.1,153.8 	"/>
	<path id="XMLID_265_" class="st4" d="M165.1,204.6c-0.6,0-1.2-0.1-1.8-0.2l-91.8-17c-2.3-0.4-4.5-0.4-6.6,0
		c-6,1.3-11.8-0.7-16.2-5.4c-5.8-6.3-7.1-20-5.3-29.7c1.7-9.3,6.2-16.1,12.5-19.2l0,0c1.8-0.9,8.9-3.6,19.1,2.4
		c4.8,2.5,44.9,10.6,97.4,19.5c4.7,0.8,7.9,5,7.5,9.7v0c-0.8,9.3-2.6,26.2-6.1,34C172.4,202.4,168.9,204.6,165.1,204.6z M68.1,174.6
		c1.9,0,3.8,0.2,5.7,0.5l89.5,16.6c1.5-4.9,3-13.9,4.1-24.8c-41.7-7.2-91.4-16.3-98.6-20.6c-4-2.4-6.3-2.2-7-2l-0.4,0.3l0.2-0.2
		c-2.6,1.3-4.7,5-5.7,10.3c-1.7,9,0.5,17.2,2.1,18.9c1.4,1.5,2.8,2,4.5,1.6C64.3,174.8,66.2,174.6,68.1,174.6z"/>
	<path id="XMLID_260_" class="st14" d="M297.3,833.2c-1.2-7.7-12.9-7.1-12.9-7.1s-11.6-0.6-12.9,7.1c-1.2,7.7-2.5,40.6-2.5,40.6
		c0,1.6,6.9,3,15.4,3s15.4-1.3,15.4-3C299.8,873.8,298.6,841,297.3,833.2z"/>
	<path id="XMLID_261_" class="st4" d="M284.5,883.1c-14.9,0-21.6-2.8-21.6-9.2l0-0.2c0.1-1.4,1.3-33.3,2.6-41.3
		c1.7-10.3,12.6-12.7,19-12.4c6.5-0.3,17.4,2.1,19,12.4l0,0c1.3,8,2.5,40,2.6,41.3l0,0.2C306.1,880.2,299.4,883.1,284.5,883.1z
		 M275.5,869.9c2,0.3,5,0.6,9,0.6c3.9,0,7-0.3,8.9-0.6c-0.5-10.9-1.4-30.4-2.2-35.7c-0.2-1.3-4.3-2-6.4-1.9l-0.3,0l-0.3,0
		c-2.3-0.1-6.2,0.7-6.4,1.9C276.9,839.5,276,859,275.5,869.9z"/>
	<ellipse id="XMLID_3_" class="st16" cx="284.5" cy="873.8" rx="15.4" ry="3"/>
	<path id="XMLID_129_" class="st14" d="M326.2,251c-18.3-6.2-41.7-5.8-41.7-5.8s-23.4-0.4-41.7,5.8c-2.2,0.7-3.7,2.8-3.7,5.1v15
		l45.4-6.8l45.4,6.8v-15C329.9,253.8,328.4,251.7,326.2,251z"/>
	<path id="XMLID_130_" class="st4" d="M336.1,278.3l-51.7-7.8l-51.7,7.8v-22.2c0-5,3.2-9.5,7.9-11.1c18.7-6.3,41.7-6.1,43.7-6.1
		c2,0,25.1-0.2,43.7,6.1h0c4.7,1.6,7.9,6,7.9,11.1V278.3z M245.3,256.7v7.1l39.2-5.9l39.2,5.9v-7.1c-17-5.6-38.8-5.2-39.1-5.2
		l-0.1,0l-0.1,0C284.1,251.5,262.2,251.2,245.3,256.7z"/>
	<path id="XMLID_125_" class="st17" d="M348.3,284.2c-0.5-0.6-1-1.1-1.6-1.6c-9.2-9.1-21.2-14.7-33.9-16.5
		c-15.1-2.1-28.3-1.9-28.3-1.9s-13.2-0.3-28.3,1.9c-12.8,1.8-24.8,7.4-33.9,16.5c-0.5,0.5-1.1,1.1-1.6,1.6c-6,6.4-9.1,15-9.1,23.8
		v98c0,1.3,1,2.3,2.3,2.3h70.7h70.7c1.3,0,2.3-1,2.3-2.3v-98C357.4,299.2,354.3,290.6,348.3,284.2z"/>
	<path id="XMLID_29_" class="st18" d="M345,281v127.3h16.5L359.2,298C359.2,298,350.2,285.2,345,281z"/>
	<path id="XMLID_26_" class="st19" d="M264.7,265.2v143.2l-34,1.8V275.7C230.7,275.7,244.9,266,264.7,265.2z"/>
	<path id="XMLID_126_" class="st4" d="M355.1,414.6H213.8c-4.7,0-8.6-3.8-8.6-8.6v-98c0-10.6,3.8-20.6,10.8-28
		c0.6-0.6,1.2-1.2,1.7-1.8c9.8-9.7,23.1-16.2,37.5-18.2c14.8-2.1,27.7-2,29.2-1.9c1.5,0,14.4-0.1,29.2,1.9
		c14.4,2,27.7,8.5,37.5,18.2c0.6,0.6,1.2,1.2,1.7,1.8l0,0c7,7.4,10.8,17.4,10.8,28v98C363.7,410.7,359.8,414.6,355.1,414.6z
		 M217.7,402.1h133.5V308c0-7.5-2.6-14.4-7.4-19.5l0,0c-0.5-0.5-0.9-1-1.4-1.5c-7.9-7.8-18.7-13.1-30.4-14.7
		c-14.4-2-27.2-1.8-27.3-1.8l-0.1,0l-0.1,0c-0.1,0-12.9-0.2-27.3,1.8c-11.7,1.7-22.5,6.9-30.4,14.7c-0.5,0.5-1,1-1.4,1.5
		c-4.8,5.1-7.4,12-7.4,19.5V402.1z"/>
	<path id="XMLID_121_" class="st14" d="M353.7,408c-8.6-1-37.7-3.9-69.3-4.2c-31.6,0.3-60.7,3.2-69.3,4.2c-1.5,0.2-2.5,1.4-2.5,2.8
		v8c0,0.6,0.2,1.2,0.5,1.7l25.6,35.6c1.5,2,2.2,4.4,2.2,6.9v18c0,1.9,1.6,3.5,3.5,3.5h39.9h39.9c1.9,0,3.5-1.6,3.5-3.5v-18
		c0-2.5,0.8-4.9,2.2-6.9l25.6-35.6c0.4-0.5,0.5-1.1,0.5-1.7v-8C356.3,409.4,355.2,408.2,353.7,408z"/>
	<path id="XMLID_41_" class="st20" d="M264.7,404.3v80.2l-26-0.9c0,0-2.3-27.1-2.8-27.9c-0.5-0.8-3.6-7.3-3.6-7.3v-42.1
		C232.2,406.4,262.8,404.4,264.7,404.3z"/>
	<path id="XMLID_122_" class="st4" d="M324.4,490.8h-79.9c-5.4,0-9.8-4.4-9.8-9.8v-18c0-1.2-0.4-2.3-1.1-3.3l-25.6-35.6
		c-1.1-1.6-1.7-3.4-1.7-5.3v-8c0-4.6,3.5-8.5,8.1-9.1c8.3-0.9,38-4,69.9-4.2c32,0.3,61.7,3.3,70,4.2h0c4.6,0.5,8.1,4.4,8.1,9.1v8
		c0,1.9-0.6,3.8-1.7,5.3l-25.6,35.6c-0.7,1-1.1,2.1-1.1,3.3v18C334.2,486.4,329.8,490.8,324.4,490.8z M247.2,478.3h74.5V463
		c0-3.8,1.2-7.5,3.4-10.6l24.9-34.7v-3.9c-10.9-1.1-37.4-3.6-65.6-3.8c-28.1,0.2-54.6,2.7-65.5,3.8v3.9l24.9,34.7
		c2.2,3.1,3.4,6.8,3.4,10.6V478.3z"/>
	<rect id="XMLID_117_" x="258.4" y="484.5" class="st21" width="52" height="25.8"/>
	<path id="XMLID_118_" class="st4" d="M316.7,516.6h-64.5v-38.3h64.5V516.6z M264.7,504.1h39.6v-13.3h-39.6V504.1z"/>
	<path id="XMLID_113_" class="st12" d="M313.4,559.4h-57.8c-1.9,0-3.5-1.5-3.5-3.5v-42.1c0-1.9,1.5-3.5,3.5-3.5h57.8
		c1.9,0,3.5,1.5,3.5,3.5v42.1C316.8,557.8,315.3,559.4,313.4,559.4z"/>
	<path id="XMLID_114_" class="st4" d="M311.4,565.6h-54c-6.4,0-11.6-5.2-11.6-11.6v-38.2c0-6.4,5.2-11.6,11.6-11.6h54
		c6.4,0,11.6,5.2,11.6,11.6V554C323.1,560.4,317.9,565.6,311.4,565.6z M258.3,553.1h52.3v-36.5h-52.3V553.1z"/>
	<path id="XMLID_109_" class="st14" d="M240.2,546.4h11.9v-27.1h-11.9c-0.8,0-1.5,0.7-1.5,1.5v24.1
		C238.7,545.7,239.4,546.4,240.2,546.4z"/>
	<path id="XMLID_110_" class="st4" d="M256,550.3H241c-3.4,0-6.2-2.8-6.2-6.2v-22.4c0-3.4,2.8-6.2,6.2-6.2H256V550.3z M242.6,542.5
		h5.6v-19.3h-5.6V542.5z"/>
	<path id="XMLID_105_" class="st12" d="M230.1,540.5h8.6v-15.2h-8.6c-1,0-1.8,0.8-1.8,1.8v11.6C228.3,539.7,229.1,540.5,230.1,540.5
		z"/>
	<path id="XMLID_106_" class="st4" d="M242.6,544.4h-11.5c-3.7,0-6.7-3-6.7-6.7V528c0-3.7,3-6.7,6.7-6.7h11.5V544.4z M232.2,536.6
		h2.5v-7.4h-2.5V536.6z"/>
	<path id="XMLID_9_" class="st14" d="M307.1,559.4c0,0-0.2,7.3-0.5,13.7c-0.1,4-5.5,8.1-9.5,10.6c-2.5,1.6-5.3,2.4-8.3,2.4h-4.4H280
		c-2.9,0-5.8-0.8-8.3-2.4c-4-2.5-9.4-6.6-9.5-10.6c-0.2-6.4-0.5-13.7-0.5-13.7l-9.7-6.4v17.4c0,4.1,0.8,8.2,2.4,12l8.7,17.4
		c1.2,2.3,3.5,3.8,6.1,3.8h15.1h15.1c2.6,0,5-1.5,6.1-3.8l8.7-17.4c1.6-3.8,2.4-7.9,2.4-12v-17.4L307.1,559.4z"/>
	<path id="XMLID_61_" class="st4" d="M299.5,608.2h-30.2c-4.4,0-8.3-2.4-10.3-6.4l-8.9-17.7c-1.9-4.4-2.8-9.1-2.8-13.8v-26.1
		l19,12.6l0.1,2.4c0,0,0.2,7.3,0.5,13.7c0,0.6,1.4,3.1,7.3,6.8c1.7,1.1,3.7,1.7,5.8,1.7h8.9c2,0,4-0.6,5.8-1.7
		c5.9-3.7,7.3-6.2,7.3-6.8c0.2-6.4,0.5-13.7,0.5-13.7l0.1-2.4l19-12.6v26.1c0,4.8-0.9,9.4-2.8,13.8l-0.1,0.3l-8.7,17.4
		C307.9,605.8,303.9,608.2,299.5,608.2z M258.8,580.3l8.7,17.3c0.4,0.7,1.1,1.2,1.9,1.2h30.2c0.8,0,1.6-0.5,1.9-1.2l8.7-17.3
		c1.3-3.2,2-6.6,2-10v-8.6l-0.4,0.3c-0.1,2.7-0.2,7.2-0.4,11.3c-0.2,4.9-4,9.6-11.7,14.4c-3.2,2-7,3.1-10.8,3.1H280
		c-3.8,0-7.5-1.1-10.8-3.1c-7.7-4.8-11.5-9.6-11.7-14.4c-0.1-4.1-0.3-8.6-0.4-11.3l-0.4-0.3v8.6
		C256.8,573.8,257.4,577.2,258.8,580.3z"/>
</g>
<g id="XMLID_52_">
	<path id="XMLID_365_" class="st2" d="M1343.5,216.2c-2.4-5.5-5.4-12.9-5.5-16.5c-0.2-6,3.2-22.3,3.6-48.3c0.4-25.9-7.5-47-7.5-48.6
		c0-1.6,3.1-1.3,3.4-8.5s-4.7-8-4.7-8s-52.9,0-61.4,0s-10.5,3.3-11.5,4.7c-1,1.3-18.9,0-18.9,0l-0.7,81.4c7.5,0.3,22.2,3.7,22.2,3.7
		s39.8,21.8,41.8,24.6c2,2.8,2.7,3.5,3,9.6c0.1,2.1-0.4,4.2-1.1,5.9c-1.2,3,0.9,6.4,4.1,6.8c9.8,1,21.4,0.6,28.8,0.2
		C1342.7,223,1344.9,219.4,1343.5,216.2z M1303.9,176.4c-4.4,0.7-22.8-5.8-25.3-8.6c-2-2.4-1.6-47.1-1.4-62.5c0-2.9,2.4-5.1,5.2-5.1
		h10.8c2.4,0,4.5,1.6,5.1,3.9l7.9,31.3c0,0,0,14.5,2.4,22.9C1311,166.6,1308.4,175.7,1303.9,176.4z"/>
	<path id="XMLID_368_" class="st4" d="M1324.5,229c-4.9,0-10-0.2-14.7-0.7c-3.3-0.3-6.1-2.2-7.8-5c-1.7-2.8-1.9-6.1-0.7-9.1
		c0.5-1.3,0.8-2.5,0.7-3.6c-0.2-4.3-0.3-4.5-1.8-6.5l0,0c-3.1-2.5-22.2-13.5-39.6-23c-3-0.7-14.5-3.2-20.5-3.4l-5.2-0.2l0.8-92.3
		l5.7,0.4c5.7,0.4,12.5,0.7,15.5,0.5c2.3-2.5,6.4-5.2,14.5-5.2h61.8l0.4,0.1c3.3,0.6,9.5,4.1,9.1,13.5c-0.2,4.8-1.5,7.5-3,9.4
		c0,0.1,0.1,0.2,0.1,0.3c2,7,7.4,25.4,7,47.2c-0.3,16.7-1.8,29.5-2.7,38c-0.5,4.6-0.9,8.2-0.9,10c0,0.5,0.3,3.8,5.1,14.5
		c1.4,3.1,1.1,6.7-0.6,9.5c-1.8,2.9-4.8,4.7-8.2,4.9C1335.3,228.8,1330,229,1324.5,229z M1311.4,217.8c9,0.9,19.5,0.6,27,0.1
		c-5.6-12.8-5.7-16.8-5.8-18.1c-0.1-2.6,0.4-6.3,0.9-11.5c0.9-8.3,2.4-20.9,2.7-37c0.3-20.2-4.7-37.5-6.6-44c-0.7-2.5-1-3.4-1-4.4
		c0-2.7,1.7-4.4,2.4-5.1c0.4-0.4,0.9-0.9,1.1-3.7c0-0.7-0.2-2.1-0.2-2.5h-60.5c-5.4,0-6.4,1.5-7,2.3l-0.2,0.3
		c-1.5,2-2.5,3.4-17.9,2.5l-0.6,70.9c7.9,1,17.6,3.3,18.1,3.4l0.7,0.2l0.6,0.4c40.8,22.4,42.8,25.2,43.5,26.2l0.3,0.4
		c2.4,3.4,3.3,5.3,3.7,12.1C1312.9,212.6,1312.4,215.2,1311.4,217.8z M1303.4,181.8c-7.3,0-25.4-6.5-28.9-10.6
		c-1.6-1.9-3.5-4.1-2.7-66c0.1-5.7,4.8-10.4,10.5-10.4h10.8c4.8,0,9,3.3,10.2,8l8,31.9v0.7c0,0.1,0,13.8,2.2,21.4
		c2.1,7.1,1.3,15-1.9,20c-2.3,3.5-5.1,4.6-7.1,4.9C1304.3,181.7,1303.9,181.8,1303.4,181.8z M1283.3,164.6
		c3.9,2.3,15.7,6.3,19.4,6.5c1-1.3,2.3-6.2,0.7-11.4c-2.3-8.1-2.6-20.6-2.6-23.7l-7.7-30.6l-10.5,0.1
		C1282.1,139.9,1282.6,159.4,1283.3,164.6z"/>
	<rect id="XMLID_357_" x="796.5" y="66" class="st4" width="11.8" height="18.2"/>
	<path id="XMLID_256_" class="st2" d="M1005.2,94.9v63.4c0,4.2,1.8,8.2,5,11l8.2,7.2c3.5,3.1,8,4.8,12.7,4.8h78.6
		c2.2,0,4.4-0.5,6.3-1.5l10.4-5.3c2.6-1.3,5.4-1.9,8.3-1.8l99.6,3.8c2.4,0.1,4.7-1.2,5.8-3.3c5.3-10.2,18.1-42-0.1-85
		c-1.1-2.5-3.7-4.1-6.5-3.8l-96,10.9c-2.4,0.3-4.7-0.6-6.4-2.2c-0.7-0.7-1.9-1.2-3.8-1.2h-22.5c-1.4,0-2.7-0.9-3.2-2.2
		c-1.3-3.2-4.4-9.1-10.3-10.6h-68.1c-4.9,0-9.6,1.9-13.2,5.2l-0.1,0.1C1006.8,87,1005.2,90.8,1005.2,94.9z"/>
	<path id="XMLID_28_" class="st22" d="M1004.3,115.2h96.8l33.9-2.6l108.6-14.6c0,0,4.1,5.4,4.9,21.2l-111.4,14.3l-35,1.8h-100.2
		L1004.3,115.2z"/>
	<path id="XMLID_257_" class="st4" d="M1109.6,186.5H1031c-6,0-11.7-2.2-16.2-6.1l-8.2-7.2c-4.3-3.8-6.8-9.2-6.8-15V94.9
		c0-5.5,2.3-10.7,6.2-14.5l0.1-0.1c4.6-4.3,10.6-6.7,16.9-6.7h68.8l0.7,0.2c7.5,2,11.5,8.4,13.5,12.7h21.2c3.8,0,6.2,1.4,7.5,2.7
		c0.6,0.6,1.4,0.9,2.1,0.8l96-10.9c5.1-0.6,10,2.3,12,7c18.8,44.5,6.2,77.4-0.1,89.6c-2.1,3.9-6.3,6.4-10.7,6.2l-99.6-3.8
		c-2-0.1-3.9,0.4-5.7,1.2l-10.4,5.3C1115.7,185.8,1112.6,186.5,1109.6,186.5z M1023.1,84.2c-3.6,0-6.9,1.3-9.5,3.8l-0.1,0.1
		c-1.9,1.8-2.9,4.2-2.9,6.8v63.4c0,2.7,1.2,5.2,3.2,7l8.2,7.2c2.5,2.2,5.8,3.4,9.2,3.4h78.6c1.4,0,2.7-0.3,3.9-0.9l10.4-5.3
		c3.4-1.7,7.1-2.5,10.9-2.4l99.6,3.8c0.3,0,0.7-0.2,0.8-0.5c5.6-10.8,16.8-40.2-0.3-80.5c-0.2-0.4-0.5-0.6-1-0.6l-96,10.9
		c-3.7,0.4-7.5-0.8-10.4-3.3c-0.1,0-0.2,0-0.5,0h-22.5c-3.6,0-6.8-2.2-8.2-5.6c-0.7-1.8-2.7-6-6.2-7.3H1023.1z"/>
	<rect id="XMLID_252_" x="985.7" y="91.5" class="st2" width="19.9" height="56.5"/>
	<path id="XMLID_253_" class="st4" d="M1010.9,153.4h-30.6V86.2h30.6V153.4z M991,142.7h9.3V96.9H991V142.7z"/>
	<path id="XMLID_248_" class="st23" d="M982,149.6h-27c-2,0-3.7-1.6-3.7-3.7V91.4c0-2,1.6-3.7,3.7-3.7h27c2,0,3.7,1.6,3.7,3.7v54.5
		C985.7,148,984,149.6,982,149.6z"/>
	<path id="XMLID_249_" class="st4" d="M980.8,154.9h-24.6c-5.6,0-10.2-4.6-10.2-10.2V92.6c0-5.6,4.6-10.2,10.2-10.2h24.6
		c5.6,0,10.2,4.6,10.2,10.2v52.1C991,150.4,986.4,154.9,980.8,154.9z M956.6,144.3h23.7V93.1h-23.7V144.3z"/>
	<rect id="XMLID_244_" x="936.6" y="106.4" class="st14" width="14.6" height="25.6"/>
	<path id="XMLID_245_" class="st4" d="M954.6,135.3h-21.3V103h21.3V135.3z M940,128.7h8v-19h-8V128.7z"/>
	<path id="XMLID_240_" class="st23" d="M934.5,138.3h-32.7c-1.2,0-2.1-1-2.1-2.1v-32.3c0-1.2,1-2.1,2.1-2.1h32.7
		c1.2,0,2.1,1,2.1,2.1v32.3C936.6,137.3,935.7,138.3,934.5,138.3z"/>
	<path id="XMLID_241_" class="st4" d="M933.8,143.6h-31.3c-4.5,0-8.2-3.7-8.2-8.2v-30.9c0-4.5,3.7-8.2,8.2-8.2h31.3
		c4.5,0,8.2,3.7,8.2,8.2v30.9C942,140,938.3,143.6,933.8,143.6z M905,133h26.3V107H905V133z"/>
	<path id="XMLID_236_" class="st24" d="M806.4,83.3h311.5c0.8,0,1.5-0.7,1.5-1.5V67.9c0-0.8-0.7-1.5-1.5-1.5H806.4
		c-0.8,0-1.5,0.7-1.5,1.5v13.9C804.9,82.6,805.6,83.3,806.4,83.3z"/>
	<path id="XMLID_237_" class="st4" d="M1117.4,86.6H806.9c-2.9,0-5.3-2.4-5.3-5.3V68.4c0-2.9,2.4-5.3,5.3-5.3h310.6
		c2.9,0,5.3,2.4,5.3,5.3v12.9C1122.7,84.3,1120.4,86.6,1117.4,86.6z M808.2,80h307.8V69.8H808.2V80z"/>
	<path id="XMLID_232_" class="st14" d="M710.8,83.3h86.8c1.2,0,2.2-1,2.2-2.2V68.6c0-1.2-1-2.2-2.2-2.2h-86.8c-1.2,0-2.2,1-2.2,2.2
		v12.5C708.7,82.3,709.6,83.3,710.8,83.3z"/>
	<path id="XMLID_233_" class="st4" d="M796.9,86.6h-85.4c-3.4,0-6.2-2.8-6.2-6.2V69.3c0-3.4,2.8-6.2,6.2-6.2h85.4
		c3.4,0,6.2,2.8,6.2,6.2v11.1C803.1,83.8,800.3,86.6,796.9,86.6z M712,80h84.5V69.8H712V80z"/>
	<rect id="XMLID_228_" x="599.3" y="71.2" class="st24" width="109.3" height="7.3"/>
	<path id="XMLID_229_" class="st4" d="M712,81.9H596v-14h116V81.9z M602.6,77.6h102.7v-5.4H602.6V77.6z"/>
	<path id="XMLID_224_" class="st14" d="M597.9,82.9h-15.5c-0.8,0-1.5-0.7-1.5-1.5V68.3c0-0.8,0.7-1.5,1.5-1.5h15.5
		c0.8,0,1.5,0.7,1.5,1.5v13.1C599.3,82.2,598.7,82.9,597.9,82.9z"/>
	<path id="XMLID_225_" class="st4" d="M597.4,86.2h-14.5c-2.9,0-5.3-2.4-5.3-5.3V68.8c0-2.9,2.4-5.3,5.3-5.3h14.5
		c2.9,0,5.3,2.4,5.3,5.3v12.1C602.6,83.8,600.3,86.2,597.4,86.2z M584.2,79.5H596v-9.3h-11.8V79.5z"/>
	<path id="XMLID_220_" class="st25" d="M975.6,62.2h-14.3c-1.5,0-2.7,1.2-2.7,2.7v22.8h19.7V64.9C978.3,63.4,977.1,62.2,975.6,62.2z
		"/>
	<path id="XMLID_221_" class="st4" d="M983.7,93.1h-30.4V68.5c0-6.4,5.2-11.6,11.6-11.6h7.2c6.4,0,11.6,5.2,11.6,11.6V93.1z
		 M963.9,82.4h9.1V69c0-0.8-0.6-1.4-1.4-1.4h-6.2c-0.8,0-1.4,0.6-1.4,1.4V82.4z"/>
	<path id="XMLID_216_" class="st14" d="M976.9,159.6h-8.5H960c-7.2,55.9-4.5,168.3-4.5,168.3h12.9h12.9
		C981.4,327.9,984.2,215.5,976.9,159.6z"/>
	<path id="XMLID_217_" class="st4" d="M986.6,333.2h-36.2l-0.1-5.2c-0.1-4.6-2.7-113.5,4.5-169.1l0.6-4.6h26.3l0.6,4.6
		c7.2,55.7,4.6,164.5,4.5,169.1L986.6,333.2z M960.8,322.6h15.4c0.4-22,1.6-108.6-4-157.7h-7.5C959.2,214,960.4,300.6,960.8,322.6z"
		/>
	<path id="XMLID_211_" class="st23" d="M597.9,142.3h7V97.5h-7c-1.4,0-2.6,1.2-2.6,2.6v39.6C595.3,141.1,596.5,142.3,597.9,142.3z"
		/>
	<path id="XMLID_215_" class="st4" d="M610.2,147.6h-11.4c-4.8,0-8.8-3.9-8.8-8.8v-37.9c0-4.8,3.9-8.8,8.8-8.8h11.4V147.6z"/>
	<path id="XMLID_214_" class="st4" d="M994.7,178.1h-49.1c-5.3,0-9.6-4.3-9.6-9.6s4.3-9.6,9.6-9.6h49.1c5.3,0,9.6,4.3,9.6,9.6
		S1000,178.1,994.7,178.1z"/>
	<path id="XMLID_213_" class="st4" d="M981.3,338.9h-25.4c-4.7,0-8.6-3.9-8.6-8.6s3.9-8.6,8.6-8.6h25.4c4.7,0,8.6,3.9,8.6,8.6
		S986,338.9,981.3,338.9z"/>
	<rect id="XMLID_212_" x="954.7" y="144.3" class="st4" width="27.8" height="20.6"/>
	<path id="XMLID_207_" class="st14" d="M831.1,248.1h-14.6c-2.4,0-4.3-1.9-4.3-4.3V232c0-2.4,1.9-4.3,4.3-4.3h14.6
		c2.4,0,4.3,1.9,4.3,4.3v11.7C835.4,246.1,833.5,248.1,831.1,248.1z"/>
	<path id="XMLID_208_" class="st4" d="M829.6,251.4h-11.8c-5,0-9.1-4.1-9.1-9.1v-8.9c0-5,4.1-9.1,9.1-9.1h11.8c5,0,9.1,4.1,9.1,9.1
		v8.9C838.7,247.3,834.7,251.4,829.6,251.4z M817.9,231c-1.3,0-2.4,1.1-2.4,2.4v8.9c0,1.3,1.1,2.4,2.4,2.4h11.8
		c1.3,0,2.4-1.1,2.4-2.4v-8.9c0-1.3-1.1-2.4-2.4-2.4H817.9z"/>
	<path id="XMLID_203_" class="st24" d="M831.1,268.5h-14.6c-2.4,0-4.3-1.9-4.3-4.3v-11.7c0-2.4,1.9-4.3,4.3-4.3h14.6
		c2.4,0,4.3,1.9,4.3,4.3v11.7C835.4,266.5,833.5,268.5,831.1,268.5z"/>
	<path id="XMLID_204_" class="st4" d="M829.6,271.8h-11.8c-5,0-9.1-4.1-9.1-9.1v-8.9c0-5,4.1-9.1,9.1-9.1h11.8c5,0,9.1,4.1,9.1,9.1
		v8.9C838.7,267.7,834.7,271.8,829.6,271.8z M817.9,251.4c-1.3,0-2.4,1.1-2.4,2.4v8.9c0,1.3,1.1,2.4,2.4,2.4h11.8
		c1.3,0,2.4-1.1,2.4-2.4v-8.9c0-1.3-1.1-2.4-2.4-2.4H817.9z"/>
	<rect id="XMLID_199_" x="816.3" y="268.5" class="st14" width="14.9" height="37"/>
	<path id="XMLID_200_" class="st4" d="M834.5,308.8H813v-43.7h21.5V308.8z M819.7,302.2h8.2v-30.4h-8.2V302.2z"/>
	<rect id="XMLID_195_" x="806.6" y="271.1" class="st24" width="9.8" height="22.4"/>
	<path id="XMLID_196_" class="st4" d="M819.7,296.9h-16.4v-29.1h16.4V296.9z M809.9,290.2h3.1v-15.7h-3.1V290.2z"/>
	<path id="XMLID_44_" class="st26" d="M831.2,305.5c0,0-7.7,111.3,101.9,98c0,0,47.4-7,83.4-52.7c27.3-34.7,37.1-80,28-123.3
		c-4.1-19.9-11.8-44.2-25.5-71.9c-1.7-3.5-0.7-7.7,2.5-9.9l0,0c3.9-2.8,9.4-1.4,11.5,2.9c8.7,17.5,28.1,60.4,29.9,99.5
		c2.2,48.1-7.5,98.7-70.1,144.4c0,0-51.3,35.9-106.2,22c-54.9-14-69.6-69.8-69.4-108.9H831.2z"/>
	<path id="XMLID_80_" class="st4" d="M913.3,421c-8.9,0-18.1-1-27.4-3.4c-53.4-13.6-72.2-66.8-71.9-112.1l0-3.3h20.7l-0.2,3.6
		c0,0.5-2.9,48.7,26.1,76.2c16.8,15.9,41,22,72.1,18.3c0.4-0.1,46.5-7.4,81.2-51.5c26.4-33.5,36.4-77.5,27.4-120.6
		c-4.8-23.2-13.3-47.1-25.2-71.1c-2.5-5-1-10.9,3.6-14.1c2.7-1.9,6-2.5,9.2-1.7c3.2,0.8,5.8,2.9,7.3,5.8
		c8.5,17,28.5,60.9,30.3,100.8c2,42.8-4.4,98.2-71.4,147.2C993.1,396.4,957.4,421,913.3,421z M820.7,308.8
		c0.7,42,18.5,90,66.9,102.3c52.7,13.4,103-21.1,103.5-21.5c64.1-46.8,70.7-97.8,68.7-141.5c-1.8-38.6-21.3-81.5-29.6-98.2
		c-0.6-1.2-1.6-2-2.9-2.4c-1.3-0.3-2.6-0.1-3.7,0.7c-1.8,1.3-2.4,3.7-1.4,5.7c12.1,24.5,20.8,49,25.7,72.7c9.4,45-1.1,90.9-28.7,126
		c-36.4,46.3-83.5,53.7-85.5,54c-33.2,4-59.3-2.7-77.6-20.1c-26.9-25.5-28.5-65.7-28.3-77.9H820.7z"/>
	<path id="XMLID_137_" class="st5" d="M888.7,87.7H615.1c-5.6,0-10.2,4.6-10.2,10.2v43.9c0,5.6,4.6,10.2,10.2,10.2h273.7v-0.2
		c0,0,11-1.2,11-16.8v-15.3v-15.3C899.7,88.9,888.7,87.7,888.7,87.7z"/>
	<rect id="XMLID_22_" x="604.9" y="97.9" class="st27" width="296.7" height="14.6"/>
	<rect id="XMLID_27_" x="603.9" y="128.7" class="st28" width="296.7" height="9.7"/>
	<path id="XMLID_138_" class="st4" d="M894.1,157.4h-279c-8.6,0-15.5-7-15.5-15.5V97.9c0-8.6,7-15.5,15.5-15.5h274l0.3,0
		c5.4,0.6,15.7,5.9,15.7,22.1v30.5c0,12.1-5.8,18.2-11,20.7V157.4z M615.1,93.1c-2.7,0-4.9,2.2-4.9,4.9v43.9c0,2.7,2.2,4.9,4.9,4.9
		h270.4l2.7-0.1c0.9-0.2,6.2-1.5,6.2-11.5v-30.5c0-9.4-4.7-11.2-6.1-11.5H615.1z"/>
	<path id="XMLID_57_" class="st14" d="M885.2,87.1v32.1v32.1c0,0,11-1.2,11-16.8v-15.3v-15.3C896.2,88.3,885.2,87.1,885.2,87.1z"/>
	<g id="XMLID_97_">
		<path id="XMLID_56_" class="st4" d="M1120.3,164.1L1120.3,164.1c-2.1-0.3-3.7-2.2-3.5-4.3c2.1-20.1,0.6-42.4-0.1-51.2
			c-0.2-2.2,1.4-4.1,3.5-4.3l0,0c2.2-0.2,4.2,1.4,4.4,3.6c0.8,9.1,2.3,31.7,0.1,52.7C1124.6,162.7,1122.6,164.4,1120.3,164.1z"/>
	</g>
	<g id="XMLID_91_">
		<path id="XMLID_54_" class="st4" d="M1134.1,164.1L1134.1,164.1c-2.1-0.3-3.7-2.2-3.5-4.3c2.1-20.1,0.6-42.4-0.1-51.2
			c-0.2-2.2,1.4-4.1,3.5-4.3l0,0c2.2-0.2,4.2,1.4,4.4,3.6c0.8,9.1,2.3,31.7,0.1,52.7C1138.4,162.7,1136.3,164.4,1134.1,164.1z"/>
	</g>
	<path id="XMLID_6_" class="st29" d="M1048.6,115c-5.8,3.4-8.8,9.7-8.5,16l26.6-15.8C1061.4,111.9,1054.4,111.6,1048.6,115z"/>
	<path id="XMLID_5_" class="st29" d="M1066.5,145c5.8-3.4,8.8-9.7,8.5-16l-26.6,15.8C1053.8,148.2,1060.7,148.5,1066.5,145z"/>
	<path id="XMLID_4_" class="st30" d="M1066.7,115.2l-26.6,15.8c0.1,2.7,0.9,5.5,2.4,8c1.5,2.5,3.5,4.5,5.9,5.9l26.6-15.8
		c-0.1-2.7-0.9-5.5-2.4-8C1071.1,118.6,1069,116.6,1066.7,115.2z"/>
</g>
<g id="XMLID_50_">
	<path id="XMLID_337_" class="st31" d="M787.2,437.3l11.6,7.4c2,1.3,3.4,3.4,3.6,5.8c0.7,6.2,1.6,19,0,31.7
		c-0.3,2.3-1.5,4.3-3.4,5.6l-10.5,7.1c-1.1,0.7-2.6-0.1-2.6-1.4L787.2,437.3z"/>
	<path id="XMLID_341_" class="st4" d="M785.7,497.2c-1.4-0.7-2.2-2.2-2.2-3.7l1.2-60.7l15.4,9.8c2.7,1.7,4.4,4.5,4.8,7.7
		c0.7,6.5,1.6,19.4,0,32.2c-0.4,3-2,5.6-4.5,7.3L790,497c-0.7,0.5-1.5,0.7-2.3,0.7C787,497.7,786.4,497.5,785.7,497.2z M788.6,491.9
		l9.1-6.2c1.3-0.9,2.1-2.3,2.3-3.8c1.5-12.3,0.6-24.8-0.1-31.1c-0.2-1.6-1.1-3.1-2.5-4l-7.9-5L788.6,491.9z"/>
	<path id="XMLID_338_" class="st4" d="M799.7,446l3.2,1c2,0.6,5.6,2.8,6.3,7.2c0.8,4.3,1.7,13.4,0.6,20.2c-1,6.1-2.4,9.5-6.9,10.3
		l-2.9,0.5L799.7,446z M804.9,473.6C804.9,473.6,804.9,473.5,804.9,473.6c0.8-4.8,0.4-11.1-0.1-15.4L804.9,473.6z"/>
	<path id="XMLID_356_" class="st32" d="M707.4,466c0-18.1,1.6-32.8,3.6-32.8l0,0h0l0,0l0,0c0,0,69,0.8,70.1,1
		c1.1,0.1,6.1,3.2,6.1,3.2c2,0,3.6,13,3.6,29.1c0,16.1-1.9,26.8-3.6,29.1c-0.5,0.7-1.3,1.2-2.1,1.7c-1.5,0.8-3.3,1.1-5,1.1
		l-69.1,0.4l0,0l0,0h0l0,0C709,498.8,707.4,484.1,707.4,466z"/>
	<rect id="XMLID_2_" x="706.4" y="442.6" class="st33" width="84.4" height="13.7"/>
	<rect id="XMLID_7_" x="706.4" y="461.5" class="st34" width="85.2" height="3.8"/>
	<path id="XMLID_352_" class="st17" d="M481.5,690.4c0,0-7,4.8-40.8,4.9c-33.8,0.1-34.1-4.9-34.1-4.9s-5.7-97.6-2.1-132.3
		s7.5-53.2,25.3-82.6h163.9c1.8,0,3.3-1.4,3.4-3.2c0.4-6,2.1-20.6,8.8-45c0.5-1.9,2.3-3.2,4.3-3.2H662c2.4,0,4.4,2,4.4,4.4v76.1
		c0,3.3-1.2,6.6-3.4,9.1l-30.1,35.3c-2.4,2.8-5.9,4.4-9.5,4.4H492.7c-2.7,0-4.9,2.2-4.9,4.8l-1,49.6c0,1.9-0.8,3.8-2.2,5.2
		c-2.4,2.3-6.1,7.3-7,16.4c-1.4,13.8-2.4,37.9-2.4,37.9s-2.2,6.6,7.4,13.5C482.4,680.7,488.2,688.2,481.5,690.4z"/>
	<path id="XMLID_12_" class="st35" d="M654.1,524H489.2c-9,0-14.3,10.2-9.1,17.6l9.2,13l141.9-2.5L654.1,524z"/>
	<path id="XMLID_353_" class="st4" d="M402.6,690.6c-0.2-4-5.6-98.3-2-133c3.6-34.2,7.3-53.6,25.9-84.3l1.2-1.9h165.6
		c0.5-6.9,2.4-21.6,8.9-45.2c1-3.6,4.3-6.2,8.1-6.2H662c4.6,0,8.4,3.8,8.4,8.4v76.1c0,4.3-1.5,8.4-4.3,11.7L636,551.5
		c-3.1,3.7-7.7,5.8-12.6,5.8H492.7c-0.5,0-0.9,0.4-0.9,0.9l-1,49.6c-0.1,3-1.3,5.9-3.4,8c-1.8,1.8-5,6-5.8,13.9
		c-1.4,13.5-2.4,37.4-2.4,37.6l0.1,0.4l-0.3,0.6c-0.1,0.6-0.5,4.5,5.9,9.1l0.5,0.3l0.4,0.5c0.7,0.9,4.3,5.8,2.8,10.6
		c-0.5,1.7-1.8,3.9-5.2,5.2c-2.6,1.4-12.3,5.2-42.5,5.3c-0.4,0-0.8,0-1.2,0C407.4,699.3,402.9,694.7,402.6,690.6z M479.6,686.8
		l0.7-0.2c0.2-0.1,0.4-0.1,0.4-0.2c0-0.6-0.6-1.8-1.2-2.8c-9.5-7.1-8.9-14.5-8.5-16.9c0.1-3.2,1.1-24.8,2.4-37.8
		c1-10,5-15.7,8.2-18.8c0.6-0.6,1-1.5,1-2.4l1-49.6c0.1-4.8,4.1-8.8,8.9-8.8h130.8c2.5,0,4.9-1.1,6.5-3L660,511
		c1.5-1.8,2.4-4.1,2.4-6.5v-76.1c0-0.2-0.2-0.4-0.4-0.4h-51.6c-0.2,0-0.4,0.1-0.4,0.3c-6.8,24.5-8.4,39-8.7,44.2
		c-0.3,3.9-3.5,6.9-7.4,6.9H432.2c-16.9,28.3-20.2,46.1-23.6,79.1c-3.3,31.6,1.3,117.3,2,130.1c2,0.9,9.1,2.9,30.2,2.8
		c29.2-0.1,37.6-3.8,38.6-4.3L479.6,686.8z"/>
	<path id="XMLID_348_" class="st17" d="M666.4,433.2h29.3c1.9,0,3.6,1.4,3.9,3.3c1.4,8.6,4.6,33.1,0,59.1c-0.3,1.9-2,3.3-3.9,3.3
		h-29.3V433.2z"/>
	<rect id="XMLID_13_" x="663.9" y="448" class="st36" width="39" height="8.3"/>
	<rect id="XMLID_15_" x="666.4" y="472.3" class="st37" width="34.2" height="25.2"/>
	<path id="XMLID_349_" class="st4" d="M663.9,430.7h31.8c3.2,0,5.8,2.3,6.3,5.4c1.5,9.3,4.6,33.8,0,59.9c-0.5,3.1-3.2,5.4-6.3,5.4
		h-31.8V430.7z M668.9,435.7v60.6h26.8c0.7,0,1.3-0.5,1.4-1.2c4.5-25.4,1.5-49.2,0-58.2c-0.1-0.7-0.7-1.2-1.4-1.2H668.9z"/>
	<path id="XMLID_344_" class="st38" d="M605.4,429.6H434.1c-1.3,0-2.5,0.7-3.2,1.7l-7.2,11.3c-0.6,0.9-0.4,2.1,0.5,2.7
		c4.2,3.1,14.8,13.2,5.7,30.1h167.2L605.4,429.6z"/>
	<polygon id="XMLID_14_" class="st39" points="599.3,466.6 433.1,466.6 429.9,475.4 597.1,475.4 	"/>
	<polygon id="XMLID_11_" class="st40" points="430.4,458.7 602.1,458.7 602.1,448 424.7,448.5 	"/>
	<path id="XMLID_345_" class="st4" d="M426.4,473.5c7.2-13.4,0.2-21.4-4.6-25c-2.5-1.9-3.1-5.4-1.5-8l7.2-11.3
		c1.4-2.2,3.9-3.6,6.6-3.6h176.1l-9.8,53.8H423.2L426.4,473.5z M600.6,433.6H434.3l-6.2,9.7c4.6,3.9,12.9,13.5,7.9,28.1h157.8
		L600.6,433.6z"/>
	<ellipse id="XMLID_94_" class="st20" cx="712.8" cy="465.8" rx="3.6" ry="32.8"/>
	<path id="XMLID_327_" class="st31" d="M487.7,558.4h18.8c2,0,3.3,2.1,2.4,3.9l-8.6,18.1c-1.2,2.6-1.9,5.4-1.9,8.2v11.8
		c0,2.9-2.4,5.3-5.3,5.3h-6.4L487.7,558.4z"/>
	<path id="XMLID_16_" class="st41" d="M505.2,557.9l-9.7,18.1c-1.5,2.8-2.3,5.9-2.3,9v21.1c0,0,5.3-3.5,5.1-7.1s-0.3-16.1-0.3-16.1
		l11.1-22.5C509.2,560.4,506,557.9,505.2,557.9z"/>
	<path id="XMLID_334_" class="st4" d="M485.3,555.9h21.3c1.8,0,3.4,0.9,4.4,2.4c1,1.5,1.1,3.4,0.3,5l-8.6,18.1
		c-1.1,2.2-1.6,4.7-1.6,7.2v11.8c0,4.3-3.5,7.8-7.8,7.8h-9L485.3,555.9z M490.2,560.9l-0.9,42.3h3.9c1.6,0,2.8-1.3,2.8-2.8v-11.8
		c0-3.2,0.7-6.4,2.1-9.3l8.6-18.1c0,0,0-0.1,0-0.2s-0.1-0.1-0.2-0.1H490.2z"/>
	<path id="XMLID_331_" class="st4" d="M433.7,599.5c0-7.5,6.1-13.6,13.6-13.6s13.6,6.1,13.6,13.6s-6.1,13.6-13.6,13.6
		S433.7,607,433.7,599.5z M441.7,599.5c0,3.1,2.5,5.6,5.6,5.6s5.6-2.5,5.6-5.6s-2.5-5.6-5.6-5.6S441.7,596.4,441.7,599.5z"/>
	<path id="XMLID_328_" class="st4" d="M430.4,599.5c0-9.3,7.6-16.9,16.9-16.9s16.9,7.6,16.9,16.9s-7.6,16.9-16.9,16.9
		S430.4,608.8,430.4,599.5z M438.4,599.5c0,4.9,4,8.9,8.9,8.9s8.9-4,8.9-8.9s-4-8.9-8.9-8.9S438.4,594.6,438.4,599.5z"/>
	<path id="XMLID_323_" class="st42" d="M486,526.5h88.3c2.1,0,3.8-1.7,3.8-3.8v-32.6c0-2.1-1.7-3.8-3.8-3.8H486
		c-2.1,0-3.8,1.7-3.8,3.8v32.6C482.3,524.9,483.9,526.5,486,526.5z"/>
	<path id="XMLID_18_" class="st32" d="M489,524.3h87c1.1,0,2.1-0.9,2.1-2.1v-28.8c0-1.1-0.9-2.1-2.1-2.1h-87c-1.1,0-2.1,0.9-2.1,2.1
		v28.8C487,523.4,487.9,524.3,489,524.3z"/>
	<path id="XMLID_324_" class="st4" d="M479.8,522.8v-32.6c0-3.4,2.8-6.3,6.3-6.3h88.3c3.4,0,6.3,2.8,6.3,6.3v32.6
		c0,3.4-2.8,6.3-6.3,6.3H486C482.6,529,479.8,526.2,479.8,522.8z M486,489c-0.7,0-1.3,0.6-1.3,1.3v32.6c0,0.7,0.6,1.3,1.3,1.3h88.3
		c0.7,0,1.3-0.6,1.3-1.3v-32.6c0-0.7-0.6-1.3-1.3-1.3H486z"/>
	<path id="XMLID_35_" class="st43" d="M605.4,526.5h1.3c0.8,0,1.4-0.6,1.4-1.4v-37.2c0-0.8-0.6-1.4-1.4-1.4h-1.3
		c-0.8,0-1.4,0.6-1.4,1.4v37.2C604,525.9,604.6,526.5,605.4,526.5z"/>
	<path id="XMLID_74_" class="st43" d="M596.6,526.5h1.3c0.8,0,1.4-0.6,1.4-1.4v-37.2c0-0.8-0.6-1.4-1.4-1.4h-1.3
		c-0.8,0-1.4,0.6-1.4,1.4v37.2C595.1,525.9,595.8,526.5,596.6,526.5z"/>
	<path id="XMLID_73_" class="st43" d="M588.3,526.5h1.3c0.8,0,1.4-0.6,1.4-1.4v-37.2c0-0.8-0.6-1.4-1.4-1.4h-1.3
		c-0.8,0-1.4,0.6-1.4,1.4v37.2C586.9,525.9,587.5,526.5,588.3,526.5z"/>
	<path id="XMLID_72_" class="st43" d="M435.9,490.9h36.2c0.9,0,1.5-0.7,1.5-1.5V488c0-0.9-0.7-1.5-1.5-1.5h-36.2
		c-0.9,0-1.5,0.7-1.5,1.5v1.4C434.4,490.3,435.1,490.9,435.9,490.9z"/>
	<path id="XMLID_71_" class="st43" d="M432,500h40.2c0.9,0,1.5-0.7,1.5-1.5v-1.4c0-0.9-0.7-1.5-1.5-1.5H432c-0.9,0-1.5,0.7-1.5,1.5
		v1.4C430.4,499.3,431.1,500,432,500z"/>
	<path id="XMLID_70_" class="st43" d="M429.4,509.6h42.8c0.9,0,1.5-0.7,1.5-1.5v-1.4c0-0.9-0.7-1.5-1.5-1.5h-42.8
		c-0.9,0-1.5,0.7-1.5,1.5v1.4C427.8,509,428.5,509.6,429.4,509.6z"/>
	<path id="XMLID_69_" class="st43" d="M427.5,518.3h44.7c0.9,0,1.5-0.7,1.5-1.5v-1.4c0-0.9-0.7-1.5-1.5-1.5h-44.7
		c-0.9,0-1.5,0.7-1.5,1.5v1.4C425.9,517.6,426.6,518.3,427.5,518.3z"/>
	<path id="XMLID_68_" class="st43" d="M424.9,526.5h47.2c0.9,0,1.5-0.7,1.5-1.5v-1.4c0-0.9-0.7-1.5-1.5-1.5h-47.2
		c-0.9,0-1.5,0.7-1.5,1.5v1.4C423.4,525.8,424.1,526.5,424.9,526.5z"/>
	<path id="XMLID_319_" class="st32" d="M611.8,472.5h9.9c0.6,0,1.2-0.5,1.2-1.2v-14c0-0.6-0.5-1.2-1.2-1.2h-9.9
		c-0.6,0-1.2,0.5-1.2,1.2v14C610.6,472,611.1,472.5,611.8,472.5z"/>
	<path id="XMLID_320_" class="st4" d="M608.1,471.4v-14c0-2,1.6-3.7,3.7-3.7h9.9c2,0,3.7,1.6,3.7,3.7v14c0,2-1.6,3.7-3.7,3.7h-9.9
		C609.7,475,608.1,473.4,608.1,471.4z M620.3,458.7h-7.2V470h7.2V458.7z"/>
	<path id="XMLID_358_" class="st4" d="M705.9,489.5c-0.7-6.3-1.1-14.6-1.1-23.5s0.4-17.2,1.1-23.5c1-9,2.2-11.8,5-11.8
		c0.6,0,69.2,0.8,70.4,1c0.4,0,1.6,0.2,6.7,3.3c2.1,0.6,3.3,3.6,4.1,10.6c0.7,5.6,1.1,13,1.1,20.9c0,14.9-1.6,27.2-4,30.5
		c-0.6,1-1.7,1.8-3.1,2.5c-1.8,0.9-3.9,1.4-6.1,1.4l-69.1,0.4C708.1,501.3,706.9,498.4,705.9,489.5z M785.9,439.5
		c-1.9-1.2-4.3-2.5-5.1-2.8c-3.9-0.1-57.3-0.8-68.6-0.9c-1,3.2-2.3,14.3-2.3,30.3c0,16,1.2,27.2,2.3,30.3l67.9-0.4
		c1.5,0,2.8-0.3,3.9-0.9c0.9-0.4,1.1-0.8,1.2-0.9c1.1-1.5,3.1-11.2,3.1-27.7C788.3,450.8,786.8,441.5,785.9,439.5L785.9,439.5z"/>
	<path id="XMLID_133_" class="st32" d="M702,452.6h8.8c0,0,4.3,12.5,0,26.3L702,479V452.6z"/>
	<path id="XMLID_134_" class="st4" d="M699.5,450.1h13.1l0.6,1.7c0.2,0.5,4.5,13.4,0,27.9l-0.5,1.7l-13.2,0.1V450.1z M709,455.1
		h-4.4v21.4l4.4,0C711.4,467.1,709.8,458.6,709,455.1z"/>
</g>
<g id="XMLID_51_">
	<path id="XMLID_157_" class="st23" d="M1271.1,429.2v-22c0-2,1.6-3.6,3.6-3.6h34.2c2,0,3.6,1.6,3.6,3.6v22c0,2-1.6,3.6-3.6,3.6
		h-34.2C1272.7,432.8,1271.1,431.2,1271.1,429.2z"/>
	<rect id="XMLID_153_" x="1273" y="466.4" class="st23" width="37.2" height="9.9"/>
	<path id="XMLID_145_" class="st23" d="M1309,476.4c-10.1,0-17.4,0-17.4,0s-7.2,0-17.4,0s-12.3,20.1-12.3,20.1h29.7h29.7
		C1321.3,496.4,1319.1,476.4,1309,476.4z"/>
	<rect id="XMLID_43_" x="1291.4" y="403.6" class="st44" width="4.2" height="88.9"/>
	<path id="XMLID_161_" class="st14" d="M1270,463.5v-27.8c0-1.6,1.3-2.9,2.9-2.9h41.1c1.6,0,2.9,1.3,2.9,2.9v27.8
		c0,1.6-1.3,2.9-2.9,2.9H1273C1271.4,466.4,1270,465.1,1270,463.5z"/>
	<path id="XMLID_185_" class="st45" d="M1302.8,820.1c18.8,1.5,19.2-4.2,19.2-4.2V604.8h-74.3c-3.1,0-5.9,2.1-6.6,5.2
		c-0.5,2.1-0.8,4.4-0.9,6.3c-0.2,2.2-2,3.9-4.3,3.9c-17.6-0.2-86.8-0.8-100.7-0.4c-15.9,0.4-18.7,18.9-18.7,18.9l-0.3,118.2
		c0,2.3-1.1,4.5-3.1,5.7c-4.7,3-6.2,7.8-6.2,7.8s-0.2,17.8,0,26.7c0.1,5.3,3.6,8.1,6.4,9.5c1.9,1,3.3,2.7,3.9,4.7
		c1.2,4.3,5.2,5.4,5.2,5.4s20.3,0.4,29.4,0.2c9.1-0.2,11.2-3.2,11.2-3.2c72.9,3,107.6-3.4,118.6-6.1c2.7-0.7,5.5,0,7.6,1.7
		L1302.8,820.1z M1171.8,757.2v-16.6c0-6.4,4.6-11.8,10.9-12.8l60.5-10.2h57.1c1.9,0,3.5,1.6,3.5,3.5v43.4c0,1.4-1.2,2.6-2.6,2.6
		c-1,0-2-0.6-2.4-1.5l-4.4-9.9c-0.6-1.4-2.2-2.1-3.6-1.6l-36.7,13c-5.5,1.9-11.2,3.2-17,3.7l-46.2,4
		C1180.5,775.4,1171.8,767.4,1171.8,757.2z"/>
	<rect id="XMLID_19_" x="1227.4" y="621.6" class="st46" width="12.3" height="95.8"/>
	<rect id="XMLID_17_" x="1254.1" y="605.6" class="st47" width="42" height="111.7"/>
	<path id="XMLID_188_" class="st4" d="M1102.9,786.1c0-7.7,0.1-15.3,0.1-15.8l0-0.6l0.2-0.6c0.2-0.6,2.1-6.3,7.9-10
		c0.8-0.5,1.2-1.4,1.2-2.4l0.3-118.5l0-0.3c1.2-7.5,7.4-21.9,22.6-22.3c13.7-0.4,80.6,0.2,100.8,0.4c0.1,0,0.2-0.1,0.2-0.3
		c0.2-2.6,0.6-4.9,1-6.9c1.1-4.8,5.5-8.3,10.5-8.3h78.3l0,215.4c-0.1,0.7-0.4,2.7-2.5,4.5c-3.7,3.1-10.5,4.3-21,3.4l-1.2-0.1
		l-14.5-11.5c-1.2-0.9-2.7-1.3-4.2-0.9c-11.6,2.8-46.3,9.1-118.2,6.2c-2,1.4-5.7,3-12.5,3.1c-9.1,0.2-28.7-0.2-29.6-0.2l-0.5,0
		l-0.5-0.1c-2.2-0.6-6.4-3.1-7.9-8.1c-0.3-1-1-1.9-1.8-2.3c-5.4-2.7-8.5-7.3-8.6-13C1102.9,794.1,1102.9,790.1,1102.9,786.1z
		 M1110.9,771.1c0,3.4-0.2,18.1,0,25.8c0,1,0.1,4,4.2,6c2.8,1.4,5,4.1,5.9,7.2c0.4,1.5,1.5,2.2,2.1,2.5c3.7,0.1,20.6,0.4,28.5,0.2
		c5.7-0.1,7.8-1.4,8.2-1.7l1.1-1.5l2.2,0.1c71.9,3,106.1-3.2,117.5-5.9c3.9-1,7.9-0.1,11,2.4l12.6,10c9.5,0.6,12.8-0.8,13.7-1.4
		v-206h-70.3c-1.3,0-2.5,0.9-2.7,2.1c-0.4,1.6-0.7,3.5-0.8,5.8c-0.4,4.3-4,7.6-8.3,7.6c-14.3-0.1-86.6-0.8-100.5-0.4
		c-11.5,0.3-14.4,13.1-14.8,15.2l-0.3,117.8c0,3.7-1.9,7.1-4.9,9.1C1112.7,767.6,1111.4,770.1,1110.9,771.1z M1167.8,757.2v-16.6
		c0-8.3,6-15.4,14.2-16.8l60.9-10.3h57.4c4.1,0,7.5,3.4,7.5,7.5v43.4c0,3.6-3,6.6-6.6,6.6c-2.6,0-5-1.5-6-3.9l-4-9l-35.8,12.6
		c-5.8,2-11.9,3.4-18,3.9l-46.2,4c-6,0.5-11.9-1.5-16.3-5.6C1170.3,768.9,1167.8,763.2,1167.8,757.2z M1243.5,721.5l-60.2,10.2
		c-4.4,0.7-7.5,4.5-7.5,8.9v16.6c0,3.8,1.5,7.3,4.4,9.9c2.8,2.6,6.5,3.8,10.3,3.5l46.2-4c5.5-0.5,10.9-1.6,16-3.5l36.7-13
		c3.4-1.2,7.2,0.4,8.6,3.7l1.8,3.9v-36.3H1243.5z"/>
	<path id="XMLID_181_" class="st48" d="M1263.8,604.8v116.6h-23.2V612.7c0,0,0-7.5,7.2-7.9H1263.8z"/>
	<rect id="XMLID_20_" x="1255.5" y="604.8" class="st49" width="5" height="116.7"/>
	<path id="XMLID_182_" class="st4" d="M1236.6,725.3V612.7c0-4.5,3-11.4,10.9-11.9l0.2,0h20v124.6H1236.6z M1247.9,608.8
		c-2.8,0.2-3.3,2.6-3.3,4l0,104.6h15.2V608.8H1247.9z"/>
	<path id="XMLID_177_" class="st45" d="M1261.8,602.6v-18.1c0-1.2,1-2.2,2.2-2.2h59.1c1.2,0,2.2,1,2.2,2.2v18.1c0,1.2-1,2.2-2.2,2.2
		H1264C1262.8,604.8,1261.8,603.8,1261.8,602.6z"/>
	<path id="XMLID_178_" class="st4" d="M1257.8,602.6v-18.1c0-3.4,2.8-6.2,6.2-6.2h59.1c3.4,0,6.2,2.8,6.2,6.2v18.1
		c0,3.4-2.8,6.2-6.2,6.2H1264C1260.6,608.8,1257.8,606,1257.8,602.6z M1265.8,586.3v14.4h55.5v-14.4H1265.8z"/>
	<rect id="XMLID_173_" x="1212.4" y="562" class="st14" width="105" height="20.3"/>
	<path id="XMLID_174_" class="st4" d="M1208.4,586.3V558h113v28.3H1208.4z M1216.4,566v12.3h97V566H1216.4z"/>
	<path id="XMLID_169_" class="st14" d="M1214.5,607.8v-68.1c0-1.6-1.3-2.9-2.9-2.9c-1.6,0-2.9,1.3-2.9,2.9v13.4c0,0-2,5.7-21.4,3.2
		c-19.4-2.5-59.7-3.2-71.1-1.3c-10,1.7-17.6,1.4-24.4-5.1c-1.6-1.5-4.2-0.8-4.9,1.2c-1.5,4.1-3.4,11-3.4,21c0,10,1.8,16.9,3.4,21
		c0.8,2,3.4,2.6,4.9,1.2c6.8-6.5,14.4-6.8,24.4-5.1c11.4,1.9,51.7,1.3,71.1-1.3c19.4-2.5,21.4,3.2,21.4,3.2v16.7
		c0,1.6,1.3,2.9,2.9,2.9C1213.2,610.7,1214.5,609.4,1214.5,607.8z"/>
	<path id="XMLID_45_" class="st50" d="M1210.5,536.9c0,0,0.9,19.8,0.4,21.5s-6.3,10.3-23.3,9s-26.5-7-50-4s-34,4.5-38.5,1.5
		s-11.4-12.3-15.6-9.8c0,0,3.6-12.3,10.2-6.2s14.8,7.8,19,7s51.5-6.1,69.6-2.1c18.1,4,19.4,3,25.2,0v-17H1210.5z"/>
	<path id="XMLID_170_" class="st4" d="M1079.6,572.1c0-10.5,2-18,3.6-22.4c0.8-2.2,2.7-3.9,5-4.4c2.3-0.5,4.7,0.1,6.4,1.7
		c5.7,5.4,12,5.5,21,4.1c12.2-2,52.7-1.3,72.2,1.2c11.2,1.5,15.5,0,16.8-0.8v-11.8c0-3.8,3.1-6.9,6.9-6.9s6.9,3.1,6.9,6.9v68.1
		c0,3.8-3.1,6.9-6.9,6.9s-6.9-3.1-6.9-6.9v-15.1c-1.4-0.8-5.6-2.3-16.8-0.8c-19.6,2.6-60.1,3.3-72.2,1.2c-9-1.5-15.3-1.3-21,4
		c-1.7,1.6-4.1,2.3-6.4,1.7c-2.3-0.5-4.2-2.2-5-4.4C1081.6,590.1,1079.6,582.6,1079.6,572.1z M1090.2,553.9
		c-1.3,3.9-2.6,9.9-2.6,18.2c0,8.3,1.3,14.3,2.6,18.2c7.7-6.6,16.3-6.9,26.7-5.1c10.5,1.7,49.8,1.4,69.9-1.3
		c14.4-1.9,20.8,0.5,23.7,3v-29.6c-2.8,2.5-9.2,4.9-23.7,3c-20.1-2.6-59.4-3-69.9-1.3C1106.5,560.7,1098,560.5,1090.2,553.9z"/>
	<path id="XMLID_165_" class="st14" d="M1262,552.2v-55.8h59.3v55.8c0,1-0.8,1.8-1.8,1.8h-55.8C1262.7,554,1262,553.2,1262,552.2z"
		/>
	<path id="XMLID_21_" class="st12" d="M1306.2,543.8v-37.3c0-1.8,1.4-3.2,3.2-3.2l0,0c1.8,0,3.2,1.4,3.2,3.2v37.3
		c0,1.8-1.4,3.2-3.2,3.2l0,0C1307.6,547,1306.2,545.6,1306.2,543.8z"/>
	<path id="XMLID_23_" class="st12" d="M1294.7,543.8v-37.3c0-1.8,1.4-3.2,3.2-3.2l0,0c1.8,0,3.2,1.4,3.2,3.2v37.3
		c0,1.8-1.4,3.2-3.2,3.2l0,0C1296.1,547,1294.7,545.6,1294.7,543.8z"/>
	<path id="XMLID_25_" class="st12" d="M1282.3,543.8v-37.3c0-1.8,1.4-3.2,3.2-3.2l0,0c1.8,0,3.2,1.4,3.2,3.2v37.3
		c0,1.8-1.4,3.2-3.2,3.2l0,0C1283.7,547,1282.3,545.6,1282.3,543.8z"/>
	<path id="XMLID_24_" class="st12" d="M1270.8,543.8v-37.3c0-1.8,1.4-3.2,3.2-3.2l0,0c1.8,0,3.2,1.4,3.2,3.2v37.3
		c0,1.8-1.4,3.2-3.2,3.2l0,0C1272.2,547,1270.8,545.6,1270.8,543.8z"/>
	<path id="XMLID_166_" class="st4" d="M1258,552.2V494c0-0.9,0.7-1.6,1.6-1.6h62.2c2,0,3.6,1.6,3.6,3.6v56.2c0,3.2-2.6,5.8-5.8,5.8
		h-55.8C1260.5,558,1258,555.4,1258,552.2z M1266,500.4V550h51.3v-49.5H1266z"/>
	<path id="XMLID_162_" class="st4" d="M1266,463.5v-27.8c0-3.8,3.1-6.9,6.9-6.9h41.1c3.8,0,6.9,3.1,6.9,6.9v27.8
		c0,3.8-3.1,6.9-6.9,6.9H1273C1269.2,470.4,1266,467.3,1266,463.5z M1274,436.8v25.6h39v-25.6H1274z"/>
	<rect id="XMLID_40_" x="1300.1" y="401.6" class="st51" width="8.4" height="92.6"/>
	<rect id="XMLID_42_" x="1291.4" y="430.2" class="st52" width="4.2" height="37.5"/>
	<path id="XMLID_158_" class="st4" d="M1267.1,429.2v-22c0-4.2,3.4-7.6,7.6-7.6h34.2c4.2,0,7.6,3.4,7.6,7.6v22
		c0,4.2-3.4,7.6-7.6,7.6h-34.2C1270.5,436.8,1267.1,433.4,1267.1,429.2z M1275.1,410.2v18.6h33.5v-18.6c0-1.4-1.2-2.6-2.6-2.6h-28.3
		C1276.3,407.6,1275.1,408.8,1275.1,410.2z"/>
	<path id="XMLID_154_" class="st4" d="M1269,480.4v-17.9h45.2v17.9H1269z M1277,470.4v1.9h29.2v-1.9H1277z"/>
	<rect id="XMLID_149_" x="1264.9" y="554" class="st23" width="50.2" height="8"/>
	<path id="XMLID_150_" class="st4" d="M1260.9,566v-16h58.2v16H1260.9z M1268.9,558L1268.9,558l42.2,0v0H1268.9z"/>
	<path id="XMLID_146_" class="st4" d="M1257.5,500.4l0.5-4.4c0.3-2.4,3-23.7,16.3-23.7h34.7c13.3,0,16,21.2,16.3,23.7l0.5,4.4
		H1257.5z M1316.5,492.4c-1.3-5.4-3.8-12.1-7.6-12.1h-34.7c-3.7,0-6.3,6.7-7.6,12.1H1316.5z"/>
	<path id="XMLID_141_" class="st14" d="M1106.9,784.6l2.1-16.2h-28.3c-3.8,2.9-4.5,8.6-4.5,8.6v7.6v7.6c0,0,0.7,5.7,4.5,8.6h28.3
		L1106.9,784.6z"/>
	<path id="XMLID_142_" class="st4" d="M1072.1,792.5l0-15.9c0.1-0.8,1-7.5,6.1-11.3l1.1-0.8h34.2l-2.6,20.2l2.6,20.2h-34.2l-1.1-0.8
		c-5-3.8-6-10.5-6.1-11.3L1072.1,792.5z M1080.1,777.3v14.7c0.2,1.1,0.8,3.3,2.1,4.9h22.2l-1.5-12.2l1.5-12.2h-22.2
		C1080.8,774,1080.2,776.3,1080.1,777.3z"/>
	<path id="XMLID_37_" class="st53" d="M1152.4,646.6v-3.5c0-0.8,0.6-1.4,1.4-1.4h57.1c0.8,0,1.4,0.6,1.4,1.4v3.5
		c0,0.8-0.6,1.4-1.4,1.4h-57.1C1153,648.1,1152.4,647.4,1152.4,646.6z"/>
	<path id="XMLID_39_" class="st53" d="M1152.4,660.2v-3.5c0-0.8,0.6-1.4,1.4-1.4h57.1c0.8,0,1.4,0.6,1.4,1.4v3.5
		c0,0.8-0.6,1.4-1.4,1.4h-57.1C1153,661.6,1152.4,661,1152.4,660.2z"/>
	<path id="XMLID_38_" class="st53" d="M1152.4,672.8v-3.5c0-0.8,0.6-1.4,1.4-1.4h57.1c0.8,0,1.4,0.6,1.4,1.4v3.5
		c0,0.8-0.6,1.4-1.4,1.4h-57.1C1153,674.2,1152.4,673.6,1152.4,672.8z"/>
</g>
</svg>
