<svg version="1.1"
      xmlns="http://www.w3.org/2000/svg"
      xmlns:xlink="http://www.w3.org/1999/xlink"  id="snapshot-49590" width="250" height="250" viewBox="0 0 250 250"><desc>This image was made on Patterninja.com</desc><defs>
<!-- image 30491 -->
<g id="transformed-30491" data-image="30491" transform="translate(13.247128662287864, 30.365466512485355) rotate(319, 85.75287133771214, 110.63453348751464)"><g><svg version="1.1" width="171.50574267542427px" height="221.2690669750293px" viewBox="0 0 171.50574267542427 221.2690669750293"><g id="original-30491"><svg xmlns="http://www.w3.org/2000/svg" id="Layer_1" viewBox="0 0 612 792" xmlns:xlink="http://www.w3.org/1999/xlink" version="1.1" preserveAspectRatio="xMidYMid meet">
  <g id="XMLID_1_">
    <path id="XMLID_272_" d="M417.6 72.3c.6 6.7 2.3 24.7 5.6 32 .7 1.5 2.2 2.3 3.8 2l91.8-17c3-.5 6-.6 9 0 2.7.6 6.7.4 10.3-3.5 6.2-6.7 7-33-5.4-39 0 0-4.8-2.8-13.2 2.2-7.5 4.5-84.4 17.7-99.5 20.3-1.6.2-2.6 1.6-2.4 3z" fill="rgba(0, 0, 0, 1)" stroke="none"/>
    <path id="XMLID_36_" d="M542.2 57.3L417.5 82l1.4 9.4 127.8-26.6z" fill="rgba(2, 0, 245, 1)" stroke="none"/>
    <path id="XMLID_361_" d="M297.1 511.5h18.7v226.3h-18.7z" fill="rgba(0, 0, 0, 1)" stroke="none"/>
    <path id="XMLID_46_" d="M297.1 511.5h9.4v226.3h-9.4z" fill="rgba(0, 0, 0, 1)" stroke="none"/>
    <path id="XMLID_362_" d="M322.1 744.1h-31.2V505.3h31.2v238.8zm-20.6-12.5h10.9V517.8h-10.9v213.8z" fill="rgba(0, 0, 0, 1)" stroke="none"/>
    <path id="XMLID_280_" d="M364.6 19.4c-20-11.9-58.1-12.3-58.1-12.3s-38.1.5-58.1 12.3-10.5 40.4-10.5 40.4 8.8 22.5 6 54.6-6.2 38.3 7.3 43.5c13.5 5.2 55.3 4.2 55.3 4.2s41.8.9 55.3-4.2 10.1-11.4 7.3-43.5 6-54.6 6-54.6 9.4-28.6-10.5-40.4zm-6.3 27.4c-1.6 25.1-19.8 27.6-19.8 27.6h-64.2s-18.1-2.5-19.8-27.6 29.1-10 51.8-10c22.9 0 53.6-15.1 52 10z" fill="rgba(0, 0, 0, 1)" stroke="none"/>
    <path id="XMLID_283_" d="M314.7 168.4c-4.1 0-7.1-.1-8.3-.1-5 .1-43.5.7-57.5-4.6-15.7-6-14.8-15.4-12.6-36.1.4-4 .9-8.5 1.3-13.8 2.6-30.1-5.5-51.6-5.6-51.8l-.1-.3c-.5-1.4-10.8-33.5 13.2-47.8C266.3 1.3 304.7.7 306.3.7c1.8 0 40.2.6 61.4 13.2 24 14.3 13.7 46.4 13.2 47.8l-.1.3c-.1.2-8.2 21.7-5.6 51.8.5 5.2.9 9.8 1.3 13.8 2.1 20.7 3.1 30.1-12.6 36.1-10.7 4.1-35.8 4.7-49.2 4.7zm-8.2-12.6h.1c11.3.2 42.9.1 53-3.8 6.5-2.5 6.8-2.6 4.6-23.1-.4-4-.9-8.6-1.4-14-2.8-31.9 5.4-54.7 6.3-57.2.5-1.6 7.1-24.2-7.7-33-18.3-10.9-54.6-11.4-55-11.4-.2 0-36.6.6-54.8 11.4-14.9 8.8-8.3 31.3-7.7 33 1 2.5 9.1 25.3 6.3 57.2-.5 5.3-.9 9.9-1.4 14-2.1 20.5-1.9 20.6 4.6 23.1 10.1 3.8 41.7 4 53 3.8h.1zM339 80.6l-65.4-.1c-8-1.1-23.6-9.5-25.1-33.4-.5-7.3 1.3-12.9 5.4-16.5 7.6-6.8 20.1-4.7 33.3-2.4 6.6 1.1 13.4 2.3 19.3 2.3s12.7-1.2 19.3-2.3c13.2-2.3 25.7-4.4 33.3 2.4 4.1 3.7 5.9 9.2 5.4 16.5-1.5 23.9-17.1 32.3-25.1 33.4l-.4.1zm-64.1-12.5H338c2.2-.5 12.9-3.7 14.1-21.7.1-1.9.1-5.1-1.3-6.4-3.1-2.8-14.1-.9-22.9.6-7.1 1.2-14.4 2.5-21.4 2.5s-14.3-1.3-21.4-2.5c-8.8-1.5-19.8-3.4-22.9-.6-1.4 1.3-1.4 4.6-1.3 6.4 1.1 17.8 11.6 21.2 14 21.7z" fill="rgba(0, 0, 0, 1)" stroke="none"/>
    <path id="XMLID_276_" d="M369.9 81.9l22.5-1.8c3.5-.3 7-1.3 10.1-3 4-2.1 10.2-4.5 16-2.7 0 0 12.4 8.8 4.5 29.8 0 0-14.9 2-21.7 0-6.8-2-32.6 3.7-32.6 3.7s-1.4-12.7 1.2-26z" fill="rgba(0, 0, 0, 1)" stroke="none"/>
    <path id="XMLID_277_" d="M363.1 115.4l-.7-7c-.1-.6-1.4-13.7 1.3-27.7l.9-4.7 27.2-2.2c2.7-.2 5.3-1 7.7-2.3 5.2-2.7 13-5.5 20.7-3.2l1 .3.8.6c.7.5 16.2 11.9 6.7 37.1l-1.3 3.5-3.7.5c-1.7.2-16.4 2.1-24.3-.2-3.2-.9-17.9 1.2-29.5 3.8l-6.8 1.5zm12.2-27.7c-.6 4.7-.7 9.1-.7 12.5 9.1-1.7 22.7-3.8 28.5-2.1 3 .9 9.8.7 15.2.2 3-10.8-.9-16.4-2.8-18.3-3.6-.5-7.8 1.3-10.1 2.5-3.9 2.1-8.2 3.3-12.5 3.7l-17.6 1.5z" fill="rgba(0, 0, 0, 1)" stroke="none"/>
    <path id="XMLID_273_" d="M426.3 112.6c-3.8 0-7.3-2.2-8.8-5.7-3.5-7.8-5.3-24.7-6.1-34-.4-4.8 2.8-8.9 7.5-9.7 52.5-9 92.5-17 97.4-19.6 10.1-6 17.2-3.3 19-2.4 6.3 3.1 10.8 9.9 12.5 19.2 1.8 9.7.6 23.4-5.3 29.7-4.4 4.7-10.1 6.6-16.2 5.4-2-.4-4.2-.4-6.6 0l-91.8 17c-.4.1-1 .1-1.6.1zm-2.2-37.7c1 10.9 2.5 19.9 4.1 24.8l89.5-16.6c3.9-.7 7.7-.7 11.4 0 1.7.4 3.1-.2 4.5-1.6 1.6-1.7 3.8-9.9 2.1-18.9-1-5.2-3.1-9-5.7-10.3h-.1c-.4-.1-2.8-.7-7.2 2-7.3 4.3-56.9 13.5-98.6 20.6z" fill="rgba(0, 0, 0, 1)" stroke="none"/>
    <path id="XMLID_268_" d="M243.6 81.9l-22.5-1.8c-3.5-.3-7-1.3-10.1-3-4-2.1-10.2-4.5-16-2.7 0 0-12.4 8.8-4.5 29.8 0 0 14.9 2 21.7 0s32.6 3.7 32.6 3.7 1.3-12.7-1.2-26z" fill="rgba(0, 0, 0, 1)" stroke="none"/>
    <path id="XMLID_269_" d="M250.3 115.4l-6.9-1.5c-11.6-2.6-26.3-4.7-29.5-3.8-7.9 2.3-22.6.4-24.3.2l-3.7-.5-1.3-3.5c-9.5-25.1 6-36.6 6.7-37.1l.8-.6 1-.3c7.7-2.3 15.5.5 20.7 3.2 2.4 1.3 5 2 7.7 2.3l27.2 2.2.9 4.7c2.7 14 1.4 27.2 1.3 27.7l-.6 7zm-33.9-17.9c6.6 0 15.7 1.5 22.5 2.7 0-3.4-.1-7.8-.7-12.5l-17.6-1.4c-4.4-.4-8.6-1.6-12.5-3.7-2.3-1.2-6.5-3-10.1-2.5-1.8 1.8-5.7 7.4-2.7 18.3 5.5.5 12.2.7 15.2-.2 1.5-.5 3.5-.7 5.9-.7z" fill="rgba(0, 0, 0, 1)" stroke="none"/>
    <path id="XMLID_264_" d="M195.9 72.3c-.6 6.7-2.3 24.7-5.6 32-.7 1.5-2.2 2.3-3.8 2l-91.8-17c-3-.5-6-.6-9 0-2.7.6-6.7.4-10.3-3.5-6.2-6.7-7-33 5.4-39 0 0 4.8-2.8 13.2 2.2 7.5 4.5 84.4 17.7 99.5 20.3 1.5.2 2.5 1.6 2.4 3z" fill="rgba(0, 0, 0, 1)" stroke="none"/>
    <path id="XMLID_34_" d="M72.5 54.4L197.2 79l-1.3 9.4L68.1 61.8z" fill="rgba(2, 0, 245, 1)" stroke="none"/>
    <path id="XMLID_265_" d="M187.1 112.6c-.6 0-1.2-.1-1.8-.2l-91.8-17c-2.3-.4-4.5-.4-6.6 0-6 1.3-11.8-.7-16.2-5.4-5.8-6.3-7.1-20-5.3-29.7 1.7-9.3 6.2-16.1 12.5-19.2 1.8-.9 8.9-3.6 19.1 2.4 4.8 2.5 44.9 10.6 97.4 19.5 4.7.8 7.9 5 7.5 9.7-.8 9.3-2.6 26.2-6.1 34-1.4 3.7-4.9 5.9-8.7 5.9zm-97-30c1.9 0 3.8.2 5.7.5l89.5 16.6c1.5-4.9 3-13.9 4.1-24.8-41.7-7.2-91.4-16.3-98.6-20.6-4-2.4-6.3-2.2-7-2l-.4.3.2-.2c-2.6 1.3-4.7 5-5.7 10.3-1.7 9 .5 17.2 2.1 18.9 1.4 1.5 2.8 2 4.5 1.6 1.8-.4 3.7-.6 5.6-.6z" fill="rgba(0, 0, 0, 1)" stroke="none"/>
    <path id="XMLID_260_" d="M319.3 741.2c-1.2-7.7-12.9-7.1-12.9-7.1s-11.6-.6-12.9 7.1c-1.2 7.7-2.5 40.6-2.5 40.6 0 1.6 6.9 3 15.4 3s15.4-1.3 15.4-3c0 0-1.2-32.8-2.5-40.6z" fill="rgba(2, 0, 245, 1)" stroke="none"/>
    <path id="XMLID_261_" d="M306.5 791.1c-14.9 0-21.6-2.8-21.6-9.2v-.2c.1-1.4 1.3-33.3 2.6-41.3 1.7-10.3 12.6-12.7 19-12.4 6.5-.3 17.4 2.1 19 12.4 1.3 8 2.5 40 2.6 41.3v.2c0 6.3-6.7 9.2-21.6 9.2zm-9-13.2c2 .3 5 .6 9 .6 3.9 0 7-.3 8.9-.6-.5-10.9-1.4-30.4-2.2-35.7-.2-1.3-4.3-2-6.4-1.9h-.6c-2.3-.1-6.2.7-6.4 1.9-.9 5.3-1.8 24.8-2.3 35.7z" fill="rgba(0, 0, 0, 1)" stroke="none"/>
    <ellipse id="XMLID_3_" cx="306.5" cy="781.8" rx="15.4" ry="3" fill="rgba(0, 0, 0, 1)" stroke="none"/>
    <path id="XMLID_129_" d="M348.2 159c-18.3-6.2-41.7-5.8-41.7-5.8s-23.4-.4-41.7 5.8c-2.2.7-3.7 2.8-3.7 5.1v15l45.4-6.8 45.4 6.8v-15c0-2.3-1.5-4.4-3.7-5.1z" fill="rgba(0, 0, 0, 1)" stroke="none"/>
    <path id="XMLID_130_" d="M358.1 186.3l-51.7-7.8-51.7 7.8v-22.2c0-5 3.2-9.5 7.9-11.1 18.7-6.3 41.7-6.1 43.7-6.1s25.1-.2 43.7 6.1c4.7 1.6 7.9 6 7.9 11.1v22.2h.2zm-90.8-21.6v7.1l39.2-5.9 39.2 5.9v-7.1c-17-5.6-38.8-5.2-39.1-5.2h-.2c-.3 0-22.2-.3-39.1 5.2z" fill="rgba(2, 0, 245, 1)" stroke="none"/>
    <path id="XMLID_125_" d="M370.3 192.2c-.5-.6-1-1.1-1.6-1.6-9.2-9.1-21.2-14.7-33.9-16.5-15.1-2.1-28.3-1.9-28.3-1.9s-13.2-.3-28.3 1.9c-12.8 1.8-24.8 7.4-33.9 16.5l-1.6 1.6c-6 6.4-9.1 15-9.1 23.8v98c0 1.3 1 2.3 2.3 2.3h141.4c1.3 0 2.3-1 2.3-2.3v-98c-.2-8.8-3.3-17.4-9.3-23.8z" fill="rgba(0, 0, 0, 0.37790697674418605)" stroke="none"/>
    <path id="XMLID_29_" d="M367 189v127.3h16.5L381.2 206s-9-12.8-14.2-17z" fill="rgba(0, 0, 0, 1)" stroke="none"/>
    <path id="XMLID_26_" d="M286.7 173.2v143.2l-34 1.8V183.7s14.2-9.7 34-10.5z" fill="rgba(0, 0, 0, 1)" stroke="none"/>
    <path id="XMLID_126_" d="M377.1 322.6H235.8c-4.7 0-8.6-3.8-8.6-8.6v-98c0-10.6 3.8-20.6 10.8-28 .6-.6 1.2-1.2 1.7-1.8 9.8-9.7 23.1-16.2 37.5-18.2 14.8-2.1 27.7-2 29.2-1.9 1.5 0 14.4-.1 29.2 1.9 14.4 2 27.7 8.5 37.5 18.2.6.6 1.2 1.2 1.7 1.8 7 7.4 10.8 17.4 10.8 28v98c.1 4.7-3.8 8.6-8.5 8.6zm-137.4-12.5h133.5V216c0-7.5-2.6-14.4-7.4-19.5-.5-.5-.9-1-1.4-1.5-7.9-7.8-18.7-13.1-30.4-14.7-14.4-2-27.2-1.8-27.3-1.8h-.2c-.1 0-12.9-.2-27.3 1.8-11.7 1.7-22.5 6.9-30.4 14.7-.5.5-1 1-1.4 1.5-4.8 5.1-7.4 12-7.4 19.5v94.1h-.3z" fill="rgba(0, 0, 0, 1)" stroke="none"/>
    <path id="XMLID_121_" d="M375.7 316c-8.6-1-37.7-3.9-69.3-4.2-31.6.3-60.7 3.2-69.3 4.2-1.5.2-2.5 1.4-2.5 2.8v8c0 .6.2 1.2.5 1.7l25.6 35.6c1.5 2 2.2 4.4 2.2 6.9v18c0 1.9 1.6 3.5 3.5 3.5h79.8c1.9 0 3.5-1.6 3.5-3.5v-18c0-2.5.8-4.9 2.2-6.9l25.6-35.6c.4-.5.5-1.1.5-1.7v-8c.3-1.4-.8-2.6-2.3-2.8z" fill="rgba(0, 0, 0, 1)" stroke="none"/>
    <path id="XMLID_41_" d="M286.7 312.3v80.2l-26-.9s-2.3-27.1-2.8-27.9-3.6-7.3-3.6-7.3v-42.1c-.1.1 30.5-1.9 32.4-2z" fill="rgba(0, 0, 0, 1)" stroke="none"/>
    <path id="XMLID_122_" d="M346.4 398.8h-79.9c-5.4 0-9.8-4.4-9.8-9.8v-18c0-1.2-.4-2.3-1.1-3.3L230 332.1c-1.1-1.6-1.7-3.4-1.7-5.3v-8c0-4.6 3.5-8.5 8.1-9.1 8.3-.9 38-4 69.9-4.2 32 .3 61.7 3.3 70 4.2 4.6.5 8.1 4.4 8.1 9.1v8c0 1.9-.6 3.8-1.7 5.3l-25.6 35.6c-.7 1-1.1 2.1-1.1 3.3v18c.2 5.4-4.2 9.8-9.6 9.8zm-77.2-12.5h74.5V371c0-3.8 1.2-7.5 3.4-10.6l24.9-34.7v-3.9c-10.9-1.1-37.4-3.6-65.6-3.8-28.1.2-54.6 2.7-65.5 3.8v3.9l24.9 34.7c2.2 3.1 3.4 6.8 3.4 10.6v15.3z" fill="rgba(0, 0, 0, 1)" stroke="none"/>
    <path id="XMLID_117_" d="M280.4 392.5h52v25.8h-52z" fill="rgba(0, 0, 0, 1)" stroke="none"/>
    <path id="XMLID_118_" d="M338.7 424.6h-64.5v-38.3h64.5v38.3zm-52-12.5h39.6v-13.3h-39.6v13.3z" fill="rgba(0, 0, 0, 1)" stroke="none"/>
    <path id="XMLID_113_" d="M335.4 467.4h-57.8c-1.9 0-3.5-1.5-3.5-3.5v-42.1c0-1.9 1.5-3.5 3.5-3.5h57.8c1.9 0 3.5 1.5 3.5 3.5v42.1c-.1 1.9-1.6 3.5-3.5 3.5z" fill="rgba(0, 0, 0, 1)" stroke="none"/>
    <path id="XMLID_114_" d="M333.4 473.6h-54c-6.4 0-11.6-5.2-11.6-11.6v-38.2c0-6.4 5.2-11.6 11.6-11.6h54c6.4 0 11.6 5.2 11.6 11.6V462c.1 6.4-5.1 11.6-11.6 11.6zm-53.1-12.5h52.3v-36.5h-52.3v36.5z" fill="rgba(0, 0, 0, 1)" stroke="none"/>
    <path id="XMLID_109_" d="M262.2 454.4h11.9v-27.1h-11.9c-.8 0-1.5.7-1.5 1.5v24.1c0 .8.7 1.5 1.5 1.5z" fill="rgba(0, 0, 0, 1)" stroke="none"/>
    <path id="XMLID_110_" d="M278 458.3h-15c-3.4 0-6.2-2.8-6.2-6.2v-22.4c0-3.4 2.8-6.2 6.2-6.2h15v34.8zm-13.4-7.8h5.6v-19.3h-5.6v19.3z" fill="rgba(0, 0, 0, 1)" stroke="none"/>
    <path id="XMLID_105_" d="M252.1 448.5h8.6v-15.2h-8.6c-1 0-1.8.8-1.8 1.8v11.6c0 1 .8 1.8 1.8 1.8z" fill="rgba(0, 0, 0, 1)" stroke="none"/>
    <path id="XMLID_106_" d="M264.6 452.4h-11.5c-3.7 0-6.7-3-6.7-6.7V436c0-3.7 3-6.7 6.7-6.7h11.5v23.1zm-10.4-7.8h2.5v-7.4h-2.5v7.4z" fill="rgba(0, 0, 0, 1)" stroke="none"/>
    <path id="XMLID_9_" d="M329.1 467.4s-.2 7.3-.5 13.7c-.1 4-5.5 8.1-9.5 10.6-2.5 1.6-5.3 2.4-8.3 2.4H302c-2.9 0-5.8-.8-8.3-2.4-4-2.5-9.4-6.6-9.5-10.6-.2-6.4-.5-13.7-.5-13.7L274 461v17.4c0 4.1.8 8.2 2.4 12l8.7 17.4c1.2 2.3 3.5 3.8 6.1 3.8h30.2c2.6 0 5-1.5 6.1-3.8l8.7-17.4c1.6-3.8 2.4-7.9 2.4-12V461l-9.5 6.4z" fill="rgba(0, 0, 0, 1)" stroke="none"/>
    <path id="XMLID_61_" d="M321.5 516.2h-30.2c-4.4 0-8.3-2.4-10.3-6.4l-8.9-17.7c-1.9-4.4-2.8-9.1-2.8-13.8v-26.1l19 12.6.1 2.4s.2 7.3.5 13.7c0 .6 1.4 3.1 7.3 6.8 1.7 1.1 3.7 1.7 5.8 1.7h8.9c2 0 4-.6 5.8-1.7 5.9-3.7 7.3-6.2 7.3-6.8.2-6.4.5-13.7.5-13.7l.1-2.4 19-12.6v26.1c0 4.8-.9 9.4-2.8 13.8l-.1.3-8.7 17.4c-2.1 4-6.1 6.4-10.5 6.4zm-40.7-27.9l8.7 17.3c.4.7 1.1 1.2 1.9 1.2h30.2c.8 0 1.6-.5 1.9-1.2l8.7-17.3c1.3-3.2 2-6.6 2-10v-8.6l-.4.3c-.1 2.7-.2 7.2-.4 11.3-.2 4.9-4 9.6-11.7 14.4-3.2 2-7 3.1-10.8 3.1H302c-3.8 0-7.5-1.1-10.8-3.1-7.7-4.8-11.5-9.6-11.7-14.4-.1-4.1-.3-8.6-.4-11.3l-.4-.3v8.6c.1 3.5.7 6.9 2.1 10z" fill="rgba(0, 0, 0, 1)" stroke="none"/>
  </g>
</svg>
</g></svg></g></g>
<!-- /image 30491 -->

<!-- image 44497 -->
<g id="transformed-44497" data-image="44497" transform="translate(142.5, -80.5) rotate(0, 96.5, 124.5)"><g><svg version="1.1" width="193px" height="249px" viewBox="0 0 193 249"><g id="original-44497"><svg xmlns="http://www.w3.org/2000/svg" id="Layer_1" viewBox="0 0 612 792" xmlns:xlink="http://www.w3.org/1999/xlink" version="1.1" preserveAspectRatio="xMidYMid meet">
  <path d="M416.66 268.95c.01-1.32 1.02-2.38 2.27-2.37l56.45.32c1.25.01 2.26 1.08 2.25 2.4-.01 1.32-1.02 2.38-2.27 2.37l-56.45-.32c-1.25 0-2.25-1.08-2.25-2.4z" fill="rgba(0, 0, 0, 1)" stroke="none"/>
  <path d="M416.61 278.5c.01-1.32 1.02-2.38 2.27-2.37l56.45.32c1.25.01 2.26 1.08 2.25 2.4s-1.02 2.38-2.27 2.37l-56.45-.32c-1.26 0-2.26-1.08-2.25-2.4z" fill="rgba(0, 0, 0, 1)" stroke="none"/>
  <path d="M436.96 278.62l.05-9.55c.01-1.32 1.02-2.38 2.27-2.37 1.25.01 2.26 1.08 2.25 2.4l-.05 9.55c-.01 1.32-1.02 2.38-2.27 2.37s-2.26-1.08-2.25-2.4z" fill="rgba(0, 0, 0, 1)" stroke="none"/>
  <g id="XMLID_50_">
    <path id="XMLID_337_" d="M416.56 247.38l11.47 7.6c1.98 1.33 3.34 3.46 3.5 5.86.59 6.21 1.27 19.02-.55 31.7-.34 2.29-1.57 4.27-3.5 5.54L416.86 305c-1.11.68-2.6-.15-2.58-1.44l2.28-56.18z" fill="rgba(0, 0, 0, 1)" stroke="none"/>
    <path id="XMLID_341_" d="M414.02 307.24c-1.39-.72-2.16-2.24-2.14-3.74l2.26-60.67 15.23 10.07c2.67 1.75 4.32 4.58 4.67 7.78.59 6.51 1.26 19.42-.56 32.2-.45 2.99-2.1 5.56-4.63 7.22l-10.52 7.02c-.71.49-1.51.67-2.31.66-.71-.02-1.3-.23-2-.54zm2.99-5.25l9.21-6.04c1.32-.88 2.14-2.26 2.37-3.76 1.71-12.27 1.03-24.79.44-31.1-.17-1.6-1.05-3.12-2.43-4.04l-7.81-5.14-1.78 50.08z" fill="rgba(0, 0, 0, 1)" stroke="none"/>
    <path id="XMLID_338_" d="M428.91 256.29l3.18 1.06c1.99.63 5.55 2.9 6.17 7.31.73 4.31 1.47 13.43.25 20.21-1.11 6.08-2.56 9.46-7.08 10.18l-2.91.45.39-39.21zm4.72 27.69s0-.1 0 0c.88-4.79.59-11.09.17-15.4l-.17 15.4z" fill="rgba(0, 0, 0, 1)" stroke="none"/>
    <path id="XMLID_356_" d="M336.28 274.68c.31-18.1 2.17-32.77 4.17-32.73 0 0 68.98 2 70.07 2.22 1.1.12 6.04 3.31 6.04 3.31 2 .03 3.37 13.06 3.09 29.16-.28 16.1-2.37 26.76-4.11 29.03-.51.69-1.32 1.18-2.13 1.66-1.51.77-3.32 1.04-5.02 1.01l-69.1-.8c-1.98-.03-3.33-14.76-3.01-32.86z" fill="rgba(0, 0, 0, 0.6976744186046512)" stroke="none"/>
    <path id="XMLID_2_" d="M370.91 216.65h13.7v84.4h-13.7z" transform="rotate(-89.003 377.782 258.865)" fill="rgba(0, 0, 0, 1)" stroke="none"/>
    <path id="XMLID_7_" d="M376.02 230.21h3.8v85.2h-3.8z" transform="rotate(-89.003 377.94 272.82)" fill="rgba(0, 0, 0, 1)" stroke="none"/>
    <path id="XMLID_352_" d="M106.51 495.12s-7.08 4.68-40.88 4.19c-33.8-.49-34.01-5.49-34.01-5.49s-4-97.68.2-132.32 8.42-53.06 26.73-82.15l163.88 2.85c1.8.03 3.32-1.34 3.46-3.14.5-5.99 2.46-20.56 9.58-44.84.53-1.89 2.36-3.16 4.35-3.12l51.79.9c2.4.04 4.36 2.08 4.32 4.48l-1.32 76.09c-.06 3.3-1.31 6.58-3.56 9.04l-30.71 34.77c-2.45 2.76-5.98 4.3-9.58 4.23l-130.68-2.27c-2.7-.05-4.94 2.11-4.98 4.71l-1.86 49.58c-.03 1.9-.87 3.79-2.29 5.16-2.44 2.26-6.23 7.19-7.28 16.28-1.64 13.77-3.06 37.85-3.06 37.85s-2.31 6.56 7.16 13.63c-.19-.11 5.48 7.49-1.26 9.57z" fill="rgba(1, 0, 114, 0.8953488372093024)" stroke="none"/>
    <path id="XMLID_12_" d="M281.98 331.75l-164.88-2.87c-9-.16-14.48 9.95-9.4 17.44l8.97 13.16 141.92-.03 23.39-27.7z" fill="rgba(0, 0, 0, 1)" stroke="none"/>
    <path id="XMLID_353_" d="M27.62 493.95c-.13-4-3.89-98.38.31-133.01 4.19-34.13 8.23-53.46 27.36-83.84l1.23-1.88 165.58 2.88c.62-6.89 2.78-21.56 9.68-45.04 1.06-3.58 4.41-6.12 8.21-6.06l51.69.9c4.6.08 8.33 3.95 8.25 8.54l-1.32 76.09c-.07 4.3-1.65 8.37-4.5 11.62l-30.71 34.77c-3.16 3.65-7.8 5.67-12.7 5.58l-130.68-2.27c-.5-.01-.91.38-.92.88l-1.86 49.58c-.15 3-1.4 5.88-3.54 7.94-1.83 1.77-5.1 5.91-6.04 13.8-1.63 13.47-3.05 37.35-3.05 37.55l.09.4-.31.59c-.11.6-.58 4.49 5.74 9.2l.49.31.39.51c.68.91 4.2 5.87 2.62 10.65-.53 1.69-1.87 3.87-5.29 5.11-2.62 1.35-12.39 4.99-42.59 4.56-.4-.01-.8-.01-1.2-.02-32.28-.56-36.7-5.23-36.93-9.34zm77.05-2.46l.7-.19c.2-.1.4-.09.4-.19.01-.6-.57-1.81-1.15-2.82-9.38-7.26-8.65-14.65-8.2-17.05.16-3.2 1.53-24.78 3.06-37.75 1.17-9.98 5.27-15.61 8.53-18.65.61-.59 1.03-1.48 1.04-2.38l1.86-49.58c.18-4.8 4.25-8.73 9.05-8.64l130.78 2.27c2.5.04 4.92-1.01 6.55-2.89l30.81-34.77c1.53-1.77 2.47-4.06 2.51-6.46l1.32-76.09c0-.2-.19-.4-.39-.41l-51.59-.9c-.2 0-.4.09-.41.29-7.22 24.38-9.08 38.85-9.47 44.04-.37 3.89-3.62 6.84-7.52 6.77L60.89 283.3c-17.39 28-21 45.74-24.97 78.68-3.85 31.54-.74 117.3-.26 130.12 1.98.93 9.05 3.06 30.15 3.32 29.2.41 37.66-3.15 38.67-3.63l.19-.3z" fill="rgba(0, 0, 0, 1)" stroke="none"/>
    <path id="XMLID_348_" d="M295.85 241.18l29.3.51c1.9.03 3.58 1.46 3.84 3.37 1.25 8.62 4.02 33.17-1.03 59.09-.33 1.89-2.06 3.26-3.96 3.23l-29.3-.51 1.15-65.69z" fill="rgba(0, 0, 0, 1)" stroke="none"/>
    <path id="XMLID_13_" d="M308.37 240.92h8.3v39h-8.3z" transform="rotate(-89.003 312.542 260.432)" fill="rgba(0, 0, 0, 1)" stroke="none"/>
    <path id="XMLID_15_" d="M299.45 276.07h25.2v34.2h-25.2z" transform="rotate(-89.003 312.073 293.18)" fill="rgba(0, 0, 0, 1)" stroke="none"/>
    <path id="XMLID_349_" d="M293.4 238.63l31.8.55c3.2.06 5.76 2.4 6.21 5.51 1.34 9.32 4.01 33.87-1.04 59.89-.55 3.09-3.29 5.34-6.39 5.29l-31.8-.55 1.22-70.69zm4.91 5.09l-1.05 60.59 26.8.47c.7.01 1.31-.48 1.42-1.18 4.94-25.32 2.36-49.17 1.01-58.19a1.4 1.4 0 0 0-1.38-1.22l-26.8-.47z" fill="rgba(0, 0, 0, 1)" stroke="none"/>
    <path id="XMLID_344_" d="M234.93 236.52l-171.27-2.98c-1.3-.02-2.51.66-3.23 1.64l-7.4 11.17c-.62.89-.44 2.09.45 2.71 4.15 3.17 14.57 13.46 5.18 30.19l167.17 2.91 9.1-45.64z" fill="rgba(0, 0, 0, 1)" stroke="none"/>
    <path id="XMLID_14_" d="M228.18 273.41l-166.17-2.89-3.35 8.74 167.17 2.91z" fill="rgba(0, 0, 0, 1)" stroke="none"/>
    <path id="XMLID_11_" d="M59.45 262.57l171.67 2.99.19-10.7-177.39-2.59z" fill="rgba(1, 0, 114, 1)" stroke="none"/>
    <path id="XMLID_345_" d="M55.19 277.3c7.43-13.27.57-21.39-4.16-25.08-2.47-1.94-3.01-5.45-1.36-8.02l7.4-11.17c1.44-2.18 3.96-3.53 6.66-3.48l176.07 3.06-10.73 53.62-177.17-3.08 3.29-5.85zm174.87-36.87l-166.27-2.89-6.37 9.59c4.53 3.98 12.66 13.72 7.41 28.23l157.78 2.74 7.45-37.67z" fill="rgba(1, 0, 114, 1)" stroke="none"/>
    <ellipse id="XMLID_94_" cx="341.68" cy="274.58" transform="rotate(-89.003 341.702 274.591)" rx="32.8" ry="3.6" fill="rgba(0, 0, 0, 1)" stroke="none"/>
    <path id="XMLID_327_" d="M115 363.25l18.8.33c2 .03 3.26 2.16 2.33 3.94l-8.91 17.95c-1.25 2.58-1.99 5.37-2.04 8.17l-.21 11.8c-.05 2.9-2.49 5.26-5.39 5.21l-6.4-.11 1.82-47.29z" fill="rgba(0, 0, 0, 1)" stroke="none"/>
    <path id="XMLID_16_" d="M132.51 363.06l-10.01 17.93c-1.55 2.77-2.4 5.86-2.46 8.96l-.37 21.1s5.36-3.41 5.22-7.01c-.14-3.6-.02-16.1-.02-16.1l11.49-22.3c.11-.02-3.05-2.57-3.85-2.58z" fill="rgba(0, 0, 0, 1)" stroke="none"/>
    <path id="XMLID_334_" d="M112.65 360.71l21.3.37c1.8.03 3.38.96 4.36 2.48.97 1.52 1.04 3.42.21 5l-8.91 17.95c-1.14 2.18-1.68 4.67-1.72 7.17l-.21 11.8c-.07 4.3-3.64 7.74-7.93 7.66l-9-.16 1.9-52.27zm4.81 5.08l-1.64 42.28 3.9.07c1.6.03 2.82-1.25 2.85-2.75l.21-11.8c.06-3.2.81-6.39 2.26-9.26l8.91-17.95v-.2c0-.1-.1-.1-.2-.1l-16.29-.29z" fill="rgba(0, 0, 0, 1)" stroke="none"/>
    <path id="XMLID_331_" d="M60.3 403.41c.13-7.5 6.34-13.49 13.83-13.36 7.5.13 13.49 6.34 13.36 13.83-.13 7.5-6.34 13.49-13.83 13.36-7.5-.13-13.49-6.33-13.36-13.83zm8 .14c-.05 3.1 2.4 5.64 5.5 5.7 3.1.05 5.64-2.4 5.7-5.5.05-3.1-2.4-5.64-5.5-5.7s-5.65 2.4-5.7 5.5z" fill="rgba(0, 0, 0, 1)" stroke="none"/>
    <path id="XMLID_328_" d="M57 403.35c.16-9.3 7.89-16.77 17.19-16.6 9.3.16 16.77 7.89 16.6 17.19s-7.89 16.77-17.19 16.6c-9.3-.16-16.76-7.89-16.6-17.19zm8 .14c-.09 4.9 3.84 8.97 8.74 9.05s8.97-3.84 9.05-8.74c.09-4.9-3.84-8.97-8.74-9.05s-8.97 3.84-9.05 8.74z" fill="rgba(0, 0, 0, 1)" stroke="none"/>
    <path id="XMLID_323_" d="M113.86 331.33l88.29 1.53c2.1.04 3.83-1.63 3.87-3.73l.57-32.6c.04-2.1-1.63-3.83-3.73-3.87l-88.29-1.53a3.799 3.799 0 0 0-3.87 3.73l-.57 32.6c.06 2.2 1.63 3.83 3.73 3.87z" fill="rgba(0, 0, 0, 1)" stroke="none"/>
    <path id="XMLID_18_" d="M116.9 329.18l86.99 1.51c1.1.02 2.12-.86 2.14-2.06l.5-28.8c.02-1.1-.86-2.12-2.06-2.14l-86.99-1.51c-1.1-.02-2.12.86-2.14 2.06l-.5 28.8c.07 1.2.96 2.12 2.06 2.14z" fill="rgba(0, 0, 0, 1)" stroke="none"/>
    <path id="XMLID_324_" d="M107.72 327.52l.57-32.6c.06-3.4 2.91-6.25 6.41-6.19l88.29 1.53c3.4.06 6.25 2.91 6.19 6.41l-.57 32.6c-.06 3.4-2.91 6.25-6.41 6.19l-88.39-1.54c-3.39-.15-6.15-3-6.09-6.4zm6.79-33.69c-.7-.01-1.31.58-1.32 1.28l-.57 32.6c-.01.7.58 1.31 1.28 1.32l88.29 1.53c.7.01 1.31-.58 1.32-1.28l.57-32.6c.01-.7-.58-1.31-1.28-1.32l-88.29-1.53z" fill="rgba(0, 0, 0, 1)" stroke="none"/>
    <path id="XMLID_35_" d="M233.24 333.4l1.3.02c.8.01 1.41-.58 1.42-1.38l.65-37.19c.01-.8-.58-1.41-1.38-1.42l-1.3-.02c-.8-.01-1.41.58-1.42 1.38l-.65 37.19c-.01.8.58 1.41 1.38 1.42z" fill="rgba(0, 0, 0, 1)" stroke="none"/>
    <path id="XMLID_74_" d="M224.44 333.25l1.3.02c.8.01 1.41-.58 1.42-1.38l.65-37.19c.01-.8-.58-1.41-1.38-1.42l-1.3-.02c-.8-.01-1.41.58-1.42 1.38l-.65 37.19c-.11.79.58 1.41 1.38 1.42z" fill="rgba(0, 0, 0, 1)" stroke="none"/>
    <path id="XMLID_73_" d="M216.14 333.11l1.3.02c.8.01 1.41-.58 1.42-1.38l.65-37.19c.01-.8-.58-1.41-1.38-1.42l-1.3-.02c-.8-.01-1.41.58-1.42 1.38l-.65 37.19c-.01.79.58 1.4 1.38 1.42z" fill="rgba(0, 0, 0, 1)" stroke="none"/>
    <path id="XMLID_72_" d="M64.39 294.86l36.19.63c.9.02 1.51-.67 1.53-1.47l.02-1.4c.02-.9-.67-1.51-1.47-1.53l-36.19-.63c-.9-.02-1.51.67-1.53 1.47l-.02 1.4c-.02.91.67 1.52 1.47 1.53z" fill="rgba(0, 0, 0, 1)" stroke="none"/>
    <path id="XMLID_71_" d="M60.33 303.89l40.19.7c.9.02 1.51-.67 1.53-1.47l.02-1.4c.02-.9-.67-1.51-1.47-1.53l-40.19-.7c-.9-.02-1.51.67-1.53 1.47l-.02 1.4c-.12.8.57 1.52 1.47 1.53z" fill="rgba(0, 0, 0, 1)" stroke="none"/>
    <path id="XMLID_70_" d="M57.56 313.45l42.79.74c.9.02 1.51-.67 1.53-1.47l.02-1.4c.02-.9-.67-1.51-1.47-1.53l-42.79-.74c-.9-.02-1.51.67-1.53 1.47l-.02 1.4c-.12.9.57 1.51 1.47 1.53z" fill="rgba(0, 0, 0, 1)" stroke="none"/>
    <path id="XMLID_69_" d="M55.51 322.11l44.69.78c.9.02 1.51-.67 1.53-1.47l.02-1.4c.02-.9-.67-1.51-1.47-1.53l-44.69-.78c-.9-.02-1.51.67-1.53 1.47l-.02 1.4c-.12.8.57 1.52 1.47 1.53z" fill="rgba(0, 0, 0, 1)" stroke="none"/>
    <path id="XMLID_68_" d="M52.77 330.26l47.19.82c.9.02 1.51-.67 1.53-1.47l.02-1.4c.02-.9-.67-1.51-1.47-1.53l-47.19-.82c-.9-.02-1.51.67-1.53 1.47l-.02 1.4c-.02.81.67 1.52 1.47 1.53z" fill="rgba(0, 0, 0, 1)" stroke="none"/>
    <path id="XMLID_319_" d="M240.58 279.52l9.9.17c.6.01 1.21-.48 1.22-1.18l.24-14c.01-.6-.48-1.21-1.18-1.22l-9.9-.17c-.6-.01-1.21.48-1.22 1.18l-.24 14c-.01.7.48 1.21 1.18 1.22z" fill="rgba(0, 0, 0, 1)" stroke="none"/>
    <path id="XMLID_320_" d="M236.9 278.36l.24-14c.03-2 1.66-3.67 3.76-3.64l9.9.17c2 .03 3.67 1.66 3.64 3.76l-.24 14c-.03 2-1.66 3.67-3.76 3.64l-9.9-.17c-2.1-.14-3.68-1.76-3.64-3.76zm12.42-12.49l-7.2-.13-.2 11.3 7.2.13.2-11.3z" fill="rgba(0, 0, 0, 1)" stroke="none"/>
    <path id="XMLID_358_" d="M334.37 298.15c-.59-6.31-.85-14.62-.69-23.52s.7-17.19 1.51-23.48c1.16-8.98 2.4-11.76 5.2-11.71.6.01 69.18 2 70.37 2.22.4.01 1.6.23 6.64 3.42 2.09.64 3.24 3.66 3.92 10.67.6 5.61.87 13.02.74 20.92-.26 14.9-2.07 27.17-4.53 30.43-.62.99-1.73 1.77-3.14 2.45-1.82.87-3.92 1.33-6.12 1.29l-69.1-.8c-2.81-.05-3.96-2.97-4.8-11.89zm80.86-48.6c-1.88-1.23-4.26-2.57-5.05-2.89-3.9-.17-57.28-1.8-68.57-2.09-1.06 3.18-2.55 14.26-2.83 30.26-.28 16 .73 27.22 1.77 30.34l67.9.78c1.5.03 2.8-.25 3.92-.83.91-.38 1.11-.78 1.22-.88 1.13-1.48 3.29-11.14 3.58-27.64.26-15.71-1.08-25.03-1.94-27.05z" fill="rgba(0, 0, 0, 1)" stroke="none"/>
    <path id="XMLID_133_" d="M331.11 261.19l8.8.15s4.08 12.57-.46 26.3l-8.8-.05.46-26.4z" fill="rgba(0, 0, 0, 1)" stroke="none"/>
    <path id="XMLID_134_" d="M328.65 258.65l13.1.23.57 1.71c.19.5 4.27 13.48-.48 27.9l-.53 1.69-13.2-.13.54-31.4zm9.42 5.16l-4.4-.08-.37 21.4 4.4.08c2.56-9.36 1.11-17.88.37-21.4z" fill="rgba(0, 0, 0, 1)" stroke="none"/>
  </g>
  <path d="M479.87 281.3l.08-14.33c.01-1.32 1.02-2.38 2.27-2.37l6.79.04c1.25.01 2.26 1.08 2.25 2.4l-.08 14.33c-.01 1.32-1.02 2.38-2.27 2.37l-6.79-.04c-1.25-.01-2.26-1.08-2.25-2.4zm4.59-11.92l-.05 9.56 2.26.01.05-9.56-2.26-.01z" fill="rgba(0, 0, 0, 1)" stroke="none"/>
  <path d="M493.42 281.37l.08-14.33c.01-1.32 1.02-2.38 2.27-2.37l6.79.04c1.25.01 2.26 1.08 2.25 2.4l-.08 14.33c-.01 1.32-1.02 2.38-2.27 2.37l-6.79-.04c-1.25 0-2.25-1.08-2.25-2.4zm4.59-11.91l-.05 9.56 2.26.01.05-9.56-2.26-.01z" fill="rgba(0, 0, 0, 1)" stroke="none"/>
  <path d="M506.98 281.45l.08-14.33c.01-1.32 1.02-2.38 2.27-2.37l6.79.04c1.25.01 2.26 1.08 2.25 2.4l-.08 14.33c-.01 1.32-1.02 2.38-2.27 2.37l-6.79-.04c-1.25-.01-2.26-1.08-2.25-2.4zm4.59-11.92l-.05 9.56 2.26.01.05-9.56-2.26-.01z" fill="rgba(0, 0, 0, 1)" stroke="none"/>
  <path d="M520.53 281.53l.08-14.33c.01-1.32 1.02-2.38 2.27-2.37l6.79.04c1.25.01 2.26 1.08 2.25 2.4l-.08 14.33c-.01 1.32-1.02 2.38-2.27 2.37l-6.79-.04c-1.25-.01-2.25-1.08-2.25-2.4zm4.59-11.92l-.05 9.56 2.26.01.05-9.56-2.26-.01z" fill="rgba(0, 0, 0, 1)" stroke="none"/>
  <path d="M534.09 281.61l.08-14.33c.01-1.32 1.02-2.38 2.27-2.37l6.79.04c1.25.01 2.26 1.08 2.25 2.4l-.08 14.33c-.01 1.32-1.02 2.38-2.27 2.37l-6.79-.04c-1.26-.01-2.26-1.08-2.25-2.4zm4.59-11.92l-.05 9.56 2.26.01.05-9.56-2.26-.01z" fill="rgba(0, 0, 0, 1)" stroke="none"/>
  <path d="M547.64 281.68l.08-14.33c.01-1.32 1.02-2.38 2.27-2.37l6.79.04c1.25.01 2.26 1.08 2.25 2.4l-.08 14.33c-.01 1.32-1.02 2.38-2.27 2.37l-6.79-.04c-1.25 0-2.26-1.07-2.25-2.4zm4.59-11.91l-.05 9.56 2.26.01.05-9.56-2.26-.01z" fill="rgba(0, 0, 0, 1)" stroke="none"/>
  <path d="M473.13 274.09c.01-1.32 1.02-2.38 2.27-2.37l6.78.04c1.25.01 2.26 1.08 2.25 2.4-.01 1.32-1.02 2.38-2.27 2.37l-6.78-.04c-1.25-.01-2.26-1.08-2.25-2.4z" fill="rgba(0, 0, 0, 1)" stroke="none"/>
  <path d="M486.69 274.17c.01-1.32 1.02-2.38 2.27-2.37l6.78.04c1.25.01 2.26 1.08 2.25 2.4s-1.02 2.38-2.27 2.37l-6.78-.04c-1.25-.01-2.26-1.08-2.25-2.4z" fill="rgba(0, 0, 0, 1)" stroke="none"/>
  <path d="M500.25 274.24c.01-1.32 1.02-2.38 2.27-2.37l6.78.04c1.25.01 2.26 1.08 2.25 2.4-.01 1.32-1.02 2.38-2.27 2.37l-6.78-.04c-1.25 0-2.26-1.07-2.25-2.4z" fill="rgba(0, 0, 0, 1)" stroke="none"/>
  <path d="M513.82 274.32c.01-1.32 1.02-2.38 2.27-2.37l6.78.04c1.25.01 2.26 1.08 2.25 2.4s-1.02 2.38-2.27 2.37l-6.78-.04c-1.26 0-2.26-1.08-2.25-2.4z" fill="rgba(0, 0, 0, 1)" stroke="none"/>
  <path d="M527.38 274.4c.01-1.32 1.02-2.38 2.27-2.37l6.78.04c1.25.01 2.26 1.08 2.25 2.4s-1.02 2.38-2.27 2.37l-6.78-.04c-1.26-.01-2.26-1.08-2.25-2.4z" fill="rgba(0, 0, 0, 1)" stroke="none"/>
  <path d="M540.94 274.48c.01-1.32 1.02-2.38 2.27-2.37l6.78.04c1.25.01 2.26 1.08 2.25 2.4s-1.02 2.38-2.27 2.37l-6.78-.04c-1.25-.01-2.26-1.08-2.25-2.4z" fill="rgba(0, 0, 0, 1)" stroke="none"/>
  <path d="M554.5 274.56c.01-1.32 1.02-2.38 2.27-2.37l2.25.01c1.25.01 2.26 1.08 2.25 2.4-.01 1.32-1.02 2.38-2.27 2.37l-2.25-.01c-1.25-.01-2.25-1.08-2.25-2.4z" fill="rgba(0, 0, 0, 1)" stroke="none"/>
  <path d="M475.14 280.12c-1.32-.01-2.38-1.02-2.37-2.27l.04-6.78c.01-1.25 1.08-2.26 2.4-2.25 1.32.01 2.38 1.02 2.37 2.27l-.04 6.78c-.01 1.25-1.08 2.26-2.4 2.25z" fill="rgba(0, 0, 0, 1)" stroke="none"/>
</svg>
</g></svg></g></g>
<!-- /image 44497 -->
</defs><rect x="0" y="0" width="250" height="250" fill="rgba(255, 255, 0, 1)"></rect><use xlink:href="#transformed-30491" transform="translate(-250, -250)"></use><use xlink:href="#transformed-30491" transform="translate(0, -250)"></use><use xlink:href="#transformed-30491" transform="translate(250, -250)"></use><use xlink:href="#transformed-30491" transform="translate(-250, 0)"></use><use xlink:href="#transformed-30491" transform="translate(0, 0)"></use><use xlink:href="#transformed-30491" transform="translate(250, 0)"></use><use xlink:href="#transformed-30491" transform="translate(-250, 250)"></use><use xlink:href="#transformed-30491" transform="translate(0, 250)"></use><use xlink:href="#transformed-30491" transform="translate(250, 250)"></use><use xlink:href="#transformed-44497" transform="translate(-250, -250)"></use><use xlink:href="#transformed-44497" transform="translate(0, -250)"></use><use xlink:href="#transformed-44497" transform="translate(250, -250)"></use><use xlink:href="#transformed-44497" transform="translate(-250, 0)"></use><use xlink:href="#transformed-44497" transform="translate(0, 0)"></use><use xlink:href="#transformed-44497" transform="translate(250, 0)"></use><use xlink:href="#transformed-44497" transform="translate(-250, 250)"></use><use xlink:href="#transformed-44497" transform="translate(0, 250)"></use><use xlink:href="#transformed-44497" transform="translate(250, 250)"></use></svg>