<svg id="icons" enable-background="new 0 0 64 64" height="512" viewBox="0 0 64 64" width="512" xmlns="http://www.w3.org/2000/svg"><path d="m52.985 38.04v24.96h-4v-24.96l.02-.01h3.98z" fill="#ccd1d9"/><g fill="#e6e9ed"><path d="m48.005 14.03h6v3h-3-3z"/><path d="m48.005 20.03h6v3h-3-3z"/><path d="m48.005 8.04h6v3h-3-3z"/><path d="m51.005 32.01h3v3h-6v-3z"/><path d="m51.005 26.02h3v3h-3-3v-3z"/><path d="m48.005 2.04h6v3h-3-3z"/><path d="m42.005 21.35v4.99l-4 1.34v-5z"/><path d="m42.005 16.35v5l-4 1.33v-5z"/><path d="m42.005 26.34v5l-4 1.33v-4.99z"/><path d="m42.005 36.36v26.64h-4v-25.31z"/><path d="m42.005 6.34v5l-4 1.33v-5z"/><path d="m42.005 31.34v5.02l-4 1.33v-5.02z"/><path d="m42.005 4v2.34l-4 1.33v-3.67l2-3z"/><path d="m42.005 11.34v5.01l-4 1.33v-5.01z"/><path d="m32.005 27.21v4.99l-3 .6v-4.99z"/><path d="m32.005 37.22v25.78h-3v-25.18z"/><path d="m32.005 17.21v5l-3 .6v-5z"/><path d="m32.005 32.2v5.02l-3 .6v-5.02z"/><path d="m32.005 22.21v5l-3 .6v-5z"/><path d="m32.005 14.01v3.2l-3 .6v-3.8l1.5-2z"/></g><path d="m13.995 19.01h3v43.99h-3z" fill="#ccd1d9"/><path d="m20.995 4.02v8l-4 6.99h-3l-4-6.99v-8h3l2.5-3.01 2.5 3.01z" fill="#e6e9ed"/><path d="m29.012 63.999c-.553 0-1-.447-1-1v-48.992c0-.553.447-1 1-1s1 .447 1 1v48.992c0 .553-.448 1-1 1z"/><path d="m32.012 63.999c-.553 0-1-.447-1-1v-48.992c0-.553.447-1 1-1s1 .447 1 1v48.992c0 .553-.448 1-1 1z"/><path d="m23.004 63.999c-.553 0-1-.447-1-1v-43.987c0-.553.447-1 1-1s1 .447 1 1v43.987c0 .553-.447 1-1 1z"/><path d="m32.013 15.007c-.305 0-.604-.138-.801-.4l-.7-.933-.7.933c-.331.443-.957.532-1.399.2-.442-.331-.532-.958-.2-1.399l1.5-2c.377-.504 1.223-.504 1.6 0l1.5 2c.332.441.242 1.068-.2 1.399-.181.134-.391.2-.6.2z"/><path d="m28.011 19.008c-.467 0-.885-.328-.979-.804-.108-.542.243-1.068.784-1.177l5-1c.546-.114 1.069.243 1.177.784.108.542-.243 1.068-.784 1.177l-5 1c-.067.014-.134.02-.198.02z"/><path d="m28.011 24.007c-.467 0-.885-.328-.979-.804-.108-.542.243-1.068.784-1.177l5-1c.546-.111 1.069.242 1.177.784s-.243 1.068-.784 1.177l-5 1c-.067.014-.134.02-.198.02z"/><path d="m28.011 29.006c-.467 0-.885-.328-.979-.804-.108-.542.243-1.068.784-1.177l5-1c.546-.111 1.069.243 1.177.784.108.542-.243 1.068-.784 1.177l-5 1c-.067.014-.134.02-.198.02z"/><path d="m28.011 34.005c-.467 0-.885-.328-.979-.804-.108-.542.243-1.068.784-1.177l5-1c.546-.112 1.069.243 1.177.784.108.542-.243 1.068-.784 1.177l-5 1c-.067.014-.134.02-.198.02z"/><path d="m28.011 39.017c-.467 0-.885-.328-.979-.804-.108-.542.243-1.068.784-1.177l5-1c.546-.113 1.069.243 1.177.784.108.542-.243 1.068-.784 1.177l-5 1c-.067.014-.134.02-.198.02z"/><path d="m24.004 24.014-1.998-.001c-.553 0-1-.448-1-1.001 0-.552.448-.999 1-.999h.001l1.997.001c.553 0 1 .448 1 1.001 0 .551-.448.999-1 .999z"/><path d="m24.004 29.013-1.998-.001c-.553 0-1-.448-1-1.001 0-.552.448-.999 1-.999h.001l1.997.001c.553 0 1 .448 1 1.001 0 .551-.448.999-1 .999z"/><path d="m24.004 34.012-1.998-.001c-.553 0-1-.448-1-1.001 0-.552.448-.999 1-.999h.001l1.997.001c.553 0 1 .448 1 1.001 0 .551-.448.999-1 .999z"/><path d="m24.004 39.011-1.998-.001c-.553 0-1-.448-1-1.001 0-.552.448-.999 1-.999h.001l1.997.001c.553 0 1 .448 1 1.001 0 .551-.448.999-1 .999z"/><path d="m24.004 44.022-1.998-.001c-.553 0-1-.448-1-1.001 0-.552.448-.999 1-.999h.001l1.997.001c.553 0 1 .448 1 1.001 0 .552-.448.999-1 .999z"/><path d="m37.021 19.008c-.419 0-.809-.265-.948-.684-.175-.524.108-1.09.632-1.265l6-2.001c.528-.176 1.09.108 1.265.632s-.108 1.09-.632 1.265l-6 2.001c-.106.035-.212.052-.317.052z"/><path d="m37.021 14.003c-.419 0-.809-.265-.948-.684-.175-.524.108-1.09.632-1.265l6-2.001c.528-.176 1.09.108 1.265.632s-.108 1.09-.632 1.265l-6 2.001c-.106.035-.212.052-.317.052z"/><path d="m37.021 8.998c-.419 0-.809-.265-.948-.684-.175-.524.108-1.09.632-1.265l6-2.001c.528-.175 1.09.108 1.265.632s-.108 1.09-.632 1.265l-6 2.001c-.106.035-.212.052-.317.052z"/><path d="m37.021 24.007c-.419 0-.809-.265-.948-.684-.175-.524.108-1.09.632-1.265l6-2.001c.528-.175 1.09.108 1.265.632s-.108 1.09-.632 1.265l-6 2.001c-.106.035-.212.052-.317.052z"/><path d="m37.021 29.006c-.419 0-.809-.265-.948-.684-.175-.524.108-1.09.632-1.265l6-2.001c.528-.177 1.09.108 1.265.632s-.108 1.09-.632 1.265l-6 2.001c-.106.035-.212.052-.317.052z"/><path d="m37.021 34.005c-.419 0-.809-.265-.948-.684-.175-.524.108-1.09.632-1.265l6-2.001c.528-.177 1.09.108 1.265.632s-.108 1.09-.632 1.265l-6 2.001c-.106.035-.212.052-.317.052z"/><path d="m37.021 39.017c-.419 0-.809-.265-.948-.684-.175-.524.108-1.09.632-1.265l6-2.001c.528-.177 1.09.108 1.265.632s-.108 1.09-.632 1.265l-6 2.001c-.106.035-.212.052-.317.052z"/><path d="m32.012 63.999h-3c-.553 0-1-.447-1-1s.447-1 1-1h3c.553 0 1 .447 1 1s-.448 1-1 1z"/><path d="m38.006 63.999c-.553 0-1-.447-1-1v-58.997c0-.553.447-1 1-1s1 .447 1 1v58.997c0 .553-.447 1-1 1z"/><path d="m42.006 63.999c-.553 0-1-.447-1-1v-58.997c0-.553.447-1 1-1s1 .447 1 1v58.997c0 .553-.447 1-1 1z"/><path d="m42.006 63.999h-4c-.553 0-1-.447-1-1s.447-1 1-1h4c.553 0 1 .447 1 1s-.447 1-1 1z"/><path d="m38.005 5.002c-.19 0-.383-.055-.554-.168-.459-.307-.584-.927-.277-1.387l2-3.001c.306-.459.925-.584 1.387-.277.459.307.584.927.277 1.387l-2 3.001c-.192.289-.51.445-.833.445z"/><path d="m42.007 5.002c-.323 0-.641-.156-.833-.445l-2-3.001c-.307-.46-.182-1.08.277-1.387.461-.307 1.081-.182 1.387.277l2 3.001c.307.46.182 1.08-.277 1.387-.171.113-.364.168-.554.168z"/><path d="m53.004 39.028-3.998-.001c-.553 0-1-.448-1-1 0-.553.448-1 1-1l3.998.001c.553 0 1 .448 1 1 0 .553-.448 1-1 1z"/><path d="m48.988 63.999c-.553 0-1-.447-1-1v-24.964c0-.553.447-1 1-1s1 .447 1 1v24.964c0 .553-.447 1-1 1z"/><path d="m52.988 63.999c-.553 0-1-.447-1-1v-24.964c0-.553.447-1 1-1s1 .447 1 1v24.964c0 .553-.447 1-1 1z"/><path d="m52.988 63.999h-4c-.553 0-1-.447-1-1s.447-1 1-1h4c.553 0 1 .447 1 1s-.447 1-1 1z"/><path d="m54.006 36.015h-6.002c-.553 0-1-.447-1-1v-3.001c0-.553.447-1 1-1h6.002c.553 0 1 .447 1 1v3.001c0 .552-.447 1-1 1zm-5.002-2h4.002v-1.001h-4.002z"/><path d="m54.006 30.021h-6.002c-.553 0-1-.447-1-1v-3.001c0-.553.447-1 1-1h6.002c.553 0 1 .447 1 1v3.001c0 .552-.447 1-1 1zm-5.002-2h4.002v-1.001h-4.002z"/><path d="m54.006 24.026h-6.002c-.553 0-1-.447-1-1v-3.001c0-.553.447-1 1-1h6.002c.553 0 1 .447 1 1v3.001c0 .553-.447 1-1 1zm-5.002-2h4.002v-1.001h-4.002z"/><path d="m54.006 18.032h-6.002c-.553 0-1-.447-1-1v-3.001c0-.553.447-1 1-1h6.002c.553 0 1 .447 1 1v3.001c0 .553-.447 1-1 1zm-5.002-2h4.002v-1.001h-4.002z"/><path d="m54.006 12.038h-6.002c-.553 0-1-.447-1-1v-3.001c0-.553.447-1 1-1h6.002c.553 0 1 .447 1 1v3.001c0 .553-.447 1-1 1zm-5.002-2h4.002v-1.001h-4.002z"/><path d="m54.006 6.044h-6.002c-.553 0-1-.447-1-1v-3.001c0-.553.447-1 1-1h6.002c.553 0 1 .447 1 1v3.001c0 .553-.447 1-1 1zm-5.002-2h4.002v-1.001h-4.002z"/><path d="m51.004 39.016c-.553 0-1-.447-1-1v-2.997c0-.553.447-1 1-1s1 .447 1 1v2.997c0 .552-.447 1-1 1z"/><path d="m51.004 33.018c-.553 0-1-.447-1-1v-2.997c0-.553.447-1 1-1s1 .447 1 1v2.997c0 .552-.447 1-1 1z"/><path d="m51.004 27.02c-.553 0-1-.447-1-1v-2.997c0-.553.447-1 1-1s1 .447 1 1v2.997c0 .552-.447 1-1 1z"/><path d="m51.004 21.021c-.553 0-1-.447-1-1v-2.997c0-.553.447-1 1-1s1 .447 1 1v2.997c0 .553-.447 1-1 1z"/><path d="m51.004 15.023c-.553 0-1-.447-1-1v-2.997c0-.553.447-1 1-1s1 .447 1 1v2.997c0 .553-.447 1-1 1z"/><path d="m51.004 9.025c-.553 0-1-.447-1-1v-2.997c0-.553.447-1 1-1s1 .447 1 1v2.997c0 .553-.447 1-1 1z"/><path d="m51.004 3.027c-.553 0-1-.447-1-1v-.995c0-.553.447-1 1-1s1 .447 1 1v.995c0 .553-.447 1-1 1z"/><path d="m16.996 63.999h-3c-.553 0-1-.447-1-1s.447-1 1-1h3c.553 0 1 .447 1 1s-.447 1-1 1z"/><path d="m9.994 13.021c-.553 0-1-.447-1-1v-8.002c0-.553.447-1 1-1s1 .447 1 1v8.003c0 .552-.447.999-1 .999z"/><path d="m13.996 63.999c-.553 0-1-.447-1-1v-43.987c0-.553.447-1 1-1s1 .447 1 1v43.987c0 .553-.447 1-1 1z"/><path d="m16.996 63.999c-.553 0-1-.447-1-1v-43.987c0-.553.447-1 1-1s1 .447 1 1v43.987c0 .553-.447 1-1 1z"/><path d="m16.995 20.012c-.168 0-.339-.042-.495-.132-.479-.274-.646-.885-.372-1.364l3.998-6.99c.274-.479.886-.646 1.364-.372.479.274.646.885.372 1.364l-3.998 6.99c-.184.323-.522.504-.869.504z"/><path d="m13.997 20.012c-.347 0-.685-.181-.869-.503l-4.002-6.99c-.274-.479-.108-1.091.371-1.365.481-.274 1.092-.107 1.365.371l4.002 6.99c.274.479.108 1.091-.371 1.365-.157.09-.328.132-.496.132z"/><path d="m12.994 5.019h-3c-.553 0-1-.447-1-1s.447-1 1-1h3c.553 0 1 .447 1 1s-.447 1-1 1z"/><path d="m20.994 13.021c-.553 0-1-.447-1-1v-8.002c0-.553.447-1 1-1s1 .447 1 1v8.003c0 .552-.447.999-1 .999z"/><path d="m12.993 5.019c-.225 0-.451-.076-.639-.231-.425-.353-.482-.983-.129-1.408l2.5-3.006c.352-.423.981-.483 1.408-.129.425.353.482.983.129 1.408l-2.5 3.006c-.197.237-.482.36-.769.36z"/><path d="m20.994 5.019h-3c-.553 0-1-.447-1-1s.447-1 1-1h3c.553 0 1 .447 1 1s-.447 1-1 1z"/><path d="m17.995 5.019c-.287 0-.572-.123-.77-.36l-2.5-3.006c-.354-.425-.296-1.056.129-1.408.424-.354 1.056-.295 1.408.129l2.5 3.006c.354.425.296 1.056-.129 1.408-.186.154-.413.231-.638.231z"/><path d="m16.996 20.012h-3c-.553 0-1-.447-1-1s.447-1 1-1h3c.553 0 1 .447 1 1s-.447 1-1 1z"/></svg>