<?xml version="1.0" encoding="utf-8"?>
<!-- Generator: Adobe Illustrator 23.0.2, SVG Export Plug-In . SVG Version: 6.00 Build 0)  -->
<svg version="1.1" id="Layer_1" xmlns="http://www.w3.org/2000/svg" xmlns:xlink="http://www.w3.org/1999/xlink" x="0px" y="0px"
	 viewBox="0 0 30 20" style="enable-background:new 0 0 30 20;" xml:space="preserve">
<style type="text/css">
	.st0{fill-rule:evenodd;clip-rule:evenodd;fill:#3951A3;}
	.st1{fill:none;stroke:#3951A3;stroke-width:0.5;stroke-miterlimit:2.6131;}
	.st2{fill-rule:evenodd;clip-rule:evenodd;fill:#F6EB16;}
	.st3{fill:none;stroke:#F6EB16;stroke-width:0.5;stroke-miterlimit:2.6131;}
</style>
<ellipse class="st0" cx="15.2" cy="10.18" rx="14.46" ry="9.26"/>
<ellipse class="st1" cx="15.2" cy="10.18" rx="14.46" ry="9.26"/>
<ellipse class="st2" cx="15.2" cy="10.23" rx="13.73" ry="8.69"/>
<ellipse class="st3" cx="15.2" cy="10.23" rx="13.73" ry="8.69"/>
<path class="st1" d="M5.13,12.01l1.29-4.62h2.73l0.03,2.35l1.15-2.35h2.95l-1.58,5.52H9.74l0.92-3.55l-1.6,3.55H7.69L7.77,9.4
	l-0.9,3.53H5.61c0,0,2.47,4.06,9.78,3.99c7.32-0.07,10.74-4.09,10.69-6.63c0,0,0.1-0.74-0.11-1.19l-1.94,0c0,0,0.31-0.92-0.18-0.82
	c0,0-0.39-0.17-0.58,0.64c0,0-0.31,0.17,0.82,0.6c1.13,0.44,1.66,0.74,1.63,1.38c-0.03,0.64-0.3,2.13-3.01,2.09
	c-2.72-0.04-2.29-1.27-2.29-1.27s-0.01-0.52,0.25-0.88h2.07c0,0-0.46,1.34,0.08,1.19c0.55-0.16,0.52-0.38,0.58-0.75
	c0.06-0.37-0.83-0.65-1.66-1.05c-0.83-0.4-0.76-1.11-0.76-1.11s0.13-1.94,2.86-1.86c0,0,0.82-0.05,1.31,0.17
	c0,0-2.18-4.08-9.69-4.08S5.6,7.24,5.6,7.24S3.66,10.1,5.13,12.01z"/>
<path class="st0" d="M5.6,7.24c0,0,2.34-3.9,9.85-3.9s9.69,4.08,9.69,4.08c-0.49-0.22-1.31-0.17-1.31-0.17
	c-2.73-0.07-2.86,1.86-2.86,1.86s-0.07,0.71,0.76,1.11c0.83,0.4,1.72,0.68,1.66,1.05c-0.06,0.38-0.03,0.59-0.58,0.75
	c-0.55,0.16-0.08-1.19-0.08-1.19h-2.07c-0.27,0.36-0.25,0.88-0.25,0.88S20,12.97,22.71,13c2.72,0.04,2.98-1.45,3.01-2.09
	c0.03-0.64-0.51-0.94-1.63-1.38c-1.13-0.44-0.82-0.6-0.82-0.6c0.18-0.81,0.58-0.64,0.58-0.64c0.49-0.1,0.18,0.82,0.18,0.82l1.94,0
	c0.21,0.44,0.11,1.19,0.11,1.19c0.05,2.54-3.37,6.56-10.69,6.63c-7.32,0.07-9.78-3.99-9.78-3.99h1.26l0.9-3.53l-0.08,3.51h1.38
	l1.6-3.55l-0.92,3.55h1.97l1.58-5.52h-2.95L9.18,9.74L9.15,7.39H6.42l-1.29,4.62C3.66,10.1,5.6,7.24,5.6,7.24z M14.55,12.88
	l0.96-3.51l-0.2,3.53h1.44l1.69-3.53l-1.07,3.58h2.05l1.55-5.54h-2.95l-1.15,2.32l0.08-2.35h-2.87l-1.46,5.47
	C12.96,12.85,14.55,12.88,14.55,12.88z"/>
<path class="st1" d="M12.61,12.85l1.46-5.47h2.87l-0.08,2.35l1.15-2.32h2.95l-1.55,5.54h-2.05l1.07-3.58l-1.69,3.53h-1.44l0.2-3.53
	l-0.96,3.51C14.55,12.88,12.96,12.85,12.61,12.85z"/>
</svg>
