<svg xmlns="http://www.w3.org/2000/svg" xmlns:xlink="http://www.w3.org/1999/xlink" width="1920" height="1080" viewBox="0 0 1920 1080">
  <defs>
    <clipPath id="clip-Web_1920_1">
      <rect width="1920" height="1080"/>
    </clipPath>
  </defs>
  <g id="Web_1920_1" data-name="Web 1920 – 1" clip-path="url(#clip-Web_1920_1)">
    <rect width="1920" height="1080" fill="#ffe600"/>
    <ellipse id="Ellipse_1" data-name="Ellipse 1" cx="103.398" cy="78.377" rx="103.398" ry="78.377" transform="translate(49.722 74.524)" fill="#154094"/>
    <ellipse id="Ellipse_2" data-name="Ellipse 2" cx="103.398" cy="78.377" rx="103.398" ry="78.377" transform="translate(49.722 74.524)" fill="none" stroke="#154094" stroke-miterlimit="2.613" stroke-width="0.5"/>
    <ellipse id="Ellipse_3" data-name="Ellipse 3" cx="98.228" cy="73.539" rx="98.228" ry="73.539" transform="translate(54.892 79.749)" fill="#ffe600"/>
    <ellipse id="Ellipse_4" data-name="Ellipse 4" cx="98.228" cy="73.539" rx="98.228" ry="73.539" transform="translate(54.892 79.749)" fill="none" stroke="#ffe600" stroke-miterlimit="2.613" stroke-width="0.5"/>
    <path id="Path_1" data-name="Path 1" d="M262.082,430.428l9.252-39.072h19.521l.2,19.867,8.25-19.867h21.132l-11.27,46.7H295.081l6.606-30.091-11.436,30.091H280.39l.6-29.7-6.44,29.9h-8.989s17.642,34.407,69.965,33.794,76.816-34.66,76.444-56.142c0,0,.722-6.3-.782-10.053l-13.88.042s2.214-7.784-1.309-6.965c0,0-2.817-1.432-4.124,5.429,0,0-2.214,1.434,5.835,5.12s11.874,6.247,11.673,11.675-2.114,18.023-21.534,17.717-16.4-10.753-16.4-10.753-.1-4.4,1.812-7.476h14.791s-3.32,11.366.6,10.035,3.722-3.174,4.126-6.349-5.936-5.53-11.874-8.91a10.413,10.413,0,0,1-5.433-9.42s.905-16.386,20.426-15.771c0,0,5.837-.411,9.358,1.432,0,0-15.6-34.51-69.33-34.51S265.5,390.128,265.5,390.128,251.612,414.3,262.082,430.428Z" transform="translate(-181.005 -262.092)" fill="none" stroke="#154094" stroke-miterlimit="2.613" stroke-width="0.5"/>
    <path id="Path_2" data-name="Path 2" d="M265.5,390.128s16.7-32.975,70.434-32.975c3.224,0,6.311.124,9.53.379,46.019,3.638,59.8,34.131,59.8,34.131-3.521-1.843-9.358-1.432-9.358-1.432C376.384,389.616,375.479,406,375.479,406a10.413,10.413,0,0,0,5.433,9.42c5.938,3.38,12.276,5.735,11.874,8.91s-.2,5.018-4.126,6.349-.6-10.035-.6-10.035H373.265c-1.912,3.073-1.812,7.476-1.812,7.476s-3.018,10.445,16.4,10.753,21.333-12.289,21.534-17.717-3.622-7.988-11.673-11.675-5.835-5.12-5.835-5.12c1.307-6.861,4.124-5.429,4.124-5.429,3.523-.819,1.309,6.965,1.309,6.965l13.88-.042c1.5,3.749.782,10.053.782,10.053.372,21.482-24.12,55.528-76.444,56.142s-69.965-33.794-69.965-33.794h8.988l6.44-29.9-.6,29.7h9.861l11.436-30.091-6.606,30.091h14.088l11.27-46.7H299.306l-8.25,19.867-.2-19.867H271.334l-9.252,39.072C251.612,414.3,265.5,390.128,265.5,390.128Zm63.995,47.721,6.842-29.7-1.407,29.9h10.263l12.075-29.9-7.647,30.311h14.69l11.069-46.9H354.247L346,411.223l.6-19.867H326.072l-10.464,46.265C318.125,437.621,329.494,437.849,329.494,437.849Z" transform="translate(-181.005 -262.092)" fill="#154094" fill-rule="evenodd"/>
    <path id="Path_3" data-name="Path 3" d="M296.749,426.39l10.464-46.265h20.528l-.6,19.867,8.25-19.661h21.131l-11.069,46.9H330.76l7.647-30.311-12.075,29.9H316.069l1.407-29.9-6.842,29.7S299.265,426.39,296.749,426.39Z" transform="translate(-162.146 -250.861)" fill="none" stroke="#154094" stroke-miterlimit="2.613" stroke-width="0.5"/>
    <g id="Path_4" data-name="Path 4" transform="translate(373)" fill="#154094">
      <path d="M 1725 2171.5 C 1695.484985351563 2171.5 1665.624633789063 2171.024658203125 1636.24755859375 2170.087158203125 C 1607.094970703125 2169.15673828125 1577.626708984375 2167.746337890625 1548.660888671875 2165.894287109375 C 1519.905883789063 2164.055908203125 1490.865844726563 2161.732421875 1462.347534179688 2158.9892578125 C 1434.02587890625 2156.2646484375 1405.450805664063 2153.052001953125 1377.416259765625 2149.4404296875 C 1349.563720703125 2145.8525390625 1321.490356445313 2141.7734375 1293.975463867188 2137.316162109375 C 1266.6279296875 2132.88671875 1239.092529296875 2127.9638671875 1212.1337890625 2122.68505859375 C 1185.327026367188 2117.435791015625 1158.365844726563 2111.6923828125 1131.999633789063 2105.614501953125 C 1105.768798828125 2099.56787109375 1079.418701171875 2093.027099609375 1053.680786132813 2086.173828125 C 1028.0625 2079.3515625 1002.359558105469 2072.0361328125 977.2862548828125 2064.429931640625 C 952.3162231445313 2056.85546875 927.2974853515625 2048.788330078125 902.9241943359375 2040.452514648438 C 878.6387329101563 2032.146606445313 854.3400268554688 2023.350830078125 830.7033081054688 2014.309204101563 C 807.137939453125 2005.294555664063 783.5962524414063 1995.79296875 760.731689453125 1986.068359375 C 737.9229125976563 1976.367065429688 715.174560546875 1966.182495117188 693.117919921875 1955.797973632813 C 671.1021118164063 1945.432495117188 649.183349609375 1934.58837890625 627.9703979492188 1923.566650390625 C 606.7837524414063 1912.558715820313 585.7308349609375 1901.077880859375 565.3970947265625 1889.44287109375 C 545.0762329101563 1877.81494140625 524.92626953125 1865.720458984375 505.507080078125 1853.494995117188 C 486.0883483886719 1841.26953125 466.8775024414063 1828.583740234375 448.4083251953125 1815.790893554688 C 429.9283447265625 1802.989990234375 411.6929016113281 1789.736694335938 394.2095947265625 1776.399169921875 C 376.70458984375 1763.04541015625 359.4812622070313 1749.24755859375 343.0183410644531 1735.388793945313 C 326.5254211425781 1721.504638671875 310.350830078125 1707.1845703125 294.9437561035156 1692.827026367188 C 279.4995727539063 1678.43505859375 264.4100036621094 1663.61669921875 250.09375 1648.783325195313 C 235.7350006103516 1633.905883789063 221.7666625976563 1618.611206054688 208.57666015625 1603.325439453125 C 195.3399963378906 1587.984985351563 182.5291595458984 1572.237915039063 170.5008392333984 1556.522094726563 C 158.4229125976563 1540.7412109375 146.8062438964844 1524.564575195313 135.9741668701172 1508.441284179688 C 125.091667175293 1492.243286132813 114.7054138183594 1475.660034179688 105.1045837402344 1459.151611328125 C 95.45458221435547 1442.558715820313 86.33541870117188 1425.591674804688 78.00083160400391 1408.7216796875 C 69.61958312988281 1391.756713867188 61.8033332824707 1374.4287109375 54.77041625976563 1357.219116210938 C 47.69458389282227 1339.904541015625 41.21791839599609 1322.23876953125 35.5212516784668 1304.712524414063 C 29.78750038146973 1287.0712890625 24.68708419799805 1269.090454101563 20.36166572570801 1251.269165039063 C 16.00666618347168 1233.32421875 12.31833362579346 1215.05126953125 9.399582862854004 1196.95751953125 C 6.459583282470703 1178.731201171875 4.21999979019165 1160.189208984375 2.742916584014893 1141.845458984375 C 1.254583358764648 1123.36083984375 0.5 1104.571655273438 0.5 1086 C 0.5 1067.428344726563 1.254583358764648 1048.63916015625 2.742916584014893 1030.154541015625 C 4.21999979019165 1011.810852050781 6.459583282470703 993.2687377929688 9.399582862854004 975.04248046875 C 12.31833362579346 956.94873046875 16.00666618347168 938.6758422851563 20.36166572570801 920.7308349609375 C 24.68708419799805 902.9096069335938 29.78750038146973 884.9287719726563 35.5212516784668 867.2874755859375 C 41.21791839599609 849.76123046875 47.69458389282227 832.0953979492188 54.77041625976563 814.7808227539063 C 61.8033332824707 797.5712280273438 69.61958312988281 780.2433471679688 78.00083160400391 763.2783203125 C 86.33541870117188 746.4083251953125 95.45458221435547 729.4412231445313 105.1045837402344 712.8483276367188 C 114.7054138183594 696.3400268554688 125.091667175293 679.7566528320313 135.9741668701172 663.5587768554688 C 146.8062438964844 647.4354248046875 158.4229125976563 631.2587280273438 170.5008392333984 615.4779052734375 C 182.5291595458984 599.7620849609375 195.3399963378906 584.0150146484375 208.57666015625 568.674560546875 C 221.7666625976563 553.3887329101563 235.7350006103516 538.0941772460938 250.09375 523.2166748046875 C 264.4100036621094 508.3833312988281 279.4995727539063 493.5650024414063 294.9437561035156 479.1729125976563 C 310.350830078125 464.8154296875 326.5254211425781 450.4954223632813 343.0183410644531 436.6112365722656 C 359.4812622070313 422.7525024414063 376.70458984375 408.95458984375 394.2095947265625 395.600830078125 C 411.6929016113281 382.2633361816406 429.9283447265625 369.010009765625 448.4083251953125 356.2091674804688 C 466.8775024414063 343.416259765625 486.0883483886719 330.7304077148438 505.507080078125 318.5050048828125 C 524.92626953125 306.2795715332031 545.0762329101563 294.1849975585938 565.3970947265625 282.5570983886719 C 585.7308349609375 270.9220886230469 606.7837524414063 259.4412536621094 627.9703979492188 248.4333343505859 C 649.183349609375 237.4116668701172 671.1021118164063 226.5675048828125 693.117919921875 216.2020874023438 C 715.174560546875 205.8175048828125 737.9229125976563 195.6329193115234 760.731689453125 185.9316711425781 C 783.5962524414063 176.2070770263672 807.137939453125 166.7054138183594 830.7033081054688 157.6908264160156 C 854.3400268554688 148.649169921875 878.6387329101563 139.8533325195313 902.9241943359375 131.5475006103516 C 927.2974853515625 123.211669921875 952.3162231445313 115.1445846557617 977.2862548828125 107.5699996948242 C 1002.359558105469 99.96375274658203 1028.0625 92.64833068847656 1053.680786132813 85.82624816894531 C 1079.418701171875 78.97291564941406 1105.768798828125 72.43208312988281 1131.999633789063 66.38541412353516 C 1158.365844726563 60.30749893188477 1185.327026367188 54.56416702270508 1212.1337890625 49.31499862670898 C 1239.092529296875 44.03625106811523 1266.6279296875 39.11333465576172 1293.975463867188 34.68375015258789 C 1321.490356445313 30.2266674041748 1349.563720703125 26.14749908447266 1377.416259765625 22.55958366394043 C 1405.450805664063 18.94791603088379 1434.02587890625 15.73541641235352 1462.347534179688 13.01083374023438 C 1490.865844726563 10.26749992370605 1519.905883789063 7.944166660308838 1548.660888671875 6.105833530426025 C 1577.626708984375 4.253749847412109 1607.094970703125 2.84333324432373 1636.24755859375 1.912916660308838 C 1665.624633789063 0.9754166603088379 1695.484985351563 0.5 1725 0.5 C 1754.515014648438 0.5 1784.375366210938 0.9754166603088379 1813.75244140625 1.912916660308838 C 1842.905029296875 2.84333324432373 1872.373291015625 4.253749847412109 1901.339111328125 6.105833530426025 C 1930.094116210938 7.944166660308838 1959.134155273438 10.26749992370605 1987.652465820313 13.01083374023438 C 2015.97412109375 15.73541641235352 2044.549194335938 18.94791603088379 2072.583740234375 22.55958366394043 C 2100.436279296875 26.14749908447266 2128.509521484375 30.2266674041748 2156.024658203125 34.68375015258789 C 2183.3720703125 39.11333465576172 2210.907470703125 44.03625106811523 2237.8662109375 49.31499862670898 C 2264.6728515625 54.56416702270508 2291.63427734375 60.30749893188477 2318.00048828125 66.38541412353516 C 2344.231201171875 72.43208312988281 2370.581298828125 78.97291564941406 2396.319091796875 85.82624816894531 C 2421.9375 92.64833068847656 2447.640380859375 99.96375274658203 2472.7138671875 107.5699996948242 C 2497.683837890625 115.1445846557617 2522.702392578125 123.211669921875 2547.075927734375 131.5475006103516 C 2571.361328125 139.8533325195313 2595.659912109375 148.649169921875 2619.296630859375 157.6908264160156 C 2642.862060546875 166.7054138183594 2666.40380859375 176.2070770263672 2689.268310546875 185.9316711425781 C 2712.0771484375 195.6329193115234 2734.825439453125 205.8175048828125 2756.882080078125 216.2020874023438 C 2778.89794921875 226.5675048828125 2800.816650390625 237.4116668701172 2822.029541015625 248.4333343505859 C 2843.21630859375 259.4412536621094 2864.269287109375 270.9220886230469 2884.60302734375 282.5570983886719 C 2904.923828125 294.1849975585938 2925.07373046875 306.2795715332031 2944.492919921875 318.5050048828125 C 2963.91162109375 330.7304077148438 2983.12255859375 343.416259765625 3001.591552734375 356.2091674804688 C 3020.07177734375 369.010009765625 3038.30712890625 382.2633361816406 3055.79052734375 395.600830078125 C 3073.29541015625 408.95458984375 3090.518798828125 422.7525024414063 3106.981689453125 436.6112365722656 C 3123.474609375 450.4954223632813 3139.649169921875 464.8154296875 3155.05615234375 479.1729125976563 C 3170.50048828125 493.5650024414063 3185.590087890625 508.3833312988281 3199.90625 523.2166748046875 C 3214.264892578125 538.0941772460938 3228.2333984375 553.3887329101563 3241.42333984375 568.674560546875 C 3254.659912109375 584.0150146484375 3267.470947265625 599.7620849609375 3279.499267578125 615.4779052734375 C 3291.5771484375 631.2587280273438 3303.19384765625 647.4354248046875 3314.02587890625 663.5587768554688 C 3324.908447265625 679.7566528320313 3335.294677734375 696.3400268554688 3344.8955078125 712.8483276367188 C 3354.54541015625 729.4412231445313 3363.66455078125 746.4083251953125 3371.999267578125 763.2783203125 C 3380.38037109375 780.2433471679688 3388.19677734375 797.5712280273438 3395.2294921875 814.7808227539063 C 3402.305419921875 832.0953979492188 3408.781982421875 849.76123046875 3414.478759765625 867.2874755859375 C 3420.21240234375 884.9287719726563 3425.31298828125 902.9096069335938 3429.638427734375 920.7308349609375 C 3433.993408203125 938.6758422851563 3437.681640625 956.94873046875 3440.600341796875 975.04248046875 C 3443.54052734375 993.2687377929688 3445.780029296875 1011.810852050781 3447.257080078125 1030.154541015625 C 3448.745361328125 1048.63916015625 3449.5 1067.428344726563 3449.5 1086 C 3449.5 1104.571655273438 3448.745361328125 1123.36083984375 3447.257080078125 1141.845458984375 C 3445.780029296875 1160.189208984375 3443.54052734375 1178.731201171875 3440.600341796875 1196.95751953125 C 3437.681640625 1215.05126953125 3433.993408203125 1233.32421875 3429.638427734375 1251.269165039063 C 3425.31298828125 1269.090454101563 3420.21240234375 1287.0712890625 3414.478759765625 1304.712524414063 C 3408.781982421875 1322.23876953125 3402.305419921875 1339.904541015625 3395.2294921875 1357.219116210938 C 3388.19677734375 1374.4287109375 3380.38037109375 1391.756713867188 3371.999267578125 1408.7216796875 C 3363.66455078125 1425.591674804688 3354.54541015625 1442.558715820313 3344.8955078125 1459.151611328125 C 3335.294677734375 1475.660034179688 3324.908447265625 1492.243286132813 3314.02587890625 1508.441284179688 C 3303.19384765625 1524.564575195313 3291.5771484375 1540.7412109375 3279.499267578125 1556.522094726563 C 3267.470947265625 1572.237915039063 3254.659912109375 1587.984985351563 3241.42333984375 1603.325439453125 C 3228.2333984375 1618.611206054688 3214.264892578125 1633.905883789063 3199.90625 1648.783325195313 C 3185.590087890625 1663.61669921875 3170.50048828125 1678.43505859375 3155.05615234375 1692.827026367188 C 3139.649169921875 1707.1845703125 3123.474609375 1721.504638671875 3106.981689453125 1735.388793945313 C 3090.518798828125 1749.24755859375 3073.29541015625 1763.04541015625 3055.79052734375 1776.399169921875 C 3038.30712890625 1789.736694335938 3020.07177734375 1802.989990234375 3001.591552734375 1815.790893554688 C 2983.12255859375 1828.583740234375 2963.91162109375 1841.26953125 2944.492919921875 1853.494995117188 C 2925.07373046875 1865.720458984375 2904.923828125 1877.81494140625 2884.60302734375 1889.44287109375 C 2864.269287109375 1901.077880859375 2843.21630859375 1912.558715820313 2822.029541015625 1923.566650390625 C 2800.816650390625 1934.58837890625 2778.89794921875 1945.432495117188 2756.882080078125 1955.797973632813 C 2734.825439453125 1966.182495117188 2712.0771484375 1976.367065429688 2689.268310546875 1986.068359375 C 2666.40380859375 1995.79296875 2642.862060546875 2005.294555664063 2619.296630859375 2014.309204101563 C 2595.659912109375 2023.350830078125 2571.361328125 2032.146606445313 2547.075927734375 2040.452514648438 C 2522.702392578125 2048.788330078125 2497.683837890625 2056.85546875 2472.7138671875 2064.429931640625 C 2447.640380859375 2072.0361328125 2421.9375 2079.3515625 2396.319091796875 2086.173828125 C 2370.581298828125 2093.027099609375 2344.231201171875 2099.56787109375 2318.00048828125 2105.614501953125 C 2291.63427734375 2111.6923828125 2264.6728515625 2117.435791015625 2237.8662109375 2122.68505859375 C 2210.907470703125 2127.9638671875 2183.3720703125 2132.88671875 2156.024658203125 2137.316162109375 C 2128.509521484375 2141.7734375 2100.436279296875 2145.8525390625 2072.583740234375 2149.4404296875 C 2044.549194335938 2153.052001953125 2015.97412109375 2156.2646484375 1987.652465820313 2158.9892578125 C 1959.134155273438 2161.732421875 1930.094116210938 2164.055908203125 1901.339111328125 2165.894287109375 C 1872.373291015625 2167.746337890625 1842.905029296875 2169.15673828125 1813.75244140625 2170.087158203125 C 1784.375366210938 2171.024658203125 1754.515014648438 2171.5 1725 2171.5 Z" stroke="none"/>
      <path d="M 1725 1 C 1695.490356445313 1 1665.635009765625 1.475341796875 1636.263793945313 2.41259765625 C 1607.1162109375 3.343017578125 1577.652954101563 4.75341796875 1548.692504882813 6.60498046875 C 1519.94287109375 8.44287109375 1490.908325195313 10.765869140625 1462.395385742188 13.5087890625 C 1434.079223632813 16.232421875 1405.509643554688 19.444580078125 1377.47998046875 23.055419921875 C 1349.63330078125 26.642822265625 1321.56494140625 30.72119140625 1294.055419921875 35.177001953125 C 1266.71337890625 39.606201171875 1239.183349609375 44.52783203125 1212.22998046875 49.805908203125 C 1185.42822265625 55.0537109375 1158.472900390625 60.7958984375 1132.111572265625 66.87255859375 C 1105.88671875 72.91796875 1079.5419921875 79.45751953125 1053.8095703125 86.3095703125 C 1028.19677734375 93.1298828125 1002.49951171875 100.44384765625 977.43115234375 108.04833984375 C 952.467041015625 115.621337890625 927.453857421875 123.686767578125 903.086181640625 132.0203857421875 C 878.80615234375 140.32421875 854.512939453125 149.1182861328125 830.882080078125 158.157958984375 C 807.322509765625 167.1700439453125 783.7861328125 176.6695556640625 760.927490234375 186.39208984375 C 738.12451171875 196.0908203125 715.381591796875 206.2724609375 693.330810546875 216.654541015625 C 671.32080078125 227.0174560546875 649.407958984375 237.8582763671875 628.200927734375 248.8770751953125 C 607.02001953125 259.8817138671875 585.973388671875 271.359130859375 565.6455078125 282.9912109375 C 545.330810546875 294.6153564453125 525.186767578125 306.706298828125 505.773681640625 318.9283447265625 C 486.36083984375 331.1500244140625 467.15625 343.831298828125 448.693359375 356.6199951171875 C 430.21923828125 369.4166259765625 411.990478515625 382.6654052734375 394.512451171875 395.998291015625 C 377.01416015625 409.3470458984375 359.797119140625 423.1400146484375 343.34033203125 436.9937744140625 C 326.853759765625 450.87255859375 310.685302734375 465.1866455078125 295.28466796875 479.5386962890625 C 279.8466796875 493.925048828125 264.763427734375 508.737060546875 250.453857421875 523.563720703125 C 236.101318359375 538.43505859375 222.13916015625 553.7220458984375 208.955322265625 569.001220703125 C 195.72509765625 584.3341064453125 182.92041015625 600.07373046875 170.89794921875 615.7816162109375 C 158.825927734375 631.5545654296875 147.21533203125 647.7225341796875 136.38916015625 663.8375244140625 C 125.512451171875 680.026611328125 115.132568359375 696.600830078125 105.537109375 713.099609375 C 95.892578125 729.682861328125 86.77880859375 746.6400146484375 78.44921875 763.4996337890625 C 70.072998046875 780.4542236328125 62.261962890625 797.771240234375 55.2333984375 814.969970703125 C 48.16162109375 832.27294921875 41.68994140625 849.927490234375 35.9970703125 867.442138671875 C 30.2666015625 885.0712890625 25.169921875 903.0400390625 20.847412109375 920.8487548828125 C 16.495361328125 938.78125 12.81005859375 957.041259765625 9.893310546875 975.1220703125 C 6.955322265625 993.3349609375 4.717041015625 1011.864135742188 3.2412109375 1030.194946289063 C 1.754150390625 1048.666259765625 1 1067.441650390625 1 1086 C 1 1104.558349609375 1.754150390625 1123.333740234375 3.2412109375 1141.805053710938 C 4.717041015625 1160.1357421875 6.955322265625 1178.6650390625 9.893310546875 1196.8779296875 C 12.81005859375 1214.958740234375 16.495361328125 1233.21875 20.847412109375 1251.151245117188 C 25.169921875 1268.9599609375 30.2666015625 1286.9287109375 35.9970703125 1304.557861328125 C 41.68994140625 1322.072509765625 48.16162109375 1339.72705078125 55.2333984375 1357.030029296875 C 62.261962890625 1374.228759765625 70.072998046875 1391.5458984375 78.44921875 1408.50048828125 C 86.77880859375 1425.359985351563 95.892578125 1442.317138671875 105.537109375 1458.900390625 C 115.132568359375 1475.399169921875 125.512451171875 1491.973388671875 136.38916015625 1508.162475585938 C 147.21533203125 1524.277587890625 158.825927734375 1540.445434570313 170.89794921875 1556.21826171875 C 182.92041015625 1571.92626953125 195.72509765625 1587.665771484375 208.955322265625 1602.998779296875 C 222.13916015625 1618.27783203125 236.101318359375 1633.56494140625 250.453857421875 1648.436279296875 C 264.763427734375 1663.262939453125 279.8466796875 1678.074951171875 295.28466796875 1692.461181640625 C 310.685302734375 1706.813354492188 326.853759765625 1721.12744140625 343.34033203125 1735.006225585938 C 359.797119140625 1748.859985351563 377.01416015625 1762.652954101563 394.512451171875 1776.001708984375 C 411.990478515625 1789.334594726563 430.21923828125 1802.583374023438 448.693359375 1815.380004882813 C 467.15625 1828.168701171875 486.36083984375 1840.849975585938 505.773681640625 1853.071655273438 C 525.186767578125 1865.293701171875 545.330810546875 1877.384521484375 565.6455078125 1889.0087890625 C 585.973388671875 1900.640869140625 607.02001953125 1912.118408203125 628.200927734375 1923.122924804688 C 649.407958984375 1934.1416015625 671.32080078125 1944.982543945313 693.330810546875 1955.345458984375 C 715.381591796875 1965.7275390625 738.12451171875 1975.9091796875 760.927490234375 1985.60791015625 C 783.7861328125 1995.330444335938 807.322509765625 2004.829956054688 830.882080078125 2013.842041015625 C 854.512939453125 2022.881713867188 878.80615234375 2031.67578125 903.086181640625 2039.979614257813 C 927.453857421875 2048.313232421875 952.467041015625 2056.378662109375 977.43115234375 2063.95166015625 C 1002.49951171875 2071.55615234375 1028.19677734375 2078.8701171875 1053.8095703125 2085.6904296875 C 1079.5419921875 2092.54248046875 1105.88671875 2099.08203125 1132.111572265625 2105.12744140625 C 1158.472900390625 2111.2041015625 1185.42822265625 2116.9462890625 1212.22998046875 2122.194091796875 C 1239.183349609375 2127.47216796875 1266.71337890625 2132.393798828125 1294.055419921875 2136.822998046875 C 1321.56494140625 2141.27880859375 1349.63330078125 2145.357177734375 1377.47998046875 2148.944580078125 C 1405.509643554688 2152.555419921875 1434.079223632813 2155.767578125 1462.395385742188 2158.4912109375 C 1490.908325195313 2161.234130859375 1519.94287109375 2163.55712890625 1548.692504882813 2165.39501953125 C 1577.652954101563 2167.24658203125 1607.1162109375 2168.656982421875 1636.263793945313 2169.58740234375 C 1665.635009765625 2170.524658203125 1695.490356445313 2171 1725 2171 C 1754.509643554688 2171 1784.364990234375 2170.524658203125 1813.736206054688 2169.58740234375 C 1842.8837890625 2168.656982421875 1872.347045898438 2167.24658203125 1901.307495117188 2165.39501953125 C 1930.05712890625 2163.55712890625 1959.091674804688 2161.234130859375 1987.604614257813 2158.4912109375 C 2015.920776367188 2155.767578125 2044.490356445313 2152.555419921875 2072.52001953125 2148.944580078125 C 2100.36669921875 2145.357177734375 2128.43505859375 2141.27880859375 2155.944580078125 2136.822998046875 C 2183.28662109375 2132.393798828125 2210.816650390625 2127.47216796875 2237.77001953125 2122.194091796875 C 2264.57177734375 2116.9462890625 2291.527099609375 2111.2041015625 2317.88818359375 2105.12744140625 C 2344.11328125 2099.08203125 2370.4580078125 2092.54248046875 2396.1904296875 2085.6904296875 C 2421.80322265625 2078.8701171875 2447.50048828125 2071.55615234375 2472.56884765625 2063.95166015625 C 2497.532958984375 2056.378662109375 2522.54638671875 2048.313232421875 2546.913818359375 2039.979614257813 C 2571.19384765625 2031.67578125 2595.487060546875 2022.881713867188 2619.117919921875 2013.842041015625 C 2642.677490234375 2004.829956054688 2666.2138671875 1995.330444335938 2689.072509765625 1985.60791015625 C 2711.87548828125 1975.9091796875 2734.618408203125 1965.7275390625 2756.669189453125 1955.345458984375 C 2778.67919921875 1944.982543945313 2800.592041015625 1934.1416015625 2821.79931640625 1923.122924804688 C 2842.97998046875 1912.118408203125 2864.026611328125 1900.640869140625 2884.3544921875 1889.0087890625 C 2904.669189453125 1877.384521484375 2924.8134765625 1865.293701171875 2944.226318359375 1853.071655273438 C 2963.63916015625 1840.849975585938 2982.84375 1828.168701171875 3001.306640625 1815.380004882813 C 3019.78076171875 1802.583374023438 3038.009521484375 1789.334594726563 3055.487548828125 1776.001708984375 C 3072.98583984375 1762.652954101563 3090.202880859375 1748.859985351563 3106.65966796875 1735.006225585938 C 3123.146240234375 1721.12744140625 3139.314453125 1706.813354492188 3154.71533203125 1692.461181640625 C 3170.1533203125 1678.074951171875 3185.236572265625 1663.262939453125 3199.546142578125 1648.436279296875 C 3213.898681640625 1633.56494140625 3227.86083984375 1618.27783203125 3241.044677734375 1602.998779296875 C 3254.27490234375 1587.665771484375 3267.07958984375 1571.92626953125 3279.10205078125 1556.21826171875 C 3291.174072265625 1540.445434570313 3302.78466796875 1524.277587890625 3313.61083984375 1508.162475585938 C 3324.487548828125 1491.973388671875 3334.867431640625 1475.399169921875 3344.462890625 1458.900390625 C 3354.107421875 1442.317138671875 3363.22119140625 1425.359985351563 3371.55078125 1408.50048828125 C 3379.927001953125 1391.5458984375 3387.73779296875 1374.228759765625 3394.7666015625 1357.030029296875 C 3401.83837890625 1339.72705078125 3408.31005859375 1322.072509765625 3414.0029296875 1304.557861328125 C 3419.7333984375 1286.9287109375 3424.830078125 1268.9599609375 3429.152587890625 1251.151245117188 C 3433.504638671875 1233.21875 3437.18994140625 1214.958740234375 3440.106689453125 1196.8779296875 C 3443.044677734375 1178.6650390625 3445.282958984375 1160.1357421875 3446.7587890625 1141.805053710938 C 3448.245849609375 1123.333740234375 3449 1104.558349609375 3449 1086 C 3449 1067.441650390625 3448.245849609375 1048.666259765625 3446.7587890625 1030.194946289063 C 3445.282958984375 1011.864135742188 3443.044677734375 993.3349609375 3440.106689453125 975.1220703125 C 3437.18994140625 957.041259765625 3433.504638671875 938.78125 3429.152587890625 920.8487548828125 C 3424.830078125 903.0400390625 3419.7333984375 885.0712890625 3414.0029296875 867.442138671875 C 3408.31005859375 849.927490234375 3401.83837890625 832.27294921875 3394.7666015625 814.969970703125 C 3387.73779296875 797.771240234375 3379.927001953125 780.4542236328125 3371.55078125 763.4996337890625 C 3363.22119140625 746.6400146484375 3354.107421875 729.682861328125 3344.462890625 713.099609375 C 3334.867431640625 696.600830078125 3324.487548828125 680.026611328125 3313.61083984375 663.8375244140625 C 3302.78466796875 647.7225341796875 3291.174072265625 631.5545654296875 3279.10205078125 615.7816162109375 C 3267.07958984375 600.07373046875 3254.27490234375 584.3341064453125 3241.044677734375 569.001220703125 C 3227.86083984375 553.7220458984375 3213.898681640625 538.43505859375 3199.546142578125 523.563720703125 C 3185.236572265625 508.737060546875 3170.1533203125 493.925048828125 3154.71533203125 479.5386962890625 C 3139.314453125 465.1866455078125 3123.146240234375 450.87255859375 3106.65966796875 436.9937744140625 C 3090.202880859375 423.1400146484375 3072.98583984375 409.3470458984375 3055.487548828125 395.998291015625 C 3038.009521484375 382.6654052734375 3019.78076171875 369.4166259765625 3001.306640625 356.6199951171875 C 2982.84375 343.831298828125 2963.63916015625 331.1500244140625 2944.226318359375 318.9283447265625 C 2924.8134765625 306.706298828125 2904.669189453125 294.6153564453125 2884.3544921875 282.9912109375 C 2864.026611328125 271.359130859375 2842.97998046875 259.8817138671875 2821.79931640625 248.8770751953125 C 2800.592041015625 237.8582763671875 2778.67919921875 227.0174560546875 2756.669189453125 216.654541015625 C 2734.618408203125 206.2724609375 2711.87548828125 196.0908203125 2689.072509765625 186.39208984375 C 2666.2138671875 176.6695556640625 2642.677490234375 167.1700439453125 2619.117919921875 158.157958984375 C 2595.487060546875 149.1182861328125 2571.19384765625 140.32421875 2546.913818359375 132.0203857421875 C 2522.54638671875 123.686767578125 2497.532958984375 115.621337890625 2472.56884765625 108.04833984375 C 2447.50048828125 100.44384765625 2421.80322265625 93.1298828125 2396.1904296875 86.3095703125 C 2370.4580078125 79.45751953125 2344.11328125 72.91796875 2317.88818359375 66.87255859375 C 2291.527099609375 60.7958984375 2264.57177734375 55.0537109375 2237.77001953125 49.805908203125 C 2210.816650390625 44.52783203125 2183.28662109375 39.606201171875 2155.944580078125 35.177001953125 C 2128.43505859375 30.72119140625 2100.36669921875 26.642822265625 2072.52001953125 23.055419921875 C 2044.490356445313 19.444580078125 2015.920776367188 16.232421875 1987.604614257813 13.5087890625 C 1959.091674804688 10.765869140625 1930.05712890625 8.44287109375 1901.307495117188 6.60498046875 C 1872.347045898438 4.75341796875 1842.8837890625 3.343017578125 1813.736206054688 2.41259765625 C 1784.364990234375 1.475341796875 1754.509643554688 1 1725 1 M 1725 0 C 2677.691162109375 0 3450 486.21875 3450 1086 C 3450 1685.78125 2677.691162109375 2172 1725 2172 C 772.308837890625 2172 0 1685.78125 0 1086 C 0 486.21875 772.308837890625 0 1725 0 Z" stroke="none" fill="#707070"/>
    </g>
    <g id="Ellipse_6" data-name="Ellipse 6" transform="translate(468 75)" fill="#fff" stroke="#707070" stroke-width="1">
      <ellipse cx="1725" cy="1086" rx="1725" ry="1086" stroke="none"/>
      <ellipse cx="1725" cy="1086" rx="1724.5" ry="1085.5" fill="none"/>
    </g>
  </g>
</svg>
