<?xml version="1.0" encoding="utf-8"?>
<!-- Generator: Adobe Illustrator 23.0.2, SVG Export Plug-In . SVG Version: 6.00 Build 0)  -->
<svg version="1.1" id="Layer_1" xmlns="http://www.w3.org/2000/svg" xmlns:xlink="http://www.w3.org/1999/xlink" x="0px" y="0px"
	 viewBox="0 0 707.4 224" style="enable-background:new 0 0 707.4 224;" xml:space="preserve">
<style type="text/css">
	.st0{fill:#FFE600;}
	.st1{fill:#154094;}
	.st2{fill:none;stroke:#154094;stroke-width:0.5;stroke-miterlimit:2.613;}
	.st3{fill:none;stroke:#154094;stroke-width:7;stroke-miterlimit:10;}
	.st4{fill:none;stroke:#FFE600;stroke-width:0.5;stroke-miterlimit:2.613;}
	.st5{fill-rule:evenodd;clip-rule:evenodd;fill:#154094;}
	.st6{fill:none;}
	.st7{fill:#FFE600;stroke:#154094;stroke-width:3;stroke-miterlimit:10;}
	.st8{fill:#FFE600;stroke:#154094;stroke-width:2;stroke-miterlimit:10;}
</style>
<ellipse id="Ellipse_1_1_" class="st1" cx="166.8" cy="115.1" rx="103.4" ry="78.4"/>
<ellipse id="Ellipse_2_1_" class="st2" cx="166.8" cy="115.1" rx="103.4" ry="78.4"/>
<path class="st3" d="M-7.6,213.6c16.9-33.3,52.6-64.4,117.6-114c55-42,109.4-58.8,173.5-71.3C439.8-1.9,592.4,6.3,707.4,21.9"/>
<ellipse id="Ellipse_3_1_" class="st0" cx="166.8" cy="115.5" rx="98.2" ry="73.5"/>
<ellipse id="Ellipse_4_1_" class="st4" cx="166.8" cy="115.5" rx="98.2" ry="73.5"/>
<path id="Path_1_1_" class="st2" d="M94.8,130.5l9.3-39.1h19.5l0.2,19.9l8.3-19.9h21.1l-11.3,46.7h-14.1l6.6-30.1l-11.4,30.1h-9.9
	l0.6-29.7l-6.4,29.9h-9c0,0,17.6,34.4,70,33.8s76.8-34.7,76.4-56.1c0,0,0.7-6.3-0.8-10.1l-13.9,0c0,0,2.2-7.8-1.3-7
	c0,0-2.8-1.4-4.1,5.4c0,0-2.2,1.4,5.8,5.1s11.9,6.3,11.7,11.7s-2.1,18-21.5,17.7s-16.4-10.8-16.4-10.8s-0.1-4.4,1.8-7.5h14.8
	c0,0-3.3,11.4,0.6,10s3.7-3.2,4.1-6.4s-5.9-5.5-11.9-8.9c-3.4-1.9-5.5-5.5-5.4-9.4c0,0,0.9-16.4,20.4-15.8c0,0,5.8-0.4,9.4,1.4
	c0,0-15.6-34.5-69.3-34.5s-70.4,33-70.4,33S84.3,114.4,94.8,130.5z"/>
<path id="Path_2_1_" class="st5" d="M98.2,90.2c0,0,16.7-33,70.4-33c3.2,0,6.3,0.1,9.5,0.4c46,3.6,59.8,34.1,59.8,34.1
	c-3.5-1.8-9.4-1.4-9.4-1.4c-19.5-0.6-20.4,15.8-20.4,15.8c-0.1,3.9,2,7.6,5.4,9.4c5.9,3.4,12.3,5.7,11.9,8.9s-0.2,5-4.1,6.4
	s-0.6-10-0.6-10h-14.8c-1.9,3.1-1.8,7.5-1.8,7.5s-3,10.4,16.4,10.8s21.3-12.3,21.5-17.7s-3.6-8-11.7-11.7s-5.8-5.1-5.8-5.1
	c1.3-6.9,4.1-5.4,4.1-5.4c3.5-0.8,1.3,7,1.3,7l13.9,0c1.5,3.8,0.8,10.1,0.8,10.1c0.4,21.5-24.1,55.5-76.4,56.1s-70-33.8-70-33.8h9
	l6.4-29.9l-0.6,29.7h9.9l11.4-30.1l-6.6,30.1h14.1l11.3-46.7H132l-8.3,19.9l-0.2-19.9H104l-9.3,39.1C84.3,114.4,98.2,90.2,98.2,90.2
	z M162.2,137.9l6.8-29.7l-1.4,29.9h10.3l12.1-29.9l-7.6,30.3H197l11.1-46.9h-21.1l-8.3,19.7l0.6-19.9h-20.5l-10.5,46.3
	C150.8,137.7,162.2,137.9,162.2,137.9L162.2,137.9z"/>
<path id="Path_3_1_" class="st6" d="M148.3,137.7l10.5-46.3h20.5l-0.6,19.9l8.3-19.7h21.1L197,138.5h-14.7l7.6-30.3l-12.1,29.9
	h-10.3l1.4-29.9l-6.8,29.7C162.2,137.9,150.8,137.7,148.3,137.7z"/>
<g id="MINEAZY_MINING_1_">
	<path class="st8" d="M304.1,124.6c-0.9,0-1.5-0.2-2.1-0.5c-0.6-0.3-0.7-0.8-0.4-1.4l11.3-24c0.5-1.1,1.3-1.9,2.2-2.4
		c0.9-0.5,1.8-0.7,2.7-0.7c0.8,0,1.5,0.1,2,0.2c0.5,0.1,0.9,0.4,1.2,0.8c0.3,0.4,0.5,1.1,0.6,2.1l1.2,7.1l7.9-7.1
		c1.1-0.9,1.9-1.7,2.6-2.1c0.7-0.4,1.3-0.7,2-0.8s1.4-0.2,2.2-0.2c0.9,0,1.6,0.2,2,0.7s0.5,1.3-0.1,2.4l-11.3,24
		c-0.3,0.6-0.9,1.1-1.7,1.4c-0.9,0.3-1.7,0.5-2.6,0.5s-1.5-0.2-2.1-0.5c-0.6-0.3-0.7-0.8-0.4-1.4l7-14.9l-7.3,6.5
		c-0.5,0.4-1,0.7-1.5,0.9s-0.9,0.3-1.4,0.3c-0.4,0-0.7-0.1-1-0.2c-0.3-0.2-0.5-0.5-0.6-0.9l-0.9-6.9l-7.2,15.3
		c-0.3,0.6-0.9,1.1-1.7,1.4C305.8,124.4,304.9,124.6,304.1,124.6z"/>
	<path class="st8" d="M335.3,124.6c-0.9,0-1.5-0.2-2.1-0.5c-0.6-0.3-0.7-0.8-0.4-1.4l11.8-25.2c0.3-0.7,0.9-1.1,1.7-1.4
		c0.9-0.3,1.7-0.4,2.5-0.4c0.9,0,1.6,0.2,2.1,0.4c0.6,0.3,0.7,0.8,0.4,1.4l-11.8,25.2c-0.3,0.6-0.9,1.1-1.7,1.4
		C337,124.4,336.1,124.6,335.3,124.6z"/>
	<path class="st8" d="M346.8,124.6c-0.9,0-1.5-0.2-2.1-0.5c-0.6-0.3-0.7-0.8-0.4-1.4l11.8-25.2c0.3-0.7,0.9-1.1,1.8-1.4
		c0.9-0.3,1.7-0.5,2.6-0.5c0.8,0,1.5,0.1,2,0.2s0.9,0.4,1.1,0.8c0.3,0.4,0.4,1.1,0.5,2.1l1.4,12.3l6.3-13.5c0.3-0.7,0.9-1.1,1.7-1.4
		c0.9-0.3,1.7-0.4,2.5-0.4c0.9,0,1.6,0.2,2.1,0.4c0.6,0.3,0.7,0.8,0.4,1.4l-11.8,25.2c-0.3,0.6-0.9,1.1-1.7,1.4
		c-0.9,0.3-1.7,0.5-2.6,0.5c-0.8,0-1.5-0.1-2-0.3s-0.9-0.7-1-1.4l-1.9-13.7l-6.3,13.5c-0.3,0.6-0.9,1.1-1.7,1.4
		C348.5,124.4,347.7,124.6,346.8,124.6z"/>
	<path class="st8" d="M373.5,124.6c-0.7,0-1.3-0.2-1.8-0.5c-0.5-0.3-0.6-0.8-0.3-1.4l11.8-25.2c0.3-0.6,0.8-1.1,1.6-1.4
		s1.5-0.5,2.3-0.5h15.6c0.7,0,1.1,0.3,1.2,0.8c0,0.6-0.1,1.2-0.4,1.8c-0.4,0.7-0.8,1.4-1.4,1.9c-0.6,0.5-1.2,0.8-1.9,0.8h-11.8
		l-3.1,6.7h6.6c0.7,0,1.1,0.2,1.2,0.7c0.1,0.5,0,1.1-0.3,1.7c-0.3,0.5-0.6,1.1-1.2,1.6c-0.6,0.5-1.2,0.8-1.9,0.8h-6.6l-3.2,6.7h11.7
		c0.7,0,1.1,0.3,1.1,0.8c0.1,0.5,0,1.2-0.4,1.9c-0.3,0.6-0.7,1.2-1.3,1.8c-0.6,0.6-1.3,0.9-2,0.9L373.5,124.6L373.5,124.6z"/>
	<path class="st8" d="M396.3,124.6c-0.6,0-1.2-0.1-1.8-0.3c-0.6-0.2-1-0.5-1.3-0.9c-0.3-0.4-0.3-0.8-0.1-1.3c0-0.1,0.1-0.2,0.3-0.4
		l19.5-24.2c0.6-0.7,1.4-1.2,2.4-1.6c1-0.3,2-0.5,3-0.5c1,0,1.9,0.2,2.6,0.5c0.7,0.3,1,0.9,0.9,1.6l-3.1,24.2c0,0.2-0.1,0.4-0.1,0.4
		c-0.2,0.5-0.7,0.9-1.3,1.3c-0.6,0.4-1.4,0.7-2.1,0.9c-0.8,0.2-1.5,0.3-2.1,0.3c-0.6,0-1-0.1-1.3-0.3s-0.4-0.5-0.4-0.9l0.8-5h-9.2
		l-3.8,5c-0.3,0.4-0.7,0.7-1.2,0.9C397.4,124.5,396.9,124.6,396.3,124.6z"/>
	<polygon class="st8" points="406.5,113.7 412.9,113.7 414.7,103.1 	"/>
	<path class="st8" d="M419.9,124.6c-0.7,0-1.1-0.1-1.3-0.5c-0.2-0.3-0.1-0.7,0.1-1.2c0.3-0.7,0.9-1.4,1.8-2.2l21.6-19.8H432
		c-0.6,0-1-0.3-1.1-0.8c-0.1-0.5,0-1.2,0.3-1.9c0.3-0.7,0.8-1.3,1.4-1.8c0.6-0.6,1.3-0.8,2-0.8h16.9c0.7,0,1.1,0.2,1.3,0.5
		c0.2,0.3,0.2,0.7-0.1,1.2c-0.3,0.6-0.9,1.4-1.8,2.2l-21.6,19.8h11.9c0.7,0,1,0.3,1.1,0.9c0.1,0.6,0,1.2-0.3,1.8s-0.8,1.2-1.4,1.8
		s-1.3,0.9-1.9,0.9L419.9,124.6L419.9,124.6z"/>
	<path class="st8" d="M454,124.6c-0.9,0-1.5-0.2-2.1-0.5c-0.6-0.3-0.7-0.8-0.4-1.4l4.7-10c0.1-0.2,0.1-0.4,0.1-0.6l-2.7-13.6
		c0-0.1,0-0.2,0-0.2c0-0.1,0-0.1,0.1-0.2c0.2-0.5,0.7-0.9,1.4-1.3c0.7-0.4,1.4-0.7,2.3-0.9c0.8-0.2,1.6-0.3,2.2-0.3
		c0.5,0,0.9,0.1,1.1,0.3c0.2,0.2,0.3,0.5,0.3,0.8l1.4,10.2l10.9-10.2c0.4-0.4,0.8-0.7,1.1-0.8c0.4-0.2,0.8-0.3,1.4-0.3
		c0.6,0,1.3,0.1,1.9,0.3c0.6,0.2,1.1,0.5,1.4,0.9c0.3,0.4,0.4,0.8,0.1,1.3c0,0.1-0.1,0.1-0.1,0.2c0,0.1-0.1,0.2-0.2,0.2l-15.4,13.6
		c-0.2,0.2-0.3,0.3-0.4,0.6l-4.7,10c-0.3,0.6-0.9,1.1-1.7,1.4C455.7,124.4,454.8,124.6,454,124.6z"/>
	<path class="st8" d="M481.4,124.6c-0.9,0-1.5-0.2-2.1-0.5c-0.6-0.3-0.7-0.8-0.4-1.4l11.3-24c0.5-1.1,1.3-1.9,2.2-2.4
		c0.9-0.5,1.8-0.7,2.7-0.7c0.8,0,1.5,0.1,2,0.2c0.5,0.1,0.9,0.4,1.2,0.8c0.3,0.4,0.5,1.1,0.6,2.1l1.2,7.1l7.9-7.1
		c1.1-0.9,1.9-1.7,2.6-2.1c0.7-0.4,1.3-0.7,2-0.8s1.3-0.2,2.2-0.2c0.9,0,1.6,0.2,2,0.7s0.5,1.3-0.1,2.4l-11.3,24
		c-0.3,0.6-0.9,1.1-1.7,1.4c-0.9,0.3-1.7,0.5-2.6,0.5s-1.5-0.2-2.1-0.5c-0.6-0.3-0.7-0.8-0.4-1.4l7-14.9l-7.3,6.5
		c-0.5,0.4-1,0.7-1.5,0.9s-0.9,0.3-1.4,0.3c-0.4,0-0.7-0.1-1-0.2c-0.3-0.2-0.5-0.5-0.6-0.9l-0.9-6.9l-7.2,15.3
		c-0.3,0.6-0.9,1.1-1.7,1.4C483.1,124.4,482.3,124.6,481.4,124.6z"/>
	<path class="st8" d="M512.6,124.6c-0.8,0-1.5-0.2-2.1-0.5c-0.6-0.3-0.7-0.8-0.4-1.4L522,97.4c0.3-0.7,0.9-1.1,1.7-1.4
		s1.7-0.4,2.5-0.4s1.6,0.2,2.1,0.4s0.7,0.8,0.4,1.4L517,122.6c-0.3,0.6-0.9,1.1-1.7,1.4C514.3,124.4,513.5,124.6,512.6,124.6z"/>
	<path class="st8" d="M524.2,124.6c-0.8,0-1.5-0.2-2.1-0.5c-0.6-0.3-0.7-0.8-0.4-1.4l11.8-25.2c0.3-0.7,0.9-1.1,1.8-1.4
		c0.9-0.3,1.7-0.5,2.6-0.5c0.8,0,1.5,0.1,2,0.2c0.5,0.1,0.8,0.4,1.1,0.8c0.3,0.4,0.4,1.1,0.5,2.1l1.3,12.3l6.3-13.5
		c0.3-0.7,0.9-1.1,1.7-1.4s1.7-0.4,2.5-0.4s1.6,0.2,2.1,0.4s0.7,0.8,0.4,1.4l-11.8,25.2c-0.3,0.6-0.9,1.1-1.7,1.4
		c-0.9,0.3-1.7,0.5-2.6,0.5c-0.8,0-1.5-0.1-2-0.3s-0.9-0.7-1-1.4l-1.9-13.7l-6.3,13.5c-0.3,0.6-0.9,1.1-1.7,1.4
		C525.9,124.4,525.1,124.6,524.2,124.6z"/>
	<path class="st8" d="M551.3,124.6c-0.8,0-1.5-0.2-2.1-0.5c-0.6-0.3-0.7-0.8-0.4-1.4l11.8-25.2c0.3-0.7,0.9-1.1,1.7-1.4
		s1.7-0.4,2.5-0.4s1.6,0.2,2.1,0.4s0.7,0.8,0.4,1.4l-11.8,25.2c-0.3,0.6-0.9,1.1-1.7,1.4C553,124.4,552.2,124.6,551.3,124.6z"/>
	<path class="st8" d="M562.9,124.6c-0.8,0-1.5-0.2-2.1-0.5c-0.6-0.3-0.7-0.8-0.4-1.4l11.8-25.2c0.3-0.7,0.9-1.1,1.8-1.4
		c0.9-0.3,1.7-0.5,2.6-0.5c0.8,0,1.5,0.1,2,0.2c0.5,0.1,0.8,0.4,1.1,0.8c0.3,0.4,0.4,1.1,0.5,2.1l1.3,12.3l6.3-13.5
		c0.3-0.7,0.9-1.1,1.7-1.4s1.7-0.4,2.5-0.4s1.6,0.2,2.1,0.4s0.7,0.8,0.4,1.4l-11.8,25.2c-0.3,0.6-0.9,1.1-1.7,1.4
		c-0.9,0.3-1.7,0.5-2.6,0.5c-0.8,0-1.5-0.1-2-0.3s-0.9-0.7-1-1.4l-1.9-13.7l-6.3,13.5c-0.3,0.6-0.9,1.1-1.7,1.4
		C564.6,124.4,563.7,124.6,562.9,124.6z"/>
	<path class="st8" d="M596.9,124.8c-2,0-3.7-0.3-5-0.9s-2.2-1.6-2.5-3c-0.3-1.4,0.1-3.2,1.1-5.5l4.9-10.5c1.1-2.3,2.4-4.1,4-5.5
		c1.6-1.4,3.3-2.4,5.2-3c1.9-0.6,3.8-0.9,5.7-0.9c2.1,0,3.8,0.3,5.2,0.9s2.3,1.5,2.7,2.7c0.4,1.2,0.2,2.6-0.6,4.3
		c-0.6,1.2-1.2,2-1.9,2.4s-1.7,0.6-2.8,0.6c-0.9,0-1.6-0.1-2.2-0.4c-0.5-0.3-0.7-0.8-0.4-1.5c0.2-0.5,0.4-1,0.5-1.6s0-1-0.3-1.4
		c-0.4-0.4-1.2-0.6-2.4-0.6s-2.4,0.3-3.4,1s-1.8,1.6-2.4,3l-4.9,10.5c-0.6,1.4-0.8,2.4-0.4,3c0.4,0.6,1.2,1,2.4,1
		c1.2,0,2.3-0.3,3.3-1c1-0.6,1.8-1.6,2.5-3l0.6-1.4h-2.6c-0.6,0-1-0.2-1.2-0.7c-0.1-0.5-0.1-1,0.2-1.6c0.3-0.6,0.7-1.1,1.3-1.6
		c0.6-0.5,1.2-0.8,1.9-0.8h7.4c0.7,0,1.1,0.2,1.3,0.6c0.2,0.4,0.1,0.8-0.1,1.4l-2,4.2c-1.1,2.3-2.4,4.1-4,5.5
		c-1.6,1.4-3.3,2.4-5.3,3C600.8,124.5,598.9,124.8,596.9,124.8z"/>
</g>
<g>
	<g>
		<path class="st0" d="M311.9,92.7c-0.4,0-0.8-0.1-1.2-0.2s-0.6-0.3-0.8-0.6s-0.3-0.6-0.3-0.9c0-0.3,0.1-0.4,0.2-0.5
			s0.3-0.1,0.5-0.1c0.2,0,0.4,0,0.5,0.1s0.2,0.2,0.2,0.3c0,0.1,0,0.2,0.1,0.4s0.1,0.3,0.2,0.3s0.3,0.1,0.5,0.1
			c0.3,0,0.5-0.1,0.6-0.2s0.2-0.3,0.2-0.6v-3.1h-0.8c-0.1,0-0.2-0.1-0.3-0.2c-0.1-0.1-0.1-0.3-0.1-0.4c0-0.1,0-0.3,0.1-0.4
			c0.1-0.1,0.2-0.2,0.3-0.2h1.6c0.2,0,0.3,0,0.4,0.1s0.2,0.2,0.2,0.3v3.8c0,0.5-0.1,0.9-0.3,1.2c-0.2,0.3-0.5,0.5-0.8,0.6
			C312.7,92.6,312.3,92.7,311.9,92.7z"/>
		<path class="st0" d="M317.3,92.7c-0.4,0-0.8-0.1-1.2-0.2s-0.6-0.3-0.8-0.6s-0.3-0.7-0.3-1.2v-2.2c0-0.5,0.1-0.9,0.3-1.2
			c0.2-0.3,0.5-0.5,0.8-0.6s0.7-0.2,1.2-0.2s0.8,0.1,1.2,0.2c0.4,0.1,0.6,0.3,0.8,0.6s0.3,0.7,0.3,1.2v2.2c0,0.5-0.1,0.9-0.3,1.2
			c-0.2,0.3-0.5,0.5-0.8,0.6C318.1,92.6,317.8,92.7,317.3,92.7z M317.3,91.5c0.3,0,0.5-0.1,0.6-0.2s0.2-0.3,0.2-0.6v-2.2
			c0-0.3-0.1-0.5-0.2-0.6s-0.4-0.2-0.6-0.2s-0.5,0.1-0.6,0.2s-0.2,0.3-0.2,0.6v2.2c0,0.3,0.1,0.5,0.2,0.6
			C316.9,91.4,317.1,91.5,317.3,91.5z"/>
		<path class="st0" d="M321,92.6c-0.1,0-0.3,0-0.4-0.1c-0.1-0.1-0.3-0.1-0.4-0.2s-0.1-0.2-0.1-0.3c0,0,0-0.1,0-0.1l1.7-5.1
			c0-0.2,0.2-0.3,0.4-0.3c0.2-0.1,0.4-0.1,0.6-0.1c0.2,0,0.4,0,0.6,0.1s0.3,0.2,0.4,0.3l1.7,5.1c0,0,0,0.1,0,0.1
			c0,0.1,0,0.2-0.1,0.3c-0.1,0.1-0.2,0.2-0.4,0.2c-0.1,0.1-0.3,0.1-0.4,0.1c-0.1,0-0.2,0-0.3-0.1c-0.1,0-0.1-0.1-0.2-0.2l-0.3-1.1
			h-2l-0.3,1.1c0,0.1-0.1,0.2-0.2,0.2C321.2,92.6,321.1,92.6,321,92.6z M322.1,90.3h1.4l-0.7-2.3L322.1,90.3z"/>
		<path class="st0" d="M327.9,92.7c-0.4,0-0.8-0.1-1.1-0.2s-0.6-0.2-0.8-0.4s-0.3-0.3-0.3-0.5c0-0.1,0-0.2,0.1-0.3
			c0.1-0.1,0.1-0.2,0.2-0.3s0.2-0.1,0.3-0.1c0.1,0,0.2,0,0.3,0.1s0.2,0.1,0.3,0.2c0.1,0.1,0.3,0.2,0.4,0.2s0.3,0.1,0.5,0.1
			c0.1,0,0.3,0,0.4-0.1c0.1,0,0.3-0.1,0.3-0.2c0.1-0.1,0.1-0.2,0.1-0.3c0-0.2,0-0.3-0.2-0.4c-0.1-0.1-0.3-0.2-0.4-0.3
			s-0.4-0.2-0.6-0.3c-0.2-0.1-0.4-0.2-0.6-0.3c-0.2-0.1-0.4-0.2-0.6-0.4s-0.3-0.3-0.4-0.5c-0.1-0.2-0.2-0.4-0.2-0.7
			c0-0.3,0.1-0.6,0.2-0.8c0.1-0.2,0.3-0.4,0.5-0.5c0.2-0.1,0.5-0.2,0.8-0.3c0.3-0.1,0.6-0.1,0.9-0.1c0.1,0,0.3,0,0.5,0
			c0.2,0,0.4,0.1,0.6,0.1c0.2,0.1,0.4,0.1,0.5,0.2c0.1,0.1,0.2,0.2,0.2,0.4c0,0.1,0,0.2-0.1,0.3c0,0.1-0.1,0.2-0.2,0.3
			s-0.2,0.1-0.3,0.1c-0.1,0-0.2,0-0.3-0.1s-0.2-0.1-0.4-0.2c-0.1-0.1-0.3-0.1-0.6-0.1c-0.2,0-0.4,0-0.5,0.1
			c-0.1,0.1-0.2,0.1-0.3,0.2s-0.1,0.2-0.1,0.3c0,0.1,0,0.2,0.2,0.3c0.1,0.1,0.3,0.2,0.4,0.2s0.4,0.2,0.6,0.2
			c0.2,0.1,0.4,0.2,0.6,0.3s0.4,0.2,0.6,0.4s0.3,0.3,0.4,0.6c0.1,0.2,0.2,0.5,0.2,0.8c0,0.4-0.1,0.7-0.3,1c-0.2,0.3-0.5,0.5-0.8,0.6
			C328.8,92.6,328.4,92.7,327.9,92.7z"/>
		<path class="st0" d="M331.7,92.6c-0.2,0-0.3,0-0.5-0.1c-0.1-0.1-0.2-0.2-0.2-0.3v-5.3c0-0.1,0.1-0.2,0.2-0.3
			c0.1-0.1,0.3-0.1,0.5-0.1s0.3,0,0.5,0.1c0.1,0.1,0.2,0.2,0.2,0.3v2.1h1.9v-2.1c0-0.1,0.1-0.2,0.2-0.3c0.1-0.1,0.3-0.1,0.5-0.1
			s0.3,0,0.5,0.1c0.1,0.1,0.2,0.2,0.2,0.3v5.3c0,0.1-0.1,0.2-0.2,0.3c-0.1,0.1-0.3,0.1-0.5,0.1s-0.3,0-0.5-0.1
			c-0.1-0.1-0.2-0.2-0.2-0.3v-2.3h-1.9v2.3c0,0.1-0.1,0.2-0.2,0.3C332,92.6,331.8,92.6,331.7,92.6z"/>
		<path class="st0" d="M337.3,92.6c-0.1,0-0.3,0-0.4-0.1s-0.2-0.2-0.2-0.3v-5.3c0-0.1,0.1-0.2,0.2-0.3c0.1-0.1,0.3-0.1,0.4-0.1h3.3
			c0.1,0,0.3,0.1,0.3,0.2c0.1,0.1,0.1,0.3,0.1,0.4c0,0.2,0,0.3-0.1,0.4s-0.2,0.2-0.3,0.2h-2.5V89h1.4c0.1,0,0.3,0.1,0.3,0.2
			s0.1,0.2,0.1,0.4c0,0.1,0,0.2-0.1,0.3s-0.2,0.2-0.3,0.2h-1.4v1.4h2.5c0.1,0,0.3,0.1,0.3,0.2s0.1,0.3,0.1,0.4c0,0.1,0,0.3-0.1,0.4
			c-0.1,0.1-0.2,0.2-0.3,0.2L337.3,92.6L337.3,92.6z"/>
		<path class="st0" d="M342.4,92.6c-0.2,0-0.3,0-0.5-0.1c-0.1-0.1-0.2-0.2-0.2-0.3v-5.3c0-0.1,0.1-0.2,0.2-0.3
			c0.1-0.1,0.3-0.1,0.5-0.1c0.2,0,0.3,0,0.4,0s0.2,0.1,0.3,0.2s0.2,0.2,0.3,0.4l1.5,2.6v-2.9c0-0.1,0.1-0.2,0.2-0.3
			c0.1-0.1,0.3-0.1,0.5-0.1s0.3,0,0.5,0.1c0.1,0.1,0.2,0.2,0.2,0.3v5.3c0,0.1-0.1,0.2-0.2,0.3c-0.1,0.1-0.3,0.1-0.5,0.1
			c-0.2,0-0.3,0-0.5-0.1c-0.1,0-0.3-0.1-0.3-0.3l-1.8-2.9v2.9c0,0.1-0.1,0.2-0.2,0.3C342.8,92.6,342.6,92.6,342.4,92.6z"/>
		<path class="st0" d="M349.3,92.6c-0.1,0-0.3,0-0.3-0.1s-0.1-0.2-0.1-0.3c0-0.2,0-0.3,0.2-0.5l2.6-4.2h-2.1c-0.1,0-0.2-0.1-0.3-0.2
			c-0.1-0.1-0.1-0.3-0.1-0.4c0-0.1,0-0.3,0.1-0.4s0.2-0.2,0.3-0.2h3.6c0.1,0,0.3,0,0.3,0.1c0.1,0.1,0.1,0.2,0.1,0.3
			c0,0.1,0,0.3-0.2,0.5l-2.6,4.2h2.5c0.1,0,0.3,0.1,0.3,0.2c0.1,0.1,0.1,0.3,0.1,0.4s0,0.3-0.1,0.4c-0.1,0.1-0.2,0.2-0.3,0.2
			L349.3,92.6L349.3,92.6z"/>
		<path class="st0" d="M356.8,92.6c-0.2,0-0.3,0-0.5-0.1c-0.1-0.1-0.2-0.2-0.2-0.3v-5.3c0-0.1,0.1-0.2,0.2-0.3
			c0.1-0.1,0.3-0.1,0.5-0.1s0.3,0,0.5,0.1c0.1,0.1,0.2,0.2,0.2,0.3v5.3c0,0.1-0.1,0.2-0.2,0.3C357.2,92.6,357,92.6,356.8,92.6z"/>
		<path class="st0" d="M359.3,92.6c-0.2,0-0.3,0-0.5-0.1c-0.1-0.1-0.2-0.2-0.2-0.3v-5.3c0-0.1,0.1-0.2,0.2-0.3
			c0.1-0.1,0.3-0.1,0.5-0.1c0.2,0,0.3,0,0.4,0s0.2,0.1,0.3,0.2s0.2,0.2,0.3,0.4l1.5,2.6v-2.9c0-0.1,0.1-0.2,0.2-0.3
			c0.1-0.1,0.3-0.1,0.5-0.1s0.3,0,0.5,0.1c0.1,0.1,0.2,0.2,0.2,0.3v5.3c0,0.1-0.1,0.2-0.2,0.3c-0.1,0.1-0.3,0.1-0.5,0.1
			c-0.2,0-0.3,0-0.5-0.1c-0.1,0-0.3-0.1-0.3-0.3l-1.8-2.9v2.9c0,0.1-0.1,0.2-0.2,0.3C359.6,92.6,359.5,92.6,359.3,92.6z"/>
		<path class="st0" d="M366.5,92.7c-0.2,0-0.4,0-0.6-0.1c-0.2-0.1-0.3-0.2-0.4-0.3l-1.7-5.1c0,0,0-0.1,0-0.1c0-0.1,0-0.2,0.1-0.3
			s0.2-0.1,0.4-0.2s0.3-0.1,0.4-0.1c0.1,0,0.2,0,0.3,0.1c0.1,0,0.1,0.1,0.2,0.2l1.3,4.3l1.3-4.3c0-0.1,0.1-0.2,0.2-0.2
			s0.2-0.1,0.3-0.1c0.1,0,0.3,0,0.4,0.1c0.1,0.1,0.3,0.1,0.4,0.2c0.1,0.1,0.1,0.2,0.1,0.3c0,0,0,0,0,0c0,0,0,0,0,0.1l-1.7,5.1
			c0,0.2-0.2,0.3-0.4,0.3C366.9,92.6,366.8,92.7,366.5,92.7z"/>
		<path class="st0" d="M370.4,92.6c-0.1,0-0.3,0-0.4-0.1s-0.2-0.2-0.2-0.3v-5.3c0-0.1,0.1-0.2,0.2-0.3c0.1-0.1,0.3-0.1,0.4-0.1h3.3
			c0.1,0,0.3,0.1,0.3,0.2c0.1,0.1,0.1,0.3,0.1,0.4c0,0.2,0,0.3-0.1,0.4s-0.2,0.2-0.3,0.2h-2.5V89h1.4c0.1,0,0.3,0.1,0.3,0.2
			s0.1,0.2,0.1,0.4c0,0.1,0,0.2-0.1,0.3s-0.2,0.2-0.3,0.2h-1.4v1.4h2.5c0.1,0,0.3,0.1,0.3,0.2s0.1,0.3,0.1,0.4c0,0.1,0,0.3-0.1,0.4
			c-0.1,0.1-0.2,0.2-0.3,0.2L370.4,92.6L370.4,92.6z"/>
		<path class="st0" d="M376.7,92.7c-0.4,0-0.8-0.1-1.1-0.2s-0.6-0.2-0.8-0.4s-0.3-0.3-0.3-0.5c0-0.1,0-0.2,0.1-0.3
			c0.1-0.1,0.1-0.2,0.2-0.3s0.2-0.1,0.3-0.1c0.1,0,0.2,0,0.3,0.1s0.2,0.1,0.3,0.2c0.1,0.1,0.3,0.2,0.4,0.2s0.3,0.1,0.5,0.1
			c0.1,0,0.3,0,0.4-0.1c0.1,0,0.3-0.1,0.3-0.2c0.1-0.1,0.1-0.2,0.1-0.3c0-0.2,0-0.3-0.2-0.4c-0.1-0.1-0.3-0.2-0.4-0.3
			s-0.4-0.2-0.6-0.3c-0.2-0.1-0.4-0.2-0.6-0.3c-0.2-0.1-0.4-0.2-0.6-0.4s-0.3-0.3-0.4-0.5c-0.1-0.2-0.2-0.4-0.2-0.7
			c0-0.3,0.1-0.6,0.2-0.8c0.1-0.2,0.3-0.4,0.5-0.5c0.2-0.1,0.5-0.2,0.8-0.3c0.3-0.1,0.6-0.1,0.9-0.1c0.1,0,0.3,0,0.5,0
			c0.2,0,0.4,0.1,0.6,0.1c0.2,0.1,0.4,0.1,0.5,0.2c0.1,0.1,0.2,0.2,0.2,0.4c0,0.1,0,0.2-0.1,0.3c0,0.1-0.1,0.2-0.2,0.3
			s-0.2,0.1-0.3,0.1c-0.1,0-0.2,0-0.3-0.1s-0.2-0.1-0.4-0.2c-0.1-0.1-0.3-0.1-0.6-0.1c-0.2,0-0.4,0-0.5,0.1
			c-0.1,0.1-0.2,0.1-0.3,0.2S376,87.9,376,88c0,0.1,0,0.2,0.2,0.3c0.1,0.1,0.3,0.2,0.4,0.2s0.4,0.2,0.6,0.2c0.2,0.1,0.4,0.2,0.6,0.3
			s0.4,0.2,0.6,0.4s0.3,0.3,0.4,0.6c0.1,0.2,0.2,0.5,0.2,0.8c0,0.4-0.1,0.7-0.3,1c-0.2,0.3-0.5,0.5-0.8,0.6
			C377.5,92.6,377.1,92.7,376.7,92.7z"/>
		<path class="st0" d="M381.7,92.6c-0.2,0-0.3,0-0.5-0.1c-0.1-0.1-0.2-0.2-0.2-0.3v-4.6h-1.3c-0.1,0-0.2-0.1-0.3-0.2
			c-0.1-0.1-0.1-0.3-0.1-0.4c0-0.1,0-0.3,0.1-0.4s0.2-0.2,0.3-0.2h4c0.1,0,0.3,0.1,0.3,0.2c0.1,0.1,0.1,0.3,0.1,0.4
			c0,0.2,0,0.3-0.1,0.4s-0.2,0.2-0.3,0.2h-1.3v4.6c0,0.1-0.1,0.2-0.2,0.3C382.1,92.6,381.9,92.6,381.7,92.6z"/>
		<path class="st0" d="M385.5,92.6c-0.2,0-0.3,0-0.5-0.1c-0.1-0.1-0.2-0.2-0.2-0.3v-5.1c0-0.2,0.1-0.4,0.2-0.5
			c0.1-0.1,0.3-0.2,0.5-0.2c0.2,0,0.3,0,0.4,0s0.2,0.1,0.3,0.2c0.1,0.1,0.2,0.2,0.3,0.4l1,1.5l1-1.5c0.1-0.2,0.3-0.3,0.4-0.4
			c0.1-0.1,0.2-0.2,0.3-0.2c0.1,0,0.3,0,0.4,0c0.2,0,0.4,0.1,0.5,0.2s0.2,0.3,0.2,0.5v5.1c0,0.1-0.1,0.2-0.2,0.3
			c-0.1,0.1-0.3,0.1-0.5,0.1s-0.3,0-0.5-0.1c-0.1-0.1-0.2-0.2-0.2-0.3v-3.2l-0.9,1.4c-0.1,0.1-0.1,0.2-0.2,0.2
			c-0.1,0-0.2,0.1-0.3,0.1c-0.1,0-0.2,0-0.3-0.1c-0.1,0-0.1-0.1-0.2-0.2l-0.9-1.5v3.2c0,0.1-0.1,0.2-0.2,0.3
			C385.8,92.6,385.6,92.6,385.5,92.6z"/>
		<path class="st0" d="M392,92.6c-0.1,0-0.3,0-0.4-0.1s-0.2-0.2-0.2-0.3v-5.3c0-0.1,0.1-0.2,0.2-0.3c0.1-0.1,0.3-0.1,0.4-0.1h3.3
			c0.1,0,0.3,0.1,0.3,0.2c0.1,0.1,0.1,0.3,0.1,0.4c0,0.2,0,0.3-0.1,0.4s-0.2,0.2-0.3,0.2h-2.5V89h1.4c0.1,0,0.3,0.1,0.3,0.2
			s0.1,0.2,0.1,0.4c0,0.1,0,0.2-0.1,0.3s-0.2,0.2-0.3,0.2h-1.4v1.4h2.5c0.1,0,0.3,0.1,0.3,0.2s0.1,0.3,0.1,0.4c0,0.1,0,0.3-0.1,0.4
			c-0.1,0.1-0.2,0.2-0.3,0.2L392,92.6L392,92.6z"/>
		<path class="st0" d="M397.1,92.6c-0.2,0-0.3,0-0.5-0.1c-0.1-0.1-0.2-0.2-0.2-0.3v-5.3c0-0.1,0.1-0.2,0.2-0.3
			c0.1-0.1,0.3-0.1,0.5-0.1c0.2,0,0.3,0,0.4,0s0.2,0.1,0.3,0.2s0.2,0.2,0.3,0.4l1.5,2.6v-2.9c0-0.1,0.1-0.2,0.2-0.3
			c0.1-0.1,0.3-0.1,0.5-0.1s0.3,0,0.5,0.1c0.1,0.1,0.2,0.2,0.2,0.3v5.3c0,0.1-0.1,0.2-0.2,0.3c-0.1,0.1-0.3,0.1-0.5,0.1
			c-0.2,0-0.3,0-0.5-0.1c-0.1,0-0.3-0.1-0.3-0.3l-1.8-2.9v2.9c0,0.1-0.1,0.2-0.2,0.3C397.4,92.6,397.2,92.6,397.1,92.6z"/>
		<path class="st0" d="M404.1,92.6c-0.2,0-0.3,0-0.5-0.1c-0.1-0.1-0.2-0.2-0.2-0.3v-4.6h-1.3c-0.1,0-0.2-0.1-0.3-0.2
			c-0.1-0.1-0.1-0.3-0.1-0.4c0-0.1,0-0.3,0.1-0.4s0.2-0.2,0.3-0.2h4c0.1,0,0.3,0.1,0.3,0.2c0.1,0.1,0.1,0.3,0.1,0.4
			c0,0.2,0,0.3-0.1,0.4s-0.2,0.2-0.3,0.2h-1.3v4.6c0,0.1-0.1,0.2-0.2,0.3C404.4,92.6,404.3,92.6,404.1,92.6z"/>
		<path class="st0" d="M409.7,92.6c-0.2,0-0.3,0-0.5-0.1c-0.1-0.1-0.2-0.2-0.2-0.3v-5.3c0-0.1,0-0.2,0.1-0.3s0.2-0.1,0.4-0.1h1.9
			c0.4,0,0.8,0.1,1.1,0.2c0.3,0.1,0.6,0.3,0.8,0.6s0.3,0.7,0.3,1.1v0c0,0.5-0.1,0.8-0.3,1.1c-0.2,0.3-0.5,0.5-0.8,0.6
			c-0.4,0.1-0.7,0.2-1.2,0.2h-0.9v1.8c0,0.1-0.1,0.2-0.2,0.3C410,92.6,409.9,92.6,409.7,92.6z M410.4,89.4h0.9
			c0.3,0,0.5-0.1,0.6-0.2s0.2-0.3,0.2-0.6v-0.1c0-0.3-0.1-0.5-0.2-0.6c-0.1-0.1-0.4-0.2-0.6-0.2h-0.9V89.4z"/>
		<path class="st0" d="M415,92.6c-0.2,0-0.3,0-0.5-0.1c-0.1-0.1-0.2-0.2-0.2-0.3v-5.3c0-0.1,0.1-0.2,0.2-0.3
			c0.1-0.1,0.3-0.1,0.5-0.1s0.3,0,0.5,0.1c0.1,0.1,0.2,0.2,0.2,0.3v5.3c0,0.1-0.1,0.2-0.2,0.3C415.3,92.6,415.1,92.6,415,92.6z"/>
		<path class="st0" d="M420.6,92.6c-0.2,0-0.3,0-0.5-0.1c-0.1-0.1-0.2-0.2-0.2-0.3v-4.6h-1.3c-0.1,0-0.2-0.1-0.3-0.2
			c-0.1-0.1-0.1-0.3-0.1-0.4c0-0.1,0-0.3,0.1-0.4s0.2-0.2,0.3-0.2h4c0.1,0,0.3,0.1,0.3,0.2c0.1,0.1,0.1,0.3,0.1,0.4
			c0,0.2,0,0.3-0.1,0.4s-0.2,0.2-0.3,0.2h-1.3v4.6c0,0.1-0.1,0.2-0.2,0.3C420.9,92.6,420.7,92.6,420.6,92.6z"/>
		<path class="st0" d="M423.8,93c-0.1,0-0.3-0.1-0.4-0.1c-0.1-0.1-0.1-0.2-0.1-0.3c0-0.1,0-0.1,0-0.2l3.3-6.1
			c0.1-0.1,0.2-0.2,0.4-0.2c0.1,0,0.3,0,0.4,0.1s0.2,0.2,0.2,0.3c0,0.1,0,0.1,0,0.2l-3.3,6.1c0,0.1-0.1,0.1-0.2,0.2
			C423.9,93,423.8,93,423.8,93z"/>
		<path class="st0" d="M428.6,92.6c-0.1,0-0.3,0-0.4-0.1c-0.1-0.1-0.3-0.1-0.4-0.2s-0.1-0.2-0.1-0.3c0,0,0-0.1,0-0.1l1.7-5.1
			c0-0.2,0.2-0.3,0.4-0.3c0.2-0.1,0.4-0.1,0.6-0.1c0.2,0,0.4,0,0.6,0.1s0.3,0.2,0.4,0.3L433,92c0,0,0,0.1,0,0.1c0,0.1,0,0.2-0.1,0.3
			c-0.1,0.1-0.2,0.2-0.4,0.2c-0.1,0.1-0.3,0.1-0.4,0.1c-0.1,0-0.2,0-0.3-0.1c-0.1,0-0.1-0.1-0.2-0.2l-0.3-1.1h-2l-0.3,1.1
			c0,0.1-0.1,0.2-0.2,0.2C428.8,92.6,428.7,92.6,428.6,92.6z M429.7,90.3h1.4l-0.7-2.3L429.7,90.3z"/>
	</g>
</g>
<g>
	<path class="st1" d="M482.2,138.3c-0.6,0-1.1-0.1-1.5-0.3s-0.8-0.4-1.1-0.6s-0.4-0.5-0.4-0.8c0-0.1,0-0.3,0.1-0.4
		c0.1-0.1,0.1-0.3,0.3-0.4c0.1-0.1,0.2-0.2,0.4-0.2c0.1,0,0.3,0.1,0.4,0.2c0.1,0.1,0.3,0.2,0.4,0.4s0.3,0.3,0.6,0.4
		c0.2,0.1,0.5,0.2,0.8,0.2c0.3,0,0.5,0,0.7-0.1c0.2-0.1,0.4-0.2,0.5-0.4c0.1-0.2,0.2-0.4,0.2-0.7c0-0.3-0.1-0.5-0.2-0.7
		c-0.1-0.2-0.3-0.4-0.6-0.5c-0.3-0.1-0.5-0.3-0.8-0.4c-0.3-0.1-0.6-0.3-0.9-0.4c-0.3-0.1-0.6-0.3-0.8-0.6s-0.4-0.5-0.6-0.8
		s-0.2-0.7-0.2-1.2c0-0.5,0.1-0.9,0.3-1.3c0.2-0.4,0.4-0.6,0.7-0.8c0.3-0.2,0.6-0.4,1-0.5c0.4-0.1,0.7-0.1,1.1-0.1
		c0.2,0,0.4,0,0.7,0.1c0.3,0,0.5,0.1,0.8,0.2s0.5,0.2,0.7,0.3c0.2,0.1,0.3,0.3,0.3,0.6c0,0.1,0,0.2-0.1,0.4c0,0.1-0.1,0.3-0.2,0.4
		s-0.2,0.2-0.4,0.2c-0.1,0-0.3,0-0.4-0.1c-0.1-0.1-0.3-0.2-0.5-0.3c-0.2-0.1-0.5-0.1-0.9-0.1c-0.3,0-0.6,0-0.8,0.1
		c-0.2,0.1-0.4,0.2-0.5,0.4c-0.1,0.1-0.2,0.3-0.2,0.6c0,0.2,0.1,0.4,0.2,0.6c0.1,0.2,0.4,0.3,0.6,0.4s0.5,0.3,0.8,0.4
		c0.3,0.1,0.6,0.3,0.9,0.4c0.3,0.2,0.6,0.4,0.8,0.6s0.5,0.5,0.6,0.9c0.1,0.4,0.2,0.8,0.2,1.3c0,0.6-0.1,1.2-0.4,1.6s-0.6,0.8-1.1,1
		C483.3,138.2,482.8,138.3,482.2,138.3z"/>
	<path class="st1" d="M497.1,138.3c-0.6,0-1.1-0.1-1.5-0.3c-0.5-0.2-0.8-0.5-1.1-1s-0.4-1.1-0.4-1.8v-3.8c0-0.8,0.1-1.4,0.4-1.8
		c0.3-0.5,0.6-0.8,1.1-1c0.5-0.2,1-0.3,1.5-0.3c0.6,0,1.1,0.1,1.5,0.3c0.5,0.2,0.8,0.5,1.1,1s0.4,1.1,0.4,1.8v3.8
		c0,0.8-0.1,1.4-0.4,1.8c-0.3,0.5-0.6,0.8-1.1,1C498.1,138.2,497.6,138.3,497.1,138.3z M497.1,136.7c0.4,0,0.8-0.1,1-0.4
		s0.4-0.7,0.4-1.2v-3.8c0-0.6-0.1-0.9-0.4-1.2s-0.6-0.4-1-0.4s-0.8,0.1-1,0.4c-0.2,0.3-0.4,0.7-0.4,1.2v3.8c0,0.6,0.1,0.9,0.4,1.2
		S496.6,136.7,497.1,136.7z"/>
	<path class="st1" d="M510,138.2c-0.2,0-0.4-0.1-0.5-0.1c-0.1-0.1-0.2-0.2-0.2-0.4v-8.8c0-0.2,0.1-0.3,0.3-0.4
		c0.2-0.1,0.4-0.1,0.6-0.1c0.2,0,0.4,0,0.6,0.1c0.2,0.1,0.3,0.2,0.3,0.4v7.9h3.2c0.2,0,0.3,0.1,0.4,0.2c0.1,0.2,0.1,0.3,0.1,0.5
		c0,0.2,0,0.4-0.1,0.5s-0.2,0.3-0.4,0.3L510,138.2L510,138.2z"/>
	<path class="st1" d="M526.2,138.3c-0.6,0-1.1-0.1-1.6-0.3c-0.5-0.2-0.8-0.5-1.1-1c-0.3-0.5-0.4-1.1-0.4-1.8v-6.4
		c0-0.2,0.1-0.3,0.3-0.4s0.4-0.1,0.6-0.1s0.4,0,0.6,0.1c0.2,0.1,0.3,0.2,0.3,0.4v6.4c0,0.5,0.1,0.9,0.4,1.2c0.3,0.3,0.6,0.4,1,0.4
		c0.5,0,0.8-0.1,1-0.4s0.4-0.7,0.4-1.2v-6.4c0-0.2,0.1-0.3,0.3-0.4s0.4-0.1,0.6-0.1c0.2,0,0.4,0,0.6,0.1c0.2,0.1,0.3,0.2,0.3,0.4
		v6.4c0,0.8-0.1,1.4-0.4,1.8c-0.3,0.5-0.7,0.8-1.1,1C527.3,138.2,526.8,138.3,526.2,138.3z"/>
	<path class="st1" d="M541.2,138.2c-0.2,0-0.4-0.1-0.6-0.1s-0.3-0.2-0.3-0.4v-7.8h-1.9c-0.2,0-0.3-0.1-0.4-0.3
		c-0.1-0.2-0.1-0.4-0.1-0.6c0-0.2,0-0.4,0.1-0.5s0.2-0.3,0.4-0.3h5.4c0.2,0,0.3,0.1,0.4,0.3c0.1,0.2,0.1,0.4,0.1,0.5
		c0,0.2,0,0.4-0.1,0.6s-0.2,0.3-0.4,0.3H542v7.8c0,0.2-0.1,0.3-0.3,0.4C541.6,138.1,541.4,138.2,541.2,138.2z"/>
	<path class="st1" d="M553.9,138.2c-0.2,0-0.4-0.1-0.6-0.1c-0.2-0.1-0.3-0.2-0.3-0.4v-8.8c0-0.2,0.1-0.3,0.3-0.4
		c0.2-0.1,0.4-0.1,0.6-0.1c0.2,0,0.4,0,0.6,0.1c0.2,0.1,0.3,0.2,0.3,0.4v8.8c0,0.2-0.1,0.3-0.3,0.4S554.1,138.2,553.9,138.2z"/>
	<path class="st1" d="M566.9,138.3c-0.6,0-1.1-0.1-1.5-0.3c-0.5-0.2-0.8-0.5-1.1-1s-0.4-1.1-0.4-1.8v-3.8c0-0.8,0.1-1.4,0.4-1.8
		c0.3-0.5,0.6-0.8,1.1-1c0.5-0.2,1-0.3,1.5-0.3c0.6,0,1.1,0.1,1.5,0.3c0.5,0.2,0.8,0.5,1.1,1s0.4,1.1,0.4,1.8v3.8
		c0,0.8-0.1,1.4-0.4,1.8c-0.3,0.5-0.6,0.8-1.1,1C568,138.2,567.5,138.3,566.9,138.3z M566.9,136.7c0.4,0,0.8-0.1,1-0.4
		s0.4-0.7,0.4-1.2v-3.8c0-0.6-0.1-0.9-0.4-1.2s-0.6-0.4-1-0.4s-0.8,0.1-1,0.4c-0.2,0.3-0.3,0.7-0.3,1.2v3.8c0,0.6,0.1,0.9,0.3,1.2
		S566.5,136.7,566.9,136.7z"/>
	<path class="st1" d="M579.9,138.2c-0.2,0-0.4-0.1-0.6-0.1c-0.2-0.1-0.3-0.2-0.3-0.4v-8.8c0-0.2,0.1-0.3,0.3-0.4
		c0.2-0.1,0.4-0.1,0.6-0.1s0.4,0,0.5,0.1s0.3,0.1,0.4,0.3c0.1,0.1,0.2,0.3,0.4,0.6l2.5,5.1v-5.5c0-0.2,0.1-0.3,0.3-0.4
		c0.2-0.1,0.4-0.1,0.6-0.1c0.2,0,0.4,0,0.6,0.1c0.2,0.1,0.3,0.2,0.3,0.4v8.8c0,0.2-0.1,0.3-0.3,0.4s-0.4,0.1-0.6,0.1
		c-0.2,0-0.4,0-0.5-0.1s-0.3-0.2-0.4-0.4l-2.8-5.5v5.5c0,0.2-0.1,0.3-0.3,0.4C580.3,138.1,580.1,138.2,579.9,138.2z"/>
	<path class="st1" d="M597.1,138.3c-0.6,0-1.1-0.1-1.5-0.3s-0.8-0.4-1.1-0.6s-0.4-0.5-0.4-0.8c0-0.1,0-0.3,0.1-0.4
		c0.1-0.1,0.2-0.3,0.3-0.4s0.2-0.2,0.4-0.2c0.1,0,0.3,0.1,0.4,0.2c0.1,0.1,0.3,0.2,0.4,0.4c0.2,0.1,0.3,0.3,0.6,0.4
		c0.2,0.1,0.5,0.2,0.8,0.2c0.3,0,0.5,0,0.7-0.1c0.2-0.1,0.4-0.2,0.5-0.4c0.1-0.2,0.2-0.4,0.2-0.7c0-0.3-0.1-0.5-0.2-0.7
		c-0.2-0.2-0.3-0.4-0.6-0.5c-0.3-0.1-0.5-0.3-0.8-0.4c-0.3-0.1-0.6-0.3-0.9-0.4s-0.6-0.3-0.8-0.6s-0.4-0.5-0.6-0.8s-0.2-0.7-0.2-1.2
		c0-0.5,0.1-0.9,0.3-1.3c0.2-0.4,0.4-0.6,0.7-0.8c0.3-0.2,0.6-0.4,1-0.5c0.4-0.1,0.7-0.1,1.1-0.1c0.2,0,0.4,0,0.7,0.1
		s0.5,0.1,0.8,0.2s0.5,0.2,0.7,0.3s0.3,0.3,0.3,0.6c0,0.1,0,0.2-0.1,0.4s-0.1,0.3-0.2,0.4s-0.2,0.2-0.4,0.2c-0.1,0-0.3,0-0.4-0.1
		c-0.1-0.1-0.3-0.2-0.5-0.3c-0.2-0.1-0.5-0.1-0.9-0.1c-0.3,0-0.6,0-0.8,0.1c-0.2,0.1-0.4,0.2-0.5,0.4c-0.1,0.1-0.2,0.3-0.2,0.6
		c0,0.2,0.1,0.4,0.2,0.6c0.2,0.2,0.3,0.3,0.6,0.4c0.2,0.1,0.5,0.3,0.8,0.4s0.6,0.3,0.9,0.4c0.3,0.2,0.6,0.4,0.8,0.6s0.5,0.5,0.6,0.9
		c0.2,0.4,0.2,0.8,0.2,1.3c0,0.6-0.1,1.2-0.4,1.6s-0.6,0.8-1.1,1C598.2,138.2,597.7,138.3,597.1,138.3z"/>
</g>
</svg>
