<?xml version="1.0" encoding="utf-8"?>
<!-- Generator: Adobe Illustrator 23.0.2, SVG Export Plug-In . SVG Version: 6.00 Build 0)  -->
<svg version="1.1" id="Layer_1" xmlns="http://www.w3.org/2000/svg" xmlns:xlink="http://www.w3.org/1999/xlink" x="0px" y="0px"
	 viewBox="0 0 694 262" style="enable-background:new 0 0 694 262;" xml:space="preserve">
<style type="text/css">
	.st0{fill:#FFE600;}
	.st1{fill:none;stroke:#154094;stroke-width:30;stroke-miterlimit:10;}
	.st2{fill:#154094;}
	.st3{fill:none;stroke:#154094;stroke-width:0.5;stroke-miterlimit:2.613;}
	.st4{fill:none;stroke:#154094;stroke-width:7;stroke-miterlimit:10;}
	.st5{fill:none;stroke:#FFE600;stroke-width:0.5;stroke-miterlimit:2.613;}
	.st6{fill-rule:evenodd;clip-rule:evenodd;fill:#154094;}
	.st7{fill:none;}
	.st8{fill:#FFE600;stroke:#154094;stroke-width:3;stroke-miterlimit:10;}
	.st9{fill:none;stroke:#154094;stroke-width:10;stroke-miterlimit:10;}
	.st10{fill:#FFE600;stroke:#154094;stroke-width:0.8;stroke-miterlimit:10;}
</style>
<rect x="-27.5" y="-29" class="st0" width="1676" height="1174"/>
<ellipse id="Ellipse_1" class="st2" cx="167.88" cy="140.13" rx="103.4" ry="78.38"/>
<ellipse id="Ellipse_2" class="st3" cx="167.88" cy="140.13" rx="103.4" ry="78.38"/>
<path class="st4" d="M-6.5,268c16.88-33.33,52.64-93.71,117.58-143.27c55-41.97,109.37-58.84,173.51-71.27
	C440.9,23.15,593.48,31.39,708.5,46.98"/>
<ellipse id="Ellipse_3" class="st0" cx="167.88" cy="140.52" rx="98.23" ry="73.54"/>
<ellipse id="Ellipse_4" class="st5" cx="167.88" cy="140.52" rx="98.23" ry="73.54"/>
<path id="Path_1" class="st3" d="M95.84,155.57l9.25-39.07h19.52l0.2,19.87l8.25-19.87h21.13l-11.27,46.7h-14.09l6.61-30.09
	l-11.44,30.09h-9.86l0.6-29.7l-6.44,29.9h-8.99c0,0,17.64,34.41,69.97,33.79s76.82-34.66,76.44-56.14c0,0,0.72-6.3-0.78-10.05
	l-13.88,0.04c0,0,2.21-7.78-1.31-6.96c0,0-2.82-1.43-4.12,5.43c0,0-2.21,1.43,5.83,5.12s11.87,6.25,11.67,11.67
	s-2.11,18.02-21.53,17.72s-16.4-10.75-16.4-10.75s-0.1-4.4,1.81-7.48h14.79c0,0-3.32,11.37,0.6,10.04s3.72-3.17,4.13-6.35
	s-5.94-5.53-11.87-8.91c-3.44-1.87-5.54-5.51-5.43-9.42c0,0,0.9-16.39,20.43-15.77c0,0,5.84-0.41,9.36,1.43
	c0,0-15.6-34.51-69.33-34.51s-70.42,32.98-70.42,32.98S85.37,139.44,95.84,155.57z"/>
<path id="Path_2" class="st6" d="M99.26,115.27c0,0,16.7-32.98,70.43-32.98c3.22,0,6.31,0.12,9.53,0.38
	c46.02,3.64,59.8,34.13,59.8,34.13c-3.52-1.84-9.36-1.43-9.36-1.43c-19.52-0.61-20.43,15.77-20.43,15.77c-0.1,3.91,2,7.55,5.43,9.42
	c5.94,3.38,12.28,5.73,11.87,8.91s-0.2,5.02-4.13,6.35s-0.6-10.04-0.6-10.04h-14.79c-1.91,3.07-1.81,7.48-1.81,7.48
	s-3.02,10.45,16.4,10.75s21.33-12.29,21.53-17.72s-3.62-7.99-11.67-11.67s-5.83-5.12-5.83-5.12c1.31-6.86,4.12-5.43,4.12-5.43
	c3.52-0.82,1.31,6.96,1.31,6.96l13.88-0.04c1.5,3.75,0.78,10.05,0.78,10.05c0.37,21.48-24.12,55.53-76.44,56.14
	S99.32,163.4,99.32,163.4h8.99l6.44-29.9l-0.6,29.7h9.86l11.44-30.09l-6.61,30.09h14.09l11.27-46.7h-21.14l-8.25,19.87l-0.2-19.87
	h-19.52l-9.25,39.07C85.37,139.44,99.26,115.27,99.26,115.27z M163.25,162.99l6.84-29.7l-1.41,29.9h10.26l12.08-29.9l-7.65,30.31
	h14.69l11.07-46.9H188l-8.25,19.66l0.6-19.87h-20.53l-10.46,46.26C151.88,162.76,163.25,162.99,163.25,162.99L163.25,162.99z"/>
<path id="Path_3" class="st7" d="M149.37,162.76l10.46-46.27h20.53l-0.6,19.87l8.25-19.66h21.13l-11.07,46.9h-14.69l7.65-30.31
	l-12.08,29.9h-10.26l1.41-29.9l-6.84,29.7C163.25,162.99,151.88,162.76,149.37,162.76z"/>
<g id="MINEAZY_MINING">
	<path class="st8" d="M305.14,149.62c-0.85,0-1.55-0.16-2.12-0.48c-0.57-0.32-0.7-0.79-0.4-1.43l11.25-24
		c0.53-1.14,1.27-1.94,2.2-2.4c0.93-0.46,1.82-0.69,2.67-0.69c0.82,0,1.48,0.06,2,0.18c0.51,0.12,0.92,0.4,1.21,0.83
		c0.29,0.44,0.51,1.13,0.64,2.08l1.17,7.14l7.86-7.14c1.06-0.95,1.93-1.65,2.62-2.08c0.69-0.44,1.34-0.71,1.97-0.83
		c0.63-0.12,1.35-0.18,2.16-0.18c0.88,0,1.56,0.23,2.04,0.69c0.48,0.46,0.46,1.26-0.07,2.4l-11.25,24c-0.3,0.63-0.88,1.11-1.74,1.43
		c-0.86,0.32-1.72,0.48-2.57,0.48c-0.85,0-1.55-0.16-2.12-0.48c-0.57-0.32-0.7-0.79-0.4-1.43l6.97-14.88l-7.26,6.51
		c-0.49,0.42-0.98,0.72-1.47,0.89c-0.49,0.17-0.94,0.26-1.35,0.26c-0.38,0-0.73-0.08-1.05-0.24c-0.32-0.16-0.51-0.46-0.56-0.91
		l-0.93-6.9l-7.16,15.27c-0.3,0.63-0.88,1.11-1.74,1.43C306.85,149.46,305.99,149.62,305.14,149.62z"/>
	<path class="st8" d="M336.33,149.62c-0.85,0-1.55-0.16-2.12-0.48c-0.57-0.32-0.7-0.79-0.4-1.43l11.83-25.23
		c0.31-0.66,0.89-1.14,1.74-1.43c0.85-0.29,1.7-0.44,2.55-0.44c0.85,0,1.56,0.15,2.14,0.44c0.58,0.29,0.71,0.77,0.4,1.43
		l-11.83,25.23c-0.3,0.63-0.88,1.11-1.74,1.43C338.04,149.46,337.18,149.62,336.33,149.62z"/>
	<path class="st8" d="M347.9,149.62c-0.85,0-1.55-0.16-2.12-0.48c-0.57-0.32-0.7-0.79-0.4-1.43l11.81-25.19
		c0.31-0.66,0.89-1.14,1.75-1.45c0.86-0.3,1.71-0.46,2.56-0.46c0.82,0,1.47,0.06,1.95,0.18c0.48,0.12,0.85,0.39,1.11,0.81
		c0.25,0.42,0.43,1.12,0.53,2.1l1.35,12.26l6.32-13.49c0.31-0.66,0.89-1.14,1.74-1.43c0.85-0.29,1.7-0.44,2.55-0.44
		c0.85,0,1.56,0.15,2.14,0.44c0.58,0.29,0.71,0.77,0.4,1.43l-11.83,25.23c-0.3,0.63-0.88,1.11-1.74,1.43
		c-0.86,0.32-1.72,0.48-2.57,0.48c-0.79,0-1.47-0.11-2.04-0.32c-0.57-0.21-0.9-0.66-0.99-1.35l-1.89-13.73l-6.32,13.49
		c-0.3,0.63-0.88,1.11-1.74,1.43C349.6,149.46,348.75,149.62,347.9,149.62z"/>
	<path class="st8" d="M374.58,149.62c-0.73,0-1.34-0.16-1.81-0.48c-0.48-0.32-0.57-0.79-0.27-1.43l11.81-25.19
		c0.3-0.63,0.83-1.11,1.61-1.43c0.78-0.32,1.53-0.48,2.26-0.48h15.6c0.73,0,1.12,0.28,1.18,0.85c0.05,0.57-0.07,1.17-0.36,1.81
		c-0.35,0.74-0.82,1.38-1.43,1.92c-0.6,0.54-1.24,0.81-1.91,0.81H389.5l-3.14,6.7h6.57c0.67,0,1.07,0.24,1.19,0.73
		c0.12,0.49,0.03,1.05-0.26,1.69c-0.25,0.53-0.65,1.05-1.22,1.57c-0.56,0.52-1.21,0.77-1.94,0.77h-6.57l-3.16,6.74h11.74
		c0.67,0,1.06,0.27,1.15,0.81c0.1,0.54-0.03,1.18-0.38,1.92c-0.3,0.63-0.74,1.24-1.33,1.8c-0.59,0.57-1.25,0.85-1.98,0.85H374.58z"
		/>
	<path class="st8" d="M397.4,149.62c-0.61,0-1.21-0.11-1.79-0.34c-0.58-0.22-1.02-0.53-1.3-0.91c-0.29-0.38-0.32-0.81-0.1-1.29
		c0.04-0.08,0.13-0.22,0.29-0.44l19.49-24.2c0.56-0.69,1.35-1.2,2.39-1.55c1.04-0.34,2.05-0.52,3.05-0.52
		c1.02,0,1.88,0.17,2.58,0.52c0.7,0.34,1.01,0.86,0.92,1.55l-3.15,24.2c-0.04,0.21-0.08,0.36-0.12,0.44
		c-0.22,0.48-0.66,0.91-1.3,1.29c-0.65,0.38-1.36,0.69-2.14,0.91c-0.78,0.23-1.49,0.34-2.13,0.34c-0.56,0-0.99-0.09-1.3-0.26
		c-0.31-0.17-0.44-0.47-0.39-0.89l0.84-4.96h-9.24l-3.81,4.96c-0.32,0.42-0.72,0.72-1.21,0.89
		C398.48,149.53,397.96,149.62,397.4,149.62z"/>
	<polygon class="st8" points="407.62,138.75 414.02,138.75 415.8,128.12 	"/>
	<path class="st8" d="M421.01,149.62c-0.7,0-1.13-0.15-1.3-0.46c-0.16-0.3-0.13-0.69,0.09-1.17c0.32-0.69,0.91-1.41,1.77-2.18
		l21.63-19.8h-10.16c-0.64,0-1.02-0.27-1.13-0.81c-0.11-0.54,0-1.17,0.34-1.88c0.31-0.66,0.76-1.28,1.35-1.84
		c0.59-0.57,1.25-0.85,1.98-0.85h16.91c0.67,0,1.1,0.15,1.28,0.46c0.18,0.3,0.16,0.69-0.07,1.17c-0.3,0.63-0.89,1.36-1.77,2.18
		l-21.63,19.8h11.92c0.67,0,1.05,0.29,1.12,0.87c0.08,0.58-0.03,1.19-0.33,1.82c-0.3,0.63-0.76,1.24-1.38,1.82
		c-0.62,0.58-1.27,0.87-1.94,0.87H421.01z"/>
	<path class="st8" d="M455.05,149.62c-0.85,0-1.55-0.16-2.12-0.48c-0.57-0.32-0.7-0.79-0.4-1.43l4.67-9.96
		c0.1-0.21,0.13-0.4,0.09-0.56l-2.69-13.61c0.01-0.08,0.02-0.16,0.05-0.24c0.02-0.08,0.05-0.14,0.07-0.2
		c0.24-0.5,0.7-0.94,1.38-1.31c0.68-0.37,1.44-0.67,2.28-0.89c0.83-0.22,1.56-0.34,2.17-0.34c0.55,0,0.92,0.1,1.09,0.3
		c0.17,0.2,0.28,0.48,0.34,0.85l1.35,10.2l10.87-10.2c0.41-0.37,0.79-0.65,1.14-0.85c0.36-0.2,0.81-0.3,1.37-0.3
		c0.64,0,1.27,0.11,1.88,0.34c0.61,0.23,1.08,0.52,1.42,0.89c0.34,0.37,0.39,0.81,0.15,1.31c-0.02,0.05-0.06,0.12-0.09,0.2
		c-0.04,0.08-0.1,0.16-0.2,0.24l-15.4,13.61c-0.19,0.16-0.34,0.34-0.44,0.56l-4.67,9.96c-0.3,0.63-0.88,1.11-1.74,1.43
		C456.76,149.46,455.9,149.62,455.05,149.62z"/>
	<path class="st8" d="M482.52,149.62c-0.85,0-1.55-0.16-2.12-0.48c-0.57-0.32-0.7-0.79-0.4-1.43l11.25-24
		c0.53-1.14,1.27-1.94,2.2-2.4c0.93-0.46,1.82-0.69,2.67-0.69c0.82,0,1.48,0.06,2,0.18c0.51,0.12,0.92,0.4,1.21,0.83
		c0.29,0.44,0.51,1.13,0.64,2.08l1.17,7.14l7.86-7.14c1.06-0.95,1.93-1.65,2.62-2.08c0.69-0.44,1.34-0.71,1.97-0.83
		c0.63-0.12,1.35-0.18,2.16-0.18c0.88,0,1.56,0.23,2.04,0.69c0.48,0.46,0.46,1.26-0.07,2.4l-11.25,24c-0.3,0.63-0.88,1.11-1.74,1.43
		c-0.87,0.32-1.72,0.48-2.57,0.48s-1.55-0.16-2.12-0.48c-0.57-0.32-0.7-0.79-0.4-1.43l6.97-14.88l-7.26,6.51
		c-0.49,0.42-0.98,0.72-1.47,0.89c-0.49,0.17-0.94,0.26-1.35,0.26c-0.38,0-0.73-0.08-1.05-0.24c-0.32-0.16-0.51-0.46-0.56-0.91
		l-0.93-6.9l-7.16,15.27c-0.3,0.63-0.88,1.11-1.74,1.43C484.22,149.46,483.37,149.62,482.52,149.62z"/>
	<path class="st8" d="M513.71,149.62c-0.85,0-1.55-0.16-2.12-0.48c-0.57-0.32-0.7-0.79-0.4-1.43l11.83-25.23
		c0.31-0.66,0.89-1.14,1.74-1.43c0.85-0.29,1.7-0.44,2.55-0.44c0.85,0,1.56,0.15,2.14,0.44c0.58,0.29,0.71,0.77,0.4,1.43
		l-11.83,25.23c-0.3,0.63-0.88,1.11-1.74,1.43C515.41,149.46,514.56,149.62,513.71,149.62z"/>
	<path class="st8" d="M525.28,149.62c-0.85,0-1.55-0.16-2.12-0.48c-0.57-0.32-0.7-0.79-0.4-1.43l11.81-25.19
		c0.31-0.66,0.89-1.14,1.75-1.45c0.86-0.3,1.71-0.46,2.56-0.46c0.82,0,1.47,0.06,1.95,0.18c0.48,0.12,0.85,0.39,1.11,0.81
		c0.25,0.42,0.43,1.12,0.53,2.1l1.35,12.26l6.32-13.49c0.31-0.66,0.89-1.14,1.74-1.43c0.85-0.29,1.7-0.44,2.55-0.44
		s1.56,0.15,2.14,0.44c0.58,0.29,0.71,0.77,0.4,1.43l-11.83,25.23c-0.3,0.63-0.88,1.11-1.74,1.43c-0.86,0.32-1.72,0.48-2.57,0.48
		c-0.79,0-1.47-0.11-2.04-0.32c-0.57-0.21-0.9-0.66-0.99-1.35l-1.89-13.73l-6.32,13.49c-0.3,0.63-0.88,1.11-1.74,1.43
		C526.98,149.46,526.13,149.62,525.28,149.62z"/>
	<path class="st8" d="M552.4,149.62c-0.85,0-1.55-0.16-2.12-0.48c-0.57-0.32-0.7-0.79-0.4-1.43l11.83-25.23
		c0.31-0.66,0.89-1.14,1.74-1.43c0.85-0.29,1.7-0.44,2.55-0.44c0.85,0,1.56,0.15,2.14,0.44c0.58,0.29,0.71,0.77,0.4,1.43
		l-11.83,25.23c-0.3,0.63-0.88,1.11-1.74,1.43C554.1,149.46,553.24,149.62,552.4,149.62z"/>
	<path class="st8" d="M563.96,149.62c-0.85,0-1.55-0.16-2.12-0.48c-0.57-0.32-0.7-0.79-0.4-1.43l11.81-25.19
		c0.31-0.66,0.89-1.14,1.75-1.45c0.86-0.3,1.71-0.46,2.56-0.46c0.82,0,1.47,0.06,1.95,0.18c0.48,0.12,0.85,0.39,1.11,0.81
		c0.25,0.42,0.43,1.12,0.53,2.1l1.35,12.26l6.32-13.49c0.31-0.66,0.89-1.14,1.74-1.43c0.85-0.29,1.7-0.44,2.55-0.44
		s1.56,0.15,2.14,0.44c0.58,0.29,0.71,0.77,0.4,1.43l-11.83,25.23c-0.3,0.63-0.88,1.11-1.74,1.43c-0.86,0.32-1.72,0.48-2.57,0.48
		c-0.79,0-1.47-0.11-2.04-0.32c-0.57-0.21-0.9-0.66-0.99-1.35l-1.89-13.73l-6.32,13.49c-0.3,0.63-0.88,1.11-1.74,1.43
		C565.66,149.46,564.81,149.62,563.96,149.62z"/>
	<path class="st8" d="M597.93,149.86c-2.02,0-3.69-0.3-5.03-0.91c-1.34-0.61-2.16-1.6-2.46-2.98c-0.31-1.37,0.08-3.2,1.14-5.47
		l4.93-10.51c1.07-2.27,2.4-4.1,3.99-5.47c1.59-1.37,3.34-2.37,5.23-2.98c1.89-0.61,3.79-0.91,5.68-0.91c2.1,0,3.83,0.31,5.19,0.93
		c1.36,0.62,2.25,1.51,2.67,2.68c0.42,1.16,0.23,2.59-0.56,4.28c-0.56,1.19-1.2,1.98-1.94,2.36c-0.74,0.38-1.69,0.58-2.85,0.58
		c-0.91,0-1.63-0.13-2.18-0.4c-0.55-0.26-0.67-0.75-0.36-1.47c0.22-0.48,0.4-0.99,0.53-1.55c0.13-0.56,0.02-1.03-0.34-1.43
		c-0.36-0.4-1.16-0.6-2.42-0.6c-1.26,0-2.38,0.32-3.37,0.97c-0.99,0.65-1.8,1.65-2.43,3l-4.93,10.51c-0.63,1.35-0.76,2.35-0.37,3
		c0.38,0.65,1.19,0.97,2.41,0.97c1.23,0,2.34-0.32,3.35-0.97c1-0.65,1.82-1.65,2.46-3l0.63-1.35h-2.58c-0.64,0-1.03-0.24-1.17-0.73
		c-0.14-0.49-0.06-1.04,0.22-1.65c0.27-0.58,0.71-1.12,1.31-1.63c0.6-0.5,1.22-0.75,1.86-0.75h7.36c0.67,0,1.09,0.19,1.26,0.58
		c0.17,0.38,0.13,0.84-0.12,1.37l-1.95,4.17c-1.07,2.27-2.4,4.1-3.99,5.47c-1.59,1.38-3.35,2.37-5.27,2.98
		C601.91,149.55,599.95,149.86,597.93,149.86z"/>
</g>
<g>
	<g>
		<path class="st2" d="M312.99,117.72c-0.44,0-0.83-0.07-1.19-0.21s-0.63-0.34-0.83-0.6s-0.31-0.58-0.31-0.95
			c0-0.25,0.06-0.42,0.18-0.5c0.12-0.08,0.3-0.12,0.55-0.12c0.19,0,0.35,0.03,0.49,0.08s0.21,0.16,0.23,0.31
			c0.01,0.11,0.03,0.23,0.06,0.36c0.03,0.13,0.1,0.25,0.21,0.34s0.29,0.14,0.54,0.14c0.27,0,0.48-0.07,0.63-0.21
			c0.15-0.14,0.22-0.35,0.22-0.63v-3.07h-0.81c-0.14,0-0.24-0.06-0.32-0.17c-0.08-0.11-0.12-0.25-0.12-0.41
			c0-0.13,0.03-0.26,0.1-0.38c0.07-0.12,0.18-0.18,0.33-0.18h1.62c0.16,0,0.31,0.03,0.44,0.1c0.13,0.07,0.19,0.17,0.19,0.3v3.81
			c0,0.48-0.1,0.87-0.3,1.16c-0.2,0.29-0.47,0.5-0.81,0.63C313.77,117.66,313.4,117.72,312.99,117.72z"/>
		<path class="st2" d="M318.39,117.72c-0.43,0-0.81-0.06-1.16-0.19s-0.62-0.34-0.82-0.63c-0.2-0.29-0.3-0.68-0.3-1.16v-2.23
			c0-0.48,0.1-0.87,0.3-1.16c0.2-0.29,0.47-0.5,0.82-0.63s0.73-0.19,1.16-0.19s0.81,0.06,1.16,0.19c0.35,0.13,0.62,0.34,0.82,0.63
			c0.2,0.29,0.3,0.68,0.3,1.16v2.23c0,0.48-0.1,0.87-0.3,1.16c-0.2,0.29-0.47,0.5-0.82,0.63
			C319.2,117.66,318.82,117.72,318.39,117.72z M318.39,116.58c0.26,0,0.46-0.07,0.61-0.2c0.15-0.13,0.22-0.35,0.22-0.64v-2.23
			c0-0.29-0.07-0.5-0.22-0.64s-0.35-0.2-0.61-0.2s-0.46,0.07-0.61,0.2c-0.15,0.13-0.22,0.35-0.22,0.64v2.23
			c0,0.29,0.07,0.5,0.22,0.64C317.93,116.51,318.13,116.58,318.39,116.58z"/>
		<path class="st2" d="M322.06,117.67c-0.13,0-0.27-0.02-0.41-0.07c-0.15-0.05-0.27-0.11-0.37-0.19c-0.1-0.08-0.15-0.17-0.15-0.27
			c0-0.02,0.01-0.05,0.02-0.09l1.73-5.13c0.05-0.15,0.17-0.25,0.35-0.33c0.19-0.07,0.38-0.11,0.59-0.11c0.22,0,0.42,0.04,0.6,0.11
			c0.18,0.07,0.3,0.18,0.35,0.33l1.73,5.13c0.01,0.04,0.02,0.08,0.02,0.09c0,0.1-0.05,0.19-0.15,0.27c-0.1,0.08-0.22,0.15-0.36,0.19
			c-0.14,0.05-0.28,0.07-0.42,0.07c-0.12,0-0.22-0.02-0.3-0.05c-0.08-0.04-0.14-0.1-0.17-0.19l-0.32-1.05h-1.96l-0.32,1.05
			c-0.02,0.09-0.08,0.15-0.17,0.19C322.28,117.65,322.18,117.67,322.06,117.67z M323.15,115.37h1.35l-0.68-2.25L323.15,115.37z"/>
		<path class="st2" d="M328.97,117.76c-0.4,0-0.77-0.05-1.11-0.16c-0.34-0.11-0.61-0.24-0.82-0.41s-0.31-0.34-0.31-0.53
			c0-0.1,0.03-0.2,0.08-0.31c0.06-0.11,0.13-0.2,0.23-0.28c0.1-0.08,0.2-0.12,0.32-0.12c0.11,0,0.21,0.03,0.31,0.09
			c0.1,0.06,0.2,0.13,0.32,0.22c0.11,0.08,0.25,0.16,0.4,0.22c0.15,0.06,0.34,0.09,0.55,0.09c0.14,0,0.28-0.02,0.42-0.05
			c0.14-0.04,0.25-0.09,0.34-0.18c0.09-0.08,0.13-0.19,0.13-0.32c0-0.15-0.05-0.27-0.16-0.37c-0.11-0.1-0.25-0.2-0.42-0.28
			s-0.37-0.17-0.58-0.26c-0.21-0.09-0.42-0.18-0.63-0.29c-0.21-0.1-0.4-0.23-0.58-0.37c-0.18-0.14-0.32-0.31-0.42-0.52
			c-0.11-0.2-0.16-0.44-0.16-0.72c0-0.31,0.07-0.58,0.2-0.8c0.14-0.22,0.32-0.4,0.55-0.54c0.23-0.14,0.48-0.24,0.77-0.3
			c0.28-0.06,0.57-0.1,0.86-0.1c0.12,0,0.29,0.01,0.49,0.02c0.2,0.02,0.41,0.05,0.62,0.1c0.21,0.05,0.38,0.12,0.52,0.22
			c0.14,0.1,0.21,0.23,0.21,0.39c0,0.07-0.02,0.16-0.06,0.27c-0.04,0.11-0.1,0.21-0.19,0.29s-0.19,0.13-0.33,0.13
			c-0.11,0-0.21-0.03-0.31-0.08c-0.1-0.05-0.22-0.11-0.36-0.16c-0.15-0.05-0.34-0.08-0.6-0.08c-0.22,0-0.39,0.02-0.53,0.07
			c-0.14,0.05-0.24,0.11-0.3,0.19c-0.06,0.08-0.09,0.16-0.09,0.25c0,0.12,0.05,0.22,0.16,0.31c0.1,0.09,0.25,0.17,0.42,0.24
			s0.37,0.15,0.58,0.24c0.21,0.08,0.42,0.18,0.63,0.29c0.21,0.11,0.4,0.24,0.58,0.39s0.32,0.34,0.42,0.55
			c0.1,0.22,0.16,0.48,0.16,0.78c0,0.4-0.1,0.74-0.3,1.02c-0.2,0.28-0.47,0.49-0.82,0.63C329.82,117.69,329.43,117.76,328.97,117.76
			z"/>
		<path class="st2" d="M332.73,117.67c-0.18,0-0.34-0.03-0.5-0.1c-0.15-0.07-0.23-0.17-0.23-0.3v-5.34c0-0.14,0.08-0.24,0.23-0.3
			c0.15-0.06,0.32-0.09,0.5-0.09c0.18,0,0.34,0.03,0.5,0.09c0.15,0.06,0.23,0.16,0.23,0.3v2.06h1.85v-2.06
			c0-0.14,0.08-0.24,0.23-0.3c0.15-0.06,0.32-0.09,0.5-0.09c0.18,0,0.34,0.03,0.5,0.09c0.15,0.06,0.23,0.16,0.23,0.3v5.34
			c0,0.13-0.08,0.24-0.23,0.3c-0.15,0.07-0.32,0.1-0.5,0.1c-0.18,0-0.34-0.03-0.5-0.1c-0.15-0.07-0.23-0.17-0.23-0.3v-2.28h-1.85
			v2.28c0,0.13-0.08,0.24-0.23,0.3C333.08,117.64,332.91,117.67,332.73,117.67z"/>
		<path class="st2" d="M338.38,117.67c-0.15,0-0.3-0.03-0.43-0.1c-0.13-0.07-0.2-0.17-0.2-0.3v-5.33c0-0.13,0.07-0.24,0.2-0.3
			c0.13-0.07,0.28-0.1,0.43-0.1h3.3c0.15,0,0.27,0.06,0.33,0.18c0.07,0.12,0.1,0.25,0.1,0.38c0,0.16-0.04,0.29-0.11,0.41
			s-0.18,0.17-0.32,0.17h-2.49v1.42h1.39c0.14,0,0.25,0.05,0.32,0.16s0.11,0.22,0.11,0.36c0,0.11-0.03,0.22-0.1,0.33
			c-0.07,0.11-0.18,0.16-0.33,0.16h-1.39v1.43h2.49c0.14,0,0.25,0.06,0.32,0.17s0.11,0.25,0.11,0.41c0,0.13-0.03,0.26-0.1,0.38
			c-0.07,0.12-0.18,0.18-0.33,0.18H338.38z"/>
		<path class="st2" d="M343.47,117.67c-0.18,0-0.34-0.03-0.5-0.1c-0.15-0.07-0.23-0.17-0.23-0.3v-5.33c0-0.14,0.08-0.24,0.23-0.31
			c0.15-0.06,0.32-0.1,0.5-0.1c0.17,0,0.32,0.01,0.43,0.04c0.11,0.03,0.22,0.08,0.32,0.17c0.1,0.09,0.2,0.24,0.32,0.45l1.5,2.6
			v-2.86c0-0.14,0.08-0.24,0.23-0.3c0.15-0.06,0.32-0.09,0.5-0.09c0.18,0,0.34,0.03,0.5,0.09c0.15,0.06,0.23,0.16,0.23,0.3v5.34
			c0,0.13-0.08,0.24-0.23,0.3c-0.15,0.07-0.32,0.1-0.5,0.1c-0.17,0-0.32-0.02-0.46-0.07c-0.14-0.04-0.26-0.14-0.34-0.29l-1.76-2.91
			v2.86c0,0.13-0.08,0.24-0.23,0.3C343.82,117.64,343.65,117.67,343.47,117.67z"/>
		<path class="st2" d="M350.35,117.67c-0.15,0-0.26-0.03-0.32-0.1s-0.1-0.15-0.1-0.25c0-0.15,0.05-0.3,0.16-0.46l2.62-4.19h-2.15
			c-0.14,0-0.24-0.06-0.32-0.17c-0.08-0.11-0.12-0.25-0.12-0.4c0-0.14,0.03-0.27,0.1-0.39c0.07-0.12,0.18-0.18,0.33-0.18h3.58
			c0.14,0,0.25,0.03,0.32,0.1c0.07,0.06,0.1,0.15,0.1,0.25c0,0.13-0.05,0.29-0.16,0.46l-2.62,4.19h2.52c0.14,0,0.25,0.06,0.32,0.19
			c0.07,0.12,0.11,0.25,0.11,0.39s-0.04,0.26-0.11,0.39c-0.07,0.12-0.18,0.19-0.32,0.19H350.35z"/>
		<path class="st2" d="M357.9,117.67c-0.18,0-0.34-0.03-0.5-0.1c-0.15-0.07-0.23-0.17-0.23-0.3v-5.34c0-0.14,0.08-0.24,0.23-0.3
			c0.15-0.06,0.32-0.09,0.5-0.09c0.18,0,0.34,0.03,0.5,0.09c0.15,0.06,0.23,0.16,0.23,0.3v5.34c0,0.13-0.08,0.24-0.23,0.3
			C358.24,117.64,358.08,117.67,357.9,117.67z"/>
		<path class="st2" d="M360.35,117.67c-0.18,0-0.34-0.03-0.5-0.1c-0.15-0.07-0.23-0.17-0.23-0.3v-5.33c0-0.14,0.08-0.24,0.23-0.31
			c0.15-0.06,0.32-0.1,0.5-0.1c0.17,0,0.32,0.01,0.43,0.04c0.11,0.03,0.22,0.08,0.32,0.17c0.1,0.09,0.2,0.24,0.32,0.45l1.5,2.6
			v-2.86c0-0.14,0.08-0.24,0.23-0.3c0.15-0.06,0.32-0.09,0.5-0.09c0.18,0,0.34,0.03,0.5,0.09c0.15,0.06,0.23,0.16,0.23,0.3v5.34
			c0,0.13-0.08,0.24-0.23,0.3c-0.15,0.07-0.32,0.1-0.5,0.1c-0.17,0-0.32-0.02-0.46-0.07c-0.14-0.04-0.26-0.14-0.34-0.29l-1.76-2.91
			v2.86c0,0.13-0.08,0.24-0.23,0.3C360.69,117.64,360.53,117.67,360.35,117.67z"/>
		<path class="st2" d="M367.6,117.72c-0.21,0-0.41-0.04-0.59-0.11c-0.19-0.07-0.3-0.18-0.35-0.33l-1.73-5.13
			c-0.01-0.04-0.02-0.08-0.02-0.09c0-0.11,0.05-0.2,0.15-0.28c0.1-0.08,0.22-0.14,0.37-0.19c0.15-0.05,0.28-0.07,0.41-0.07
			c0.12,0,0.22,0.02,0.31,0.05c0.09,0.04,0.14,0.1,0.17,0.19l1.3,4.31l1.29-4.31c0.03-0.09,0.09-0.15,0.17-0.19s0.18-0.05,0.3-0.05
			c0.14,0,0.27,0.02,0.42,0.07c0.14,0.05,0.26,0.11,0.36,0.19c0.1,0.08,0.15,0.17,0.15,0.28c0,0.01,0,0.03,0,0.04
			c0,0.02-0.01,0.03-0.01,0.05l-1.73,5.13c-0.05,0.15-0.17,0.25-0.35,0.33C368.02,117.69,367.82,117.72,367.6,117.72z"/>
		<path class="st2" d="M371.46,117.67c-0.15,0-0.3-0.03-0.43-0.1c-0.13-0.07-0.2-0.17-0.2-0.3v-5.33c0-0.13,0.07-0.24,0.2-0.3
			c0.13-0.07,0.28-0.1,0.43-0.1h3.3c0.15,0,0.27,0.06,0.33,0.18c0.07,0.12,0.1,0.25,0.1,0.38c0,0.16-0.04,0.29-0.11,0.41
			s-0.18,0.17-0.32,0.17h-2.49v1.42h1.39c0.14,0,0.25,0.05,0.32,0.16s0.11,0.22,0.11,0.36c0,0.11-0.03,0.22-0.1,0.33
			c-0.07,0.11-0.18,0.16-0.33,0.16h-1.39v1.43h2.49c0.14,0,0.25,0.06,0.32,0.17s0.11,0.25,0.11,0.41c0,0.13-0.03,0.26-0.1,0.38
			c-0.07,0.12-0.18,0.18-0.33,0.18H371.46z"/>
		<path class="st2" d="M377.74,117.76c-0.4,0-0.77-0.05-1.11-0.16c-0.34-0.11-0.61-0.24-0.82-0.41s-0.31-0.34-0.31-0.53
			c0-0.1,0.03-0.2,0.08-0.31c0.06-0.11,0.13-0.2,0.23-0.28c0.1-0.08,0.2-0.12,0.32-0.12c0.11,0,0.21,0.03,0.31,0.09
			c0.1,0.06,0.2,0.13,0.32,0.22c0.11,0.08,0.25,0.16,0.4,0.22c0.15,0.06,0.34,0.09,0.55,0.09c0.14,0,0.28-0.02,0.42-0.05
			c0.14-0.04,0.25-0.09,0.34-0.18c0.09-0.08,0.13-0.19,0.13-0.32c0-0.15-0.05-0.27-0.16-0.37c-0.11-0.1-0.25-0.2-0.42-0.28
			s-0.37-0.17-0.58-0.26c-0.21-0.09-0.42-0.18-0.63-0.29c-0.21-0.1-0.4-0.23-0.58-0.37c-0.18-0.14-0.32-0.31-0.42-0.52
			c-0.11-0.2-0.16-0.44-0.16-0.72c0-0.31,0.07-0.58,0.2-0.8c0.14-0.22,0.32-0.4,0.55-0.54c0.23-0.14,0.48-0.24,0.77-0.3
			c0.28-0.06,0.57-0.1,0.86-0.1c0.12,0,0.29,0.01,0.49,0.02c0.2,0.02,0.41,0.05,0.62,0.1c0.21,0.05,0.38,0.12,0.52,0.22
			c0.14,0.1,0.21,0.23,0.21,0.39c0,0.07-0.02,0.16-0.06,0.27c-0.04,0.11-0.1,0.21-0.19,0.29s-0.19,0.13-0.33,0.13
			c-0.11,0-0.21-0.03-0.31-0.08c-0.1-0.05-0.22-0.11-0.36-0.16c-0.15-0.05-0.34-0.08-0.6-0.08c-0.22,0-0.39,0.02-0.53,0.07
			c-0.14,0.05-0.24,0.11-0.3,0.19c-0.06,0.08-0.09,0.16-0.09,0.25c0,0.12,0.05,0.22,0.16,0.31c0.1,0.09,0.25,0.17,0.42,0.24
			s0.37,0.15,0.58,0.24c0.21,0.08,0.42,0.18,0.63,0.29c0.21,0.11,0.4,0.24,0.58,0.39s0.32,0.34,0.42,0.55
			c0.1,0.22,0.16,0.48,0.16,0.78c0,0.4-0.1,0.74-0.3,1.02c-0.2,0.28-0.47,0.49-0.82,0.63C378.59,117.69,378.19,117.76,377.74,117.76
			z"/>
		<path class="st2" d="M382.79,117.67c-0.18,0-0.34-0.03-0.5-0.1c-0.15-0.07-0.23-0.17-0.23-0.3v-4.56h-1.28
			c-0.14,0-0.24-0.06-0.32-0.18c-0.08-0.12-0.12-0.26-0.12-0.42c0-0.14,0.03-0.27,0.1-0.39c0.07-0.12,0.18-0.19,0.33-0.19h4.01
			c0.15,0,0.27,0.06,0.33,0.19c0.07,0.12,0.1,0.25,0.1,0.39c0,0.16-0.04,0.3-0.11,0.42s-0.18,0.18-0.32,0.18h-1.28v4.56
			c0,0.13-0.08,0.24-0.23,0.3C383.13,117.64,382.97,117.67,382.79,117.67z"/>
		<path class="st2" d="M386.53,117.67c-0.18,0-0.34-0.03-0.5-0.1c-0.15-0.07-0.23-0.17-0.23-0.3v-5.08c0-0.24,0.08-0.41,0.23-0.51
			c0.15-0.1,0.32-0.15,0.5-0.15c0.17,0,0.32,0.01,0.44,0.04c0.12,0.03,0.23,0.08,0.34,0.18c0.1,0.09,0.22,0.24,0.34,0.44l0.96,1.51
			l0.96-1.51c0.13-0.2,0.25-0.35,0.35-0.44c0.1-0.09,0.21-0.15,0.33-0.18c0.12-0.02,0.27-0.04,0.44-0.04c0.19,0,0.35,0.05,0.5,0.15
			c0.15,0.1,0.22,0.27,0.22,0.51v5.08c0,0.13-0.08,0.24-0.23,0.3c-0.15,0.07-0.32,0.1-0.5,0.1c-0.18,0-0.34-0.03-0.5-0.1
			c-0.15-0.07-0.23-0.17-0.23-0.3v-3.15l-0.89,1.38c-0.06,0.09-0.14,0.15-0.22,0.19c-0.09,0.04-0.17,0.05-0.26,0.05
			c-0.08,0-0.16-0.02-0.25-0.05c-0.08-0.03-0.15-0.1-0.21-0.19l-0.88-1.46v3.23c0,0.13-0.08,0.24-0.23,0.3
			C386.87,117.64,386.71,117.67,386.53,117.67z"/>
		<path class="st2" d="M393.04,117.67c-0.15,0-0.3-0.03-0.43-0.1c-0.13-0.07-0.2-0.17-0.2-0.3v-5.33c0-0.13,0.07-0.24,0.2-0.3
			c0.13-0.07,0.28-0.1,0.43-0.1h3.3c0.15,0,0.27,0.06,0.33,0.18c0.07,0.12,0.1,0.25,0.1,0.38c0,0.16-0.04,0.29-0.11,0.41
			s-0.18,0.17-0.32,0.17h-2.49v1.42h1.39c0.14,0,0.25,0.05,0.32,0.16s0.11,0.22,0.11,0.36c0,0.11-0.03,0.22-0.1,0.33
			c-0.07,0.11-0.18,0.16-0.33,0.16h-1.39v1.43h2.49c0.14,0,0.25,0.06,0.32,0.17s0.11,0.25,0.11,0.41c0,0.13-0.03,0.26-0.1,0.38
			c-0.07,0.12-0.18,0.18-0.33,0.18H393.04z"/>
		<path class="st2" d="M398.13,117.67c-0.18,0-0.34-0.03-0.5-0.1c-0.15-0.07-0.23-0.17-0.23-0.3v-5.33c0-0.14,0.08-0.24,0.23-0.31
			c0.15-0.06,0.32-0.1,0.5-0.1c0.17,0,0.32,0.01,0.43,0.04c0.11,0.03,0.22,0.08,0.32,0.17c0.1,0.09,0.2,0.24,0.32,0.45l1.5,2.6
			v-2.86c0-0.14,0.08-0.24,0.23-0.3c0.15-0.06,0.32-0.09,0.5-0.09c0.18,0,0.34,0.03,0.5,0.09c0.15,0.06,0.23,0.16,0.23,0.3v5.34
			c0,0.13-0.08,0.24-0.23,0.3c-0.15,0.07-0.32,0.1-0.5,0.1c-0.17,0-0.32-0.02-0.46-0.07c-0.14-0.04-0.26-0.14-0.34-0.29l-1.76-2.91
			v2.86c0,0.13-0.08,0.24-0.23,0.3C398.48,117.64,398.31,117.67,398.13,117.67z"/>
		<path class="st2" d="M405.17,117.67c-0.18,0-0.34-0.03-0.5-0.1c-0.15-0.07-0.23-0.17-0.23-0.3v-4.56h-1.28
			c-0.14,0-0.24-0.06-0.32-0.18c-0.08-0.12-0.12-0.26-0.12-0.42c0-0.14,0.03-0.27,0.1-0.39c0.07-0.12,0.18-0.19,0.33-0.19h4.01
			c0.15,0,0.27,0.06,0.33,0.19c0.07,0.12,0.1,0.25,0.1,0.39c0,0.16-0.04,0.3-0.11,0.42s-0.18,0.18-0.32,0.18h-1.28v4.56
			c0,0.13-0.08,0.24-0.23,0.3C405.51,117.64,405.35,117.67,405.17,117.67z"/>
		<path class="st2" d="M410.76,117.67c-0.18,0-0.34-0.03-0.5-0.1c-0.15-0.07-0.23-0.17-0.23-0.3v-5.34c0-0.11,0.05-0.2,0.15-0.28
			c0.1-0.08,0.23-0.12,0.39-0.12h1.92c0.41,0,0.78,0.06,1.11,0.19c0.33,0.13,0.59,0.33,0.79,0.61s0.29,0.66,0.29,1.13v0.04
			c0,0.47-0.1,0.85-0.3,1.13c-0.2,0.29-0.47,0.49-0.82,0.62c-0.35,0.13-0.73,0.19-1.16,0.19h-0.92v1.81c0,0.13-0.08,0.24-0.23,0.3
			C411.1,117.64,410.94,117.67,410.76,117.67z M411.48,114.45h0.92c0.26,0,0.46-0.07,0.61-0.21s0.22-0.35,0.22-0.63v-0.09
			c0-0.29-0.07-0.5-0.22-0.63c-0.15-0.14-0.35-0.21-0.61-0.21h-0.92V114.45z"/>
		<path class="st2" d="M416.04,117.67c-0.18,0-0.34-0.03-0.5-0.1c-0.15-0.07-0.23-0.17-0.23-0.3v-5.34c0-0.14,0.08-0.24,0.23-0.3
			c0.15-0.06,0.32-0.09,0.5-0.09c0.18,0,0.34,0.03,0.5,0.09c0.15,0.06,0.23,0.16,0.23,0.3v5.34c0,0.13-0.08,0.24-0.23,0.3
			C416.38,117.64,416.22,117.67,416.04,117.67z"/>
		<path class="st2" d="M421.63,117.67c-0.18,0-0.34-0.03-0.5-0.1c-0.15-0.07-0.23-0.17-0.23-0.3v-4.56h-1.28
			c-0.14,0-0.24-0.06-0.32-0.18c-0.08-0.12-0.12-0.26-0.12-0.42c0-0.14,0.03-0.27,0.1-0.39c0.07-0.12,0.18-0.19,0.33-0.19h4.01
			c0.15,0,0.27,0.06,0.33,0.19c0.07,0.12,0.1,0.25,0.1,0.39c0,0.16-0.04,0.3-0.11,0.42s-0.18,0.18-0.32,0.18h-1.28v4.56
			c0,0.13-0.08,0.24-0.23,0.3C421.98,117.64,421.81,117.67,421.63,117.67z"/>
		<path class="st2" d="M424.82,118.06c-0.15,0-0.28-0.05-0.38-0.14c-0.1-0.1-0.14-0.2-0.14-0.3c0-0.05,0.02-0.1,0.05-0.16l3.26-6.06
			c0.07-0.14,0.2-0.21,0.39-0.21c0.13,0,0.25,0.04,0.37,0.12c0.12,0.08,0.18,0.19,0.18,0.32c0,0.06-0.01,0.12-0.04,0.16l-3.27,6.06
			c-0.03,0.06-0.09,0.11-0.17,0.15C424.99,118.04,424.91,118.06,424.82,118.06z"/>
		<path class="st2" d="M429.67,117.67c-0.13,0-0.27-0.02-0.41-0.07c-0.15-0.05-0.27-0.11-0.37-0.19c-0.1-0.08-0.15-0.17-0.15-0.27
			c0-0.02,0.01-0.05,0.02-0.09l1.73-5.13c0.05-0.15,0.17-0.25,0.35-0.33c0.19-0.07,0.38-0.11,0.59-0.11c0.22,0,0.42,0.04,0.6,0.11
			c0.18,0.07,0.3,0.18,0.35,0.33l1.73,5.13c0.01,0.04,0.02,0.08,0.02,0.09c0,0.1-0.05,0.19-0.15,0.27c-0.1,0.08-0.22,0.15-0.36,0.19
			c-0.14,0.05-0.28,0.07-0.42,0.07c-0.12,0-0.22-0.02-0.3-0.05c-0.08-0.04-0.14-0.1-0.17-0.19l-0.32-1.05h-1.96l-0.32,1.05
			c-0.02,0.09-0.08,0.15-0.17,0.19C429.89,117.65,429.78,117.67,429.67,117.67z M430.75,115.37h1.35l-0.68-2.25L430.75,115.37z"/>
	</g>
</g>
<g>
	<path class="st2" d="M483.28,163.37c-0.56,0-1.06-0.09-1.51-0.26c-0.45-0.17-0.81-0.39-1.07-0.65s-0.39-0.52-0.39-0.78
		c0-0.13,0.03-0.27,0.1-0.42c0.06-0.15,0.15-0.28,0.26-0.38c0.11-0.1,0.24-0.16,0.37-0.16c0.14,0,0.27,0.05,0.39,0.16
		c0.12,0.1,0.26,0.23,0.41,0.37c0.15,0.14,0.34,0.26,0.57,0.37c0.22,0.1,0.5,0.16,0.82,0.16c0.26,0,0.5-0.04,0.71-0.13
		c0.22-0.09,0.39-0.22,0.53-0.39c0.13-0.17,0.2-0.4,0.2-0.67c0-0.29-0.07-0.54-0.22-0.74c-0.15-0.2-0.34-0.37-0.59-0.52
		c-0.25-0.15-0.52-0.29-0.81-0.42c-0.29-0.14-0.59-0.28-0.88-0.44c-0.3-0.15-0.57-0.34-0.81-0.56c-0.24-0.22-0.44-0.49-0.59-0.81
		s-0.23-0.71-0.23-1.17c0-0.51,0.09-0.94,0.28-1.28c0.18-0.35,0.43-0.63,0.73-0.84c0.3-0.21,0.64-0.37,1.01-0.46
		c0.37-0.1,0.74-0.14,1.11-0.14c0.2,0,0.43,0.02,0.7,0.05c0.27,0.03,0.54,0.09,0.81,0.17c0.27,0.08,0.49,0.19,0.67,0.33
		c0.18,0.14,0.26,0.33,0.26,0.55c0,0.1-0.02,0.22-0.07,0.37c-0.05,0.15-0.12,0.28-0.22,0.4c-0.1,0.12-0.23,0.18-0.38,0.18
		c-0.14,0-0.27-0.04-0.41-0.13c-0.13-0.09-0.3-0.17-0.52-0.26c-0.21-0.09-0.5-0.13-0.86-0.13c-0.3,0-0.56,0.04-0.79,0.12
		c-0.22,0.08-0.39,0.2-0.5,0.35c-0.11,0.15-0.17,0.34-0.17,0.57c0,0.24,0.07,0.44,0.23,0.6c0.15,0.16,0.35,0.31,0.59,0.44
		c0.24,0.13,0.51,0.25,0.8,0.38c0.29,0.13,0.59,0.28,0.88,0.44c0.3,0.17,0.57,0.37,0.82,0.61c0.25,0.24,0.45,0.53,0.59,0.88
		c0.15,0.35,0.22,0.78,0.22,1.29c0,0.65-0.13,1.19-0.4,1.63c-0.27,0.44-0.63,0.77-1.09,1C484.4,163.26,483.87,163.37,483.28,163.37z
		"/>
	<path class="st2" d="M498.14,163.33c-0.57,0-1.08-0.1-1.53-0.31c-0.46-0.2-0.82-0.54-1.09-1c-0.27-0.46-0.41-1.07-0.41-1.84v-3.78
		c0-0.76,0.14-1.38,0.41-1.84c0.27-0.46,0.63-0.79,1.09-1c0.45-0.2,0.97-0.31,1.53-0.31c0.57,0,1.08,0.1,1.54,0.31
		c0.46,0.2,0.82,0.54,1.09,1c0.27,0.46,0.4,1.07,0.4,1.84v3.78c0,0.76-0.13,1.38-0.4,1.84c-0.27,0.46-0.63,0.79-1.09,1
		C499.21,163.22,498.7,163.33,498.14,163.33z M498.14,161.77c0.42,0,0.75-0.13,0.99-0.38c0.24-0.25,0.36-0.66,0.36-1.2v-3.78
		c0-0.55-0.12-0.95-0.36-1.2c-0.24-0.25-0.57-0.38-0.99-0.38s-0.75,0.13-0.98,0.38c-0.24,0.25-0.35,0.66-0.35,1.2v3.78
		c0,0.55,0.12,0.95,0.35,1.2C497.39,161.64,497.72,161.77,498.14,161.77z"/>
	<path class="st2" d="M511.06,163.24c-0.18,0-0.35-0.05-0.5-0.14c-0.15-0.1-0.23-0.24-0.23-0.43v-8.84c0-0.2,0.09-0.34,0.26-0.43
		c0.18-0.09,0.37-0.13,0.57-0.13c0.21,0,0.41,0.04,0.58,0.13c0.17,0.09,0.26,0.23,0.26,0.43v7.86h3.15c0.17,0,0.3,0.08,0.37,0.24
		c0.08,0.16,0.12,0.34,0.12,0.54c0,0.19-0.04,0.37-0.12,0.53c-0.08,0.16-0.2,0.25-0.37,0.25H511.06z"/>
	<path class="st2" d="M527.31,163.33c-0.57,0-1.09-0.1-1.56-0.31c-0.46-0.2-0.83-0.54-1.11-1c-0.27-0.46-0.41-1.07-0.41-1.84v-6.36
		c0-0.2,0.09-0.34,0.26-0.43c0.17-0.09,0.37-0.13,0.58-0.13c0.21,0,0.4,0.04,0.57,0.13c0.18,0.09,0.26,0.23,0.26,0.43v6.36
		c0,0.54,0.12,0.93,0.37,1.19c0.25,0.26,0.59,0.39,1.03,0.39c0.45,0,0.8-0.13,1.05-0.39c0.25-0.26,0.38-0.66,0.38-1.19v-6.36
		c0-0.2,0.09-0.34,0.26-0.43c0.17-0.09,0.36-0.13,0.58-0.13c0.21,0,0.4,0.04,0.57,0.13c0.18,0.09,0.26,0.23,0.26,0.43v6.36
		c0,0.76-0.14,1.38-0.41,1.84c-0.28,0.46-0.65,0.79-1.11,1C528.41,163.22,527.89,163.33,527.31,163.33z"/>
	<path class="st2" d="M542.24,163.24c-0.21,0-0.41-0.05-0.58-0.14s-0.26-0.24-0.26-0.43v-7.81h-1.89c-0.16,0-0.29-0.08-0.39-0.25
		c-0.09-0.16-0.14-0.35-0.14-0.56c0-0.19,0.04-0.37,0.13-0.54c0.09-0.17,0.22-0.25,0.4-0.25h5.44c0.19,0,0.32,0.08,0.41,0.25
		c0.08,0.17,0.12,0.35,0.12,0.54c0,0.21-0.05,0.4-0.14,0.56s-0.22,0.25-0.39,0.25h-1.88v7.81c0,0.19-0.09,0.33-0.26,0.43
		C542.64,163.2,542.44,163.24,542.24,163.24z"/>
	<path class="st2" d="M554.94,163.24c-0.21,0-0.41-0.05-0.59-0.14c-0.18-0.1-0.26-0.24-0.26-0.43v-8.84c0-0.2,0.09-0.34,0.26-0.43
		c0.18-0.09,0.37-0.13,0.59-0.13c0.21,0,0.39,0.04,0.57,0.13c0.17,0.09,0.26,0.23,0.26,0.43v8.84c0,0.19-0.09,0.33-0.26,0.43
		C555.34,163.2,555.15,163.24,554.94,163.24z"/>
	<path class="st2" d="M567.97,163.33c-0.57,0-1.08-0.1-1.53-0.31c-0.46-0.2-0.82-0.54-1.09-1c-0.27-0.46-0.41-1.07-0.41-1.84v-3.78
		c0-0.76,0.14-1.38,0.41-1.84c0.27-0.46,0.63-0.79,1.09-1c0.45-0.2,0.97-0.31,1.53-0.31c0.57,0,1.08,0.1,1.54,0.31
		c0.46,0.2,0.82,0.54,1.09,1c0.27,0.46,0.4,1.07,0.4,1.84v3.78c0,0.76-0.13,1.38-0.4,1.84c-0.27,0.46-0.63,0.79-1.09,1
		C569.05,163.22,568.54,163.33,567.97,163.33z M567.97,161.77c0.42,0,0.75-0.13,0.99-0.38c0.24-0.25,0.36-0.66,0.36-1.2v-3.78
		c0-0.55-0.12-0.95-0.36-1.2c-0.24-0.25-0.57-0.38-0.99-0.38c-0.42,0-0.75,0.13-0.98,0.38c-0.24,0.25-0.35,0.66-0.35,1.2v3.78
		c0,0.55,0.12,0.95,0.35,1.2C567.22,161.64,567.55,161.77,567.97,161.77z"/>
	<path class="st2" d="M581,163.24c-0.21,0-0.4-0.05-0.57-0.14c-0.18-0.1-0.26-0.24-0.26-0.43v-8.84c0-0.19,0.09-0.33,0.26-0.42
		c0.18-0.09,0.37-0.14,0.57-0.14s0.38,0.02,0.51,0.07c0.13,0.05,0.26,0.13,0.37,0.27c0.12,0.13,0.24,0.33,0.37,0.61l2.48,5.09v-5.47
		c0-0.2,0.09-0.34,0.26-0.43c0.18-0.09,0.37-0.13,0.57-0.13c0.21,0,0.41,0.04,0.58,0.13c0.17,0.09,0.26,0.23,0.26,0.43v8.84
		c0,0.19-0.09,0.33-0.26,0.43s-0.36,0.14-0.58,0.14c-0.2,0-0.38-0.04-0.55-0.12c-0.17-0.08-0.3-0.23-0.41-0.44l-2.78-5.49v5.47
		c0,0.19-0.09,0.33-0.26,0.43C581.41,163.2,581.21,163.24,581,163.24z"/>
	<path class="st2" d="M598.2,163.37c-0.56,0-1.06-0.09-1.51-0.26c-0.45-0.17-0.81-0.39-1.07-0.65s-0.39-0.52-0.39-0.78
		c0-0.13,0.03-0.27,0.1-0.42c0.06-0.15,0.15-0.28,0.26-0.38c0.11-0.1,0.24-0.16,0.37-0.16c0.14,0,0.27,0.05,0.39,0.16
		c0.12,0.1,0.26,0.23,0.41,0.37c0.15,0.14,0.34,0.26,0.57,0.37c0.22,0.1,0.5,0.16,0.82,0.16c0.26,0,0.5-0.04,0.71-0.13
		c0.22-0.09,0.39-0.22,0.53-0.39c0.13-0.17,0.2-0.4,0.2-0.67c0-0.29-0.07-0.54-0.22-0.74c-0.15-0.2-0.34-0.37-0.59-0.52
		c-0.25-0.15-0.52-0.29-0.81-0.42c-0.29-0.14-0.59-0.28-0.88-0.44s-0.57-0.34-0.81-0.56c-0.24-0.22-0.44-0.49-0.59-0.81
		s-0.23-0.71-0.23-1.17c0-0.51,0.09-0.94,0.28-1.28c0.18-0.35,0.43-0.63,0.73-0.84c0.3-0.21,0.64-0.37,1.01-0.46
		c0.37-0.1,0.74-0.14,1.11-0.14c0.2,0,0.43,0.02,0.7,0.05c0.27,0.03,0.54,0.09,0.81,0.17c0.27,0.08,0.49,0.19,0.67,0.33
		c0.18,0.14,0.26,0.33,0.26,0.55c0,0.1-0.02,0.22-0.07,0.37c-0.05,0.15-0.12,0.28-0.22,0.4c-0.1,0.12-0.23,0.18-0.38,0.18
		c-0.14,0-0.27-0.04-0.41-0.13c-0.13-0.09-0.3-0.17-0.52-0.26c-0.21-0.09-0.5-0.13-0.86-0.13c-0.3,0-0.56,0.04-0.79,0.12
		c-0.22,0.08-0.39,0.2-0.5,0.35c-0.11,0.15-0.17,0.34-0.17,0.57c0,0.24,0.07,0.44,0.23,0.6c0.15,0.16,0.35,0.31,0.59,0.44
		c0.24,0.13,0.51,0.25,0.8,0.38c0.29,0.13,0.59,0.28,0.88,0.44c0.3,0.17,0.57,0.37,0.82,0.61c0.25,0.24,0.45,0.53,0.59,0.88
		c0.15,0.35,0.22,0.78,0.22,1.29c0,0.65-0.13,1.19-0.4,1.63c-0.27,0.44-0.63,0.77-1.09,1C599.31,163.26,598.79,163.37,598.2,163.37z
		"/>
</g>
</svg>
